<svg width="36" height="36" viewBox="0 0 36 36" fill="none" xmlns="http://www.w3.org/2000/svg">
<path d="M17.5581 35.1161C14.0854 35.1161 10.6907 34.0864 7.80333 32.1571C4.91593 30.2278 2.66546 27.4856 1.33654 24.2773C0.00760761 21.0689 -0.340101 17.5386 0.337381 14.1327C1.01486 10.7267 2.68711 7.59819 5.14265 5.14265C7.59819 2.68711 10.7267 1.01486 14.1327 0.337381C17.5386 -0.340101 21.0689 0.00760761 24.2773 1.33654C27.4856 2.66546 30.2278 4.91593 32.1571 7.80333C34.0864 10.6907 35.1161 14.0854 35.1161 17.5581C35.1161 22.2148 33.2663 26.6807 29.9735 29.9735C26.6807 33.2663 22.2148 35.1161 17.5581 35.1161ZM17.5581 2.19477C14.5195 2.19477 11.5492 3.09581 9.02268 4.78395C6.49619 6.47209 4.52704 8.87151 3.36423 11.6788C2.20142 14.4861 1.89717 17.5751 2.48997 20.5553C3.08276 23.5355 4.54598 26.273 6.69457 28.4216C8.84317 30.5702 11.5807 32.0334 14.5608 32.6262C17.541 33.219 20.6301 32.9147 23.4374 31.7519C26.2446 30.5891 28.6441 28.62 30.3322 26.0935C32.0203 23.567 32.9214 20.5966 32.9214 17.5581C32.9214 13.4835 31.3027 9.57575 28.4216 6.69457C25.5404 3.81339 21.6327 2.19477 17.5581 2.19477Z" fill="#8C8C8C"/>
<path d="M17.2621 26.955L11.2228 22.6253C10.8757 22.3767 10.7964 21.8932 11.0448 21.5463C11.2934 21.1993 11.7769 21.1194 12.1239 21.3685L17.7127 25.375L20.478 23.3926L23.3015 21.3685C23.6485 21.1194 24.1321 21.1993 24.3806 21.5463C24.629 21.8932 24.5498 22.3767 24.2027 22.6253C24.2027 22.6253 24.2027 22.6253 24.2027 22.6253L18.1634 26.955H17.2621ZM17.2621 26.955C17.2621 26.955 17.2621 26.955 17.2622 26.955L17.2621 26.955ZM11.2227 18.6942L11.2228 18.6942L17.2622 23.0239L17.2622 23.0239C17.5313 23.2167 17.8942 23.2167 18.1633 23.0239L18.1633 23.0239L24.2027 18.6942L24.2028 18.6942C24.5497 18.4452 24.6291 17.9622 24.3806 17.6152C24.1321 17.2682 23.6486 17.1883 23.3016 17.4373C23.3016 17.4373 23.3016 17.4373 23.3015 17.4374L17.7127 21.4438L12.1239 17.4374C12.1239 17.4373 12.1239 17.4373 12.1239 17.4373C11.7769 17.1883 11.2934 17.2682 11.0448 17.6152C10.7964 17.9622 10.8758 18.4452 11.2227 18.6942ZM24.2027 14.7631L24.2028 14.763C24.4037 14.6188 24.5239 14.3873 24.5255 14.1397C24.527 13.8924 24.4105 13.6594 24.2115 13.5124L18.1721 9.05119L18.172 9.05116C17.8988 8.84961 17.5266 8.84961 17.2534 9.05116L17.2534 9.05119L11.214 13.5124C11.015 13.6594 10.8985 13.8924 10.9 14.1397C10.9016 14.3873 11.0218 14.6188 11.2227 14.763L11.2228 14.7631L14.2425 16.9279L17.2622 19.0928L17.2622 19.0928C17.5313 19.2856 17.8942 19.2856 18.1633 19.0928L18.1633 19.0928L24.2027 14.7631ZM17.7127 10.6348L22.4381 14.1249L17.7127 17.5127L12.9874 14.1249L17.7127 10.6348Z" fill="#8C8C8C" stroke="#8C8C8C" stroke-width="0.2"/>
</svg>
