<svg width="42" height="42" viewBox="0 0 42 42" fill="none" xmlns="http://www.w3.org/2000/svg">
<path d="M21.2261 0.967229L20.9994 0.906506L20.7728 0.967229L19.5736 1.28855L19.8003 2.13431L17.4019 2.77695L17.1753 1.93119L14.7769 2.57383L15.0035 3.41959L12.6052 4.06223L12.3785 3.21647L11.1794 3.53779L10.9527 3.59852L10.7868 3.76441L9.90897 4.64228L10.5281 5.26142L8.77238 7.01714L8.15324 6.398L6.39752 8.15373L7.01665 8.77287L5.26093 10.5286L4.64179 9.90946L3.76393 10.7873L3.59803 10.9532L3.5373 11.1798L3.21598 12.379L4.06174 12.6056L3.4191 15.004L2.57334 14.7774L1.9307 17.1758L2.77646 17.4024L2.13382 19.8008L1.28806 19.5741L0.96674 20.7733L0.906018 20.9999L0.96674 21.2266L1.28806 22.4257L2.13382 22.1991L2.77646 24.5975L1.9307 24.8241L2.57334 27.2225L3.4191 26.9959L4.06174 29.3942L3.21598 29.6208L3.5373 30.82L3.59803 31.0466L3.76393 31.2125L4.64179 32.0904L5.26093 31.4713L7.01665 33.227L6.39752 33.8461L8.15324 35.6019L8.77238 34.9827L10.5281 36.7385L9.90897 37.3576L10.7868 38.2355L10.9527 38.4014L11.1794 38.4621L12.3785 38.7834L12.6052 37.9376L15.0035 38.5803L14.7769 39.426L17.1753 40.0687L17.4019 39.2229L19.8003 39.8656L19.5736 40.7113L20.7728 41.0326L20.9994 41.0934L21.2261 41.0326L22.4253 40.7113L22.1986 39.8656L24.597 39.2229L24.8236 40.0687L27.222 39.426L26.9954 38.5803L29.3937 37.9376L29.6204 38.7834L30.8195 38.4621L31.0462 38.4014L31.2121 38.2355L32.0899 37.3576L31.4708 36.7385L33.2265 34.9827L33.8456 35.6019L35.6014 33.8461L34.9822 33.227L36.738 31.4713L37.3571 32.0904L38.235 31.2125L38.4009 31.0466L38.4616 30.82L38.7829 29.6208L37.9371 29.3942L38.5798 26.9959L39.4256 27.2225L40.0682 24.8241L39.2224 24.5975L39.8651 22.1991L40.7108 22.4257L41.0322 21.2266L41.0929 20.9999L41.0322 20.7733L40.7108 19.5741L39.8651 19.8008L39.2224 17.4024L40.0682 17.1758L39.4256 14.7774L38.5798 15.004L37.9371 12.6056L38.7829 12.379L38.4616 11.1798L38.4009 10.9532L38.235 10.7873L37.3571 9.90946L36.738 10.5286L34.9822 8.77287L35.6014 8.15373L33.8456 6.398L33.2265 7.01714L31.4708 5.26142L32.0899 4.64228L31.2121 3.76441L31.0462 3.59852L30.8195 3.53779L29.6204 3.21647L29.3937 4.06223L26.9954 3.41959L27.222 2.57383L24.8236 1.93119L24.597 2.77695L22.1986 2.13431L22.4253 1.28855L21.2261 0.967229Z" fill="black" fill-opacity="0.1"/>
<path d="M21.2261 0.967229L20.9994 0.906506L20.7728 0.967229L19.5736 1.28855L19.8003 2.13431L17.4019 2.77695L17.1753 1.93119L14.7769 2.57383L15.0035 3.41959L12.6052 4.06223L12.3785 3.21647L11.1794 3.53779L10.9527 3.59852L10.7868 3.76441L9.90897 4.64228L10.5281 5.26142L8.77238 7.01714L8.15324 6.398L6.39752 8.15373L7.01665 8.77287L5.26093 10.5286L4.64179 9.90946L3.76393 10.7873L3.59803 10.9532L3.5373 11.1798L3.21598 12.379L4.06174 12.6056L3.4191 15.004L2.57334 14.7774L1.9307 17.1758L2.77646 17.4024L2.13382 19.8008L1.28806 19.5741L0.96674 20.7733L0.906018 20.9999L0.96674 21.2266L1.28806 22.4257L2.13382 22.1991L2.77646 24.5975L1.9307 24.8241L2.57334 27.2225L3.4191 26.9959L4.06174 29.3942L3.21598 29.6208L3.5373 30.82L3.59803 31.0466L3.76393 31.2125L4.64179 32.0904L5.26093 31.4713L7.01665 33.227L6.39752 33.8461L8.15324 35.6019L8.77238 34.9827L10.5281 36.7385L9.90897 37.3576L10.7868 38.2355L10.9527 38.4014L11.1794 38.4621L12.3785 38.7834L12.6052 37.9376L15.0035 38.5803L14.7769 39.426L17.1753 40.0687L17.4019 39.2229L19.8003 39.8656L19.5736 40.7113L20.7728 41.0326L20.9994 41.0934L21.2261 41.0326L22.4253 40.7113L22.1986 39.8656L24.597 39.2229L24.8236 40.0687L27.222 39.426L26.9954 38.5803L29.3937 37.9376L29.6204 38.7834L30.8195 38.4621L31.0462 38.4014L31.2121 38.2355L32.0899 37.3576L31.4708 36.7385L33.2265 34.9827L33.8456 35.6019L35.6014 33.8461L34.9822 33.227L36.738 31.4713L37.3571 32.0904L38.235 31.2125L38.4009 31.0466L38.4616 30.82L38.7829 29.6208L37.9371 29.3942L38.5798 26.9959L39.4256 27.2225L40.0682 24.8241L39.2224 24.5975L39.8651 22.1991L40.7108 22.4257L41.0322 21.2266L41.0929 20.9999L41.0322 20.7733L40.7108 19.5741L39.8651 19.8008L39.2224 17.4024L40.0682 17.1758L39.4256 14.7774L38.5798 15.004L37.9371 12.6056L38.7829 12.379L38.4616 11.1798L38.4009 10.9532L38.235 10.7873L37.3571 9.90946L36.738 10.5286L34.9822 8.77287L35.6014 8.15373L33.8456 6.398L33.2265 7.01714L31.4708 5.26142L32.0899 4.64228L31.2121 3.76441L31.0462 3.59852L30.8195 3.53779L29.6204 3.21647L29.3937 4.06223L26.9954 3.41959L27.222 2.57383L24.8236 1.93119L24.597 2.77695L22.1986 2.13431L22.4253 1.28855L21.2261 0.967229Z" fill="url(#paint0_linear_876_4220)" fill-opacity="0.1"/>
<path d="M21.2261 0.967229L20.9994 0.906506L20.7728 0.967229L19.5736 1.28855L19.8003 2.13431L17.4019 2.77695L17.1753 1.93119L14.7769 2.57383L15.0035 3.41959L12.6052 4.06223L12.3785 3.21647L11.1794 3.53779L10.9527 3.59852L10.7868 3.76441L9.90897 4.64228L10.5281 5.26142L8.77238 7.01714L8.15324 6.398L6.39752 8.15373L7.01665 8.77287L5.26093 10.5286L4.64179 9.90946L3.76393 10.7873L3.59803 10.9532L3.5373 11.1798L3.21598 12.379L4.06174 12.6056L3.4191 15.004L2.57334 14.7774L1.9307 17.1758L2.77646 17.4024L2.13382 19.8008L1.28806 19.5741L0.96674 20.7733L0.906018 20.9999L0.96674 21.2266L1.28806 22.4257L2.13382 22.1991L2.77646 24.5975L1.9307 24.8241L2.57334 27.2225L3.4191 26.9959L4.06174 29.3942L3.21598 29.6208L3.5373 30.82L3.59803 31.0466L3.76393 31.2125L4.64179 32.0904L5.26093 31.4713L7.01665 33.227L6.39752 33.8461L8.15324 35.6019L8.77238 34.9827L10.5281 36.7385L9.90897 37.3576L10.7868 38.2355L10.9527 38.4014L11.1794 38.4621L12.3785 38.7834L12.6052 37.9376L15.0035 38.5803L14.7769 39.426L17.1753 40.0687L17.4019 39.2229L19.8003 39.8656L19.5736 40.7113L20.7728 41.0326L20.9994 41.0934L21.2261 41.0326L22.4253 40.7113L22.1986 39.8656L24.597 39.2229L24.8236 40.0687L27.222 39.426L26.9954 38.5803L29.3937 37.9376L29.6204 38.7834L30.8195 38.4621L31.0462 38.4014L31.2121 38.2355L32.0899 37.3576L31.4708 36.7385L33.2265 34.9827L33.8456 35.6019L35.6014 33.8461L34.9822 33.227L36.738 31.4713L37.3571 32.0904L38.235 31.2125L38.4009 31.0466L38.4616 30.82L38.7829 29.6208L37.9371 29.3942L38.5798 26.9959L39.4256 27.2225L40.0682 24.8241L39.2224 24.5975L39.8651 22.1991L40.7108 22.4257L41.0322 21.2266L41.0929 20.9999L41.0322 20.7733L40.7108 19.5741L39.8651 19.8008L39.2224 17.4024L40.0682 17.1758L39.4256 14.7774L38.5798 15.004L37.9371 12.6056L38.7829 12.379L38.4616 11.1798L38.4009 10.9532L38.235 10.7873L37.3571 9.90946L36.738 10.5286L34.9822 8.77287L35.6014 8.15373L33.8456 6.398L33.2265 7.01714L31.4708 5.26142L32.0899 4.64228L31.2121 3.76441L31.0462 3.59852L30.8195 3.53779L29.6204 3.21647L29.3937 4.06223L26.9954 3.41959L27.222 2.57383L24.8236 1.93119L24.597 2.77695L22.1986 2.13431L22.4253 1.28855L21.2261 0.967229Z" fill="url(#paint1_radial_876_4220)" fill-opacity="0.05"/>
<path d="M21.2261 0.967229L20.9994 0.906506L20.7728 0.967229L19.5736 1.28855L19.8003 2.13431L17.4019 2.77695L17.1753 1.93119L14.7769 2.57383L15.0035 3.41959L12.6052 4.06223L12.3785 3.21647L11.1794 3.53779L10.9527 3.59852L10.7868 3.76441L9.90897 4.64228L10.5281 5.26142L8.77238 7.01714L8.15324 6.398L6.39752 8.15373L7.01665 8.77287L5.26093 10.5286L4.64179 9.90946L3.76393 10.7873L3.59803 10.9532L3.5373 11.1798L3.21598 12.379L4.06174 12.6056L3.4191 15.004L2.57334 14.7774L1.9307 17.1758L2.77646 17.4024L2.13382 19.8008L1.28806 19.5741L0.96674 20.7733L0.906018 20.9999L0.96674 21.2266L1.28806 22.4257L2.13382 22.1991L2.77646 24.5975L1.9307 24.8241L2.57334 27.2225L3.4191 26.9959L4.06174 29.3942L3.21598 29.6208L3.5373 30.82L3.59803 31.0466L3.76393 31.2125L4.64179 32.0904L5.26093 31.4713L7.01665 33.227L6.39752 33.8461L8.15324 35.6019L8.77238 34.9827L10.5281 36.7385L9.90897 37.3576L10.7868 38.2355L10.9527 38.4014L11.1794 38.4621L12.3785 38.7834L12.6052 37.9376L15.0035 38.5803L14.7769 39.426L17.1753 40.0687L17.4019 39.2229L19.8003 39.8656L19.5736 40.7113L20.7728 41.0326L20.9994 41.0934L21.2261 41.0326L22.4253 40.7113L22.1986 39.8656L24.597 39.2229L24.8236 40.0687L27.222 39.426L26.9954 38.5803L29.3937 37.9376L29.6204 38.7834L30.8195 38.4621L31.0462 38.4014L31.2121 38.2355L32.0899 37.3576L31.4708 36.7385L33.2265 34.9827L33.8456 35.6019L35.6014 33.8461L34.9822 33.227L36.738 31.4713L37.3571 32.0904L38.235 31.2125L38.4009 31.0466L38.4616 30.82L38.7829 29.6208L37.9371 29.3942L38.5798 26.9959L39.4256 27.2225L40.0682 24.8241L39.2224 24.5975L39.8651 22.1991L40.7108 22.4257L41.0322 21.2266L41.0929 20.9999L41.0322 20.7733L40.7108 19.5741L39.8651 19.8008L39.2224 17.4024L40.0682 17.1758L39.4256 14.7774L38.5798 15.004L37.9371 12.6056L38.7829 12.379L38.4616 11.1798L38.4009 10.9532L38.235 10.7873L37.3571 9.90946L36.738 10.5286L34.9822 8.77287L35.6014 8.15373L33.8456 6.398L33.2265 7.01714L31.4708 5.26142L32.0899 4.64228L31.2121 3.76441L31.0462 3.59852L30.8195 3.53779L29.6204 3.21647L29.3937 4.06223L26.9954 3.41959L27.222 2.57383L24.8236 1.93119L24.597 2.77695L22.1986 2.13431L22.4253 1.28855L21.2261 0.967229Z" fill="url(#paint2_radial_876_4220)" fill-opacity="0.05"/>
<path d="M21.2261 0.967229L20.9994 0.906506L20.7728 0.967229L19.5736 1.28855L19.8003 2.13431L17.4019 2.77695L17.1753 1.93119L14.7769 2.57383L15.0035 3.41959L12.6052 4.06223L12.3785 3.21647L11.1794 3.53779L10.9527 3.59852L10.7868 3.76441L9.90897 4.64228L10.5281 5.26142L8.77238 7.01714L8.15324 6.398L6.39752 8.15373L7.01665 8.77287L5.26093 10.5286L4.64179 9.90946L3.76393 10.7873L3.59803 10.9532L3.5373 11.1798L3.21598 12.379L4.06174 12.6056L3.4191 15.004L2.57334 14.7774L1.9307 17.1758L2.77646 17.4024L2.13382 19.8008L1.28806 19.5741L0.96674 20.7733L0.906018 20.9999L0.96674 21.2266L1.28806 22.4257L2.13382 22.1991L2.77646 24.5975L1.9307 24.8241L2.57334 27.2225L3.4191 26.9959L4.06174 29.3942L3.21598 29.6208L3.5373 30.82L3.59803 31.0466L3.76393 31.2125L4.64179 32.0904L5.26093 31.4713L7.01665 33.227L6.39752 33.8461L8.15324 35.6019L8.77238 34.9827L10.5281 36.7385L9.90897 37.3576L10.7868 38.2355L10.9527 38.4014L11.1794 38.4621L12.3785 38.7834L12.6052 37.9376L15.0035 38.5803L14.7769 39.426L17.1753 40.0687L17.4019 39.2229L19.8003 39.8656L19.5736 40.7113L20.7728 41.0326L20.9994 41.0934L21.2261 41.0326L22.4253 40.7113L22.1986 39.8656L24.597 39.2229L24.8236 40.0687L27.222 39.426L26.9954 38.5803L29.3937 37.9376L29.6204 38.7834L30.8195 38.4621L31.0462 38.4014L31.2121 38.2355L32.0899 37.3576L31.4708 36.7385L33.2265 34.9827L33.8456 35.6019L35.6014 33.8461L34.9822 33.227L36.738 31.4713L37.3571 32.0904L38.235 31.2125L38.4009 31.0466L38.4616 30.82L38.7829 29.6208L37.9371 29.3942L38.5798 26.9959L39.4256 27.2225L40.0682 24.8241L39.2224 24.5975L39.8651 22.1991L40.7108 22.4257L41.0322 21.2266L41.0929 20.9999L41.0322 20.7733L40.7108 19.5741L39.8651 19.8008L39.2224 17.4024L40.0682 17.1758L39.4256 14.7774L38.5798 15.004L37.9371 12.6056L38.7829 12.379L38.4616 11.1798L38.4009 10.9532L38.235 10.7873L37.3571 9.90946L36.738 10.5286L34.9822 8.77287L35.6014 8.15373L33.8456 6.398L33.2265 7.01714L31.4708 5.26142L32.0899 4.64228L31.2121 3.76441L31.0462 3.59852L30.8195 3.53779L29.6204 3.21647L29.3937 4.06223L26.9954 3.41959L27.222 2.57383L24.8236 1.93119L24.597 2.77695L22.1986 2.13431L22.4253 1.28855L21.2261 0.967229Z" fill="url(#paint3_radial_876_4220)" fill-opacity="0.05"/>
<path d="M21.2261 0.967229L20.9994 0.906506L20.7728 0.967229L19.5736 1.28855L19.8003 2.13431L17.4019 2.77695L17.1753 1.93119L14.7769 2.57383L15.0035 3.41959L12.6052 4.06223L12.3785 3.21647L11.1794 3.53779L10.9527 3.59852L10.7868 3.76441L9.90897 4.64228L10.5281 5.26142L8.77238 7.01714L8.15324 6.398L6.39752 8.15373L7.01665 8.77287L5.26093 10.5286L4.64179 9.90946L3.76393 10.7873L3.59803 10.9532L3.5373 11.1798L3.21598 12.379L4.06174 12.6056L3.4191 15.004L2.57334 14.7774L1.9307 17.1758L2.77646 17.4024L2.13382 19.8008L1.28806 19.5741L0.96674 20.7733L0.906018 20.9999L0.96674 21.2266L1.28806 22.4257L2.13382 22.1991L2.77646 24.5975L1.9307 24.8241L2.57334 27.2225L3.4191 26.9959L4.06174 29.3942L3.21598 29.6208L3.5373 30.82L3.59803 31.0466L3.76393 31.2125L4.64179 32.0904L5.26093 31.4713L7.01665 33.227L6.39752 33.8461L8.15324 35.6019L8.77238 34.9827L10.5281 36.7385L9.90897 37.3576L10.7868 38.2355L10.9527 38.4014L11.1794 38.4621L12.3785 38.7834L12.6052 37.9376L15.0035 38.5803L14.7769 39.426L17.1753 40.0687L17.4019 39.2229L19.8003 39.8656L19.5736 40.7113L20.7728 41.0326L20.9994 41.0934L21.2261 41.0326L22.4253 40.7113L22.1986 39.8656L24.597 39.2229L24.8236 40.0687L27.222 39.426L26.9954 38.5803L29.3937 37.9376L29.6204 38.7834L30.8195 38.4621L31.0462 38.4014L31.2121 38.2355L32.0899 37.3576L31.4708 36.7385L33.2265 34.9827L33.8456 35.6019L35.6014 33.8461L34.9822 33.227L36.738 31.4713L37.3571 32.0904L38.235 31.2125L38.4009 31.0466L38.4616 30.82L38.7829 29.6208L37.9371 29.3942L38.5798 26.9959L39.4256 27.2225L40.0682 24.8241L39.2224 24.5975L39.8651 22.1991L40.7108 22.4257L41.0322 21.2266L41.0929 20.9999L41.0322 20.7733L40.7108 19.5741L39.8651 19.8008L39.2224 17.4024L40.0682 17.1758L39.4256 14.7774L38.5798 15.004L37.9371 12.6056L38.7829 12.379L38.4616 11.1798L38.4009 10.9532L38.235 10.7873L37.3571 9.90946L36.738 10.5286L34.9822 8.77287L35.6014 8.15373L33.8456 6.398L33.2265 7.01714L31.4708 5.26142L32.0899 4.64228L31.2121 3.76441L31.0462 3.59852L30.8195 3.53779L29.6204 3.21647L29.3937 4.06223L26.9954 3.41959L27.222 2.57383L24.8236 1.93119L24.597 2.77695L22.1986 2.13431L22.4253 1.28855L21.2261 0.967229Z" stroke="white" stroke-width="1.75119" stroke-dasharray="2.28 2.28"/>
<path d="M20.9994 1.81299L30.5929 4.38355L37.6158 11.4065L40.1864 20.9999L37.6158 30.5934L30.5929 37.6163L20.9994 40.1869L11.406 37.6163L4.38306 30.5934L1.8125 20.9999L4.38306 11.4065L11.406 4.38355L20.9994 1.81299Z" fill="black" fill-opacity="0.1"/>
<path d="M20.9994 1.81299L30.5929 4.38355L37.6158 11.4065L40.1864 20.9999L37.6158 30.5934L30.5929 37.6163L20.9994 40.1869L11.406 37.6163L4.38306 30.5934L1.8125 20.9999L4.38306 11.4065L11.406 4.38355L20.9994 1.81299Z" fill="url(#paint4_linear_876_4220)" fill-opacity="0.1"/>
<path d="M20.9994 1.81299L30.5929 4.38355L37.6158 11.4065L40.1864 20.9999L37.6158 30.5934L30.5929 37.6163L20.9994 40.1869L11.406 37.6163L4.38306 30.5934L1.8125 20.9999L4.38306 11.4065L11.406 4.38355L20.9994 1.81299Z" fill="url(#paint5_radial_876_4220)" fill-opacity="0.05"/>
<path d="M20.9994 1.81299L30.5929 4.38355L37.6158 11.4065L40.1864 20.9999L37.6158 30.5934L30.5929 37.6163L20.9994 40.1869L11.406 37.6163L4.38306 30.5934L1.8125 20.9999L4.38306 11.4065L11.406 4.38355L20.9994 1.81299Z" fill="url(#paint6_radial_876_4220)" fill-opacity="0.05"/>
<path d="M20.9994 1.81299L30.5929 4.38355L37.6158 11.4065L40.1864 20.9999L37.6158 30.5934L30.5929 37.6163L20.9994 40.1869L11.406 37.6163L4.38306 30.5934L1.8125 20.9999L4.38306 11.4065L11.406 4.38355L20.9994 1.81299Z" fill="url(#paint7_radial_876_4220)" fill-opacity="0.05"/>
<path fill-rule="evenodd" clip-rule="evenodd" d="M20.9999 1.81296V0L10.5 2.81346L2.81346 10.5L0 20.9999L2.81346 31.4999L10.5 39.1864L20.9999 41.9998L31.4999 39.1864L30.5934 37.6163L20.9999 40.1869L11.4064 37.6163L4.38353 30.5934L1.81296 20.9999L4.38353 11.4064L11.4064 4.38353L20.9999 1.81296Z" fill="white"/>
<path d="M21 9.99988V23.9999L30 29.4999" stroke="white" stroke-width="3"/>
<defs>
<linearGradient id="paint0_linear_876_4220" x1="20.9994" y1="1.81299" x2="20.9994" y2="40.1869" gradientUnits="userSpaceOnUse">
<stop stop-color="#88EAFF"/>
<stop offset="1" stop-color="#858DF7" stop-opacity="0.56"/>
<stop offset="1" stop-color="#858DF7"/>
</linearGradient>
<radialGradient id="paint1_radial_876_4220" cx="0" cy="0" r="1" gradientUnits="userSpaceOnUse" gradientTransform="translate(5.09617 -1.19018) rotate(68.8981) scale(26.4676 46.0738)">
<stop stop-color="#67D4F8" stop-opacity="0.5"/>
<stop offset="1" stop-color="#8E77F7" stop-opacity="0.5"/>
</radialGradient>
<radialGradient id="paint2_radial_876_4220" cx="0" cy="0" r="1" gradientUnits="userSpaceOnUse" gradientTransform="translate(39.7357 1.81298) rotate(111.856) scale(22.83 40.9112)">
<stop stop-color="#67D4F8" stop-opacity="0.5"/>
<stop offset="1" stop-color="#8E77F7" stop-opacity="0.5"/>
</radialGradient>
<radialGradient id="paint3_radial_876_4220" cx="0" cy="0" r="1" gradientUnits="userSpaceOnUse" gradientTransform="translate(21.6433 51.8659) rotate(-94.1386) scale(21.4117 22.049)">
<stop stop-color="#67D4F8" stop-opacity="0.5"/>
<stop offset="1" stop-color="#8E77F7" stop-opacity="0.5"/>
</radialGradient>
<linearGradient id="paint4_linear_876_4220" x1="20.9994" y1="1.81299" x2="20.9994" y2="40.1869" gradientUnits="userSpaceOnUse">
<stop stop-color="#88EAFF"/>
<stop offset="1" stop-color="#858DF7" stop-opacity="0.56"/>
<stop offset="1" stop-color="#858DF7"/>
</linearGradient>
<radialGradient id="paint5_radial_876_4220" cx="0" cy="0" r="1" gradientUnits="userSpaceOnUse" gradientTransform="translate(5.09617 -1.19018) rotate(68.8981) scale(26.4676 46.0738)">
<stop stop-color="#67D4F8" stop-opacity="0.5"/>
<stop offset="1" stop-color="#8E77F7" stop-opacity="0.5"/>
</radialGradient>
<radialGradient id="paint6_radial_876_4220" cx="0" cy="0" r="1" gradientUnits="userSpaceOnUse" gradientTransform="translate(39.7357 1.81298) rotate(111.856) scale(22.83 40.9112)">
<stop stop-color="#67D4F8" stop-opacity="0.5"/>
<stop offset="1" stop-color="#8E77F7" stop-opacity="0.5"/>
</radialGradient>
<radialGradient id="paint7_radial_876_4220" cx="0" cy="0" r="1" gradientUnits="userSpaceOnUse" gradientTransform="translate(21.6433 51.8659) rotate(-94.1386) scale(21.4117 22.049)">
<stop stop-color="#67D4F8" stop-opacity="0.5"/>
<stop offset="1" stop-color="#8E77F7" stop-opacity="0.5"/>
</radialGradient>
</defs>
</svg>
