<svg width="36" height="36" viewBox="0 0 36 36" fill="none" xmlns="http://www.w3.org/2000/svg">
<g clip-path="url(#clip0_6446_59563)">
<path d="M18.9904 2.23353C18.6143 2.20576 18.2373 2.19185 17.8601 2.19183V-0.00292969C18.2915 -0.00271937 18.7227 0.0133865 19.1528 0.045355L18.9904 2.23353ZM23.3887 3.22117C22.6852 2.94969 21.9626 2.73035 21.2269 2.56494L21.7075 0.422853C22.5481 0.611603 23.3755 0.861805 24.1788 1.17346L23.3887 3.22117ZM26.3955 4.77945C26.0817 4.57018 25.7603 4.37252 25.432 4.18686L26.514 2.27742C27.2644 2.70263 27.9826 3.18237 28.6627 3.7128L27.3129 5.44446C27.0154 5.21232 26.7094 4.99123 26.3955 4.78164V4.77945ZM30.4207 8.70807C29.9866 8.09129 29.5076 7.50736 28.9875 6.96104L30.5765 5.44666C31.1691 6.07216 31.7178 6.74156 32.216 7.44389L30.4207 8.70807ZM32.0536 11.6754C31.9096 11.3274 31.7529 10.9848 31.5839 10.6482L33.5439 9.66059C33.9314 10.4311 34.2616 11.2293 34.5315 12.0485L32.4465 12.7354C32.3285 12.3774 32.1975 12.0238 32.0536 11.6754ZM33.2168 17.1776C33.1991 16.4234 33.1257 15.6715 32.9974 14.928L35.1592 14.5549C35.3062 15.4021 35.3918 16.2624 35.4138 17.1228L33.219 17.1776H33.2168ZM32.9293 20.5532C33.0017 20.1801 33.061 19.8092 33.1071 19.4339L35.2865 19.7038C35.1811 20.5601 35.0124 21.4074 34.7817 22.2388L32.666 21.6528C32.7669 21.2906 32.8547 20.9241 32.9293 20.5532ZM30.8399 25.7745C31.2437 25.138 31.5993 24.4708 31.9066 23.7817L33.9126 24.6705C33.5614 25.4607 33.1554 26.22 32.6945 26.9487L30.8399 25.7745ZM28.7242 28.4192C28.9919 28.1514 29.2487 27.8749 29.4923 27.5896L31.156 29.0228C30.8742 29.3494 30.5807 29.6657 30.2759 29.9709L28.7242 28.4192Z" fill="#67D4F8"/>
<path d="M18.9904 2.23353C18.6143 2.20576 18.2373 2.19185 17.8601 2.19183V-0.00292969C18.2915 -0.00271937 18.7227 0.0133865 19.1528 0.045355L18.9904 2.23353ZM23.3887 3.22117C22.6852 2.94969 21.9626 2.73035 21.2269 2.56494L21.7075 0.422853C22.5481 0.611603 23.3755 0.861805 24.1788 1.17346L23.3887 3.22117ZM26.3955 4.77945C26.0817 4.57018 25.7603 4.37252 25.432 4.18686L26.514 2.27742C27.2644 2.70263 27.9826 3.18237 28.6627 3.7128L27.3129 5.44446C27.0154 5.21232 26.7094 4.99123 26.3955 4.78164V4.77945ZM30.4207 8.70807C29.9866 8.09129 29.5076 7.50736 28.9875 6.96104L30.5765 5.44666C31.1691 6.07216 31.7178 6.74156 32.216 7.44389L30.4207 8.70807ZM32.0536 11.6754C31.9096 11.3274 31.7529 10.9848 31.5839 10.6482L33.5439 9.66059C33.9314 10.4311 34.2616 11.2293 34.5315 12.0485L32.4465 12.7354C32.3285 12.3774 32.1975 12.0238 32.0536 11.6754ZM33.2168 17.1776C33.1991 16.4234 33.1257 15.6715 32.9974 14.928L35.1592 14.5549C35.3062 15.4021 35.3918 16.2624 35.4138 17.1228L33.219 17.1776H33.2168ZM32.9293 20.5532C33.0017 20.1801 33.061 19.8092 33.1071 19.4339L35.2865 19.7038C35.1811 20.5601 35.0124 21.4074 34.7817 22.2388L32.666 21.6528C32.7669 21.2906 32.8547 20.9241 32.9293 20.5532ZM30.8399 25.7745C31.2437 25.138 31.5993 24.4708 31.9066 23.7817L33.9126 24.6705C33.5614 25.4607 33.1554 26.22 32.6945 26.9487L30.8399 25.7745ZM28.7242 28.4192C28.9919 28.1514 29.2487 27.8749 29.4923 27.5896L31.156 29.0228C30.8742 29.3494 30.5807 29.6657 30.2759 29.9709L28.7242 28.4192Z" fill="url(#paint0_linear_6446_59563)"/>
<path d="M17.8608 2.19183C15.3344 2.19201 12.847 2.81524 10.6189 4.00632C8.3909 5.1974 6.49098 6.91956 5.08745 9.02027C3.68393 11.121 2.82013 13.5354 2.57256 16.0497C2.32499 18.5639 2.7013 21.1005 3.66815 23.4346C4.63499 25.7687 6.16254 27.8283 8.11549 29.4311C10.0684 31.0339 12.3865 32.1303 14.8644 32.6232C17.3423 33.1161 19.9035 32.9904 22.3211 32.2571C24.7388 31.5238 26.9383 30.2056 28.7249 28.4192L30.2766 29.9709C28.2349 32.0137 25.7208 33.5214 22.9571 34.3604C20.1935 35.1994 17.2655 35.3437 14.4327 34.7807C11.6 34.2176 8.94979 32.9645 6.71704 31.1324C4.4843 29.3003 2.73792 26.9458 1.63263 24.2774C0.527352 21.6091 0.097295 18.7093 0.380568 15.835C0.66384 12.9608 1.6517 10.2007 3.25661 7.79948C4.86152 5.39823 7.03394 3.42992 9.58138 2.06893C12.1288 0.707942 14.9726 -0.00369507 17.8608 -0.00292907V2.19183Z" fill="#67D4F8"/>
<path d="M17.8608 2.19183C15.3344 2.19201 12.847 2.81524 10.6189 4.00632C8.3909 5.1974 6.49098 6.91956 5.08745 9.02027C3.68393 11.121 2.82013 13.5354 2.57256 16.0497C2.32499 18.5639 2.7013 21.1005 3.66815 23.4346C4.63499 25.7687 6.16254 27.8283 8.11549 29.4311C10.0684 31.0339 12.3865 32.1303 14.8644 32.6232C17.3423 33.1161 19.9035 32.9904 22.3211 32.2571C24.7388 31.5238 26.9383 30.2056 28.7249 28.4192L30.2766 29.9709C28.2349 32.0137 25.7208 33.5214 22.9571 34.3604C20.1935 35.1994 17.2655 35.3437 14.4327 34.7807C11.6 34.2176 8.94979 32.9645 6.71704 31.1324C4.4843 29.3003 2.73792 26.9458 1.63263 24.2774C0.527352 21.6091 0.097295 18.7093 0.380568 15.835C0.66384 12.9608 1.6517 10.2007 3.25661 7.79948C4.86152 5.39823 7.03394 3.42992 9.58138 2.06893C12.1288 0.707942 14.9726 -0.00369507 17.8608 -0.00292907V2.19183Z" fill="url(#paint1_linear_6446_59563)"/>
<path d="M16.7624 6.58203C17.0535 6.58203 17.3326 6.69765 17.5384 6.90345C17.7442 7.10924 17.8598 7.38837 17.8598 7.67941V19.1141L24.9884 23.1876C25.2337 23.3356 25.4115 23.5737 25.4836 23.851C25.5557 24.1283 25.5165 24.4229 25.3743 24.6717C25.2322 24.9205 24.9983 25.1038 24.7228 25.1824C24.4472 25.2611 24.1519 25.2289 23.8998 25.0926L16.2181 20.7031C16.0502 20.6072 15.9105 20.4685 15.8134 20.3013C15.7163 20.134 15.6651 19.944 15.665 19.7506V7.67941C15.665 7.38837 15.7807 7.10924 15.9865 6.90345C16.1923 6.69765 16.4714 6.58203 16.7624 6.58203Z" fill="#67D4F8"/>
<path d="M16.7624 6.58203C17.0535 6.58203 17.3326 6.69765 17.5384 6.90345C17.7442 7.10924 17.8598 7.38837 17.8598 7.67941V19.1141L24.9884 23.1876C25.2337 23.3356 25.4115 23.5737 25.4836 23.851C25.5557 24.1283 25.5165 24.4229 25.3743 24.6717C25.2322 24.9205 24.9983 25.1038 24.7228 25.1824C24.4472 25.2611 24.1519 25.2289 23.8998 25.0926L16.2181 20.7031C16.0502 20.6072 15.9105 20.4685 15.8134 20.3013C15.7163 20.134 15.6651 19.944 15.665 19.7506V7.67941C15.665 7.38837 15.7807 7.10924 15.9865 6.90345C16.1923 6.69765 16.4714 6.58203 16.7624 6.58203Z" fill="url(#paint2_linear_6446_59563)"/>
</g>
<defs>
<linearGradient id="paint0_linear_6446_59563" x1="12.1872" y1="29.9709" x2="37.778" y2="29.9709" gradientUnits="userSpaceOnUse">
<stop stop-color="#8E77F7"/>
<stop offset="1" stop-color="#8E77F7" stop-opacity="0.05"/>
</linearGradient>
<linearGradient id="paint1_linear_6446_59563" x1="-9.39304" y1="35.1176" x2="34.3145" y2="35.1176" gradientUnits="userSpaceOnUse">
<stop stop-color="#8E77F7"/>
<stop offset="1" stop-color="#8E77F7" stop-opacity="0.05"/>
</linearGradient>
<linearGradient id="paint2_linear_6446_59563" x1="12.4805" y1="25.2246" x2="26.8461" y2="25.2246" gradientUnits="userSpaceOnUse">
<stop stop-color="#8E77F7"/>
<stop offset="1" stop-color="#8E77F7" stop-opacity="0.05"/>
</linearGradient>
<clipPath id="clip0_6446_59563">
<rect width="35.1161" height="35.1161" fill="white" transform="translate(0.301514)"/>
</clipPath>
</defs>
</svg>
