<svg width="36" height="36" viewBox="0 0 36 36" fill="none" xmlns="http://www.w3.org/2000/svg">
<g clip-path="url(#clip0_6446_59343)">
<path d="M18.9903 2.23353C18.6142 2.20576 18.2371 2.19185 17.86 2.19183V-0.00292969C18.2913 -0.00271937 18.7225 0.0133865 19.1527 0.045355L18.9903 2.23353ZM23.3886 3.22117C22.685 2.94969 21.9625 2.73035 21.2267 2.56494L21.7074 0.422853C22.548 0.611603 23.3754 0.861805 24.1787 1.17346L23.3886 3.22117ZM26.3954 4.77945C26.0816 4.57018 25.7602 4.37252 25.4319 4.18686L26.5139 2.27742C27.2643 2.70263 27.9825 3.18237 28.6626 3.7128L27.3128 5.44446C27.0153 5.21232 26.7092 4.99123 26.3954 4.78164V4.77945ZM30.4206 8.70807C29.9865 8.09129 29.5074 7.50736 28.9874 6.96104L30.5764 5.44666C31.169 6.07216 31.7177 6.74156 32.2159 7.44389L30.4206 8.70807ZM32.0535 11.6754C31.9094 11.3274 31.7528 10.9848 31.5838 10.6482L33.5437 9.66059C33.9313 10.4311 34.2614 11.2293 34.5314 12.0485L32.4464 12.7354C32.3284 12.3774 32.1974 12.0238 32.0535 11.6754ZM33.2167 17.1776C33.199 16.4234 33.1256 15.6715 32.9972 14.928L35.1591 14.5549C35.3061 15.4021 35.3917 16.2624 35.4137 17.1228L33.2189 17.1776H33.2167ZM32.9292 20.5532C33.0016 20.1801 33.0609 19.8092 33.107 19.4339L35.2864 19.7038C35.181 20.5601 35.0122 21.4074 34.7816 22.2388L32.6658 21.6528C32.7668 21.2906 32.8546 20.9241 32.9292 20.5532ZM30.8398 25.7745C31.2436 25.138 31.5992 24.4708 31.9064 23.7817L33.9125 24.6705C33.5613 25.4607 33.1553 26.22 32.6944 26.9487L30.8398 25.7745ZM28.724 28.4192C28.9918 28.1514 29.2486 27.8749 29.4922 27.5896L31.1558 29.0228C30.8741 29.3494 30.5805 29.6657 30.2757 29.9709L28.724 28.4192Z" fill="#8C8C8C"/>
<path d="M17.8607 2.19183C15.3343 2.19201 12.8469 2.81524 10.6188 4.00632C8.39078 5.1974 6.49085 6.91956 5.08733 9.02027C3.68381 11.121 2.82001 13.5354 2.57244 16.0497C2.32487 18.5639 2.70118 21.1005 3.66802 23.4346C4.63487 25.7687 6.16242 27.8283 8.11537 29.4311C10.0683 31.0339 12.3864 32.1303 14.8643 32.6232C17.3421 33.1161 19.9033 32.9904 22.321 32.2571C24.7387 31.5238 26.9382 30.2056 28.7248 28.4192L30.2764 29.9709C28.2347 32.0137 25.7207 33.5214 22.957 34.3604C20.1934 35.1994 17.2654 35.3437 14.4326 34.7807C11.5998 34.2176 8.94967 32.9645 6.71692 31.1324C4.48418 29.3003 2.73779 26.9458 1.63251 24.2774C0.52723 21.6091 0.0971729 18.7093 0.380446 15.835C0.663718 12.9608 1.65157 10.2007 3.25649 7.79948C4.8614 5.39823 7.03382 3.42992 9.58125 2.06893C12.1287 0.707942 14.9725 -0.00369507 17.8607 -0.00292907V2.19183Z" fill="#8C8C8C"/>
<path d="M16.7623 6.58203C17.0533 6.58203 17.3325 6.69765 17.5383 6.90345C17.7441 7.10924 17.8597 7.38837 17.8597 7.67941V19.1141L24.9883 23.1876C25.2336 23.3356 25.4113 23.5737 25.4835 23.851C25.5556 24.1283 25.5164 24.4229 25.3742 24.6717C25.232 24.9205 24.9982 25.1038 24.7227 25.1824C24.4471 25.2611 24.1517 25.2289 23.8997 25.0926L16.218 20.7031C16.05 20.6072 15.9104 20.4685 15.8133 20.3013C15.7162 20.134 15.665 19.944 15.6649 19.7506V7.67941C15.6649 7.38837 15.7805 7.10924 15.9863 6.90345C16.1921 6.69765 16.4713 6.58203 16.7623 6.58203Z" fill="#8C8C8C"/>
</g>
<defs>
<clipPath id="clip0_6446_59343">
<rect width="35.1161" height="35.1161" fill="white" transform="translate(0.301392)"/>
</clipPath>
</defs>
</svg>
