<svg width="42" height="42" viewBox="0 0 42 42" fill="none" xmlns="http://www.w3.org/2000/svg">
<path d="M20.9999 1.81299L30.5934 4.38355L37.6163 11.4065L40.1869 20.9999L37.6163 30.5934L30.5934 37.6163L20.9999 40.1869L11.4065 37.6163L4.38355 30.5934L1.81299 20.9999L4.38355 11.4065L11.4065 4.38355L20.9999 1.81299Z" fill="black" fill-opacity="0.1"/>
<path d="M20.9999 1.81299L30.5934 4.38355L37.6163 11.4065L40.1869 20.9999L37.6163 30.5934L30.5934 37.6163L20.9999 40.1869L11.4065 37.6163L4.38355 30.5934L1.81299 20.9999L4.38355 11.4065L11.4065 4.38355L20.9999 1.81299Z" fill="url(#paint0_linear_11713_136329)" fill-opacity="0.1"/>
<path d="M20.9999 1.81299L30.5934 4.38355L37.6163 11.4065L40.1869 20.9999L37.6163 30.5934L30.5934 37.6163L20.9999 40.1869L11.4065 37.6163L4.38355 30.5934L1.81299 20.9999L4.38355 11.4065L11.4065 4.38355L20.9999 1.81299Z" fill="url(#paint1_radial_11713_136329)" fill-opacity="0.05"/>
<path d="M20.9999 1.81299L30.5934 4.38355L37.6163 11.4065L40.1869 20.9999L37.6163 30.5934L30.5934 37.6163L20.9999 40.1869L11.4065 37.6163L4.38355 30.5934L1.81299 20.9999L4.38355 11.4065L11.4065 4.38355L20.9999 1.81299Z" fill="url(#paint2_radial_11713_136329)" fill-opacity="0.05"/>
<path d="M20.9999 1.81299L30.5934 4.38355L37.6163 11.4065L40.1869 20.9999L37.6163 30.5934L30.5934 37.6163L20.9999 40.1869L11.4065 37.6163L4.38355 30.5934L1.81299 20.9999L4.38355 11.4065L11.4065 4.38355L20.9999 1.81299Z" fill="url(#paint3_radial_11713_136329)" fill-opacity="0.05"/>
<path fill-rule="evenodd" clip-rule="evenodd" d="M22.1991 2.13429L20.9999 1.81296L19.8007 2.13429L19.3475 0.442766L20.9999 0L22.6523 0.442766L22.1991 2.13429ZM17.4024 2.77693L16.9491 1.08541L14.5507 1.72805L15.004 3.41957L17.4024 2.77693ZM12.6056 4.06221L12.1524 2.37069L10.5 2.81346L9.2903 4.02311L10.5286 5.26139L11.4064 4.38353L12.6056 4.06221ZM8.77285 7.01712L7.53457 5.77884L5.77884 7.53457L7.01712 8.77285L8.77285 7.01712ZM5.26139 10.5286L4.02311 9.2903L2.81346 10.5L2.37069 12.1524L4.06221 12.6056L4.38353 11.4064L5.26139 10.5286ZM3.41957 15.004L1.72805 14.5507L1.08541 16.9491L2.77693 17.4024L3.41957 15.004ZM2.13429 19.8007L0.442766 19.3475L0 20.9999L0.442766 22.6523L2.13429 22.1991L1.81296 20.9999L2.13429 19.8007ZM2.77693 24.5975L1.08541 25.0507L1.72805 27.4491L3.41957 26.9958L2.77693 24.5975ZM4.06221 29.3942L2.37069 29.8474L2.81346 31.4999L4.02311 32.7095L5.26139 31.4712L4.38353 30.5934L4.06221 29.3942ZM7.01712 33.227L5.77884 34.4653L7.53457 36.221L8.77285 34.9827L7.01712 33.227ZM10.5286 36.7384L9.2903 37.9767L10.5 39.1864L12.1524 39.6291L12.6056 37.9376L11.4064 37.6163L10.5286 36.7384ZM15.004 38.5803L14.5507 40.2718L16.9491 40.9144L17.4024 39.2229L15.004 38.5803ZM19.8007 39.8655L19.3475 41.5571L20.9999 41.9998L22.6523 41.5571L22.1991 39.8655L20.9999 40.1869L19.8007 39.8655ZM24.5975 39.2229L25.0507 40.9144L27.4491 40.2718L26.9958 38.5803L24.5975 39.2229ZM29.3942 37.9376L29.8474 39.6291L31.4999 39.1864L32.7095 37.9767L31.4712 36.7384L30.5934 37.6163L29.3942 37.9376ZM33.227 34.9827L34.4653 36.221L36.221 34.4653L34.9827 33.227L33.227 34.9827ZM36.7384 31.4712L37.9767 32.7095L39.1864 31.4999L39.6291 29.8474L37.9376 29.3942L37.6163 30.5934L36.7384 31.4712ZM38.5803 26.9958L40.2718 27.4491L40.9144 25.0507L39.2229 24.5975L38.5803 26.9958ZM39.8655 22.1991L41.5571 22.6523L41.9998 20.9999L41.5571 19.3475L39.8655 19.8007L40.1869 20.9999L39.8655 22.1991ZM39.2229 17.4024L40.9144 16.9491L40.2718 14.5507L38.5803 15.004L39.2229 17.4024ZM37.9376 12.6056L39.6291 12.1524L39.1864 10.5L37.9767 9.2903L36.7384 10.5286L37.6163 11.4064L37.9376 12.6056ZM34.9827 8.77285L36.221 7.53457L34.4653 5.77884L33.227 7.01712L34.9827 8.77285ZM31.4712 5.26139L32.7095 4.02311L31.4999 2.81346L29.8474 2.37069L29.3942 4.06221L30.5934 4.38353L31.4712 5.26139ZM26.9958 3.41957L27.4491 1.72805L25.0507 1.08541L24.5975 2.77693L26.9958 3.41957Z" fill="#67D4F8"/>
<path fill-rule="evenodd" clip-rule="evenodd" d="M22.1991 2.13429L20.9999 1.81296L19.8007 2.13429L19.3475 0.442766L20.9999 0L22.6523 0.442766L22.1991 2.13429ZM17.4024 2.77693L16.9491 1.08541L14.5507 1.72805L15.004 3.41957L17.4024 2.77693ZM12.6056 4.06221L12.1524 2.37069L10.5 2.81346L9.2903 4.02311L10.5286 5.26139L11.4064 4.38353L12.6056 4.06221ZM8.77285 7.01712L7.53457 5.77884L5.77884 7.53457L7.01712 8.77285L8.77285 7.01712ZM5.26139 10.5286L4.02311 9.2903L2.81346 10.5L2.37069 12.1524L4.06221 12.6056L4.38353 11.4064L5.26139 10.5286ZM3.41957 15.004L1.72805 14.5507L1.08541 16.9491L2.77693 17.4024L3.41957 15.004ZM2.13429 19.8007L0.442766 19.3475L0 20.9999L0.442766 22.6523L2.13429 22.1991L1.81296 20.9999L2.13429 19.8007ZM2.77693 24.5975L1.08541 25.0507L1.72805 27.4491L3.41957 26.9958L2.77693 24.5975ZM4.06221 29.3942L2.37069 29.8474L2.81346 31.4999L4.02311 32.7095L5.26139 31.4712L4.38353 30.5934L4.06221 29.3942ZM7.01712 33.227L5.77884 34.4653L7.53457 36.221L8.77285 34.9827L7.01712 33.227ZM10.5286 36.7384L9.2903 37.9767L10.5 39.1864L12.1524 39.6291L12.6056 37.9376L11.4064 37.6163L10.5286 36.7384ZM15.004 38.5803L14.5507 40.2718L16.9491 40.9144L17.4024 39.2229L15.004 38.5803ZM19.8007 39.8655L19.3475 41.5571L20.9999 41.9998L22.6523 41.5571L22.1991 39.8655L20.9999 40.1869L19.8007 39.8655ZM24.5975 39.2229L25.0507 40.9144L27.4491 40.2718L26.9958 38.5803L24.5975 39.2229ZM29.3942 37.9376L29.8474 39.6291L31.4999 39.1864L32.7095 37.9767L31.4712 36.7384L30.5934 37.6163L29.3942 37.9376ZM33.227 34.9827L34.4653 36.221L36.221 34.4653L34.9827 33.227L33.227 34.9827ZM36.7384 31.4712L37.9767 32.7095L39.1864 31.4999L39.6291 29.8474L37.9376 29.3942L37.6163 30.5934L36.7384 31.4712ZM38.5803 26.9958L40.2718 27.4491L40.9144 25.0507L39.2229 24.5975L38.5803 26.9958ZM39.8655 22.1991L41.5571 22.6523L41.9998 20.9999L41.5571 19.3475L39.8655 19.8007L40.1869 20.9999L39.8655 22.1991ZM39.2229 17.4024L40.9144 16.9491L40.2718 14.5507L38.5803 15.004L39.2229 17.4024ZM37.9376 12.6056L39.6291 12.1524L39.1864 10.5L37.9767 9.2903L36.7384 10.5286L37.6163 11.4064L37.9376 12.6056ZM34.9827 8.77285L36.221 7.53457L34.4653 5.77884L33.227 7.01712L34.9827 8.77285ZM31.4712 5.26139L32.7095 4.02311L31.4999 2.81346L29.8474 2.37069L29.3942 4.06221L30.5934 4.38353L31.4712 5.26139ZM26.9958 3.41957L27.4491 1.72805L25.0507 1.08541L24.5975 2.77693L26.9958 3.41957Z" fill="url(#paint4_linear_11713_136329)"/>
<path fill-rule="evenodd" clip-rule="evenodd" d="M20.9999 1.81296V0L10.5 2.81346L2.81346 10.5L0 20.9999L2.81346 31.4999L10.5 39.1864L20.9999 41.9998L31.4999 39.1864L30.5934 37.6163L20.9999 40.1869L11.4064 37.6163L4.38353 30.5934L1.81296 20.9999L4.38353 11.4064L11.4064 4.38353L20.9999 1.81296Z" fill="#67D4F8"/>
<path fill-rule="evenodd" clip-rule="evenodd" d="M20.9999 1.81296V0L10.5 2.81346L2.81346 10.5L0 20.9999L2.81346 31.4999L10.5 39.1864L20.9999 41.9998L31.4999 39.1864L30.5934 37.6163L20.9999 40.1869L11.4064 37.6163L4.38353 30.5934L1.81296 20.9999L4.38353 11.4064L11.4064 4.38353L20.9999 1.81296Z" fill="url(#paint5_linear_11713_136329)"/>
<path fill-rule="evenodd" clip-rule="evenodd" d="M19.5 10H22.5V23.1587L30.7822 28.2201L29.2178 30.7799L19.5 24.8413V10Z" fill="#67D4F8"/>
<path fill-rule="evenodd" clip-rule="evenodd" d="M19.5 10H22.5V23.1587L30.7822 28.2201L29.2178 30.7799L19.5 24.8413V10Z" fill="url(#paint6_linear_11713_136329)"/>
<defs>
<linearGradient id="paint0_linear_11713_136329" x1="20.9999" y1="1.81299" x2="20.9999" y2="40.1869" gradientUnits="userSpaceOnUse">
<stop stop-color="#88EAFF"/>
<stop offset="1" stop-color="#858DF7" stop-opacity="0.56"/>
<stop offset="1" stop-color="#858DF7"/>
</linearGradient>
<radialGradient id="paint1_radial_11713_136329" cx="0" cy="0" r="1" gradientUnits="userSpaceOnUse" gradientTransform="translate(5.09666 -1.19018) rotate(68.8981) scale(26.4676 46.0738)">
<stop stop-color="#67D4F8" stop-opacity="0.5"/>
<stop offset="1" stop-color="#8E77F7" stop-opacity="0.5"/>
</radialGradient>
<radialGradient id="paint2_radial_11713_136329" cx="0" cy="0" r="1" gradientUnits="userSpaceOnUse" gradientTransform="translate(39.7362 1.81298) rotate(111.856) scale(22.83 40.9112)">
<stop stop-color="#67D4F8" stop-opacity="0.5"/>
<stop offset="1" stop-color="#8E77F7" stop-opacity="0.5"/>
</radialGradient>
<radialGradient id="paint3_radial_11713_136329" cx="0" cy="0" r="1" gradientUnits="userSpaceOnUse" gradientTransform="translate(21.6438 51.8659) rotate(-94.1386) scale(21.4117 22.049)">
<stop stop-color="#67D4F8" stop-opacity="0.5"/>
<stop offset="1" stop-color="#8E77F7" stop-opacity="0.5"/>
</radialGradient>
<linearGradient id="paint4_linear_11713_136329" x1="-14.4239" y1="8.26226" x2="42.0805" y2="-28.8954" gradientUnits="userSpaceOnUse">
<stop stop-color="#A794FF" stop-opacity="0"/>
<stop offset="0.398438" stop-color="#A794FF" stop-opacity="0.93"/>
<stop offset="1" stop-color="#8E77F7" stop-opacity="0"/>
<stop offset="1" stop-color="#8E77F7" stop-opacity="0"/>
<stop offset="1" stop-color="#A794FF" stop-opacity="0"/>
</linearGradient>
<linearGradient id="paint5_linear_11713_136329" x1="-14.4239" y1="8.26226" x2="42.0805" y2="-28.8954" gradientUnits="userSpaceOnUse">
<stop stop-color="#A794FF" stop-opacity="0"/>
<stop offset="0.398438" stop-color="#A794FF" stop-opacity="0.93"/>
<stop offset="1" stop-color="#8E77F7" stop-opacity="0"/>
<stop offset="1" stop-color="#8E77F7" stop-opacity="0"/>
<stop offset="1" stop-color="#A794FF" stop-opacity="0"/>
</linearGradient>
<linearGradient id="paint6_linear_11713_136329" x1="15.6254" y1="14.0879" x2="34.9094" y2="7.2027" gradientUnits="userSpaceOnUse">
<stop stop-color="#A794FF" stop-opacity="0"/>
<stop offset="0.398438" stop-color="#A794FF" stop-opacity="0.93"/>
<stop offset="1" stop-color="#8E77F7" stop-opacity="0"/>
<stop offset="1" stop-color="#8E77F7" stop-opacity="0"/>
<stop offset="1" stop-color="#A794FF" stop-opacity="0"/>
</linearGradient>
</defs>
</svg>
