<svg width="36" height="36" viewBox="0 0 36 36" fill="none" xmlns="http://www.w3.org/2000/svg">
<g clip-path="url(#clip0_6446_59394)">
<path d="M17.5288 11.5574C18.283 11.5574 18.8945 10.946 18.8945 10.1918C18.8945 9.43758 18.283 8.82617 17.5288 8.82617C16.7746 8.82617 16.1632 9.43758 16.1632 10.1918C16.1632 10.946 16.7746 11.5574 17.5288 11.5574Z" fill="#8C8C8C"/>
<path d="M20.4845 24.3853H18.5336V13.7529H15.6073C15.3486 13.7529 15.1005 13.8557 14.9175 14.0386C14.7346 14.2216 14.6318 14.4697 14.6318 14.7284C14.6318 14.9871 14.7346 15.2352 14.9175 15.4181C15.1005 15.6011 15.3486 15.7038 15.6073 15.7038H16.5827V24.3853H14.6318C14.3731 24.3853 14.125 24.4881 13.9421 24.671C13.7591 24.8539 13.6564 25.1021 13.6564 25.3608C13.6564 25.6195 13.7591 25.8676 13.9421 26.0505C14.125 26.2334 14.3731 26.3362 14.6318 26.3362H20.4845C20.7432 26.3362 20.9913 26.2334 21.1743 26.0505C21.3572 25.8676 21.46 25.6195 21.46 25.3608C21.46 25.1021 21.3572 24.8539 21.1743 24.671C20.9913 24.4881 20.7432 24.3853 20.4845 24.3853Z" fill="#8C8C8C"/>
<path d="M17.5581 35.1161C14.0854 35.1161 10.6907 34.0864 7.80333 32.1571C4.91593 30.2278 2.66546 27.4856 1.33654 24.2773C0.00760761 21.0689 -0.340101 17.5386 0.337381 14.1327C1.01486 10.7267 2.68711 7.59819 5.14265 5.14265C7.59819 2.68711 10.7267 1.01486 14.1327 0.337381C17.5386 -0.340101 21.0689 0.00760761 24.2773 1.33654C27.4856 2.66546 30.2278 4.91593 32.1571 7.80333C34.0864 10.6907 35.1161 14.0854 35.1161 17.5581C35.1161 22.2148 33.2663 26.6807 29.9735 29.9735C26.6807 33.2663 22.2148 35.1161 17.5581 35.1161ZM17.5581 2.19477C14.5195 2.19477 11.5492 3.09581 9.02268 4.78395C6.49619 6.47209 4.52704 8.87151 3.36423 11.6788C2.20142 14.4861 1.89717 17.5751 2.48997 20.5553C3.08276 23.5355 4.54598 26.273 6.69457 28.4216C8.84317 30.5702 11.5807 32.0334 14.5608 32.6262C17.541 33.219 20.6301 32.9147 23.4374 31.7519C26.2446 30.5891 28.6441 28.62 30.3322 26.0935C32.0203 23.567 32.9214 20.5966 32.9214 17.5581C32.9214 13.4835 31.3027 9.57575 28.4216 6.69457C25.5404 3.81339 21.6327 2.19477 17.5581 2.19477Z" fill="#8C8C8C"/>
</g>
<defs>
<clipPath id="clip0_6446_59394">
<rect width="35.1161" height="35.1161" fill="white"/>
</clipPath>
</defs>
</svg>
