<svg width="42" height="42" viewBox="0 0 42 42" fill="none" xmlns="http://www.w3.org/2000/svg">
<path d="M21.2244 1.16248L21 1.10235L20.7756 1.16248L11.2756 3.708L11.0512 3.76813L10.8869 3.93241L3.93241 10.8869L3.76813 11.0512L3.708 11.2756L1.16248 20.7756L1.10235 21L1.16248 21.2244L3.708 30.7244L3.76813 30.9488L3.93241 31.1131L10.8869 38.0676L11.0512 38.2319L11.2756 38.292L20.7756 40.8375L21 40.8977L21.2244 40.8375L30.7244 38.292L30.9488 38.2319L31.1131 38.0676L38.0676 31.1131L38.2319 30.9488L38.292 30.7244L40.8375 21.2244L40.8977 21L40.8375 20.7756L38.292 11.2756L38.2319 11.0512L38.0676 10.8869L31.1131 3.93241L30.9488 3.76813L30.7244 3.708L21.2244 1.16248Z" fill="black" fill-opacity="0.1"/>
<path d="M21.2244 1.16248L21 1.10235L20.7756 1.16248L11.2756 3.708L11.0512 3.76813L10.8869 3.93241L3.93241 10.8869L3.76813 11.0512L3.708 11.2756L1.16248 20.7756L1.10235 21L1.16248 21.2244L3.708 30.7244L3.76813 30.9488L3.93241 31.1131L10.8869 38.0676L11.0512 38.2319L11.2756 38.292L20.7756 40.8375L21 40.8977L21.2244 40.8375L30.7244 38.292L30.9488 38.2319L31.1131 38.0676L38.0676 31.1131L38.2319 30.9488L38.292 30.7244L40.8375 21.2244L40.8977 21L40.8375 20.7756L38.292 11.2756L38.2319 11.0512L38.0676 10.8869L31.1131 3.93241L30.9488 3.76813L30.7244 3.708L21.2244 1.16248Z" fill="url(#paint0_linear_7210_37802)" fill-opacity="0.1"/>
<path d="M21.2244 1.16248L21 1.10235L20.7756 1.16248L11.2756 3.708L11.0512 3.76813L10.8869 3.93241L3.93241 10.8869L3.76813 11.0512L3.708 11.2756L1.16248 20.7756L1.10235 21L1.16248 21.2244L3.708 30.7244L3.76813 30.9488L3.93241 31.1131L10.8869 38.0676L11.0512 38.2319L11.2756 38.292L20.7756 40.8375L21 40.8977L21.2244 40.8375L30.7244 38.292L30.9488 38.2319L31.1131 38.0676L38.0676 31.1131L38.2319 30.9488L38.292 30.7244L40.8375 21.2244L40.8977 21L40.8375 20.7756L38.292 11.2756L38.2319 11.0512L38.0676 10.8869L31.1131 3.93241L30.9488 3.76813L30.7244 3.708L21.2244 1.16248Z" fill="url(#paint1_radial_7210_37802)" fill-opacity="0.05"/>
<path d="M21.2244 1.16248L21 1.10235L20.7756 1.16248L11.2756 3.708L11.0512 3.76813L10.8869 3.93241L3.93241 10.8869L3.76813 11.0512L3.708 11.2756L1.16248 20.7756L1.10235 21L1.16248 21.2244L3.708 30.7244L3.76813 30.9488L3.93241 31.1131L10.8869 38.0676L11.0512 38.2319L11.2756 38.292L20.7756 40.8375L21 40.8977L21.2244 40.8375L30.7244 38.292L30.9488 38.2319L31.1131 38.0676L38.0676 31.1131L38.2319 30.9488L38.292 30.7244L40.8375 21.2244L40.8977 21L40.8375 20.7756L38.292 11.2756L38.2319 11.0512L38.0676 10.8869L31.1131 3.93241L30.9488 3.76813L30.7244 3.708L21.2244 1.16248Z" fill="url(#paint2_radial_7210_37802)" fill-opacity="0.05"/>
<path d="M21.2244 1.16248L21 1.10235L20.7756 1.16248L11.2756 3.708L11.0512 3.76813L10.8869 3.93241L3.93241 10.8869L3.76813 11.0512L3.708 11.2756L1.16248 20.7756L1.10235 21L1.16248 21.2244L3.708 30.7244L3.76813 30.9488L3.93241 31.1131L10.8869 38.0676L11.0512 38.2319L11.2756 38.292L20.7756 40.8375L21 40.8977L21.2244 40.8375L30.7244 38.292L30.9488 38.2319L31.1131 38.0676L38.0676 31.1131L38.2319 30.9488L38.292 30.7244L40.8375 21.2244L40.8977 21L40.8375 20.7756L38.292 11.2756L38.2319 11.0512L38.0676 10.8869L31.1131 3.93241L30.9488 3.76813L30.7244 3.708L21.2244 1.16248Z" fill="url(#paint3_radial_7210_37802)" fill-opacity="0.05"/>
<path d="M21.2244 1.16248L21 1.10235L20.7756 1.16248L11.2756 3.708L11.0512 3.76813L10.8869 3.93241L3.93241 10.8869L3.76813 11.0512L3.708 11.2756L1.16248 20.7756L1.10235 21L1.16248 21.2244L3.708 30.7244L3.76813 30.9488L3.93241 31.1131L10.8869 38.0676L11.0512 38.2319L11.2756 38.292L20.7756 40.8375L21 40.8977L21.2244 40.8375L30.7244 38.292L30.9488 38.2319L31.1131 38.0676L38.0676 31.1131L38.2319 30.9488L38.292 30.7244L40.8375 21.2244L40.8977 21L40.8375 20.7756L38.292 11.2756L38.2319 11.0512L38.0676 10.8869L31.1131 3.93241L30.9488 3.76813L30.7244 3.708L21.2244 1.16248Z" stroke="white" stroke-width="1.73413"/>
<path d="M18 18H21V30H24" stroke="white" stroke-width="2.5"/>
<rect x="20.25" y="11.5" width="1.5" height="1.5" fill="white" stroke="white"/>
<defs>
<linearGradient id="paint0_linear_7210_37802" x1="21" y1="2" x2="21" y2="40" gradientUnits="userSpaceOnUse">
<stop stop-color="#88EAFF"/>
<stop offset="1" stop-color="#858DF7" stop-opacity="0.56"/>
<stop offset="1" stop-color="#858DF7"/>
</linearGradient>
<radialGradient id="paint1_radial_7210_37802" cx="0" cy="0" r="1" gradientUnits="userSpaceOnUse" gradientTransform="translate(5.25167 -0.973903) rotate(68.8981) scale(26.2098 45.6249)">
<stop stop-color="#67D4F8" stop-opacity="0.5"/>
<stop offset="1" stop-color="#8E77F7" stop-opacity="0.5"/>
</radialGradient>
<radialGradient id="paint2_radial_7210_37802" cx="0" cy="0" r="1" gradientUnits="userSpaceOnUse" gradientTransform="translate(39.5537 1.99999) rotate(111.856) scale(22.6075 40.5126)">
<stop stop-color="#67D4F8" stop-opacity="0.5"/>
<stop offset="1" stop-color="#8E77F7" stop-opacity="0.5"/>
</radialGradient>
<radialGradient id="paint3_radial_7210_37802" cx="0" cy="0" r="1" gradientUnits="userSpaceOnUse" gradientTransform="translate(21.6376 51.5652) rotate(-94.1386) scale(21.2031 21.8342)">
<stop stop-color="#67D4F8" stop-opacity="0.5"/>
<stop offset="1" stop-color="#8E77F7" stop-opacity="0.5"/>
</radialGradient>
</defs>
</svg>
