<svg width="42" height="42" viewBox="0 0 42 42" fill="none" xmlns="http://www.w3.org/2000/svg">
<path d="M21.2244 1.16248L21 1.10235L20.7756 1.16248L11.2756 3.708L11.0512 3.76813L10.8869 3.93241L3.93241 10.8869L3.76813 11.0512L3.708 11.2756L1.16248 20.7756L1.10235 21L1.16248 21.2244L3.708 30.7244L3.76813 30.9488L3.93241 31.1131L10.8869 38.0676L11.0512 38.2319L11.2756 38.292L20.7756 40.8375L21 40.8977L21.2244 40.8375L30.7244 38.292L30.9488 38.2319L31.1131 38.0676L38.0676 31.1131L38.2319 30.9488L38.292 30.7244L40.8375 21.2244L40.8977 21L40.8375 20.7756L38.292 11.2756L38.2319 11.0512L38.0676 10.8869L31.1131 3.93241L30.9488 3.76813L30.7244 3.708L21.2244 1.16248Z" fill="black" fill-opacity="0.1"/>
<path d="M21.2244 1.16248L21 1.10235L20.7756 1.16248L11.2756 3.708L11.0512 3.76813L10.8869 3.93241L3.93241 10.8869L3.76813 11.0512L3.708 11.2756L1.16248 20.7756L1.10235 21L1.16248 21.2244L3.708 30.7244L3.76813 30.9488L3.93241 31.1131L10.8869 38.0676L11.0512 38.2319L11.2756 38.292L20.7756 40.8375L21 40.8977L21.2244 40.8375L30.7244 38.292L30.9488 38.2319L31.1131 38.0676L38.0676 31.1131L38.2319 30.9488L38.292 30.7244L40.8375 21.2244L40.8977 21L40.8375 20.7756L38.292 11.2756L38.2319 11.0512L38.0676 10.8869L31.1131 3.93241L30.9488 3.76813L30.7244 3.708L21.2244 1.16248Z" fill="url(#paint0_linear_7210_37812)" fill-opacity="0.1"/>
<path d="M21.2244 1.16248L21 1.10235L20.7756 1.16248L11.2756 3.708L11.0512 3.76813L10.8869 3.93241L3.93241 10.8869L3.76813 11.0512L3.708 11.2756L1.16248 20.7756L1.10235 21L1.16248 21.2244L3.708 30.7244L3.76813 30.9488L3.93241 31.1131L10.8869 38.0676L11.0512 38.2319L11.2756 38.292L20.7756 40.8375L21 40.8977L21.2244 40.8375L30.7244 38.292L30.9488 38.2319L31.1131 38.0676L38.0676 31.1131L38.2319 30.9488L38.292 30.7244L40.8375 21.2244L40.8977 21L40.8375 20.7756L38.292 11.2756L38.2319 11.0512L38.0676 10.8869L31.1131 3.93241L30.9488 3.76813L30.7244 3.708L21.2244 1.16248Z" fill="url(#paint1_radial_7210_37812)" fill-opacity="0.05"/>
<path d="M21.2244 1.16248L21 1.10235L20.7756 1.16248L11.2756 3.708L11.0512 3.76813L10.8869 3.93241L3.93241 10.8869L3.76813 11.0512L3.708 11.2756L1.16248 20.7756L1.10235 21L1.16248 21.2244L3.708 30.7244L3.76813 30.9488L3.93241 31.1131L10.8869 38.0676L11.0512 38.2319L11.2756 38.292L20.7756 40.8375L21 40.8977L21.2244 40.8375L30.7244 38.292L30.9488 38.2319L31.1131 38.0676L38.0676 31.1131L38.2319 30.9488L38.292 30.7244L40.8375 21.2244L40.8977 21L40.8375 20.7756L38.292 11.2756L38.2319 11.0512L38.0676 10.8869L31.1131 3.93241L30.9488 3.76813L30.7244 3.708L21.2244 1.16248Z" fill="url(#paint2_radial_7210_37812)" fill-opacity="0.05"/>
<path d="M21.2244 1.16248L21 1.10235L20.7756 1.16248L11.2756 3.708L11.0512 3.76813L10.8869 3.93241L3.93241 10.8869L3.76813 11.0512L3.708 11.2756L1.16248 20.7756L1.10235 21L1.16248 21.2244L3.708 30.7244L3.76813 30.9488L3.93241 31.1131L10.8869 38.0676L11.0512 38.2319L11.2756 38.292L20.7756 40.8375L21 40.8977L21.2244 40.8375L30.7244 38.292L30.9488 38.2319L31.1131 38.0676L38.0676 31.1131L38.2319 30.9488L38.292 30.7244L40.8375 21.2244L40.8977 21L40.8375 20.7756L38.292 11.2756L38.2319 11.0512L38.0676 10.8869L31.1131 3.93241L30.9488 3.76813L30.7244 3.708L21.2244 1.16248Z" fill="url(#paint3_radial_7210_37812)" fill-opacity="0.05"/>
<path d="M21.2244 1.16248L21 1.10235L20.7756 1.16248L11.2756 3.708L11.0512 3.76813L10.8869 3.93241L3.93241 10.8869L3.76813 11.0512L3.708 11.2756L1.16248 20.7756L1.10235 21L1.16248 21.2244L3.708 30.7244L3.76813 30.9488L3.93241 31.1131L10.8869 38.0676L11.0512 38.2319L11.2756 38.292L20.7756 40.8375L21 40.8977L21.2244 40.8375L30.7244 38.292L30.9488 38.2319L31.1131 38.0676L38.0676 31.1131L38.2319 30.9488L38.292 30.7244L40.8375 21.2244L40.8977 21L40.8375 20.7756L38.292 11.2756L38.2319 11.0512L38.0676 10.8869L31.1131 3.93241L30.9488 3.76813L30.7244 3.708L21.2244 1.16248Z" stroke="#67D4F8" stroke-width="1.73413"/>
<path d="M21.2244 1.16248L21 1.10235L20.7756 1.16248L11.2756 3.708L11.0512 3.76813L10.8869 3.93241L3.93241 10.8869L3.76813 11.0512L3.708 11.2756L1.16248 20.7756L1.10235 21L1.16248 21.2244L3.708 30.7244L3.76813 30.9488L3.93241 31.1131L10.8869 38.0676L11.0512 38.2319L11.2756 38.292L20.7756 40.8375L21 40.8977L21.2244 40.8375L30.7244 38.292L30.9488 38.2319L31.1131 38.0676L38.0676 31.1131L38.2319 30.9488L38.292 30.7244L40.8375 21.2244L40.8977 21L40.8375 20.7756L38.292 11.2756L38.2319 11.0512L38.0676 10.8869L31.1131 3.93241L30.9488 3.76813L30.7244 3.708L21.2244 1.16248Z" stroke="url(#paint4_linear_7210_37812)" stroke-width="1.73413"/>
<path d="M13.4898 17.4187C7.99947 14.957 6.47241 24.8205 11.4971 23.895" stroke="#67D4F8" stroke-width="1.49454" stroke-linecap="round"/>
<path d="M13.4898 17.4187C7.99947 14.957 6.47241 24.8205 11.4971 23.895" stroke="url(#paint5_linear_7210_37812)" stroke-width="1.49454" stroke-linecap="round"/>
<path d="M13.5415 15.4673C13.2886 15.2144 12.8786 15.2144 12.6256 15.4673C12.3727 15.7203 12.3727 16.1303 12.6256 16.3832L13.5415 15.4673ZM14.5781 17.4198L15.0361 17.8778C15.289 17.6249 15.289 17.2148 15.0361 16.9619L14.5781 17.4198ZM12.6256 18.4564C12.3727 18.7093 12.3727 19.1194 12.6256 19.3723C12.8786 19.6252 13.2886 19.6252 13.5415 19.3723L12.6256 18.4564ZM12.6256 16.3832L14.1202 17.8778L15.0361 16.9619L13.5415 15.4673L12.6256 16.3832ZM14.1202 16.9619L12.6256 18.4564L13.5415 19.3723L15.0361 17.8778L14.1202 16.9619Z" fill="#67D4F8"/>
<path d="M13.5415 15.4673C13.2886 15.2144 12.8786 15.2144 12.6256 15.4673C12.3727 15.7203 12.3727 16.1303 12.6256 16.3832L13.5415 15.4673ZM14.5781 17.4198L15.0361 17.8778C15.289 17.6249 15.289 17.2148 15.0361 16.9619L14.5781 17.4198ZM12.6256 18.4564C12.3727 18.7093 12.3727 19.1194 12.6256 19.3723C12.8786 19.6252 13.2886 19.6252 13.5415 19.3723L12.6256 18.4564ZM12.6256 16.3832L14.1202 17.8778L15.0361 16.9619L13.5415 15.4673L12.6256 16.3832ZM14.1202 16.9619L12.6256 18.4564L13.5415 19.3723L15.0361 17.8778L14.1202 16.9619Z" fill="url(#paint6_linear_7210_37812)"/>
<path d="M11.6174 21.9238C11.4013 21.6388 10.995 21.583 10.71 21.7991C10.4251 22.0153 10.3692 22.4215 10.5854 22.7065L11.6174 21.9238ZM12.3786 23.9992L12.77 24.5152C13.055 24.2991 13.1108 23.8928 12.8946 23.6078L12.3786 23.9992ZM10.3032 24.7604C10.0182 24.9765 9.96242 25.3828 10.1786 25.6678C10.3947 25.9528 10.801 26.0086 11.0859 25.7924L10.3032 24.7604ZM10.5854 22.7065L11.8626 24.3905L12.8946 23.6078L11.6174 21.9238L10.5854 22.7065ZM11.9873 23.4832L10.3032 24.7604L11.0859 25.7924L12.77 24.5152L11.9873 23.4832Z" fill="#67D4F8"/>
<path d="M11.6174 21.9238C11.4013 21.6388 10.995 21.583 10.71 21.7991C10.4251 22.0153 10.3692 22.4215 10.5854 22.7065L11.6174 21.9238ZM12.3786 23.9992L12.77 24.5152C13.055 24.2991 13.1108 23.8928 12.8946 23.6078L12.3786 23.9992ZM10.3032 24.7604C10.0182 24.9765 9.96242 25.3828 10.1786 25.6678C10.3947 25.9528 10.801 26.0086 11.0859 25.7924L10.3032 24.7604ZM10.5854 22.7065L11.8626 24.3905L12.8946 23.6078L11.6174 21.9238L10.5854 22.7065ZM11.9873 23.4832L10.3032 24.7604L11.0859 25.7924L12.77 24.5152L11.9873 23.4832Z" fill="url(#paint7_linear_7210_37812)"/>
<path d="M29.0258 17.423C31.9724 16.1396 33.8068 18.1094 34.1984 20.216C34.5757 22.2453 33.6142 24.4016 31.0185 23.8993" stroke="#67D4F8" stroke-width="1.49454" stroke-linecap="round"/>
<path d="M29.0258 17.423C31.9724 16.1396 33.8068 18.1094 34.1984 20.216C34.5757 22.2453 33.6142 24.4016 31.0185 23.8993" stroke="url(#paint8_linear_7210_37812)" stroke-width="1.49454" stroke-linecap="round"/>
<path d="M28.9741 15.4673C29.227 15.2144 29.6371 15.2144 29.89 15.4673C30.1429 15.7203 30.1429 16.1303 29.89 16.3832L28.9741 15.4673ZM27.9375 17.4198L27.4796 17.8778C27.2266 17.6249 27.2266 17.2148 27.4796 16.9619L27.9375 17.4198ZM29.89 18.4564C30.1429 18.7093 30.1429 19.1194 29.89 19.3723C29.6371 19.6252 29.227 19.6252 28.9741 19.3723L29.89 18.4564ZM29.89 16.3832L28.3954 17.8778L27.4796 16.9619L28.9741 15.4673L29.89 16.3832ZM28.3954 16.9619L29.89 18.4564L28.9741 19.3723L27.4796 17.8778L28.3954 16.9619Z" fill="#67D4F8"/>
<path d="M28.9741 15.4673C29.227 15.2144 29.6371 15.2144 29.89 15.4673C30.1429 15.7203 30.1429 16.1303 29.89 16.3832L28.9741 15.4673ZM27.9375 17.4198L27.4796 17.8778C27.2266 17.6249 27.2266 17.2148 27.4796 16.9619L27.9375 17.4198ZM29.89 18.4564C30.1429 18.7093 30.1429 19.1194 29.89 19.3723C29.6371 19.6252 29.227 19.6252 28.9741 19.3723L29.89 18.4564ZM29.89 16.3832L28.3954 17.8778L27.4796 16.9619L28.9741 15.4673L29.89 16.3832ZM28.3954 16.9619L29.89 18.4564L28.9741 19.3723L27.4796 17.8778L28.3954 16.9619Z" fill="url(#paint9_linear_7210_37812)"/>
<path d="M30.8197 21.9254C31.0247 21.6322 31.4284 21.5607 31.7216 21.7656C32.0147 21.9706 32.0863 22.3743 31.8813 22.6675L30.8197 21.9254ZM30.1396 24.0288L29.7685 24.5596C29.4754 24.3546 29.4039 23.9509 29.6088 23.6577L30.1396 24.0288ZM32.243 24.7089C32.5361 24.9138 32.6076 25.3176 32.4027 25.6108C32.1978 25.9039 31.794 25.9754 31.5009 25.7705L32.243 24.7089ZM31.8813 22.6675L30.6704 24.3998L29.6088 23.6577L30.8197 21.9254L31.8813 22.6675ZM30.5106 23.498L32.243 24.7089L31.5009 25.7705L29.7685 24.5596L30.5106 23.498Z" fill="#67D4F8"/>
<path d="M30.8197 21.9254C31.0247 21.6322 31.4284 21.5607 31.7216 21.7656C32.0147 21.9706 32.0863 22.3743 31.8813 22.6675L30.8197 21.9254ZM30.1396 24.0288L29.7685 24.5596C29.4754 24.3546 29.4039 23.9509 29.6088 23.6577L30.1396 24.0288ZM32.243 24.7089C32.5361 24.9138 32.6076 25.3176 32.4027 25.6108C32.1978 25.9039 31.794 25.9754 31.5009 25.7705L32.243 24.7089ZM31.8813 22.6675L30.6704 24.3998L29.6088 23.6577L30.8197 21.9254L31.8813 22.6675ZM30.5106 23.498L32.243 24.7089L31.5009 25.7705L29.7685 24.5596L30.5106 23.498Z" fill="url(#paint10_linear_7210_37812)"/>
<g clip-path="url(#clip0_7210_37812)">
<path d="M25.6451 14.5724L21.1014 17.096L16.5547 14.5724L21.1014 7.48047L25.6451 14.5724ZM21.1014 17.9063L16.5547 15.3828L21.1014 21.4033L25.6481 15.3828L21.1014 17.9063Z" fill="#67D4F8"/>
<path d="M25.6451 14.5724L21.1014 17.096L16.5547 14.5724L21.1014 7.48047L25.6451 14.5724ZM21.1014 17.9063L16.5547 15.3828L21.1014 21.4033L25.6481 15.3828L21.1014 17.9063Z" fill="url(#paint11_linear_7210_37812)"/>
</g>
<path d="M18.9421 31.4053H16.9669L15.1133 26.9829H15.0744C15.0939 27.2424 15.1085 27.484 15.1182 27.7078C15.1312 27.9284 15.1393 28.1295 15.1425 28.3111C15.149 28.4895 15.1523 28.6468 15.1523 28.783V31.4053H13.5809V24.2926H15.5415L17.3853 28.5933H17.4242C17.4113 28.3533 17.3999 28.1295 17.3902 27.9219C17.3805 27.7143 17.3723 27.523 17.3659 27.3478C17.3594 27.1727 17.3561 27.0138 17.3561 26.8711V24.2926H18.9421V31.4053ZM22.0118 31.4053H20.3187V24.2926H23.7243V25.7278H22.0118V27.2505H23.5978V28.6857H22.0118V31.4053ZM27.4167 31.4053H25.7333V25.757H24.449V24.2926H28.6913V25.757H27.4167V31.4053Z" fill="#67D4F8"/>
<path d="M18.9421 31.4053H16.9669L15.1133 26.9829H15.0744C15.0939 27.2424 15.1085 27.484 15.1182 27.7078C15.1312 27.9284 15.1393 28.1295 15.1425 28.3111C15.149 28.4895 15.1523 28.6468 15.1523 28.783V31.4053H13.5809V24.2926H15.5415L17.3853 28.5933H17.4242C17.4113 28.3533 17.3999 28.1295 17.3902 27.9219C17.3805 27.7143 17.3723 27.523 17.3659 27.3478C17.3594 27.1727 17.3561 27.0138 17.3561 26.8711V24.2926H18.9421V31.4053ZM22.0118 31.4053H20.3187V24.2926H23.7243V25.7278H22.0118V27.2505H23.5978V28.6857H22.0118V31.4053ZM27.4167 31.4053H25.7333V25.757H24.449V24.2926H28.6913V25.757H27.4167V31.4053Z" fill="url(#paint12_linear_7210_37812)"/>
<defs>
<linearGradient id="paint0_linear_7210_37812" x1="21" y1="2" x2="21" y2="40" gradientUnits="userSpaceOnUse">
<stop stop-color="#88EAFF"/>
<stop offset="1" stop-color="#858DF7" stop-opacity="0.56"/>
<stop offset="1" stop-color="#858DF7"/>
</linearGradient>
<radialGradient id="paint1_radial_7210_37812" cx="0" cy="0" r="1" gradientUnits="userSpaceOnUse" gradientTransform="translate(5.25167 -0.973903) rotate(68.8981) scale(26.2098 45.6249)">
<stop stop-color="#67D4F8" stop-opacity="0.5"/>
<stop offset="1" stop-color="#8E77F7" stop-opacity="0.5"/>
</radialGradient>
<radialGradient id="paint2_radial_7210_37812" cx="0" cy="0" r="1" gradientUnits="userSpaceOnUse" gradientTransform="translate(39.5537 1.99999) rotate(111.856) scale(22.6075 40.5126)">
<stop stop-color="#67D4F8" stop-opacity="0.5"/>
<stop offset="1" stop-color="#8E77F7" stop-opacity="0.5"/>
</radialGradient>
<radialGradient id="paint3_radial_7210_37812" cx="0" cy="0" r="1" gradientUnits="userSpaceOnUse" gradientTransform="translate(21.6376 51.5652) rotate(-94.1386) scale(21.2031 21.8342)">
<stop stop-color="#67D4F8" stop-opacity="0.5"/>
<stop offset="1" stop-color="#8E77F7" stop-opacity="0.5"/>
</radialGradient>
<linearGradient id="paint4_linear_7210_37812" x1="-11.0502" y1="9.47541" x2="40.073" y2="-24.1436" gradientUnits="userSpaceOnUse">
<stop stop-color="#A794FF" stop-opacity="0"/>
<stop offset="0.398438" stop-color="#A794FF" stop-opacity="0.93"/>
<stop offset="1" stop-color="#8E77F7" stop-opacity="0"/>
<stop offset="1" stop-color="#8E77F7" stop-opacity="0"/>
<stop offset="1" stop-color="#A794FF" stop-opacity="0"/>
</linearGradient>
<linearGradient id="paint5_linear_7210_37812" x1="6.70764" y1="18.3869" x2="14.6222" y2="14.5974" gradientUnits="userSpaceOnUse">
<stop stop-color="#A794FF" stop-opacity="0"/>
<stop offset="0.398438" stop-color="#A794FF" stop-opacity="0.93"/>
<stop offset="1" stop-color="#8E77F7" stop-opacity="0"/>
<stop offset="1" stop-color="#8E77F7" stop-opacity="0"/>
<stop offset="1" stop-color="#A794FF" stop-opacity="0"/>
</linearGradient>
<linearGradient id="paint6_linear_7210_37812" x1="14.2841" y1="14.8988" x2="17.0595" y2="17.009" gradientUnits="userSpaceOnUse">
<stop stop-color="#A794FF" stop-opacity="0"/>
<stop offset="0.398438" stop-color="#A794FF" stop-opacity="0.93"/>
<stop offset="1" stop-color="#8E77F7" stop-opacity="0"/>
<stop offset="1" stop-color="#8E77F7" stop-opacity="0"/>
<stop offset="1" stop-color="#A794FF" stop-opacity="0"/>
</linearGradient>
<linearGradient id="paint7_linear_7210_37812" x1="12.4305" y1="21.4616" x2="14.8928" y2="23.9298" gradientUnits="userSpaceOnUse">
<stop stop-color="#A794FF" stop-opacity="0"/>
<stop offset="0.398438" stop-color="#A794FF" stop-opacity="0.93"/>
<stop offset="1" stop-color="#8E77F7" stop-opacity="0"/>
<stop offset="1" stop-color="#8E77F7" stop-opacity="0"/>
<stop offset="1" stop-color="#A794FF" stop-opacity="0"/>
</linearGradient>
<linearGradient id="paint8_linear_7210_37812" x1="36.0809" y1="18.3839" x2="27.9608" y2="14.3536" gradientUnits="userSpaceOnUse">
<stop stop-color="#A794FF" stop-opacity="0"/>
<stop offset="0.398438" stop-color="#A794FF" stop-opacity="0.93"/>
<stop offset="1" stop-color="#8E77F7" stop-opacity="0"/>
<stop offset="1" stop-color="#8E77F7" stop-opacity="0"/>
<stop offset="1" stop-color="#A794FF" stop-opacity="0"/>
</linearGradient>
<linearGradient id="paint9_linear_7210_37812" x1="28.2315" y1="14.8988" x2="25.4562" y2="17.009" gradientUnits="userSpaceOnUse">
<stop stop-color="#A794FF" stop-opacity="0"/>
<stop offset="0.398438" stop-color="#A794FF" stop-opacity="0.93"/>
<stop offset="1" stop-color="#8E77F7" stop-opacity="0"/>
<stop offset="1" stop-color="#8E77F7" stop-opacity="0"/>
<stop offset="1" stop-color="#A794FF" stop-opacity="0"/>
</linearGradient>
<linearGradient id="paint10_linear_7210_37812" x1="29.9894" y1="21.495" x2="27.6246" y2="24.057" gradientUnits="userSpaceOnUse">
<stop stop-color="#A794FF" stop-opacity="0"/>
<stop offset="0.398438" stop-color="#A794FF" stop-opacity="0.93"/>
<stop offset="1" stop-color="#8E77F7" stop-opacity="0"/>
<stop offset="1" stop-color="#8E77F7" stop-opacity="0"/>
<stop offset="1" stop-color="#A794FF" stop-opacity="0"/>
</linearGradient>
<linearGradient id="paint11_linear_7210_37812" x1="13.4318" y1="10.2194" x2="28.2267" y2="3.86496" gradientUnits="userSpaceOnUse">
<stop stop-color="#A794FF" stop-opacity="0"/>
<stop offset="0.398438" stop-color="#A794FF" stop-opacity="0.93"/>
<stop offset="1" stop-color="#8E77F7" stop-opacity="0"/>
<stop offset="1" stop-color="#8E77F7" stop-opacity="0"/>
<stop offset="1" stop-color="#A794FF" stop-opacity="0"/>
</linearGradient>
<linearGradient id="paint12_linear_7210_37812" x1="7.49735" y1="23.9627" x2="26.1275" y2="8.88408" gradientUnits="userSpaceOnUse">
<stop stop-color="#A794FF" stop-opacity="0"/>
<stop offset="0.398438" stop-color="#A794FF" stop-opacity="0.93"/>
<stop offset="1" stop-color="#8E77F7" stop-opacity="0"/>
<stop offset="1" stop-color="#8E77F7" stop-opacity="0"/>
<stop offset="1" stop-color="#A794FF" stop-opacity="0"/>
</linearGradient>
<clipPath id="clip0_7210_37812">
<rect width="9.57197" height="13.9229" fill="white" transform="translate(16.3125 7.47949)"/>
</clipPath>
</defs>
</svg>
