<svg width="36" height="36" viewBox="0 0 36 36" fill="none" xmlns="http://www.w3.org/2000/svg">
<path d="M18.1507 35.1161C14.6781 35.1161 11.2834 34.0864 8.39599 32.1571C5.50858 30.2278 3.25812 27.4856 1.92919 24.2773C0.600259 21.0689 0.252551 17.5386 0.930033 14.1327C1.60751 10.7267 3.27976 7.59819 5.7353 5.14265C8.19084 2.68711 11.3194 1.01486 14.7253 0.337381C18.1312 -0.340101 21.6616 0.00760761 24.8699 1.33654C28.0782 2.66546 30.8204 4.91593 32.7497 7.80333C34.679 10.6907 35.7088 14.0854 35.7088 17.5581C35.7088 22.2148 33.8589 26.6807 30.5662 29.9735C27.2734 33.2663 22.8074 35.1161 18.1507 35.1161ZM18.1507 2.19477C15.1121 2.19477 12.1418 3.09581 9.61533 4.78395C7.08885 6.47209 5.11969 8.87151 3.95688 11.6788C2.79407 14.4861 2.48982 17.5751 3.08262 20.5553C3.67542 23.5355 5.13863 26.273 7.28722 28.4216C9.43582 30.5702 12.1733 32.0334 15.1535 32.6262C18.1337 33.219 21.2227 32.9147 24.03 31.7519C26.8373 30.5891 29.2367 28.62 30.9248 26.0935C32.613 23.567 33.514 20.5966 33.514 17.5581C33.514 13.4835 31.8954 9.57575 29.0142 6.69457C26.133 3.81339 22.2253 2.19477 18.1507 2.19477Z" fill="#67D4F8"/>
<path d="M18.1507 35.1161C14.6781 35.1161 11.2834 34.0864 8.39599 32.1571C5.50858 30.2278 3.25812 27.4856 1.92919 24.2773C0.600259 21.0689 0.252551 17.5386 0.930033 14.1327C1.60751 10.7267 3.27976 7.59819 5.7353 5.14265C8.19084 2.68711 11.3194 1.01486 14.7253 0.337381C18.1312 -0.340101 21.6616 0.00760761 24.8699 1.33654C28.0782 2.66546 30.8204 4.91593 32.7497 7.80333C34.679 10.6907 35.7088 14.0854 35.7088 17.5581C35.7088 22.2148 33.8589 26.6807 30.5662 29.9735C27.2734 33.2663 22.8074 35.1161 18.1507 35.1161ZM18.1507 2.19477C15.1121 2.19477 12.1418 3.09581 9.61533 4.78395C7.08885 6.47209 5.11969 8.87151 3.95688 11.6788C2.79407 14.4861 2.48982 17.5751 3.08262 20.5553C3.67542 23.5355 5.13863 26.273 7.28722 28.4216C9.43582 30.5702 12.1733 32.0334 15.1535 32.6262C18.1337 33.219 21.2227 32.9147 24.03 31.7519C26.8373 30.5891 29.2367 28.62 30.9248 26.0935C32.613 23.567 33.514 20.5966 33.514 17.5581C33.514 13.4835 31.8954 9.57575 29.0142 6.69457C26.133 3.81339 22.2253 2.19477 18.1507 2.19477Z" fill="url(#paint0_linear_6654_59142)"/>
<path d="M10.3714 13.9987C4.86101 11.5281 3.32837 21.4276 8.37142 20.4987" stroke="#67D4F8" stroke-width="1.5" stroke-linecap="round"/>
<path d="M10.3714 13.9987C4.86101 11.5281 3.32837 21.4276 8.37142 20.4987" stroke="url(#paint1_linear_6654_59142)" stroke-width="1.5" stroke-linecap="round"/>
<path d="M10.4234 12.0404C10.1695 11.7865 9.75797 11.7865 9.50413 12.0404C9.25028 12.2942 9.25028 12.7058 9.50413 12.9596L10.4234 12.0404ZM11.4637 14L11.9234 14.4596C12.1772 14.2058 12.1772 13.7942 11.9234 13.5404L11.4637 14ZM9.50413 15.0404C9.25028 15.2942 9.25028 15.7058 9.50413 15.9596C9.75797 16.2135 10.1695 16.2135 10.4234 15.9596L9.50413 15.0404ZM9.50413 12.9596L11.0041 14.4596L11.9234 13.5404L10.4234 12.0404L9.50413 12.9596ZM11.0041 13.5404L9.50413 15.0404L10.4234 15.9596L11.9234 14.4596L11.0041 13.5404Z" fill="#67D4F8"/>
<path d="M10.4234 12.0404C10.1695 11.7865 9.75797 11.7865 9.50413 12.0404C9.25028 12.2942 9.25028 12.7058 9.50413 12.9596L10.4234 12.0404ZM11.4637 14L11.9234 14.4596C12.1772 14.2058 12.1772 13.7942 11.9234 13.5404L11.4637 14ZM9.50413 15.0404C9.25028 15.2942 9.25028 15.7058 9.50413 15.9596C9.75797 16.2135 10.1695 16.2135 10.4234 15.9596L9.50413 15.0404ZM9.50413 12.9596L11.0041 14.4596L11.9234 13.5404L10.4234 12.0404L9.50413 12.9596ZM11.0041 13.5404L9.50413 15.0404L10.4234 15.9596L11.9234 14.4596L11.0041 13.5404Z" fill="url(#paint2_linear_6654_59142)"/>
<path d="M8.49267 18.5202C8.27574 18.2342 7.86801 18.1782 7.58199 18.3951C7.29596 18.6121 7.23994 19.0198 7.45688 19.3058L8.49267 18.5202ZM9.25666 20.6032L9.64945 21.1211C9.93548 20.9042 9.99149 20.4965 9.77456 20.2104L9.25666 20.6032ZM7.17368 21.3672C6.88765 21.5842 6.83164 21.9919 7.04857 22.2779C7.2655 22.5639 7.67323 22.6199 7.95926 22.403L7.17368 21.3672ZM7.45688 19.3058L8.73877 20.996L9.77456 20.2104L8.49267 18.5202L7.45688 19.3058ZM8.86388 20.0853L7.17368 21.3672L7.95926 22.403L9.64945 21.1211L8.86388 20.0853Z" fill="#67D4F8"/>
<path d="M8.49267 18.5202C8.27574 18.2342 7.86801 18.1782 7.58199 18.3951C7.29596 18.6121 7.23994 19.0198 7.45688 19.3058L8.49267 18.5202ZM9.25666 20.6032L9.64945 21.1211C9.93548 20.9042 9.99149 20.4965 9.77456 20.2104L9.25666 20.6032ZM7.17368 21.3672C6.88765 21.5842 6.83164 21.9919 7.04857 22.2779C7.2655 22.5639 7.67323 22.6199 7.95926 22.403L7.17368 21.3672ZM7.45688 19.3058L8.73877 20.996L9.77456 20.2104L8.49267 18.5202L7.45688 19.3058ZM8.86388 20.0853L7.17368 21.3672L7.95926 22.403L9.64945 21.1211L8.86388 20.0853Z" fill="url(#paint3_linear_6654_59142)"/>
<path d="M25.9636 14.0031C31.7698 11.4743 33.2732 21.5304 27.9636 20.5031" stroke="#67D4F8" stroke-width="1.5" stroke-linecap="round"/>
<path d="M25.9636 14.0031C31.7698 11.4743 33.2732 21.5304 27.9636 20.5031" stroke="url(#paint4_linear_6654_59142)" stroke-width="1.5" stroke-linecap="round"/>
<path d="M25.9115 12.0404C26.1653 11.7865 26.5769 11.7865 26.8307 12.0404C27.0846 12.2942 27.0846 12.7058 26.8307 12.9596L25.9115 12.0404ZM24.8711 14L24.4115 14.4596C24.1576 14.2058 24.1576 13.7942 24.4115 13.5404L24.8711 14ZM26.8307 15.0404C27.0846 15.2942 27.0846 15.7058 26.8307 15.9596C26.5769 16.2135 26.1653 16.2135 25.9115 15.9596L26.8307 15.0404ZM26.8307 12.9596L25.3307 14.4596L24.4115 13.5404L25.9115 12.0404L26.8307 12.9596ZM25.3307 13.5404L26.8307 15.0404L25.9115 15.9596L24.4115 14.4596L25.3307 13.5404Z" fill="#67D4F8"/>
<path d="M25.9115 12.0404C26.1653 11.7865 26.5769 11.7865 26.8307 12.0404C27.0846 12.2942 27.0846 12.7058 26.8307 12.9596L25.9115 12.0404ZM24.8711 14L24.4115 14.4596C24.1576 14.2058 24.1576 13.7942 24.4115 13.5404L24.8711 14ZM26.8307 15.0404C27.0846 15.2942 27.0846 15.7058 26.8307 15.9596C26.5769 16.2135 26.1653 16.2135 25.9115 15.9596L26.8307 15.0404ZM26.8307 12.9596L25.3307 14.4596L24.4115 13.5404L25.9115 12.0404L26.8307 12.9596ZM25.3307 13.5404L26.8307 15.0404L25.9115 15.9596L24.4115 14.4596L25.3307 13.5404Z" fill="url(#paint5_linear_6654_59142)"/>
<path d="M27.7654 18.5222C27.9711 18.228 28.3764 18.1562 28.6706 18.3619C28.9648 18.5675 29.0366 18.9728 28.8309 19.267L27.7654 18.5222ZM27.0828 20.6333L26.7104 21.166C26.4162 20.9603 26.3444 20.5551 26.5501 20.2609L27.0828 20.6333ZM29.1938 21.3159C29.4881 21.5216 29.5599 21.9268 29.3542 22.221C29.1485 22.5153 28.7433 22.587 28.449 22.3814L29.1938 21.3159ZM28.8309 19.267L27.6155 21.0057L26.5501 20.2609L27.7654 18.5222L28.8309 19.267ZM27.4552 20.1005L29.1938 21.3159L28.449 22.3814L26.7104 21.166L27.4552 20.1005Z" fill="#67D4F8"/>
<path d="M27.7654 18.5222C27.9711 18.228 28.3764 18.1562 28.6706 18.3619C28.9648 18.5675 29.0366 18.9728 28.8309 19.267L27.7654 18.5222ZM27.0828 20.6333L26.7104 21.166C26.4162 20.9603 26.3444 20.5551 26.5501 20.2609L27.0828 20.6333ZM29.1938 21.3159C29.4881 21.5216 29.5599 21.9268 29.3542 22.221C29.1485 22.5153 28.7433 22.587 28.449 22.3814L29.1938 21.3159ZM28.8309 19.267L27.6155 21.0057L26.5501 20.2609L27.7654 18.5222L28.8309 19.267ZM27.4552 20.1005L29.1938 21.3159L28.449 22.3814L26.7104 21.166L27.4552 20.1005Z" fill="url(#paint6_linear_6654_59142)"/>
<g clip-path="url(#clip0_6654_59142)">
<path d="M22.5656 11.1423L18.0053 13.675L13.442 11.1423L18.0053 4.02441L22.5656 11.1423ZM18.0053 14.4883L13.442 11.9556L18.0053 17.9981L22.5686 11.9556L18.0053 14.4883Z" fill="#67D4F8"/>
<path d="M22.5656 11.1423L18.0053 13.675L13.442 11.1423L18.0053 4.02441L22.5656 11.1423ZM18.0053 14.4883L13.442 11.9556L18.0053 17.9981L22.5686 11.9556L18.0053 14.4883Z" fill="url(#paint7_linear_6654_59142)"/>
</g>
<path d="M15.8427 28H13.8602L11.9999 23.5615H11.9608C11.9803 23.8219 11.995 24.0645 12.0048 24.2891C12.0178 24.5104 12.0259 24.7122 12.0292 24.8945C12.0357 25.0736 12.0389 25.2314 12.0389 25.3682V28H10.4618V20.8613H12.4296L14.2802 25.1777H14.3192C14.3062 24.9368 14.2948 24.7122 14.285 24.5039C14.2753 24.2956 14.2671 24.1035 14.2606 23.9277C14.2541 23.752 14.2509 23.5924 14.2509 23.4492V20.8613H15.8427V28ZM18.9235 28H17.2243V20.8613H20.6423V22.3018H18.9235V23.8301H20.5153V25.2705H18.9235V28ZM24.3481 28H22.6587V22.3311H21.3696V20.8613H25.6274V22.3311H24.3481V28Z" fill="#67D4F8"/>
<path d="M15.8427 28H13.8602L11.9999 23.5615H11.9608C11.9803 23.8219 11.995 24.0645 12.0048 24.2891C12.0178 24.5104 12.0259 24.7122 12.0292 24.8945C12.0357 25.0736 12.0389 25.2314 12.0389 25.3682V28H10.4618V20.8613H12.4296L14.2802 25.1777H14.3192C14.3062 24.9368 14.2948 24.7122 14.285 24.5039C14.2753 24.2956 14.2671 24.1035 14.2606 23.9277C14.2541 23.752 14.2509 23.5924 14.2509 23.4492V20.8613H15.8427V28ZM18.9235 28H17.2243V20.8613H20.6423V22.3018H18.9235V23.8301H20.5153V25.2705H18.9235V28ZM24.3481 28H22.6587V22.3311H21.3696V20.8613H25.6274V22.3311H24.3481V28Z" fill="url(#paint8_linear_6654_59142)"/>
<defs>
<linearGradient id="paint0_linear_6654_59142" x1="-10.7559" y1="35.1161" x2="40.4384" y2="35.1161" gradientUnits="userSpaceOnUse">
<stop stop-color="#8E77F7"/>
<stop offset="1" stop-color="#8E77F7" stop-opacity="0.05"/>
</linearGradient>
<linearGradient id="paint1_linear_6654_59142" x1="3.66709" y1="20.5605" x2="11.0539" y2="20.5605" gradientUnits="userSpaceOnUse">
<stop stop-color="#8E77F7"/>
<stop offset="1" stop-color="#8E77F7" stop-opacity="0.05"/>
</linearGradient>
<linearGradient id="paint2_linear_6654_59142" x1="9.96375" y1="11.5305" x2="9.96375" y2="15.9041" gradientUnits="userSpaceOnUse">
<stop stop-color="#8E77F7"/>
<stop offset="1" stop-color="#8E77F7" stop-opacity="0.05"/>
</linearGradient>
<linearGradient id="paint3_linear_6654_59142" x1="8.10673" y1="17.9525" x2="7.51148" y2="22.2854" gradientUnits="userSpaceOnUse">
<stop stop-color="#8E77F7"/>
<stop offset="1" stop-color="#8E77F7" stop-opacity="0.05"/>
</linearGradient>
<linearGradient id="paint4_linear_6654_59142" x1="32.9376" y1="20.577" x2="25.2537" y2="20.577" gradientUnits="userSpaceOnUse">
<stop stop-color="#8E77F7"/>
<stop offset="1" stop-color="#8E77F7" stop-opacity="0.05"/>
</linearGradient>
<linearGradient id="paint5_linear_6654_59142" x1="26.3711" y1="11.5305" x2="26.3711" y2="15.9041" gradientUnits="userSpaceOnUse">
<stop stop-color="#8E77F7"/>
<stop offset="1" stop-color="#8E77F7" stop-opacity="0.05"/>
</linearGradient>
<linearGradient id="paint6_linear_6654_59142" x1="28.1291" y1="17.94" x2="28.8919" y2="22.2465" gradientUnits="userSpaceOnUse">
<stop stop-color="#8E77F7"/>
<stop offset="1" stop-color="#8E77F7" stop-opacity="0.05"/>
</linearGradient>
<linearGradient id="paint7_linear_6654_59142" x1="10.4926" y1="17.9981" x2="23.7978" y2="17.9981" gradientUnits="userSpaceOnUse">
<stop stop-color="#8E77F7"/>
<stop offset="1" stop-color="#8E77F7" stop-opacity="0.05"/>
</linearGradient>
<linearGradient id="paint8_linear_6654_59142" x1="4.70021" y1="31" x2="28.0259" y2="31" gradientUnits="userSpaceOnUse">
<stop stop-color="#8E77F7"/>
<stop offset="1" stop-color="#8E77F7" stop-opacity="0.05"/>
</linearGradient>
<clipPath id="clip0_6654_59142">
<rect width="9.60693" height="13.9737" fill="white" transform="translate(13.202 4.02344)"/>
</clipPath>
</defs>
</svg>
