<svg width="42" height="42" viewBox="0 0 42 42" fill="none" xmlns="http://www.w3.org/2000/svg">
<path d="M21.2244 1.16236L21 1.10223L20.7756 1.16236L11.2756 3.70788L11.0512 3.76801L10.8869 3.93229L3.93241 10.8868L3.76813 11.0511L3.708 11.2755L1.16248 20.7755L1.10235 20.9999L1.16248 21.2243L3.708 30.7243L3.76813 30.9487L3.93241 31.113L10.8869 38.0675L11.0512 38.2318L11.2756 38.2919L20.7756 40.8374L21 40.8975L21.2244 40.8374L30.7244 38.2919L30.9488 38.2318L31.1131 38.0675L38.0676 31.113L38.2319 30.9487L38.292 30.7243L40.8375 21.2243L40.8977 20.9999L40.8375 20.7755L38.292 11.2755L38.2319 11.0511L38.0676 10.8868L31.1131 3.93229L30.9488 3.76801L30.7244 3.70788L21.2244 1.16236Z" fill="black" fill-opacity="0.1"/>
<path d="M21.2244 1.16236L21 1.10223L20.7756 1.16236L11.2756 3.70788L11.0512 3.76801L10.8869 3.93229L3.93241 10.8868L3.76813 11.0511L3.708 11.2755L1.16248 20.7755L1.10235 20.9999L1.16248 21.2243L3.708 30.7243L3.76813 30.9487L3.93241 31.113L10.8869 38.0675L11.0512 38.2318L11.2756 38.2919L20.7756 40.8374L21 40.8975L21.2244 40.8374L30.7244 38.2919L30.9488 38.2318L31.1131 38.0675L38.0676 31.113L38.2319 30.9487L38.292 30.7243L40.8375 21.2243L40.8977 20.9999L40.8375 20.7755L38.292 11.2755L38.2319 11.0511L38.0676 10.8868L31.1131 3.93229L30.9488 3.76801L30.7244 3.70788L21.2244 1.16236Z" fill="url(#paint0_linear_876_4208)" fill-opacity="0.1"/>
<path d="M21.2244 1.16236L21 1.10223L20.7756 1.16236L11.2756 3.70788L11.0512 3.76801L10.8869 3.93229L3.93241 10.8868L3.76813 11.0511L3.708 11.2755L1.16248 20.7755L1.10235 20.9999L1.16248 21.2243L3.708 30.7243L3.76813 30.9487L3.93241 31.113L10.8869 38.0675L11.0512 38.2318L11.2756 38.2919L20.7756 40.8374L21 40.8975L21.2244 40.8374L30.7244 38.2919L30.9488 38.2318L31.1131 38.0675L38.0676 31.113L38.2319 30.9487L38.292 30.7243L40.8375 21.2243L40.8977 20.9999L40.8375 20.7755L38.292 11.2755L38.2319 11.0511L38.0676 10.8868L31.1131 3.93229L30.9488 3.76801L30.7244 3.70788L21.2244 1.16236Z" fill="url(#paint1_radial_876_4208)" fill-opacity="0.05"/>
<path d="M21.2244 1.16236L21 1.10223L20.7756 1.16236L11.2756 3.70788L11.0512 3.76801L10.8869 3.93229L3.93241 10.8868L3.76813 11.0511L3.708 11.2755L1.16248 20.7755L1.10235 20.9999L1.16248 21.2243L3.708 30.7243L3.76813 30.9487L3.93241 31.113L10.8869 38.0675L11.0512 38.2318L11.2756 38.2919L20.7756 40.8374L21 40.8975L21.2244 40.8374L30.7244 38.2919L30.9488 38.2318L31.1131 38.0675L38.0676 31.113L38.2319 30.9487L38.292 30.7243L40.8375 21.2243L40.8977 20.9999L40.8375 20.7755L38.292 11.2755L38.2319 11.0511L38.0676 10.8868L31.1131 3.93229L30.9488 3.76801L30.7244 3.70788L21.2244 1.16236Z" fill="url(#paint2_radial_876_4208)" fill-opacity="0.05"/>
<path d="M21.2244 1.16236L21 1.10223L20.7756 1.16236L11.2756 3.70788L11.0512 3.76801L10.8869 3.93229L3.93241 10.8868L3.76813 11.0511L3.708 11.2755L1.16248 20.7755L1.10235 20.9999L1.16248 21.2243L3.708 30.7243L3.76813 30.9487L3.93241 31.113L10.8869 38.0675L11.0512 38.2318L11.2756 38.2919L20.7756 40.8374L21 40.8975L21.2244 40.8374L30.7244 38.2919L30.9488 38.2318L31.1131 38.0675L38.0676 31.113L38.2319 30.9487L38.292 30.7243L40.8375 21.2243L40.8977 20.9999L40.8375 20.7755L38.292 11.2755L38.2319 11.0511L38.0676 10.8868L31.1131 3.93229L30.9488 3.76801L30.7244 3.70788L21.2244 1.16236Z" fill="url(#paint3_radial_876_4208)" fill-opacity="0.05"/>
<path d="M21.2244 1.16236L21 1.10223L20.7756 1.16236L11.2756 3.70788L11.0512 3.76801L10.8869 3.93229L3.93241 10.8868L3.76813 11.0511L3.708 11.2755L1.16248 20.7755L1.10235 20.9999L1.16248 21.2243L3.708 30.7243L3.76813 30.9487L3.93241 31.113L10.8869 38.0675L11.0512 38.2318L11.2756 38.2919L20.7756 40.8374L21 40.8975L21.2244 40.8374L30.7244 38.2919L30.9488 38.2318L31.1131 38.0675L38.0676 31.113L38.2319 30.9487L38.292 30.7243L40.8375 21.2243L40.8977 20.9999L40.8375 20.7755L38.292 11.2755L38.2319 11.0511L38.0676 10.8868L31.1131 3.93229L30.9488 3.76801L30.7244 3.70788L21.2244 1.16236Z" stroke="white" stroke-width="1.73413"/>
<path d="M13.4898 17.4184C7.99947 14.9567 6.47241 24.8203 11.4971 23.8948" stroke="white" stroke-width="1.49454" stroke-linecap="round"/>
<path d="M13.5415 15.4672C13.2886 15.2143 12.8786 15.2143 12.6256 15.4672C12.3727 15.7201 12.3727 16.1302 12.6256 16.3831L13.5415 15.4672ZM14.5781 17.4197L15.0361 17.8777C15.289 17.6247 15.289 17.2147 15.0361 16.9618L14.5781 17.4197ZM12.6256 18.4563C12.3727 18.7092 12.3727 19.1193 12.6256 19.3722C12.8786 19.6251 13.2886 19.6251 13.5415 19.3722L12.6256 18.4563ZM12.6256 16.3831L14.1202 17.8777L15.0361 16.9618L13.5415 15.4672L12.6256 16.3831ZM14.1202 16.9618L12.6256 18.4563L13.5415 19.3722L15.0361 17.8777L14.1202 16.9618Z" fill="white"/>
<path d="M11.6174 21.9234C11.4013 21.6384 10.995 21.5826 10.71 21.7988C10.4251 22.0149 10.3692 22.4212 10.5854 22.7061L11.6174 21.9234ZM12.3786 23.9988L12.77 24.5148C13.055 24.2987 13.1108 23.8925 12.8946 23.6075L12.3786 23.9988ZM10.3032 24.76C10.0182 24.9762 9.96242 25.3824 10.1786 25.6674C10.3947 25.9524 10.801 26.0082 11.0859 25.7921L10.3032 24.76ZM10.5854 22.7061L11.8626 24.3902L12.8946 23.6075L11.6174 21.9234L10.5854 22.7061ZM11.9873 23.4828L10.3032 24.76L11.0859 25.7921L12.77 24.5148L11.9873 23.4828Z" fill="white"/>
<path d="M29.0258 17.4227C31.9724 16.1394 33.8068 18.1092 34.1984 20.2158C34.5757 22.2451 33.6142 24.4013 31.0185 23.8991" stroke="white" stroke-width="1.49454" stroke-linecap="round"/>
<path d="M28.9741 15.4672C29.227 15.2143 29.6371 15.2143 29.89 15.4672C30.1429 15.7201 30.1429 16.1302 29.89 16.3831L28.9741 15.4672ZM27.9375 17.4197L27.4796 17.8777C27.2266 17.6247 27.2266 17.2147 27.4796 16.9618L27.9375 17.4197ZM29.89 18.4563C30.1429 18.7092 30.1429 19.1193 29.89 19.3722C29.6371 19.6251 29.227 19.6251 28.9741 19.3722L29.89 18.4563ZM29.89 16.3831L28.3954 17.8777L27.4796 16.9618L28.9741 15.4672L29.89 16.3831ZM28.3954 16.9618L29.89 18.4563L28.9741 19.3722L27.4796 17.8777L28.3954 16.9618Z" fill="white"/>
<path d="M30.8197 21.9255C31.0247 21.6324 31.4284 21.5608 31.7216 21.7658C32.0147 21.9707 32.0863 22.3745 31.8813 22.6676L30.8197 21.9255ZM30.1396 24.0289L29.7685 24.5597C29.4754 24.3548 29.4039 23.951 29.6088 23.6578L30.1396 24.0289ZM32.243 24.709C32.5361 24.914 32.6076 25.3177 32.4027 25.6109C32.1978 25.904 31.794 25.9756 31.5009 25.7706L32.243 24.709ZM31.8813 22.6676L30.6704 24.3999L29.6088 23.6578L30.8197 21.9255L31.8813 22.6676ZM30.5106 23.4981L32.243 24.709L31.5009 25.7706L29.7685 24.5597L30.5106 23.4981Z" fill="white"/>
<g clip-path="url(#clip0_876_4208)">
<path d="M25.6431 14.5723L21.0994 17.0958L16.5527 14.5723L21.0994 7.48035L25.6431 14.5723ZM21.0994 17.9062L16.5527 15.3827L21.0994 21.4032L25.6461 15.3827L21.0994 17.9062Z" fill="white"/>
</g>
<path d="M18.9421 31.4053H16.9669L15.1133 26.9829H15.0744C15.0939 27.2424 15.1085 27.484 15.1182 27.7078C15.1312 27.9284 15.1393 28.1295 15.1425 28.3111C15.149 28.4895 15.1523 28.6468 15.1523 28.783V31.4053H13.5809V24.2926H15.5415L17.3853 28.5933H17.4242C17.4113 28.3533 17.3999 28.1295 17.3902 27.9219C17.3805 27.7143 17.3723 27.523 17.3659 27.3478C17.3594 27.1727 17.3561 27.0138 17.3561 26.8711V24.2926H18.9421V31.4053ZM22.0118 31.4053H20.3187V24.2926H23.7243V25.7278H22.0118V27.2505H23.5978V28.6857H22.0118V31.4053ZM27.4167 31.4053H25.7333V25.757H24.449V24.2926H28.6913V25.757H27.4167V31.4053Z" fill="white"/>
<defs>
<linearGradient id="paint0_linear_876_4208" x1="21" y1="1.99988" x2="21" y2="39.9999" gradientUnits="userSpaceOnUse">
<stop stop-color="#88EAFF"/>
<stop offset="1" stop-color="#858DF7" stop-opacity="0.56"/>
<stop offset="1" stop-color="#858DF7"/>
</linearGradient>
<radialGradient id="paint1_radial_876_4208" cx="0" cy="0" r="1" gradientUnits="userSpaceOnUse" gradientTransform="translate(5.25167 -0.974025) rotate(68.8981) scale(26.2098 45.6249)">
<stop stop-color="#67D4F8" stop-opacity="0.5"/>
<stop offset="1" stop-color="#8E77F7" stop-opacity="0.5"/>
</radialGradient>
<radialGradient id="paint2_radial_876_4208" cx="0" cy="0" r="1" gradientUnits="userSpaceOnUse" gradientTransform="translate(39.5537 1.99987) rotate(111.856) scale(22.6075 40.5126)">
<stop stop-color="#67D4F8" stop-opacity="0.5"/>
<stop offset="1" stop-color="#8E77F7" stop-opacity="0.5"/>
</radialGradient>
<radialGradient id="paint3_radial_876_4208" cx="0" cy="0" r="1" gradientUnits="userSpaceOnUse" gradientTransform="translate(21.6376 51.5651) rotate(-94.1386) scale(21.2031 21.8342)">
<stop stop-color="#67D4F8" stop-opacity="0.5"/>
<stop offset="1" stop-color="#8E77F7" stop-opacity="0.5"/>
</radialGradient>
<clipPath id="clip0_876_4208">
<rect width="9.57197" height="13.9229" fill="white" transform="translate(16.3105 7.47949)"/>
</clipPath>
</defs>
</svg>
