<svg width="210" height="200" viewBox="0 0 210 200" fill="none" xmlns="http://www.w3.org/2000/svg">
<path d="M6.92 0.639996V-0.360004H6.03541L5.92747 0.517976L6.92 0.639996ZM0.36 54L-0.632527 53.878L-0.770467 55H0.36V54ZM30.2 54V55H31.085L31.1926 54.1215L30.2 54ZM31.64 42.24L32.6326 42.3615L32.7699 41.24H31.64V42.24ZM15.32 42.24L14.3272 42.1202L14.1921 43.24H15.32V42.24ZM16.44 32.96V31.96H15.5534L15.4472 32.8402L16.44 32.96ZM31.64 32.96V33.96H32.5243L32.6325 33.0824L31.64 32.96ZM33.08 21.28L34.0725 21.4024L34.2109 20.28H33.08V21.28ZM17.88 21.28L16.8879 21.1549L16.746 22.28H17.88V21.28ZM19 12.4V11.4H18.1182L18.0079 12.2749L19 12.4ZM34.68 12.4V13.4H35.565L35.6726 12.5215L34.68 12.4ZM36.12 0.639996L37.1126 0.761537L37.2499 -0.360004H36.12V0.639996ZM5.92747 0.517976L-0.632527 53.878L1.35253 54.122L7.91253 0.762015L5.92747 0.517976ZM0.36 55H30.2V53H0.36V55ZM31.1926 54.1215L32.6326 42.3615L30.6474 42.1185L29.2074 53.8785L31.1926 54.1215ZM31.64 41.24H15.32V43.24H31.64V41.24ZM16.3128 42.3598L17.4328 33.0798L15.4472 32.8402L14.3272 42.1202L16.3128 42.3598ZM16.44 33.96H31.64V31.96H16.44V33.96ZM32.6325 33.0824L34.0725 21.4024L32.0875 21.1576L30.6475 32.8376L32.6325 33.0824ZM33.08 20.28H17.88V22.28H33.08V20.28ZM18.8721 21.4051L19.9921 12.5251L18.0079 12.2749L16.8879 21.1549L18.8721 21.4051ZM19 13.4H34.68V11.4H19V13.4ZM35.6726 12.5215L37.1126 0.761537L35.1274 0.518455L33.6874 12.2785L35.6726 12.5215ZM36.12 -0.360004H6.92V1.64H36.12V-0.360004ZM71.0319 45.04L72.002 44.7975L71.8127 44.04H71.0319V45.04ZM73.2719 54L72.3017 54.2425L72.4911 55H73.2719V54ZM87.4319 54V55H88.702L88.404 53.7654L87.4319 54ZM74.5519 0.639996L75.524 0.405355L75.3392 -0.360004H74.5519V0.639996ZM59.3519 0.639996V-0.360004H58.7318L58.4561 0.19547L59.3519 0.639996ZM32.8719 54L31.9761 53.5555L31.2593 55H32.8719V54ZM47.9119 54V55H48.5553L48.822 54.4144L47.9119 54ZM51.9919 45.04V44.04H51.3484L51.0818 44.6256L51.9919 45.04ZM62.3119 22.56L63.224 22.9701L63.229 22.9587L62.3119 22.56ZM64.7119 16.24L65.7078 16.1495L63.7579 15.9402L64.7119 16.24ZM65.0319 18.16L66.0208 18.0117L66.0172 17.9877L66.0125 17.9639L65.0319 18.16ZM66.2319 24.32L65.2543 24.5308L65.2553 24.5353L66.2319 24.32ZM68.4719 34.48V35.48H69.7164L69.4484 34.2647L68.4719 34.48ZM56.9519 34.48L56.0398 34.0699L55.4058 35.48H56.9519V34.48ZM70.0617 45.2825L72.3017 54.2425L74.242 53.7575L72.002 44.7975L70.0617 45.2825ZM73.2719 55H87.4319V53H73.2719V55ZM88.404 53.7654L75.524 0.405355L73.5798 0.874636L86.4598 54.2346L88.404 53.7654ZM74.5519 -0.360004H59.3519V1.64H74.5519V-0.360004ZM58.4561 0.19547L31.9761 53.5555L33.7676 54.4445L60.2476 1.08452L58.4561 0.19547ZM32.8719 55H47.9119V53H32.8719V55ZM48.822 54.4144L52.902 45.4544L51.0818 44.6256L47.0018 53.5856L48.822 54.4144ZM51.9919 46.04H71.0319V44.04H51.9919V46.04ZM63.229 22.9587C64.0342 21.1067 64.7703 19.3894 65.6659 16.5398L63.7579 15.9402C62.8935 18.6906 62.1896 20.3333 61.3948 22.1613L63.229 22.9587ZM63.716 16.3305C63.8023 17.2797 63.9793 17.9962 64.0513 18.3561L66.0125 17.9639C65.9244 17.5238 65.7815 16.9603 65.7078 16.1495L63.716 16.3305ZM64.0429 18.3083C64.2877 19.9402 64.3731 20.4448 65.2544 24.5308L67.2094 24.1092C66.3307 20.0352 66.256 19.5798 66.0208 18.0117L64.0429 18.3083ZM65.2553 24.5353L67.4953 34.6953L69.4484 34.2647L67.2084 24.1047L65.2553 24.5353ZM68.4719 33.48H56.9519V35.48H68.4719V33.48ZM57.8639 34.8901L63.2239 22.9701L61.3998 22.1499L56.0398 34.0699L57.8639 34.8901ZM129.937 29.04L129.211 28.3522L129.202 28.3617L129.937 29.04ZM130.177 5.28L130.905 4.59463L130.902 4.59125L130.177 5.28ZM98.0169 0.639996V-0.360004H97.1323L97.0244 0.517976L98.0169 0.639996ZM91.4569 54L90.4643 53.878L90.3264 55H91.4569V54ZM104.977 54V55H105.863L105.97 54.1199L104.977 54ZM107.537 32.8L108.404 32.3025L106.905 29.689L106.544 32.6801L107.537 32.8ZM119.697 54L118.829 54.4975L119.118 55H119.697V54ZM135.377 54V55H137.147L136.233 53.484L135.377 54ZM122.897 33.28L122.568 32.3355L121.404 32.7403L122.04 33.796L122.897 33.28ZM108.497 25.04L107.504 24.9181L107.367 26.04H108.497V25.04ZM110.177 11.36V10.36H109.292L109.184 11.2381L110.177 11.36ZM130.663 29.7277C133.748 26.4715 135.257 22.2105 135.257 17.2H133.257C133.257 21.7895 131.886 25.5285 129.211 28.3523L130.663 29.7277ZM135.257 17.2C135.257 12.2167 133.683 7.5463 130.905 4.59463L129.449 5.96536C131.791 8.4537 133.257 12.5833 133.257 17.2H135.257ZM130.902 4.59125C127.585 1.09971 122.769 -0.360004 115.377 -0.360004V1.64C122.545 1.64 126.689 3.06029 129.452 5.96875L130.902 4.59125ZM115.377 -0.360004H98.0169V1.64H115.377V-0.360004ZM97.0244 0.517976L90.4643 53.878L92.4494 54.122L99.0094 0.762015L97.0244 0.517976ZM91.4569 55H104.977V53H91.4569V55ZM105.97 54.1199L108.53 32.9199L106.544 32.6801L103.984 53.8801L105.97 54.1199ZM106.669 33.2975L118.829 54.4975L120.564 53.5025L108.404 32.3025L106.669 33.2975ZM119.697 55H135.377V53H119.697V55ZM136.233 53.484L123.753 32.764L122.04 33.796L134.52 54.516L136.233 53.484ZM123.225 34.2245C125.086 33.5773 126.444 33.0103 127.594 32.3161C128.758 31.6129 129.67 30.8034 130.672 29.7183L129.202 28.3617C128.284 29.3566 127.515 30.0271 126.56 30.6039C125.59 31.1897 124.388 31.7027 122.568 32.3355L123.225 34.2245ZM112.737 12.36C115.545 12.36 117.13 12.7697 118.031 13.5119C118.873 14.2056 119.337 15.3839 119.337 17.6H121.337C121.337 15.1761 120.84 13.2344 119.303 11.9681C117.824 10.7503 115.609 10.36 112.737 10.36V12.36ZM119.337 17.6C119.337 19.9169 118.666 21.4419 117.425 22.4267C116.135 23.4508 114.046 24.04 110.897 24.04V26.04C114.228 26.04 116.859 25.4292 118.668 23.9933C120.527 22.5181 121.337 20.3231 121.337 17.6H119.337ZM110.897 24.04H108.497V26.04H110.897V24.04ZM109.489 25.1619L111.169 11.4819L109.184 11.2381L107.504 24.9181L109.489 25.1619ZM110.177 12.36H112.737V10.36H110.177V12.36ZM185.146 0.639996V-0.360004H184.26L184.154 0.519576L185.146 0.639996ZM181.866 27.68L182.858 27.8072L182.859 27.8004L181.866 27.68ZM181.226 36.8L180.339 37.2614L182.226 36.8238L181.226 36.8ZM180.186 34.8L179.295 35.2542L179.299 35.2614L180.186 34.8ZM178.106 30.72L178.997 30.2658L178.992 30.2563L178.987 30.2469L178.106 30.72ZM175.786 26.4L176.667 25.9269L176.658 25.9091L176.647 25.8918L175.786 26.4ZM160.586 0.639996L161.447 0.131807L161.157 -0.360004H160.586V0.639996ZM146.026 0.639996V-0.360004H145.142L145.034 0.517976L146.026 0.639996ZM139.466 54L138.474 53.878L138.336 55H139.466V54ZM152.986 54V55H153.87L153.979 54.1224L152.986 54ZM156.026 29.36L157.019 29.4824L157.019 29.4811L156.026 29.36ZM156.586 16.88L157.509 16.4944L155.586 16.88H156.586ZM163.146 30.08L164.007 29.5706L164.002 29.5627L163.997 29.5549L163.146 30.08ZM177.306 54L176.446 54.5094L176.736 55H177.306V54ZM192.106 54V55H192.991L193.099 54.122L192.106 54ZM198.666 0.639996L199.659 0.762015L199.797 -0.360004H198.666V0.639996ZM184.154 0.519576L180.874 27.5596L182.859 27.8004L186.139 0.760415L184.154 0.519576ZM180.874 27.5528C180.469 30.7166 180.307 33.3927 180.227 36.7762L182.226 36.8238C182.305 33.4873 182.464 30.8834 182.858 27.8072L180.874 27.5528ZM182.113 36.3386L181.073 34.3386L179.299 35.2614L180.339 37.2614L182.113 36.3386ZM181.077 34.3458L178.997 30.2658L177.215 31.1742L179.295 35.2542L181.077 34.3458ZM178.987 30.2469L176.667 25.9269L174.905 26.8731L177.225 31.1931L178.987 30.2469ZM176.647 25.8918L161.447 0.131807L159.725 1.14818L174.925 26.9082L176.647 25.8918ZM160.586 -0.360004H146.026V1.64H160.586V-0.360004ZM145.034 0.517976L138.474 53.878L140.459 54.122L147.019 0.762015L145.034 0.517976ZM139.466 55H152.986V53H139.466V55ZM153.979 54.1224L157.019 29.4824L155.034 29.2375L151.994 53.8776L153.979 54.1224ZM157.019 29.4811C157.425 26.1547 157.586 23.3138 157.586 19.28H155.586C155.586 23.2463 155.428 26.0053 155.034 29.2389L157.019 29.4811ZM157.586 19.28V16.88H155.586V19.28H157.586ZM155.664 17.2656C157.916 22.6545 159.939 26.7857 162.295 30.6051L163.997 29.5549C161.714 25.8543 159.737 21.8255 157.509 16.4944L155.664 17.2656ZM162.286 30.5894L176.446 54.5094L178.167 53.4906L164.007 29.5706L162.286 30.5894ZM177.306 55H192.106V53H177.306V55ZM193.099 54.122L199.659 0.762015L197.674 0.517976L191.114 53.878L193.099 54.122ZM198.666 -0.360004H185.146V1.64H198.666V-0.360004ZM51.08 72.64L51.87 73.2531L53.1218 71.64H51.08V72.64ZM34.68 72.64V71.64H34.1562L33.858 72.0705L34.68 72.64ZM25.48 85.92L24.658 85.3505L24.6538 85.3567L25.48 85.92ZM22.84 90.16L21.8913 90.4762L22.6303 92.6933L23.7238 90.6279L22.84 90.16ZM22.28 88.4L21.3271 88.7032L21.3381 88.7377L21.3515 88.7714L22.28 88.4ZM19.4 81.2L20.3214 80.8113L20.3187 80.805L19.4 81.2ZM15.72 72.64L16.6387 72.245L16.3786 71.64H15.72V72.64ZM0.76 72.64V71.64H-0.799961L-0.148677 73.0575L0.76 72.64ZM14.36 102.24L15.3523 102.364L15.3875 102.081L15.2687 101.822L14.36 102.24ZM11.4 126L10.4077 125.876L10.2677 127H11.4V126ZM24.92 126V127H25.8043L25.9125 126.122L24.92 126ZM27.8 102.64L27.01 102.027L26.8412 102.244L26.8075 102.518L27.8 102.64ZM51.08 71.64H34.68V73.64H51.08V71.64ZM33.858 72.0705L24.658 85.3505L26.302 86.4895L35.502 73.2095L33.858 72.0705ZM24.6538 85.3567C23.4478 87.1254 22.7027 88.282 21.9562 89.6921L23.7238 90.6279C24.4173 89.318 25.1122 88.2346 26.3062 86.4833L24.6538 85.3567ZM23.7887 89.8438C23.6747 89.5017 23.5798 89.1793 23.4878 88.8727C23.4004 88.5814 23.308 88.2774 23.2085 88.0286L21.3515 88.7714C21.412 88.9226 21.4796 89.1386 21.5722 89.4473C21.6602 89.7407 21.7653 90.0983 21.8913 90.4762L23.7887 89.8438ZM23.2329 88.0968C22.6555 86.282 22.472 85.9092 20.3214 80.8113L18.4786 81.5887C20.648 86.7308 20.7845 86.998 21.3271 88.7032L23.2329 88.0968ZM20.3187 80.805L16.6387 72.245L14.8013 73.035L18.4813 81.595L20.3187 80.805ZM15.72 71.64H0.76V73.64H15.72V71.64ZM-0.148677 73.0575L13.4513 102.658L15.2687 101.822L1.66868 72.2225L-0.148677 73.0575ZM13.3677 102.116L10.4077 125.876L12.3923 126.124L15.3523 102.364L13.3677 102.116ZM11.4 127H24.92V125H11.4V127ZM25.9125 126.122L28.7925 102.762L26.8075 102.518L23.9275 125.878L25.9125 126.122ZM28.59 103.253L51.87 73.2531L50.29 72.0269L27.01 102.027L28.59 103.253ZM105.453 96.64H106.453V96.6188L106.452 96.5977L105.453 96.64ZM91.5325 98.16L90.5341 98.217L90.5395 98.3111L90.5624 98.4025L91.5325 98.16ZM77.5325 70.6C68.4686 70.6 60.6733 73.6172 55.1362 78.8427C49.5949 84.0721 46.3725 91.4603 46.3725 100.08H48.3725C48.3725 91.9797 51.3901 85.1279 56.5088 80.2973C61.6317 75.4628 68.9165 72.6 77.5325 72.6V70.6ZM46.3725 100.08C46.3725 108.376 49.4125 115.39 54.7432 120.324C60.0674 125.252 67.6036 128.04 76.4925 128.04V126.04C68.0214 126.04 60.9976 123.388 56.1018 118.856C51.2125 114.33 48.3725 107.864 48.3725 100.08H46.3725ZM76.4925 128.04C85.3674 128.04 92.8747 124.995 98.1644 119.632C103.453 114.271 106.453 106.667 106.453 97.68H104.453C104.453 106.213 101.612 113.289 96.7406 118.228C91.8703 123.165 84.8976 126.04 76.4925 126.04V128.04ZM106.453 97.68C106.453 97.6794 106.453 97.6787 106.453 97.6781C106.453 97.6775 106.453 97.6769 106.453 97.6762C106.453 97.6756 106.453 97.675 106.453 97.6744C106.453 97.6737 106.453 97.6731 106.453 97.6725C106.453 97.6719 106.453 97.6712 106.453 97.6706C106.453 97.67 106.453 97.6693 106.453 97.6687C106.453 97.6681 106.453 97.6675 106.453 97.6668C106.453 97.6662 106.453 97.6656 106.453 97.6649C106.453 97.6643 106.453 97.6637 106.453 97.663C106.453 97.6624 106.453 97.6618 106.453 97.6612C106.453 97.6605 106.453 97.6599 106.453 97.6593C106.453 97.6586 106.453 97.658 106.453 97.6574C106.453 97.6567 106.453 97.6561 106.453 97.6555C106.453 97.6548 106.453 97.6542 106.453 97.6536C106.453 97.6529 106.453 97.6523 106.453 97.6517C106.453 97.651 106.453 97.6504 106.453 97.6498C106.453 97.6491 106.453 97.6485 106.453 97.6479C106.453 97.6472 106.453 97.6466 106.453 97.646C106.453 97.6453 106.453 97.6447 106.453 97.6441C106.453 97.6434 106.453 97.6428 106.453 97.6421C106.453 97.6415 106.453 97.6409 106.453 97.6402C106.453 97.6396 106.453 97.639 106.453 97.6383C106.453 97.6377 106.453 97.637 106.453 97.6364C106.453 97.6358 106.453 97.6351 106.453 97.6345C106.453 97.6339 106.453 97.6332 106.453 97.6326C106.453 97.6319 106.453 97.6313 106.453 97.6307C106.453 97.63 106.453 97.6294 106.453 97.6287C106.453 97.6281 106.453 97.6274 106.453 97.6268C106.453 97.6262 106.453 97.6255 106.453 97.6249C106.453 97.6242 106.453 97.6236 106.453 97.623C106.453 97.6223 106.453 97.6217 106.453 97.621C106.453 97.6204 106.453 97.6197 106.453 97.6191C106.453 97.6185 106.453 97.6178 106.453 97.6172C106.453 97.6165 106.453 97.6159 106.453 97.6152C106.453 97.6146 106.453 97.614 106.453 97.6133C106.453 97.6127 106.453 97.612 106.453 97.6114C106.453 97.6107 106.453 97.6101 106.453 97.6094C106.453 97.6088 106.453 97.6081 106.453 97.6075C106.453 97.6068 106.453 97.6062 106.453 97.6056C106.453 97.6049 106.453 97.6043 106.453 97.6036C106.453 97.603 106.453 97.6023 106.453 97.6017C106.453 97.601 106.453 97.6004 106.453 97.5997C106.453 97.5991 106.453 97.5984 106.453 97.5978C106.453 97.5971 106.453 97.5965 106.453 97.5958C106.453 97.5952 106.453 97.5945 106.453 97.5939C106.453 97.5932 106.453 97.5926 106.453 97.5919C106.453 97.5913 106.453 97.5906 106.453 97.59C106.453 97.5893 106.453 97.5887 106.453 97.588C106.453 97.5874 106.453 97.5867 106.453 97.5861C106.453 97.5854 106.453 97.5848 106.453 97.5841C106.453 97.5835 106.453 97.5828 106.453 97.5822C106.453 97.5815 106.453 97.5808 106.453 97.5802C106.453 97.5795 106.453 97.5789 106.453 97.5782C106.453 97.5776 106.453 97.5769 106.453 97.5763C106.453 97.5756 106.453 97.575 106.453 97.5743C106.453 97.5736 106.453 97.573 106.453 97.5723C106.453 97.5717 106.453 97.571 106.453 97.5704C106.453 97.5697 106.453 97.5691 106.453 97.5684C106.453 97.5677 106.453 97.5671 106.453 97.5664C106.453 97.5658 106.453 97.5651 106.453 97.5645C106.453 97.5638 106.453 97.5631 106.453 97.5625C106.453 97.5618 106.453 97.5612 106.453 97.5605C106.453 97.5599 106.453 97.5592 106.453 97.5585C106.453 97.5579 106.453 97.5572 106.453 97.5566C106.453 97.5559 106.453 97.5552 106.453 97.5546C106.453 97.5539 106.453 97.5533 106.453 97.5526C106.453 97.5519 106.453 97.5513 106.453 97.5506C106.453 97.55 106.453 97.5493 106.453 97.5486C106.453 97.548 106.453 97.5473 106.453 97.5467C106.453 97.546 106.453 97.5453 106.453 97.5447C106.453 97.544 106.453 97.5434 106.453 97.5427C106.453 97.542 106.453 97.5414 106.453 97.5407C106.453 97.54 106.453 97.5394 106.453 97.5387C106.453 97.538 106.453 97.5374 106.453 97.5367C106.453 97.5361 106.453 97.5354 106.453 97.5347C106.453 97.5341 106.453 97.5334 106.453 97.5327C106.453 97.5321 106.453 97.5314 106.453 97.5307C106.453 97.5301 106.453 97.5294 106.453 97.5287C106.453 97.5281 106.453 97.5274 106.453 97.5267C106.453 97.5261 106.453 97.5254 106.453 97.5247C106.453 97.5241 106.453 97.5234 106.453 97.5228C106.453 97.5221 106.453 97.5214 106.453 97.5208C106.453 97.5201 106.453 97.5194 106.453 97.5187C106.453 97.5181 106.453 97.5174 106.453 97.5167C106.453 97.5161 106.453 97.5154 106.453 97.5147C106.453 97.5141 106.453 97.5134 106.453 97.5127C106.453 97.5121 106.453 97.5114 106.453 97.5107C106.453 97.5101 106.453 97.5094 106.453 97.5087C106.453 97.508 106.453 97.5074 106.453 97.5067C106.453 97.506 106.453 97.5054 106.453 97.5047C106.453 97.504 106.453 97.5034 106.453 97.5027C106.453 97.502 106.453 97.5014 106.453 97.5007C106.453 97.5 106.453 97.4993 106.453 97.4987C106.453 97.498 106.453 97.4973 106.453 97.4967C106.453 97.496 106.453 97.4953 106.453 97.4946C106.453 97.494 106.453 97.4933 106.453 97.4926C106.453 97.4919 106.453 97.4913 106.453 97.4906C106.453 97.4899 106.453 97.4893 106.453 97.4886C106.453 97.4879 106.453 97.4872 106.453 97.4866C106.453 97.4859 106.453 97.4852 106.453 97.4845C106.453 97.4839 106.453 97.4832 106.453 97.4825C106.453 97.4818 106.453 97.4812 106.453 97.4805C106.453 97.4798 106.453 97.4791 106.453 97.4785C106.453 97.4778 106.453 97.4771 106.453 97.4764C106.453 97.4758 106.453 97.4751 106.453 97.4744C106.453 97.4737 106.453 97.4731 106.453 97.4724C106.453 97.4717 106.453 97.471 106.453 97.4704C106.453 97.4697 106.453 97.469 106.453 97.4683C106.453 97.4676 106.453 97.467 106.453 97.4663C106.453 97.4656 106.453 97.4649 106.453 97.4643C106.453 97.4636 106.453 97.4629 106.453 97.4622C106.453 97.4615 106.453 97.4609 106.453 97.4602C106.453 97.4595 106.453 97.4588 106.453 97.4582C106.453 97.4575 106.453 97.4568 106.453 97.4561C106.453 97.4554 106.453 97.4548 106.453 97.4541C106.453 97.4534 106.453 97.4527 106.453 97.452C106.453 97.4514 106.453 97.4507 106.453 97.45C106.453 97.4493 106.453 97.4486 106.453 97.448C106.453 97.4473 106.453 97.4466 106.453 97.4459C106.453 97.4452 106.453 97.4446 106.453 97.4439C106.453 97.4432 106.453 97.4425 106.453 97.4418C106.453 97.4412 106.453 97.4405 106.453 97.4398C106.453 97.4391 106.453 97.4384 106.453 97.4377C106.453 97.4371 106.453 97.4364 106.453 97.4357C106.453 97.435 106.453 97.4343 106.453 97.4336C106.453 97.433 106.453 97.4323 106.453 97.4316C106.453 97.4309 106.453 97.4302 106.453 97.4296C106.453 97.4289 106.453 97.4282 106.453 97.4275C106.453 97.4268 106.453 97.4261 106.453 97.4254C106.453 97.4248 106.453 97.4241 106.453 97.4234C106.453 97.4227 106.453 97.422 106.453 97.4213C106.453 97.4207 106.453 97.42 106.453 97.4193C106.453 97.4186 106.453 97.4179 106.453 97.4172C106.453 97.4165 106.453 97.4159 106.453 97.4152C106.453 97.4145 106.453 97.4138 106.453 97.4131C106.453 97.4124 106.453 97.4118 106.453 97.4111C106.453 97.4104 106.453 97.4097 106.453 97.409C106.453 97.4083 106.453 97.4076 106.453 97.4069C106.453 97.4063 106.453 97.4056 106.453 97.4049C106.453 97.4042 106.453 97.4035 106.453 97.4028C106.453 97.4021 106.453 97.4015 106.453 97.4008C106.453 97.4001 106.453 97.3994 106.453 97.3987C106.453 97.398 106.453 97.3973 106.453 97.3966C106.453 97.396 106.453 97.3953 106.453 97.3946C106.453 97.3939 106.453 97.3932 106.453 97.3925C106.453 97.3918 106.453 97.3911 106.453 97.3904C106.453 97.3898 106.453 97.3891 106.453 97.3884C106.453 97.3877 106.453 97.387 106.453 97.3863C106.453 97.3856 106.453 97.3849 106.453 97.3842C106.453 97.3836 106.453 97.3829 106.453 97.3822C106.453 97.3815 106.453 97.3808 106.453 97.3801C106.453 97.3794 106.453 97.3787 106.453 97.378C106.453 97.3773 106.453 97.3767 106.453 97.376C106.453 97.3753 106.453 97.3746 106.453 97.3739C106.453 97.3732 106.453 97.3725 106.453 97.3718C106.453 97.3711 106.453 97.3704 106.453 97.3697C106.453 97.3691 106.453 97.3684 106.453 97.3677C106.453 97.367 106.453 97.3663 106.453 97.3656C106.453 97.3649 106.453 97.3642 106.453 97.3635C106.453 97.3628 106.453 97.3621 106.453 97.3614C106.453 97.3608 106.453 97.3601 106.453 97.3594C106.453 97.3587 106.453 97.358 106.453 97.3573C106.453 97.3566 106.453 97.3559 106.453 97.3552C106.453 97.3545 106.453 97.3538 106.453 97.3531C106.453 97.3524 106.453 97.3517 106.453 97.3511C106.453 97.3504 106.453 97.3497 106.453 97.349C106.453 97.3483 106.453 97.3476 106.453 97.3469C106.453 97.3462 106.453 97.3455 106.453 97.3448C106.453 97.3441 106.453 97.3434 106.453 97.3427C106.453 97.342 106.453 97.3413 106.453 97.3406C106.453 97.34 106.453 97.3393 106.453 97.3386C106.453 97.3379 106.453 97.3372 106.453 97.3365C106.453 97.3358 106.453 97.3351 106.453 97.3344C106.453 97.3337 106.453 97.333 106.453 97.3323C106.453 97.3316 106.453 97.3309 106.453 97.3302C106.453 97.3295 106.453 97.3288 106.453 97.3281C106.453 97.3274 106.453 97.3268 106.453 97.326C106.453 97.3254 106.453 97.3247 106.453 97.324C106.453 97.3233 106.453 97.3226 106.453 97.3219C106.453 97.3212 106.453 97.3205 106.453 97.3198C106.453 97.3191 106.453 97.3184 106.453 97.3177C106.453 97.317 106.453 97.3163 106.453 97.3156C106.453 97.3149 106.453 97.3142 106.453 97.3135C106.453 97.3128 106.453 97.3121 106.453 97.3114C106.453 97.3107 106.453 97.31 106.453 97.3093C106.453 97.3086 106.453 97.3079 106.453 97.3072C106.453 97.3065 106.453 97.3059 106.453 97.3052C106.453 97.3045 106.453 97.3038 106.453 97.3031C106.453 97.3024 106.453 97.3017 106.453 97.301C106.453 97.3003 106.453 97.2996 106.453 97.2989C106.453 97.2982 106.453 97.2975 106.453 97.2968C106.453 97.2961 106.453 97.2954 106.453 97.2947C106.453 97.294 106.453 97.2933 106.453 97.2926C106.453 97.2919 106.453 97.2912 106.453 97.2905C106.453 97.2898 106.453 97.2891 106.453 97.2884C106.453 97.2877 106.453 97.287 106.453 97.2863C106.453 97.2856 106.453 97.2849 106.453 97.2842C106.453 97.2835 106.453 97.2828 106.453 97.2821C106.453 97.2814 106.453 97.2807 106.453 97.28C106.453 97.2793 106.453 97.2786 106.453 97.2779C106.453 97.2772 106.453 97.2765 106.453 97.2758C106.453 97.2751 106.453 97.2744 106.453 97.2737C106.453 97.273 106.453 97.2723 106.453 97.2716C106.453 97.2709 106.453 97.2702 106.453 97.2695C106.453 97.2688 106.453 97.2681 106.453 97.2674C106.453 97.2667 106.453 97.266 106.453 97.2653C106.453 97.2646 106.453 97.2639 106.453 97.2632C106.453 97.2625 106.453 97.2618 106.453 97.2611C106.453 97.2604 106.453 97.2597 106.453 97.259C106.453 97.2583 106.453 97.2576 106.453 97.2569C106.453 97.2562 106.453 97.2555 106.453 97.2548C106.453 97.2541 106.453 97.2534 106.453 97.2527C106.453 97.252 106.453 97.2513 106.453 97.2506C106.453 97.2499 106.453 97.2492 106.453 97.2485C106.453 97.2478 106.453 97.2471 106.453 97.2464C106.453 97.2457 106.453 97.245 106.453 97.2443C106.453 97.2436 106.453 97.2429 106.453 97.2422C106.453 97.2415 106.453 97.2408 106.453 97.2401C106.453 97.2394 106.453 97.2387 106.453 97.238C106.453 97.2373 106.453 97.2366 106.453 97.2359C106.453 97.2352 106.453 97.2345 106.453 97.2338C106.453 97.2331 106.453 97.2324 106.453 97.2317C106.453 97.231 106.453 97.2303 106.453 97.2296C106.453 97.2289 106.453 97.2282 106.453 97.2275C106.453 97.2268 106.453 97.2261 106.453 97.2254C106.453 97.2247 106.453 97.224 106.453 97.2233C106.453 97.2225 106.453 97.2218 106.453 97.2211C106.453 97.2204 106.453 97.2197 106.453 97.219C106.453 97.2183 106.453 97.2176 106.453 97.2169C106.453 97.2162 106.453 97.2155 106.453 97.2148C106.453 97.2141 106.453 97.2134 106.453 97.2127C106.453 97.212 106.453 97.2113 106.453 97.2106C106.453 97.2099 106.453 97.2092 106.453 97.2085C106.453 97.2078 106.453 97.2071 106.453 97.2064C106.453 97.2057 106.453 97.205 106.453 97.2043C106.453 97.2036 106.453 97.2029 106.453 97.2022C106.453 97.2015 106.453 97.2008 106.453 97.2001C106.453 97.1994 106.453 97.1987 106.453 97.198C106.453 97.1973 106.453 97.1966 106.453 97.1959C106.453 97.1952 106.453 97.1945 106.453 97.1937C106.453 97.193 106.453 97.1923 106.453 97.1916C106.453 97.1909 106.453 97.1902 106.453 97.1895C106.453 97.1888 106.453 97.1881 106.453 97.1874C106.453 97.1867 106.453 97.186 106.453 97.1853C106.453 97.1846 106.453 97.1839 106.453 97.1832C106.453 97.1825 106.453 97.1818 106.453 97.1811C106.453 97.1804 106.453 97.1797 106.453 97.179C106.453 97.1783 106.453 97.1776 106.453 97.1769C106.453 97.1762 106.453 97.1755 106.453 97.1748C106.453 97.1741 106.453 97.1734 106.453 97.1727C106.453 97.172 106.453 97.1712 106.453 97.1705C106.453 97.1698 106.453 97.1691 106.453 97.1684C106.453 97.1677 106.453 97.167 106.453 97.1663C106.453 97.1656 106.453 97.1649 106.453 97.1642C106.453 97.1635 106.453 97.1628 106.453 97.1621C106.453 97.1614 106.453 97.1607 106.453 97.16C106.453 97.1593 106.453 97.1586 106.453 97.1579C106.453 97.1572 106.453 97.1565 106.453 97.1558C106.453 97.1551 106.453 97.1544 106.453 97.1537C106.453 97.153 106.453 97.1523 106.453 97.1516C106.453 97.1509 106.453 97.1502 106.453 97.1495C106.453 97.1488 106.453 97.148 106.453 97.1473C106.453 97.1466 106.453 97.1459 106.453 97.1452C106.453 97.1445 106.453 97.1438 106.453 97.1431C106.453 97.1424 106.453 97.1417 106.453 97.141C106.453 97.1403 106.453 97.1396 106.453 97.1389C106.453 97.1382 106.453 97.1375 106.453 97.1368C106.453 97.1361 106.453 97.1354 106.453 97.1347C106.453 97.134 106.453 97.1333 106.453 97.1326C106.453 97.1319 106.453 97.1312 106.453 97.1305C106.453 97.1298 106.453 97.1291 106.453 97.1284C106.453 97.1277 106.453 97.127 106.453 97.1263C106.453 97.1255 106.453 97.1248 106.453 97.1241C106.453 97.1234 106.453 97.1227 106.453 97.122C106.453 97.1213 106.453 97.1206 106.453 97.1199C106.453 97.1192 106.453 97.1185 106.453 97.1178C106.453 97.1171 106.453 97.1164 106.453 97.1157C106.453 97.115 106.453 97.1143 106.453 97.1136C106.453 97.1129 106.453 97.1122 106.453 97.1115C106.453 97.1108 106.453 97.1101 106.453 97.1094C106.453 97.1087 106.453 97.108 106.453 97.1073C106.453 97.1066 106.453 97.1059 106.453 97.1052C106.453 97.1045 106.453 97.1038 106.453 97.1031C106.453 97.1024 106.453 97.1017 106.453 97.101C106.453 97.1003 106.453 97.0996 106.453 97.0989C106.453 97.0982 106.453 97.0975 106.453 97.0967C106.453 97.096 106.453 97.0953 106.453 97.0946C106.453 97.0939 106.453 97.0932 106.453 97.0925C106.453 97.0918 106.453 97.0911 106.453 97.0904C106.453 97.0897 106.453 97.089 106.453 97.0883C106.453 97.0876 106.453 97.0869 106.453 97.0862C106.453 97.0855 106.453 97.0848 106.453 97.0841C106.453 97.0834 106.453 97.0827 106.453 97.082C106.453 97.0813 106.453 97.0806 106.453 97.0799C106.453 97.0792 106.453 97.0785 106.453 97.0778C106.453 97.0771 106.453 97.0764 106.453 97.0757C106.453 97.075 106.453 97.0743 106.453 97.0736C106.453 97.0729 106.453 97.0722 106.453 97.0715C106.453 97.0708 106.453 97.0701 106.453 97.0694C106.453 97.0687 106.453 97.068 106.453 97.0673C106.453 97.0666 106.453 97.0659 106.453 97.0652C106.453 97.0645 106.453 97.0638 106.453 97.0631C106.453 97.0624 106.453 97.0617 106.453 97.061C106.453 97.0603 106.453 97.0596 106.453 97.0589C106.453 97.0582 106.453 97.0575 106.453 97.0568C106.453 97.0561 106.453 97.0554 106.453 97.0547C106.453 97.054 106.453 97.0533 106.453 97.0526C106.453 97.0519 106.453 97.0512 106.453 97.0505C106.453 97.0498 106.453 97.0491 106.453 97.0484C106.453 97.0477 106.453 97.047 106.453 97.0463C106.453 97.0456 106.453 97.0449 106.453 97.0442C106.453 97.0435 106.453 97.0428 106.453 97.0421C106.453 97.0414 106.453 97.0407 106.453 97.04C106.453 97.0393 106.453 97.0386 106.453 97.0379C106.453 97.0372 106.453 97.0365 106.453 97.0358C106.453 97.0351 106.453 97.0344 106.453 97.0337C106.453 97.033 106.453 97.0323 106.453 97.0316C106.453 97.0309 106.453 97.0302 106.453 97.0295C106.453 97.0288 106.453 97.0281 106.453 97.0274C106.453 97.0267 106.453 97.026 106.453 97.0253C106.453 97.0246 106.453 97.0239 106.453 97.0232C106.453 97.0225 106.453 97.0218 106.453 97.0211C106.453 97.0204 106.453 97.0197 106.453 97.019C106.453 97.0183 106.453 97.0176 106.453 97.0169C106.453 97.0162 106.453 97.0155 106.453 97.0148C106.453 97.0141 106.453 97.0135 106.453 97.0127C106.453 97.0121 106.453 97.0114 106.453 97.0107C106.453 97.01 106.453 97.0093 106.453 97.0086C106.453 97.0079 106.453 97.0072 106.453 97.0065C106.453 97.0058 106.453 97.0051 106.453 97.0044C106.453 97.0037 106.453 97.003 106.453 97.0023C106.453 97.0016 106.453 97.0009 106.453 97.0002C106.453 96.9995 106.453 96.9988 106.453 96.9981C106.453 96.9974 106.453 96.9967 106.453 96.996C106.453 96.9953 106.453 96.9946 106.453 96.9939C106.453 96.9932 106.453 96.9926 106.453 96.9919C106.453 96.9912 106.453 96.9905 106.453 96.9898C106.453 96.9891 106.453 96.9884 106.453 96.9877C106.453 96.987 106.453 96.9863 106.453 96.9856C106.453 96.9849 106.453 96.9842 106.453 96.9835C106.453 96.9828 106.453 96.9821 106.453 96.9814C106.453 96.9807 106.453 96.98 106.453 96.9794C106.453 96.9787 106.453 96.978 106.453 96.9773C106.453 96.9766 106.453 96.9759 106.453 96.9752C106.453 96.9745 106.453 96.9738 106.453 96.9731C106.453 96.9724 106.453 96.9717 106.453 96.971C106.453 96.9703 106.453 96.9696 106.453 96.9689C106.453 96.9683 106.453 96.9676 106.453 96.9669C106.453 96.9662 106.453 96.9655 106.453 96.9648C106.453 96.9641 106.453 96.9634 106.453 96.9627C106.453 96.962 106.453 96.9613 106.453 96.9606C106.453 96.9599 106.453 96.9592 106.453 96.9586C106.453 96.9579 106.453 96.9572 106.453 96.9565C106.453 96.9558 106.453 96.9551 106.453 96.9544C106.453 96.9537 106.453 96.953 106.453 96.9523C106.453 96.9516 106.453 96.9509 106.453 96.9503C106.453 96.9496 106.453 96.9489 106.453 96.9482C106.453 96.9475 106.453 96.9468 106.453 96.9461C106.453 96.9454 106.453 96.9447 106.453 96.944C106.453 96.9433 106.453 96.9427 106.453 96.942C106.453 96.9413 106.453 96.9406 106.453 96.9399C106.453 96.9392 106.453 96.9385 106.453 96.9378C106.453 96.9371 106.453 96.9364 106.453 96.9358C106.453 96.9351 106.453 96.9344 106.453 96.9337C106.453 96.933 106.453 96.9323 106.453 96.9316C106.453 96.9309 106.453 96.9302 106.453 96.9296C106.453 96.9289 106.453 96.9282 106.453 96.9275C106.453 96.9268 106.453 96.9261 106.453 96.9254C106.453 96.9247 106.453 96.924 106.453 96.9234C106.453 96.9227 106.453 96.922 106.453 96.9213C106.453 96.9206 106.453 96.9199 106.453 96.9192C106.453 96.9185 106.453 96.9179 106.453 96.9172C106.453 96.9165 106.453 96.9158 106.453 96.9151C106.453 96.9144 106.453 96.9137 106.453 96.9131C106.453 96.9124 106.453 96.9117 106.453 96.911C106.453 96.9103 106.453 96.9096 106.453 96.9089C106.453 96.9082 106.453 96.9076 106.453 96.9069C106.453 96.9062 106.453 96.9055 106.453 96.9048C106.453 96.9041 106.453 96.9035 106.453 96.9028C106.453 96.9021 106.453 96.9014 106.453 96.9007C106.453 96.9 106.453 96.8993 106.453 96.8987C106.453 96.898 106.453 96.8973 106.453 96.8966C106.453 96.8959 106.453 96.8952 106.453 96.8946C106.453 96.8939 106.453 96.8932 106.453 96.8925C106.453 96.8918 106.453 96.8911 106.453 96.8904C106.453 96.8898 106.453 96.8891 106.453 96.8884C106.453 96.8877 106.453 96.887 106.453 96.8864C106.453 96.8857 106.453 96.885 106.453 96.8843C106.453 96.8836 106.453 96.8829 106.453 96.8823C106.453 96.8816 106.453 96.8809 106.453 96.8802C106.453 96.8795 106.453 96.8788 106.453 96.8782C106.453 96.8775 106.453 96.8768 106.453 96.8761C106.453 96.8754 106.453 96.8748 106.453 96.8741C106.453 96.8734 106.453 96.8727 106.453 96.872C106.453 96.8714 106.453 96.8707 106.453 96.87C106.453 96.8693 106.453 96.8686 106.453 96.868C106.453 96.8673 106.453 96.8666 106.453 96.8659C106.453 96.8652 106.453 96.8646 106.453 96.8639C106.453 96.8632 106.453 96.8625 106.453 96.8618C106.453 96.8612 106.453 96.8605 106.453 96.8598C106.453 96.8591 106.453 96.8585 106.453 96.8578C106.453 96.8571 106.453 96.8564 106.453 96.8557C106.453 96.8551 106.453 96.8544 106.453 96.8537C106.453 96.853 106.453 96.8524 106.453 96.8517C106.453 96.851 106.453 96.8503 106.453 96.8496C106.453 96.849 106.453 96.8483 106.453 96.8476C106.453 96.8469 106.453 96.8463 106.453 96.8456C106.453 96.8449 106.453 96.8442 106.453 96.8436C106.453 96.8429 106.453 96.8422 106.453 96.8415C106.453 96.8409 106.453 96.8402 106.453 96.8395C106.453 96.8388 106.453 96.8382 106.453 96.8375C106.453 96.8368 106.453 96.8361 106.453 96.8355C106.453 96.8348 106.453 96.8341 106.453 96.8334C106.453 96.8328 106.453 96.8321 106.453 96.8314C106.453 96.8307 106.453 96.8301 106.453 96.8294C106.453 96.8287 106.453 96.8281 106.453 96.8274C106.453 96.8267 106.453 96.826 106.453 96.8254C106.453 96.8247 106.453 96.824 106.453 96.8233C106.453 96.8227 106.453 96.822 106.453 96.8213C106.453 96.8207 106.453 96.82 106.453 96.8193C106.453 96.8186 106.453 96.818 106.453 96.8173C106.453 96.8166 106.453 96.816 106.453 96.8153C106.453 96.8146 106.453 96.814 106.453 96.8133C106.453 96.8126 106.453 96.8119 106.453 96.8113C106.453 96.8106 106.453 96.8099 106.453 96.8093C106.453 96.8086 106.453 96.8079 106.453 96.8073C106.453 96.8066 106.453 96.8059 106.453 96.8053C106.453 96.8046 106.453 96.8039 106.453 96.8033C106.453 96.8026 106.453 96.8019 106.453 96.8012C106.453 96.8006 106.453 96.7999 106.453 96.7992C106.453 96.7986 106.453 96.7979 106.453 96.7972C106.453 96.7966 106.453 96.7959 106.453 96.7952C106.453 96.7946 106.453 96.7939 106.453 96.7933C106.453 96.7926 106.453 96.7919 106.453 96.7913C106.453 96.7906 106.453 96.7899 106.453 96.7893C106.453 96.7886 106.453 96.7879 106.453 96.7873C106.453 96.7866 106.453 96.7859 106.453 96.7853C106.453 96.7846 106.453 96.7839 106.453 96.7833C106.453 96.7826 106.453 96.782 106.453 96.7813C106.453 96.7806 106.453 96.78 106.453 96.7793C106.453 96.7786 106.453 96.778 106.453 96.7773C106.453 96.7766 106.453 96.776 106.453 96.7753C106.453 96.7747 106.453 96.774 106.453 96.7733C106.453 96.7727 106.453 96.772 106.453 96.7714C106.453 96.7707 106.453 96.77 106.453 96.7694C106.453 96.7687 106.453 96.7681 106.453 96.7674C106.453 96.7667 106.453 96.7661 106.453 96.7654C106.453 96.7648 106.453 96.7641 106.453 96.7634C106.453 96.7628 106.453 96.7621 106.453 96.7615C106.453 96.7608 106.453 96.7601 106.453 96.7595C106.453 96.7588 106.453 96.7582 106.453 96.7575C106.453 96.7569 106.453 96.7562 106.453 96.7555C106.453 96.7549 106.453 96.7542 106.453 96.7536C106.453 96.7529 106.453 96.7523 106.453 96.7516C106.453 96.7509 106.453 96.7503 106.453 96.7496C106.453 96.749 106.453 96.7483 106.453 96.7477C106.453 96.747 106.453 96.7464 106.453 96.7457C106.453 96.745 106.453 96.7444 106.453 96.7437C106.453 96.7431 106.453 96.7424 106.453 96.7418C106.453 96.7411 106.453 96.7405 106.453 96.7398C106.453 96.7392 106.453 96.7385 106.453 96.7378C106.453 96.7372 106.453 96.7365 106.453 96.7359C106.453 96.7352 106.453 96.7346 106.453 96.7339C106.453 96.7333 106.453 96.7326 106.453 96.732C106.453 96.7313 106.453 96.7307 106.453 96.73C106.453 96.7294 106.453 96.7287 106.453 96.7281C106.453 96.7274 106.453 96.7268 106.453 96.7261C106.453 96.7255 106.453 96.7248 106.453 96.7242C106.453 96.7235 106.453 96.7229 106.453 96.7222C106.453 96.7216 106.453 96.7209 106.453 96.7203C106.453 96.7196 106.453 96.719 106.453 96.7183C106.453 96.7177 106.453 96.717 106.453 96.7164C106.453 96.7157 106.453 96.7151 106.453 96.7144C106.453 96.7138 106.453 96.7132 106.453 96.7125C106.453 96.7119 106.453 96.7112 106.453 96.7106C106.453 96.7099 106.453 96.7093 106.453 96.7086C106.453 96.708 106.453 96.7073 106.453 96.7067C106.453 96.706 106.453 96.7054 106.453 96.7048C106.453 96.7041 106.453 96.7035 106.453 96.7028C106.453 96.7022 106.453 96.7015 106.453 96.7009C106.453 96.7003 106.453 96.6996 106.453 96.699C106.453 96.6983 106.453 96.6977 106.453 96.697C106.453 96.6964 106.453 96.6958 106.453 96.6951C106.453 96.6945 106.453 96.6938 106.453 96.6932C106.453 96.6926 106.453 96.6919 106.453 96.6913C106.453 96.6906 106.453 96.69 106.453 96.6893C106.453 96.6887 106.453 96.6881 106.453 96.6874C106.453 96.6868 106.453 96.6861 106.453 96.6855C106.453 96.6849 106.453 96.6842 106.453 96.6836C106.453 96.683 106.453 96.6823 106.453 96.6817C106.453 96.681 106.453 96.6804 106.453 96.6798C106.453 96.6791 106.453 96.6785 106.453 96.6779C106.453 96.6772 106.453 96.6766 106.453 96.6759C106.453 96.6753 106.453 96.6747 106.453 96.674C106.453 96.6734 106.453 96.6728 106.453 96.6721C106.453 96.6715 106.453 96.6709 106.453 96.6702C106.453 96.6696 106.453 96.669 106.453 96.6683C106.453 96.6677 106.453 96.6671 106.453 96.6664C106.453 96.6658 106.453 96.6652 106.453 96.6645C106.453 96.6639 106.453 96.6633 106.453 96.6626C106.453 96.662 106.453 96.6614 106.453 96.6607C106.453 96.6601 106.453 96.6595 106.453 96.6588C106.453 96.6582 106.453 96.6576 106.453 96.6569C106.453 96.6563 106.453 96.6557 106.453 96.6551C106.453 96.6544 106.453 96.6538 106.453 96.6532C106.453 96.6525 106.453 96.6519 106.453 96.6513C106.453 96.6507 106.453 96.65 106.453 96.6494C106.453 96.6488 106.453 96.6481 106.453 96.6475C106.453 96.6469 106.453 96.6463 106.453 96.6456C106.453 96.645 106.453 96.6444 106.453 96.6438C106.453 96.6431 106.453 96.6425 106.453 96.6419C106.453 96.6413 106.453 96.6406 106.453 96.64H104.453C104.453 96.6406 104.453 96.6413 104.453 96.6419C104.453 96.6425 104.453 96.6431 104.453 96.6438C104.453 96.6444 104.453 96.645 104.453 96.6456C104.453 96.6463 104.453 96.6469 104.453 96.6475C104.453 96.6481 104.453 96.6488 104.453 96.6494C104.453 96.65 104.453 96.6507 104.453 96.6513C104.453 96.6519 104.453 96.6525 104.453 96.6532C104.453 96.6538 104.453 96.6544 104.453 96.6551C104.453 96.6557 104.453 96.6563 104.453 96.6569C104.453 96.6576 104.453 96.6582 104.453 96.6588C104.453 96.6595 104.453 96.6601 104.453 96.6607C104.453 96.6614 104.453 96.662 104.453 96.6626C104.453 96.6633 104.453 96.6639 104.453 96.6645C104.453 96.6652 104.453 96.6658 104.453 96.6664C104.453 96.6671 104.453 96.6677 104.453 96.6683C104.453 96.669 104.453 96.6696 104.453 96.6702C104.453 96.6709 104.453 96.6715 104.453 96.6721C104.453 96.6728 104.453 96.6734 104.453 96.674C104.453 96.6747 104.453 96.6753 104.453 96.6759C104.453 96.6766 104.453 96.6772 104.453 96.6779C104.453 96.6785 104.453 96.6791 104.453 96.6798C104.453 96.6804 104.453 96.681 104.453 96.6817C104.453 96.6823 104.453 96.683 104.453 96.6836C104.453 96.6842 104.453 96.6849 104.453 96.6855C104.453 96.6861 104.453 96.6868 104.453 96.6874C104.453 96.6881 104.453 96.6887 104.453 96.6893C104.453 96.69 104.453 96.6906 104.453 96.6913C104.453 96.6919 104.453 96.6926 104.453 96.6932C104.453 96.6938 104.453 96.6945 104.453 96.6951C104.453 96.6958 104.453 96.6964 104.453 96.697C104.453 96.6977 104.453 96.6983 104.453 96.699C104.453 96.6996 104.453 96.7003 104.453 96.7009C104.453 96.7015 104.453 96.7022 104.453 96.7028C104.453 96.7035 104.453 96.7041 104.453 96.7048C104.453 96.7054 104.453 96.706 104.453 96.7067C104.453 96.7073 104.453 96.708 104.453 96.7086C104.453 96.7093 104.453 96.7099 104.453 96.7106C104.453 96.7112 104.453 96.7119 104.453 96.7125C104.453 96.7132 104.453 96.7138 104.453 96.7144C104.453 96.7151 104.453 96.7157 104.453 96.7164C104.453 96.717 104.453 96.7177 104.453 96.7183C104.453 96.719 104.453 96.7196 104.453 96.7203C104.453 96.7209 104.453 96.7216 104.453 96.7222C104.453 96.7229 104.453 96.7235 104.453 96.7242C104.453 96.7248 104.453 96.7255 104.453 96.7261C104.453 96.7268 104.453 96.7274 104.453 96.7281C104.453 96.7287 104.453 96.7294 104.453 96.73C104.453 96.7307 104.453 96.7313 104.453 96.732C104.453 96.7326 104.453 96.7333 104.453 96.7339C104.453 96.7346 104.453 96.7352 104.453 96.7359C104.453 96.7365 104.453 96.7372 104.453 96.7378C104.453 96.7385 104.453 96.7392 104.453 96.7398C104.453 96.7405 104.453 96.7411 104.453 96.7418C104.453 96.7424 104.453 96.7431 104.453 96.7437C104.453 96.7444 104.453 96.745 104.453 96.7457C104.453 96.7464 104.453 96.747 104.453 96.7477C104.453 96.7483 104.453 96.749 104.453 96.7496C104.453 96.7503 104.453 96.7509 104.453 96.7516C104.453 96.7523 104.453 96.7529 104.453 96.7536C104.453 96.7542 104.453 96.7549 104.453 96.7555C104.453 96.7562 104.453 96.7569 104.453 96.7575C104.453 96.7582 104.453 96.7588 104.453 96.7595C104.453 96.7601 104.453 96.7608 104.453 96.7615C104.453 96.7621 104.453 96.7628 104.453 96.7634C104.453 96.7641 104.453 96.7648 104.453 96.7654C104.453 96.7661 104.453 96.7667 104.453 96.7674C104.453 96.7681 104.453 96.7687 104.453 96.7694C104.453 96.77 104.453 96.7707 104.453 96.7714C104.453 96.772 104.453 96.7727 104.453 96.7733C104.453 96.774 104.453 96.7747 104.453 96.7753C104.453 96.776 104.453 96.7766 104.453 96.7773C104.453 96.778 104.453 96.7786 104.453 96.7793C104.453 96.78 104.453 96.7806 104.453 96.7813C104.453 96.782 104.453 96.7826 104.453 96.7833C104.453 96.7839 104.453 96.7846 104.453 96.7853C104.453 96.7859 104.453 96.7866 104.453 96.7873C104.453 96.7879 104.453 96.7886 104.453 96.7893C104.453 96.7899 104.453 96.7906 104.453 96.7913C104.453 96.7919 104.453 96.7926 104.453 96.7933C104.453 96.7939 104.453 96.7946 104.453 96.7952C104.453 96.7959 104.453 96.7966 104.453 96.7972C104.453 96.7979 104.453 96.7986 104.453 96.7992C104.453 96.7999 104.453 96.8006 104.453 96.8012C104.453 96.8019 104.453 96.8026 104.453 96.8033C104.453 96.8039 104.453 96.8046 104.453 96.8053C104.453 96.8059 104.453 96.8066 104.453 96.8073C104.453 96.8079 104.453 96.8086 104.453 96.8093C104.453 96.8099 104.453 96.8106 104.453 96.8113C104.453 96.8119 104.453 96.8126 104.453 96.8133C104.453 96.814 104.453 96.8146 104.453 96.8153C104.453 96.816 104.453 96.8166 104.453 96.8173C104.453 96.818 104.453 96.8186 104.453 96.8193C104.453 96.82 104.453 96.8207 104.453 96.8213C104.453 96.822 104.453 96.8227 104.453 96.8233C104.453 96.824 104.453 96.8247 104.453 96.8254C104.453 96.826 104.453 96.8267 104.453 96.8274C104.453 96.8281 104.453 96.8287 104.453 96.8294C104.453 96.8301 104.453 96.8307 104.453 96.8314C104.453 96.8321 104.453 96.8328 104.453 96.8334C104.453 96.8341 104.453 96.8348 104.453 96.8355C104.453 96.8361 104.453 96.8368 104.453 96.8375C104.453 96.8382 104.453 96.8388 104.453 96.8395C104.453 96.8402 104.453 96.8409 104.453 96.8415C104.453 96.8422 104.453 96.8429 104.453 96.8436C104.453 96.8442 104.453 96.8449 104.453 96.8456C104.453 96.8463 104.453 96.8469 104.453 96.8476C104.453 96.8483 104.453 96.849 104.453 96.8496C104.453 96.8503 104.453 96.851 104.453 96.8517C104.453 96.8524 104.453 96.853 104.453 96.8537C104.453 96.8544 104.453 96.8551 104.453 96.8557C104.453 96.8564 104.453 96.8571 104.453 96.8578C104.453 96.8585 104.453 96.8591 104.453 96.8598C104.453 96.8605 104.453 96.8612 104.453 96.8618C104.453 96.8625 104.453 96.8632 104.453 96.8639C104.453 96.8646 104.453 96.8652 104.453 96.8659C104.453 96.8666 104.453 96.8673 104.453 96.868C104.453 96.8686 104.453 96.8693 104.453 96.87C104.453 96.8707 104.453 96.8714 104.453 96.872C104.453 96.8727 104.453 96.8734 104.453 96.8741C104.453 96.8748 104.453 96.8754 104.453 96.8761C104.453 96.8768 104.453 96.8775 104.453 96.8782C104.453 96.8788 104.453 96.8795 104.453 96.8802C104.453 96.8809 104.453 96.8816 104.453 96.8823C104.453 96.8829 104.453 96.8836 104.453 96.8843C104.453 96.885 104.453 96.8857 104.453 96.8864C104.453 96.887 104.453 96.8877 104.453 96.8884C104.453 96.8891 104.453 96.8898 104.453 96.8904C104.453 96.8911 104.453 96.8918 104.453 96.8925C104.453 96.8932 104.453 96.8939 104.453 96.8946C104.453 96.8952 104.453 96.8959 104.453 96.8966C104.453 96.8973 104.453 96.898 104.453 96.8987C104.453 96.8993 104.453 96.9 104.453 96.9007C104.453 96.9014 104.453 96.9021 104.453 96.9028C104.453 96.9035 104.453 96.9041 104.453 96.9048C104.453 96.9055 104.453 96.9062 104.453 96.9069C104.453 96.9076 104.453 96.9082 104.453 96.9089C104.453 96.9096 104.453 96.9103 104.453 96.911C104.453 96.9117 104.453 96.9124 104.453 96.9131C104.453 96.9137 104.453 96.9144 104.453 96.9151C104.453 96.9158 104.453 96.9165 104.453 96.9172C104.453 96.9179 104.453 96.9185 104.453 96.9192C104.453 96.9199 104.453 96.9206 104.453 96.9213C104.453 96.922 104.453 96.9227 104.453 96.9234C104.453 96.924 104.453 96.9247 104.453 96.9254C104.453 96.9261 104.453 96.9268 104.453 96.9275C104.453 96.9282 104.453 96.9289 104.453 96.9296C104.453 96.9302 104.453 96.9309 104.453 96.9316C104.453 96.9323 104.453 96.933 104.453 96.9337C104.453 96.9344 104.453 96.9351 104.453 96.9358C104.453 96.9364 104.453 96.9371 104.453 96.9378C104.453 96.9385 104.453 96.9392 104.453 96.9399C104.453 96.9406 104.453 96.9413 104.453 96.942C104.453 96.9427 104.453 96.9433 104.453 96.944C104.453 96.9447 104.453 96.9454 104.453 96.9461C104.453 96.9468 104.453 96.9475 104.453 96.9482C104.453 96.9489 104.453 96.9496 104.453 96.9503C104.453 96.9509 104.453 96.9516 104.453 96.9523C104.453 96.953 104.453 96.9537 104.453 96.9544C104.453 96.9551 104.453 96.9558 104.453 96.9565C104.453 96.9572 104.453 96.9579 104.453 96.9586C104.453 96.9592 104.453 96.9599 104.453 96.9606C104.453 96.9613 104.453 96.962 104.453 96.9627C104.453 96.9634 104.453 96.9641 104.453 96.9648C104.453 96.9655 104.453 96.9662 104.453 96.9669C104.453 96.9676 104.453 96.9683 104.453 96.9689C104.453 96.9696 104.453 96.9703 104.453 96.971C104.453 96.9717 104.453 96.9724 104.453 96.9731C104.453 96.9738 104.453 96.9745 104.453 96.9752C104.453 96.9759 104.453 96.9766 104.453 96.9773C104.453 96.978 104.453 96.9787 104.453 96.9794C104.453 96.98 104.453 96.9807 104.453 96.9814C104.453 96.9821 104.453 96.9828 104.453 96.9835C104.453 96.9842 104.453 96.9849 104.453 96.9856C104.453 96.9863 104.453 96.987 104.453 96.9877C104.453 96.9884 104.453 96.9891 104.453 96.9898C104.453 96.9905 104.453 96.9912 104.453 96.9919C104.453 96.9926 104.453 96.9932 104.453 96.9939C104.453 96.9946 104.453 96.9953 104.453 96.996C104.453 96.9967 104.453 96.9974 104.453 96.9981C104.453 96.9988 104.453 96.9995 104.453 97.0002C104.453 97.0009 104.453 97.0016 104.453 97.0023C104.453 97.003 104.453 97.0037 104.453 97.0044C104.453 97.0051 104.453 97.0058 104.453 97.0065C104.453 97.0072 104.453 97.0079 104.453 97.0086C104.453 97.0093 104.453 97.01 104.453 97.0107C104.453 97.0114 104.453 97.0121 104.453 97.0127C104.453 97.0135 104.453 97.0141 104.453 97.0148C104.453 97.0155 104.453 97.0162 104.453 97.0169C104.453 97.0176 104.453 97.0183 104.453 97.019C104.453 97.0197 104.453 97.0204 104.453 97.0211C104.453 97.0218 104.453 97.0225 104.453 97.0232C104.453 97.0239 104.453 97.0246 104.453 97.0253C104.453 97.026 104.453 97.0267 104.453 97.0274C104.453 97.0281 104.453 97.0288 104.453 97.0295C104.453 97.0302 104.453 97.0309 104.453 97.0316C104.453 97.0323 104.453 97.033 104.453 97.0337C104.453 97.0344 104.453 97.0351 104.453 97.0358C104.453 97.0365 104.453 97.0372 104.453 97.0379C104.453 97.0386 104.453 97.0393 104.453 97.04C104.453 97.0407 104.453 97.0414 104.453 97.0421C104.453 97.0428 104.453 97.0435 104.453 97.0442C104.453 97.0449 104.453 97.0456 104.453 97.0463C104.453 97.047 104.453 97.0477 104.453 97.0484C104.453 97.0491 104.453 97.0498 104.453 97.0505C104.453 97.0512 104.453 97.0519 104.453 97.0526C104.453 97.0533 104.453 97.054 104.453 97.0547C104.453 97.0554 104.453 97.0561 104.453 97.0568C104.453 97.0575 104.453 97.0582 104.453 97.0589C104.453 97.0596 104.453 97.0603 104.453 97.061C104.453 97.0617 104.453 97.0624 104.453 97.0631C104.453 97.0638 104.453 97.0645 104.453 97.0652C104.453 97.0659 104.453 97.0666 104.453 97.0673C104.453 97.068 104.453 97.0687 104.453 97.0694C104.453 97.0701 104.453 97.0708 104.453 97.0715C104.453 97.0722 104.453 97.0729 104.453 97.0736C104.453 97.0743 104.453 97.075 104.453 97.0757C104.453 97.0764 104.453 97.0771 104.453 97.0778C104.453 97.0785 104.453 97.0792 104.453 97.0799C104.453 97.0806 104.453 97.0813 104.453 97.082C104.453 97.0827 104.453 97.0834 104.453 97.0841C104.453 97.0848 104.453 97.0855 104.453 97.0862C104.453 97.0869 104.453 97.0876 104.453 97.0883C104.453 97.089 104.453 97.0897 104.453 97.0904C104.453 97.0911 104.453 97.0918 104.453 97.0925C104.453 97.0932 104.453 97.0939 104.453 97.0946C104.453 97.0953 104.453 97.096 104.453 97.0967C104.453 97.0975 104.453 97.0982 104.453 97.0989C104.453 97.0996 104.453 97.1003 104.453 97.101C104.453 97.1017 104.453 97.1024 104.453 97.1031C104.453 97.1038 104.453 97.1045 104.453 97.1052C104.453 97.1059 104.453 97.1066 104.453 97.1073C104.453 97.108 104.453 97.1087 104.453 97.1094C104.453 97.1101 104.453 97.1108 104.453 97.1115C104.453 97.1122 104.453 97.1129 104.453 97.1136C104.453 97.1143 104.453 97.115 104.453 97.1157C104.453 97.1164 104.453 97.1171 104.453 97.1178C104.453 97.1185 104.453 97.1192 104.453 97.1199C104.453 97.1206 104.453 97.1213 104.453 97.122C104.453 97.1227 104.453 97.1234 104.453 97.1241C104.453 97.1248 104.453 97.1255 104.453 97.1263C104.453 97.127 104.453 97.1277 104.453 97.1284C104.453 97.1291 104.453 97.1298 104.453 97.1305C104.453 97.1312 104.453 97.1319 104.453 97.1326C104.453 97.1333 104.453 97.134 104.453 97.1347C104.453 97.1354 104.453 97.1361 104.453 97.1368C104.453 97.1375 104.453 97.1382 104.453 97.1389C104.453 97.1396 104.453 97.1403 104.453 97.141C104.453 97.1417 104.453 97.1424 104.453 97.1431C104.453 97.1438 104.453 97.1445 104.453 97.1452C104.453 97.1459 104.453 97.1466 104.453 97.1473C104.453 97.148 104.453 97.1488 104.453 97.1495C104.453 97.1502 104.453 97.1509 104.453 97.1516C104.453 97.1523 104.453 97.153 104.453 97.1537C104.453 97.1544 104.453 97.1551 104.453 97.1558C104.453 97.1565 104.453 97.1572 104.453 97.1579C104.453 97.1586 104.453 97.1593 104.453 97.16C104.453 97.1607 104.453 97.1614 104.453 97.1621C104.453 97.1628 104.453 97.1635 104.453 97.1642C104.453 97.1649 104.453 97.1656 104.453 97.1663C104.453 97.167 104.453 97.1677 104.453 97.1684C104.453 97.1691 104.453 97.1698 104.453 97.1705C104.453 97.1712 104.453 97.172 104.453 97.1727C104.453 97.1734 104.453 97.1741 104.453 97.1748C104.453 97.1755 104.453 97.1762 104.453 97.1769C104.453 97.1776 104.453 97.1783 104.453 97.179C104.453 97.1797 104.453 97.1804 104.453 97.1811C104.453 97.1818 104.453 97.1825 104.453 97.1832C104.453 97.1839 104.453 97.1846 104.453 97.1853C104.453 97.186 104.453 97.1867 104.453 97.1874C104.453 97.1881 104.453 97.1888 104.453 97.1895C104.453 97.1902 104.453 97.1909 104.453 97.1916C104.453 97.1923 104.453 97.193 104.453 97.1937C104.453 97.1945 104.453 97.1952 104.453 97.1959C104.453 97.1966 104.453 97.1973 104.453 97.198C104.453 97.1987 104.453 97.1994 104.453 97.2001C104.453 97.2008 104.453 97.2015 104.453 97.2022C104.453 97.2029 104.453 97.2036 104.453 97.2043C104.453 97.205 104.453 97.2057 104.453 97.2064C104.453 97.2071 104.453 97.2078 104.453 97.2085C104.453 97.2092 104.453 97.2099 104.453 97.2106C104.453 97.2113 104.453 97.212 104.453 97.2127C104.453 97.2134 104.453 97.2141 104.453 97.2148C104.453 97.2155 104.453 97.2162 104.453 97.2169C104.453 97.2176 104.453 97.2183 104.453 97.219C104.453 97.2197 104.453 97.2204 104.453 97.2211C104.453 97.2218 104.453 97.2225 104.453 97.2233C104.453 97.224 104.453 97.2247 104.453 97.2254C104.453 97.2261 104.453 97.2268 104.453 97.2275C104.453 97.2282 104.453 97.2289 104.453 97.2296C104.453 97.2303 104.453 97.231 104.453 97.2317C104.453 97.2324 104.453 97.2331 104.453 97.2338C104.453 97.2345 104.453 97.2352 104.453 97.2359C104.453 97.2366 104.453 97.2373 104.453 97.238C104.453 97.2387 104.453 97.2394 104.453 97.2401C104.453 97.2408 104.453 97.2415 104.453 97.2422C104.453 97.2429 104.453 97.2436 104.453 97.2443C104.453 97.245 104.453 97.2457 104.453 97.2464C104.453 97.2471 104.453 97.2478 104.453 97.2485C104.453 97.2492 104.453 97.2499 104.453 97.2506C104.453 97.2513 104.453 97.252 104.453 97.2527C104.453 97.2534 104.453 97.2541 104.453 97.2548C104.453 97.2555 104.453 97.2562 104.453 97.2569C104.453 97.2576 104.453 97.2583 104.453 97.259C104.453 97.2597 104.453 97.2604 104.453 97.2611C104.453 97.2618 104.453 97.2625 104.453 97.2632C104.453 97.2639 104.453 97.2646 104.453 97.2653C104.453 97.266 104.453 97.2667 104.453 97.2674C104.453 97.2681 104.453 97.2688 104.453 97.2695C104.453 97.2702 104.453 97.2709 104.453 97.2716C104.453 97.2723 104.453 97.273 104.453 97.2737C104.453 97.2744 104.453 97.2751 104.453 97.2758C104.453 97.2765 104.453 97.2772 104.453 97.2779C104.453 97.2786 104.453 97.2793 104.453 97.28C104.453 97.2807 104.453 97.2814 104.453 97.2821C104.453 97.2828 104.453 97.2835 104.453 97.2842C104.453 97.2849 104.453 97.2856 104.453 97.2863C104.453 97.287 104.453 97.2877 104.453 97.2884C104.453 97.2891 104.453 97.2898 104.453 97.2905C104.453 97.2912 104.453 97.2919 104.453 97.2926C104.453 97.2933 104.453 97.294 104.453 97.2947C104.453 97.2954 104.453 97.2961 104.453 97.2968C104.453 97.2975 104.453 97.2982 104.453 97.2989C104.453 97.2996 104.453 97.3003 104.453 97.301C104.453 97.3017 104.453 97.3024 104.453 97.3031C104.453 97.3038 104.453 97.3045 104.453 97.3052C104.453 97.3059 104.453 97.3065 104.453 97.3072C104.453 97.3079 104.453 97.3086 104.453 97.3093C104.453 97.31 104.453 97.3107 104.453 97.3114C104.453 97.3121 104.453 97.3128 104.453 97.3135C104.453 97.3142 104.453 97.3149 104.453 97.3156C104.453 97.3163 104.453 97.317 104.453 97.3177C104.453 97.3184 104.453 97.3191 104.453 97.3198C104.453 97.3205 104.453 97.3212 104.453 97.3219C104.453 97.3226 104.453 97.3233 104.453 97.324C104.453 97.3247 104.453 97.3254 104.453 97.326C104.453 97.3268 104.453 97.3274 104.453 97.3281C104.453 97.3288 104.453 97.3295 104.453 97.3302C104.453 97.3309 104.453 97.3316 104.453 97.3323C104.453 97.333 104.453 97.3337 104.453 97.3344C104.453 97.3351 104.453 97.3358 104.453 97.3365C104.453 97.3372 104.453 97.3379 104.453 97.3386C104.453 97.3393 104.453 97.34 104.453 97.3406C104.453 97.3413 104.453 97.342 104.453 97.3427C104.453 97.3434 104.453 97.3441 104.453 97.3448C104.453 97.3455 104.453 97.3462 104.453 97.3469C104.453 97.3476 104.453 97.3483 104.453 97.349C104.453 97.3497 104.453 97.3504 104.453 97.3511C104.453 97.3517 104.453 97.3524 104.453 97.3531C104.453 97.3538 104.453 97.3545 104.453 97.3552C104.453 97.3559 104.453 97.3566 104.453 97.3573C104.453 97.358 104.453 97.3587 104.453 97.3594C104.453 97.3601 104.453 97.3608 104.453 97.3614C104.453 97.3621 104.453 97.3628 104.453 97.3635C104.453 97.3642 104.453 97.3649 104.453 97.3656C104.453 97.3663 104.453 97.367 104.453 97.3677C104.453 97.3684 104.453 97.3691 104.453 97.3697C104.453 97.3704 104.453 97.3711 104.453 97.3718C104.453 97.3725 104.453 97.3732 104.453 97.3739C104.453 97.3746 104.453 97.3753 104.453 97.376C104.453 97.3767 104.453 97.3773 104.453 97.378C104.453 97.3787 104.453 97.3794 104.453 97.3801C104.453 97.3808 104.453 97.3815 104.453 97.3822C104.453 97.3829 104.453 97.3836 104.453 97.3842C104.453 97.3849 104.453 97.3856 104.453 97.3863C104.453 97.387 104.453 97.3877 104.453 97.3884C104.453 97.3891 104.453 97.3898 104.453 97.3904C104.453 97.3911 104.453 97.3918 104.453 97.3925C104.453 97.3932 104.453 97.3939 104.453 97.3946C104.453 97.3953 104.453 97.396 104.453 97.3966C104.453 97.3973 104.453 97.398 104.453 97.3987C104.453 97.3994 104.453 97.4001 104.453 97.4008C104.453 97.4015 104.453 97.4021 104.453 97.4028C104.453 97.4035 104.453 97.4042 104.453 97.4049C104.453 97.4056 104.453 97.4063 104.453 97.4069C104.453 97.4076 104.453 97.4083 104.453 97.409C104.453 97.4097 104.453 97.4104 104.453 97.4111C104.453 97.4118 104.453 97.4124 104.453 97.4131C104.453 97.4138 104.453 97.4145 104.453 97.4152C104.453 97.4159 104.453 97.4165 104.453 97.4172C104.453 97.4179 104.453 97.4186 104.453 97.4193C104.453 97.42 104.453 97.4207 104.453 97.4213C104.453 97.422 104.453 97.4227 104.453 97.4234C104.453 97.4241 104.453 97.4248 104.453 97.4254C104.453 97.4261 104.453 97.4268 104.453 97.4275C104.453 97.4282 104.453 97.4289 104.453 97.4296C104.453 97.4302 104.453 97.4309 104.453 97.4316C104.453 97.4323 104.453 97.433 104.453 97.4336C104.453 97.4343 104.453 97.435 104.453 97.4357C104.453 97.4364 104.453 97.4371 104.453 97.4377C104.453 97.4384 104.453 97.4391 104.453 97.4398C104.453 97.4405 104.453 97.4412 104.453 97.4418C104.453 97.4425 104.453 97.4432 104.453 97.4439C104.453 97.4446 104.453 97.4452 104.453 97.4459C104.453 97.4466 104.453 97.4473 104.453 97.448C104.453 97.4486 104.453 97.4493 104.453 97.45C104.453 97.4507 104.453 97.4514 104.453 97.452C104.453 97.4527 104.453 97.4534 104.453 97.4541C104.453 97.4548 104.453 97.4554 104.453 97.4561C104.453 97.4568 104.453 97.4575 104.453 97.4582C104.453 97.4588 104.453 97.4595 104.453 97.4602C104.453 97.4609 104.453 97.4615 104.453 97.4622C104.453 97.4629 104.453 97.4636 104.453 97.4643C104.453 97.4649 104.453 97.4656 104.453 97.4663C104.453 97.467 104.453 97.4676 104.453 97.4683C104.453 97.469 104.453 97.4697 104.453 97.4704C104.453 97.471 104.453 97.4717 104.453 97.4724C104.453 97.4731 104.453 97.4737 104.453 97.4744C104.453 97.4751 104.453 97.4758 104.453 97.4764C104.453 97.4771 104.453 97.4778 104.453 97.4785C104.453 97.4791 104.453 97.4798 104.453 97.4805C104.453 97.4812 104.453 97.4818 104.453 97.4825C104.453 97.4832 104.453 97.4839 104.453 97.4845C104.453 97.4852 104.453 97.4859 104.453 97.4866C104.453 97.4872 104.453 97.4879 104.453 97.4886C104.453 97.4893 104.453 97.4899 104.453 97.4906C104.453 97.4913 104.453 97.4919 104.453 97.4926C104.453 97.4933 104.453 97.494 104.453 97.4946C104.453 97.4953 104.453 97.496 104.453 97.4967C104.453 97.4973 104.453 97.498 104.453 97.4987C104.453 97.4993 104.453 97.5 104.453 97.5007C104.453 97.5014 104.453 97.502 104.453 97.5027C104.453 97.5034 104.453 97.504 104.453 97.5047C104.453 97.5054 104.453 97.506 104.453 97.5067C104.453 97.5074 104.453 97.508 104.453 97.5087C104.453 97.5094 104.453 97.5101 104.453 97.5107C104.453 97.5114 104.453 97.5121 104.453 97.5127C104.453 97.5134 104.453 97.5141 104.453 97.5147C104.453 97.5154 104.453 97.5161 104.453 97.5167C104.453 97.5174 104.453 97.5181 104.453 97.5187C104.453 97.5194 104.453 97.5201 104.453 97.5208C104.453 97.5214 104.453 97.5221 104.453 97.5228C104.453 97.5234 104.453 97.5241 104.453 97.5247C104.453 97.5254 104.453 97.5261 104.453 97.5267C104.453 97.5274 104.453 97.5281 104.453 97.5287C104.453 97.5294 104.453 97.5301 104.453 97.5307C104.453 97.5314 104.453 97.5321 104.453 97.5327C104.453 97.5334 104.453 97.5341 104.453 97.5347C104.453 97.5354 104.453 97.5361 104.453 97.5367C104.453 97.5374 104.453 97.538 104.453 97.5387C104.453 97.5394 104.453 97.54 104.453 97.5407C104.453 97.5414 104.453 97.542 104.453 97.5427C104.453 97.5434 104.453 97.544 104.453 97.5447C104.453 97.5453 104.453 97.546 104.453 97.5467C104.453 97.5473 104.453 97.548 104.453 97.5486C104.453 97.5493 104.453 97.55 104.453 97.5506C104.453 97.5513 104.453 97.5519 104.453 97.5526C104.453 97.5533 104.453 97.5539 104.453 97.5546C104.453 97.5552 104.453 97.5559 104.453 97.5566C104.453 97.5572 104.453 97.5579 104.453 97.5585C104.453 97.5592 104.453 97.5599 104.453 97.5605C104.453 97.5612 104.453 97.5618 104.453 97.5625C104.453 97.5631 104.453 97.5638 104.453 97.5645C104.453 97.5651 104.453 97.5658 104.453 97.5664C104.453 97.5671 104.453 97.5677 104.453 97.5684C104.453 97.5691 104.453 97.5697 104.453 97.5704C104.453 97.571 104.453 97.5717 104.453 97.5723C104.453 97.573 104.453 97.5736 104.453 97.5743C104.453 97.575 104.453 97.5756 104.453 97.5763C104.453 97.5769 104.453 97.5776 104.453 97.5782C104.453 97.5789 104.453 97.5795 104.453 97.5802C104.453 97.5808 104.453 97.5815 104.453 97.5822C104.453 97.5828 104.453 97.5835 104.453 97.5841C104.453 97.5848 104.453 97.5854 104.453 97.5861C104.453 97.5867 104.453 97.5874 104.453 97.588C104.453 97.5887 104.453 97.5893 104.453 97.59C104.453 97.5906 104.453 97.5913 104.453 97.5919C104.453 97.5926 104.453 97.5932 104.453 97.5939C104.453 97.5945 104.453 97.5952 104.453 97.5958C104.453 97.5965 104.453 97.5971 104.453 97.5978C104.453 97.5984 104.453 97.5991 104.453 97.5997C104.453 97.6004 104.453 97.601 104.453 97.6017C104.453 97.6023 104.453 97.603 104.453 97.6036C104.453 97.6043 104.453 97.6049 104.453 97.6056C104.453 97.6062 104.453 97.6068 104.453 97.6075C104.453 97.6081 104.453 97.6088 104.453 97.6094C104.453 97.6101 104.453 97.6107 104.453 97.6114C104.453 97.612 104.453 97.6127 104.453 97.6133C104.453 97.614 104.453 97.6146 104.453 97.6152C104.453 97.6159 104.453 97.6165 104.453 97.6172C104.453 97.6178 104.453 97.6185 104.453 97.6191C104.453 97.6197 104.453 97.6204 104.453 97.621C104.453 97.6217 104.453 97.6223 104.453 97.623C104.453 97.6236 104.453 97.6242 104.453 97.6249C104.453 97.6255 104.453 97.6262 104.453 97.6268C104.453 97.6274 104.453 97.6281 104.453 97.6287C104.453 97.6294 104.453 97.63 104.453 97.6307C104.453 97.6313 104.453 97.6319 104.453 97.6326C104.453 97.6332 104.453 97.6339 104.453 97.6345C104.453 97.6351 104.453 97.6358 104.453 97.6364C104.453 97.637 104.453 97.6377 104.453 97.6383C104.453 97.639 104.453 97.6396 104.453 97.6402C104.453 97.6409 104.453 97.6415 104.453 97.6421C104.453 97.6428 104.453 97.6434 104.453 97.6441C104.453 97.6447 104.453 97.6453 104.453 97.646C104.453 97.6466 104.453 97.6472 104.453 97.6479C104.453 97.6485 104.453 97.6491 104.453 97.6498C104.453 97.6504 104.453 97.651 104.453 97.6517C104.453 97.6523 104.453 97.6529 104.453 97.6536C104.453 97.6542 104.453 97.6548 104.453 97.6555C104.453 97.6561 104.453 97.6567 104.453 97.6574C104.453 97.658 104.453 97.6586 104.453 97.6593C104.453 97.6599 104.453 97.6605 104.453 97.6612C104.453 97.6618 104.453 97.6624 104.453 97.663C104.453 97.6637 104.453 97.6643 104.453 97.6649C104.453 97.6656 104.453 97.6662 104.453 97.6668C104.453 97.6675 104.453 97.6681 104.453 97.6687C104.453 97.6693 104.453 97.67 104.453 97.6706C104.453 97.6712 104.453 97.6719 104.453 97.6725C104.453 97.6731 104.453 97.6737 104.453 97.6744C104.453 97.675 104.453 97.6756 104.453 97.6762C104.453 97.6769 104.453 97.6775 104.453 97.6781C104.453 97.6787 104.453 97.6794 104.453 97.68H106.453ZM106.452 96.5977C106.121 88.7917 103.077 82.27 97.9796 77.705C92.8877 73.1453 85.8175 70.6 77.5325 70.6V72.6C85.4075 72.6 91.9773 75.0147 96.6454 79.195C101.308 83.37 104.144 89.3683 104.453 96.6823L106.452 96.5977ZM90.6125 99.12C90.6125 103.357 89.123 106.871 86.6133 109.325C84.1019 111.781 80.5031 113.24 76.1725 113.24V115.24C80.9619 115.24 85.0831 113.619 88.0117 110.755C90.942 107.889 92.6125 103.843 92.6125 99.12H90.6125ZM76.1725 113.24C71.913 113.24 68.4373 111.856 66.0314 109.505C63.6276 107.156 62.2125 103.766 62.2125 99.6H60.2125C60.2125 104.234 61.7974 108.164 64.6336 110.935C67.4677 113.704 71.472 115.24 76.1725 115.24V113.24ZM62.2125 99.6C62.2125 91.3862 68.3702 85.4 76.9725 85.4V83.4C67.3348 83.4 60.2125 90.2137 60.2125 99.6H62.2125ZM76.9725 85.4C80.9552 85.4 84.2174 86.6668 86.5358 88.8569C88.8542 91.0471 90.3065 94.2339 90.5341 98.217L92.5309 98.103C92.2785 93.6861 90.6508 89.9929 87.9092 87.4031C85.1676 84.8132 81.3898 83.4 76.9725 83.4V85.4ZM90.5624 98.4025C90.6077 98.5841 90.6125 98.7814 90.6125 99.12H92.6125C92.6125 98.8186 92.6173 98.3759 92.5026 97.9175L90.5624 98.4025ZM148.548 72.64V71.64H147.661L147.555 72.5198L148.548 72.64ZM144.868 103.04L145.859 103.172L145.86 103.16L144.868 103.04ZM141.988 111.6L142.727 112.273L142.734 112.266L142.74 112.259L141.988 111.6ZM125.827 101.44L124.835 101.319L124.834 101.33L124.832 101.34L125.827 101.44ZM129.348 72.64L130.34 72.7613L130.477 71.64H129.348V72.64ZM115.908 72.64V71.64H115.022L114.915 72.5187L115.908 72.64ZM112.388 101.44L111.395 101.319L111.395 101.319L112.388 101.44ZM152.228 121.12L151.537 120.396L151.535 120.399L152.228 121.12ZM158.308 103.52L159.3 103.644L159.3 103.641L158.308 103.52ZM162.068 72.64L163.06 72.7609L163.197 71.64H162.068V72.64ZM147.555 72.5198L143.875 102.92L145.86 103.16L149.54 72.7602L147.555 72.5198ZM143.876 102.908C143.239 107.685 142.705 109.261 141.235 110.941L142.74 112.259C144.63 110.099 145.216 107.995 145.859 103.172L143.876 102.908ZM141.248 110.927C139.913 112.396 137.602 113.24 134.388 113.24V115.24C137.893 115.24 140.862 114.324 142.727 112.273L141.248 110.927ZM134.388 113.24C131.561 113.24 129.656 112.589 128.454 111.453C127.264 110.328 126.588 108.558 126.588 105.92H124.588C124.588 108.882 125.351 111.272 127.081 112.907C128.799 114.531 131.294 115.24 134.388 115.24V113.24ZM126.588 105.92C126.588 104.598 126.665 103.111 126.823 101.54L124.832 101.34C124.67 102.969 124.588 104.522 124.588 105.92H126.588ZM126.82 101.561L130.34 72.7613L128.355 72.5187L124.835 101.319L126.82 101.561ZM129.348 71.64H115.908V73.64H129.348V71.64ZM114.915 72.5187L111.395 101.319L113.38 101.561L116.9 72.7613L114.915 72.5187ZM111.395 101.319C110.996 104.592 110.748 107.13 110.748 108.8H112.748C112.748 107.27 112.979 104.848 113.38 101.561L111.395 101.319ZM110.748 108.8C110.748 114.786 112.957 119.644 117.045 122.984C121.107 126.304 126.916 128.04 133.988 128.04V126.04C127.219 126.04 121.908 124.376 118.31 121.436C114.738 118.516 112.748 114.254 112.748 108.8H110.748ZM133.988 128.04C141.979 128.04 148.669 125.923 152.92 121.841L151.535 120.399C147.786 123.997 141.676 126.04 133.988 126.04V128.04ZM152.918 121.844C156.637 118.297 158.02 113.886 159.3 103.644L157.315 103.396C156.035 113.634 154.698 117.383 151.537 120.396L152.918 121.844ZM159.3 103.641L163.06 72.7609L161.075 72.5191L157.315 103.399L159.3 103.641ZM162.068 71.64H148.548V73.64H162.068V71.64ZM203.571 101.04L202.845 100.352L202.836 100.362L203.571 101.04ZM203.811 77.28L204.539 76.5946L204.536 76.5912L203.811 77.28ZM171.651 72.64V71.64H170.767L170.659 72.518L171.651 72.64ZM165.091 126L164.099 125.878L163.961 127H165.091V126ZM178.611 126V127H179.498L179.604 126.12L178.611 126ZM181.171 104.8L182.039 104.302L180.54 101.689L180.178 104.68L181.171 104.8ZM193.331 126L192.464 126.498L192.752 127H193.331V126ZM209.011 126V127H210.781L209.868 125.484L209.011 126ZM196.531 105.28L196.203 104.336L195.039 104.74L195.675 105.796L196.531 105.28ZM182.131 97.04L181.139 96.9181L181.001 98.04H182.131V97.04ZM183.811 83.36V82.36H182.927L182.819 83.2381L183.811 83.36ZM204.297 101.728C207.382 98.4715 208.891 94.2105 208.891 89.2H206.891C206.891 93.7895 205.52 97.5285 202.845 100.352L204.297 101.728ZM208.891 89.2C208.891 84.2167 207.317 79.5463 204.539 76.5946L203.083 77.9654C205.425 80.4537 206.891 84.5833 206.891 89.2H208.891ZM204.536 76.5912C201.219 73.0997 196.404 71.64 189.011 71.64V73.64C196.179 73.64 200.323 75.0603 203.086 77.9688L204.536 76.5912ZM189.011 71.64H171.651V73.64H189.011V71.64ZM170.659 72.518L164.099 125.878L166.084 126.122L172.644 72.762L170.659 72.518ZM165.091 127H178.611V125H165.091V127ZM179.604 126.12L182.164 104.92L180.178 104.68L177.618 125.88L179.604 126.12ZM180.304 105.298L192.464 126.498L194.199 125.502L182.039 104.302L180.304 105.298ZM193.331 127H209.011V125H193.331V127ZM209.868 125.484L197.388 104.764L195.675 105.796L208.155 126.516L209.868 125.484ZM196.86 106.224C198.72 105.577 200.078 105.01 201.228 104.316C202.393 103.613 203.304 102.803 204.306 101.718L202.836 100.362C201.918 101.357 201.15 102.027 200.194 102.604C199.224 103.19 198.022 103.703 196.203 104.336L196.86 106.224ZM186.371 84.36C189.179 84.36 190.764 84.7697 191.666 85.5119C192.508 86.2056 192.971 87.3839 192.971 89.6H194.971C194.971 87.1761 194.475 85.2344 192.937 83.9681C191.458 82.7503 189.243 82.36 186.371 82.36V84.36ZM192.971 89.6C192.971 91.9169 192.301 93.4419 191.06 94.4267C189.769 95.4508 187.68 96.04 184.531 96.04V98.04C187.862 98.04 190.493 97.4292 192.303 95.9933C194.162 94.5181 194.971 92.3231 194.971 89.6H192.971ZM184.531 96.04H182.131V98.04H184.531V96.04ZM183.124 97.1619L184.804 83.4819L182.819 83.2381L181.139 96.9181L183.124 97.1619ZM183.811 84.36H186.371V82.36H183.811V84.36Z" fill="#1D1D1D"/>
<path d="M46.04 144.64L42.76 171.68C42.36 174.8 42.2 177.44 42.12 180.8L41.08 178.8L39 174.72L36.68 170.4L21.48 144.64H6.92L0.36 198H13.88L16.92 173.36C17.32 170.08 17.48 167.28 17.48 163.28V160.88C19.72 166.24 21.72 170.32 24.04 174.08L38.2 198H53L59.56 144.64H46.04ZM69.1481 144.64L62.5881 198H76.1081L78.6681 177.12H94.0281L95.4681 165.44H80.1081L81.2281 156.4H98.1081L99.5481 144.64H69.1481ZM135.199 156.4L136.639 144.64H100.399L98.9588 156.4H110.319L105.199 198H118.639L123.839 156.4H135.199ZM157.906 143.6C146.626 143.6 138.306 150.72 138.306 160.4C138.306 167.6 141.106 171.04 150.626 175.84C155.666 178.32 156.866 179.6 156.866 181.92C156.866 185.2 153.986 187.36 149.746 187.36C146.066 187.36 143.266 186.24 138.466 182.96L132.386 193.2C139.506 197.6 143.986 199.04 150.386 199.04C162.306 199.04 170.786 191.52 170.786 180.8C170.786 173.76 167.746 170 158.946 165.84C153.506 163.28 152.146 162 152.146 159.44C152.146 156.56 154.466 154.8 158.146 154.8C161.026 154.8 163.906 156 167.506 158.72L173.426 148.48C168.226 145.12 163.346 143.6 157.906 143.6Z" fill="#67D4F8"/>
<path d="M46.04 144.64L42.76 171.68C42.36 174.8 42.2 177.44 42.12 180.8L41.08 178.8L39 174.72L36.68 170.4L21.48 144.64H6.92L0.36 198H13.88L16.92 173.36C17.32 170.08 17.48 167.28 17.48 163.28V160.88C19.72 166.24 21.72 170.32 24.04 174.08L38.2 198H53L59.56 144.64H46.04ZM69.1481 144.64L62.5881 198H76.1081L78.6681 177.12H94.0281L95.4681 165.44H80.1081L81.2281 156.4H98.1081L99.5481 144.64H69.1481ZM135.199 156.4L136.639 144.64H100.399L98.9588 156.4H110.319L105.199 198H118.639L123.839 156.4H135.199ZM157.906 143.6C146.626 143.6 138.306 150.72 138.306 160.4C138.306 167.6 141.106 171.04 150.626 175.84C155.666 178.32 156.866 179.6 156.866 181.92C156.866 185.2 153.986 187.36 149.746 187.36C146.066 187.36 143.266 186.24 138.466 182.96L132.386 193.2C139.506 197.6 143.986 199.04 150.386 199.04C162.306 199.04 170.786 191.52 170.786 180.8C170.786 173.76 167.746 170 158.946 165.84C153.506 163.28 152.146 162 152.146 159.44C152.146 156.56 154.466 154.8 158.146 154.8C161.026 154.8 163.906 156 167.506 158.72L173.426 148.48C168.226 145.12 163.346 143.6 157.906 143.6Z" fill="url(#paint0_linear_237_0)"/>
<defs>
<linearGradient id="paint0_linear_237_0" x1="-60.2016" y1="207" x2="197.839" y2="207" gradientUnits="userSpaceOnUse">
<stop stop-color="#8E77F7"/>
<stop offset="1" stop-color="#8E77F7" stop-opacity="0.05"/>
</linearGradient>
</defs>
</svg>
