<svg width="174" height="57" viewBox="0 0 174 57" fill="none" xmlns="http://www.w3.org/2000/svg">
<path d="M46.04 1.64L42.76 28.68C42.36 31.8 42.2 34.44 42.12 37.8L41.08 35.8L39 31.72L36.68 27.4L21.48 1.64H6.92L0.36 55H13.88L16.92 30.36C17.32 27.08 17.48 24.28 17.48 20.28V17.88C19.72 23.24 21.72 27.32 24.04 31.08L38.2 55H53L59.56 1.64H46.04ZM69.1481 1.64L62.5881 55H76.1081L78.6681 34.12H94.0281L95.4681 22.44H80.1081L81.2281 13.4H98.1081L99.5481 1.64H69.1481ZM135.199 13.4L136.639 1.64H100.399L98.9588 13.4H110.319L105.199 55H118.639L123.839 13.4H135.199ZM157.906 0.599999C146.626 0.599999 138.306 7.72 138.306 17.4C138.306 24.6 141.106 28.04 150.626 32.84C155.666 35.32 156.866 36.6 156.866 38.92C156.866 42.2 153.986 44.36 149.746 44.36C146.066 44.36 143.266 43.24 138.466 39.96L132.386 50.2C139.506 54.6 143.986 56.04 150.386 56.04C162.306 56.04 170.786 48.52 170.786 37.8C170.786 30.76 167.746 27 158.946 22.84C153.506 20.28 152.146 19 152.146 16.44C152.146 13.56 154.466 11.8 158.146 11.8C161.026 11.8 163.906 13 167.506 15.72L173.426 5.48C168.226 2.12 163.346 0.599999 157.906 0.599999Z" fill="#67D4F8"/>
<path d="M46.04 1.64L42.76 28.68C42.36 31.8 42.2 34.44 42.12 37.8L41.08 35.8L39 31.72L36.68 27.4L21.48 1.64H6.92L0.36 55H13.88L16.92 30.36C17.32 27.08 17.48 24.28 17.48 20.28V17.88C19.72 23.24 21.72 27.32 24.04 31.08L38.2 55H53L59.56 1.64H46.04ZM69.1481 1.64L62.5881 55H76.1081L78.6681 34.12H94.0281L95.4681 22.44H80.1081L81.2281 13.4H98.1081L99.5481 1.64H69.1481ZM135.199 13.4L136.639 1.64H100.399L98.9588 13.4H110.319L105.199 55H118.639L123.839 13.4H135.199ZM157.906 0.599999C146.626 0.599999 138.306 7.72 138.306 17.4C138.306 24.6 141.106 28.04 150.626 32.84C155.666 35.32 156.866 36.6 156.866 38.92C156.866 42.2 153.986 44.36 149.746 44.36C146.066 44.36 143.266 43.24 138.466 39.96L132.386 50.2C139.506 54.6 143.986 56.04 150.386 56.04C162.306 56.04 170.786 48.52 170.786 37.8C170.786 30.76 167.746 27 158.946 22.84C153.506 20.28 152.146 19 152.146 16.44C152.146 13.56 154.466 11.8 158.146 11.8C161.026 11.8 163.906 13 167.506 15.72L173.426 5.48C168.226 2.12 163.346 0.599999 157.906 0.599999Z" fill="url(#paint0_linear_1438_15178)"/>
<defs>
<linearGradient id="paint0_linear_1438_15178" x1="-60.2016" y1="64" x2="197.839" y2="64" gradientUnits="userSpaceOnUse">
<stop stop-color="#8E77F7"/>
<stop offset="1" stop-color="#8E77F7" stop-opacity="0.05"/>
</linearGradient>
</defs>
</svg>
