<svg width="292" height="208" viewBox="0 0 292 208" fill="none" xmlns="http://www.w3.org/2000/svg">
<path d="M28.8 0.599999C17.52 0.599999 9.2 7.72 9.2 17.4C9.2 24.6 12 28.04 21.52 32.84C26.56 35.32 27.76 36.6 27.76 38.92C27.76 42.2 24.88 44.36 20.64 44.36C16.96 44.36 14.16 43.24 9.36 39.96L3.28 50.2C10.4 54.6 14.88 56.04 21.28 56.04C33.2 56.04 41.68 48.52 41.68 37.8C41.68 30.76 38.64 27 29.84 22.84C24.4 20.28 23.04 19 23.04 16.44C23.04 13.56 25.36 11.8 29.04 11.8C31.92 11.8 34.8 13 38.4 15.72L44.32 5.48C39.12 2.12 34.24 0.599999 28.8 0.599999ZM112.904 1.64L102.824 27.24L101.224 31.24C100.344 33.32 99.7838 35.08 98.5838 39.16C98.1038 32.44 97.7038 27.88 97.0638 24.6L93.1438 1.64H80.3438L70.2638 26.68L68.1838 31.8C67.7038 33.08 67.2238 34.44 65.9438 39.16C65.4638 31 65.1438 28.12 64.0238 21.64L60.6638 1.64H47.0638L56.5838 55H71.0638L80.1838 32.6C82.1838 27.72 82.8238 25.88 84.5838 19.88C84.6638 25.72 84.9838 29.16 85.7838 33.72L89.3838 55H104.584L127.544 1.64H112.904ZM158.573 46.04L160.813 55H174.973L162.093 1.64H146.893L120.413 55H135.453L139.533 46.04H158.573ZM149.853 23.56C150.653 21.72 151.373 20.04 152.253 17.24C152.333 18.12 152.493 18.76 152.573 19.16C152.813 20.76 152.893 21.24 153.773 25.32L156.013 35.48H144.493L149.853 23.56ZM178.997 55H192.517L194.677 37.32H200.677C209.157 37.32 215.557 35.16 219.237 31.16C222.837 27.24 223.397 22.44 223.397 18.6C223.397 15.08 222.917 10.28 218.917 6.36C214.917 2.44 209.477 1.64 203.397 1.64H185.557L178.997 55ZM201.477 12.84C203.397 12.84 206.277 12.76 208.037 14.6C208.837 15.4 209.557 16.84 209.557 19.16C209.557 20.36 209.397 22.36 207.877 23.88C205.797 25.96 202.277 26.12 200.357 26.12H196.117L197.717 12.84H201.477ZM56.08 73.64H39.68L30.48 86.92C29.28 88.68 28.56 89.8 27.84 91.16C27.6 90.44 27.44 89.8 27.28 89.4C26.72 87.64 26.56 87.32 24.4 82.2L20.72 73.64H5.76L19.36 103.24L16.4 127H29.92L32.8 103.64L56.08 73.64ZM82.5325 72.6C64.8525 72.6 52.3725 84.36 52.3725 101.08C52.3725 117.16 64.1325 128.04 81.4925 128.04C98.7725 128.04 110.453 116.2 110.453 98.68C110.453 98.36 110.453 97.96 110.453 97.64C109.813 82.52 98.6925 72.6 82.5325 72.6ZM96.6125 100.12C96.6125 109.08 90.2925 115.24 81.1725 115.24C72.2125 115.24 66.2125 109.4 66.2125 100.6C66.2125 91.8 72.8525 85.4 81.9725 85.4C90.3725 85.4 96.0525 90.76 96.5325 99.16C96.6125 99.48 96.6125 99.8 96.6125 100.12ZM153.548 73.64L149.868 104.04C149.228 108.84 148.668 110.68 146.988 112.6C145.388 114.36 142.748 115.24 139.388 115.24C133.468 115.24 130.588 112.52 130.588 106.92C130.588 105.56 130.668 104.04 130.828 102.44L134.348 73.64H120.908L117.388 102.44C116.988 105.72 116.748 108.2 116.748 109.8C116.748 121.24 125.148 128.04 138.988 128.04C146.828 128.04 153.228 125.96 157.228 122.12C160.668 118.84 162.028 114.76 163.308 104.52L167.068 73.64H153.548ZM208.571 102.04C211.451 99 212.891 95 212.891 90.2C212.891 85.4 211.371 81 208.811 78.28C205.771 75.08 201.291 73.64 194.011 73.64H176.651L170.091 127H183.611L186.171 105.8L198.331 127H214.011L201.531 106.28C205.211 105 206.651 104.12 208.571 102.04ZM191.371 84.36C197.051 84.36 198.971 85.96 198.971 90.6C198.971 95.64 196.011 98.04 189.531 98.04H187.131L188.811 84.36H191.371Z" fill="#FCFCFC"/>
<path d="M21.52 32.84L21.0698 33.733L21.0785 33.7373L21.52 32.84ZM9.36 39.96L9.92419 39.1344L9.04426 38.5331L8.50015 39.4495L9.36 39.96ZM3.28 50.2L2.42015 49.6895L1.91858 50.5342L2.7543 51.0507L3.28 50.2ZM29.84 22.84L30.2674 21.9359L30.2658 21.9352L29.84 22.84ZM38.4 15.72L37.7972 16.5179L38.6996 17.1997L39.2657 16.2205L38.4 15.72ZM44.32 5.48L45.1857 5.9805L45.6621 5.15658L44.8627 4.64008L44.32 5.48ZM28.8 -0.400001C17.1184 -0.400001 8.2 7.02824 8.2 17.4H10.2C10.2 8.41176 17.9216 1.6 28.8 1.6V-0.400001ZM8.2 17.4C8.2 21.1454 8.93352 24.0529 11.0095 26.6451C13.042 29.1832 16.289 31.3224 21.0698 33.7329L21.9702 31.9471C17.231 29.5576 14.318 27.5768 12.5705 25.3949C10.8665 23.2671 10.2 20.8546 10.2 17.4H8.2ZM21.0785 33.7373C23.6002 34.9781 25.0246 35.8574 25.8267 36.6509C26.2107 37.0308 26.4316 37.3724 26.5635 37.7068C26.6965 38.0441 26.76 38.4274 26.76 38.92H28.76C28.76 38.2526 28.6736 37.6059 28.424 36.9732C28.1734 36.3376 27.7793 35.7692 27.2333 35.2291C26.1754 34.1826 24.4798 33.1819 21.9615 31.9427L21.0785 33.7373ZM26.76 38.92C26.76 40.235 26.1962 41.3053 25.1849 42.0738C24.151 42.8596 22.601 43.36 20.64 43.36V45.36C22.919 45.36 24.929 44.7804 26.3951 43.6662C27.8838 42.5347 28.76 40.885 28.76 38.92H26.76ZM20.64 43.36C17.252 43.36 14.6532 42.3659 9.92419 39.1344L8.79581 40.7856C13.6668 44.1141 16.668 45.36 20.64 45.36V43.36ZM8.50015 39.4495L2.42015 49.6895L4.13985 50.7105L10.2199 40.4705L8.50015 39.4495ZM2.7543 51.0507C9.98659 55.5201 14.6471 57.04 21.28 57.04V55.04C15.1129 55.04 10.8134 53.6799 3.8057 49.3493L2.7543 51.0507ZM21.28 57.04C27.449 57.04 32.7969 55.0925 36.6156 51.6863C40.4425 48.2729 42.68 43.4395 42.68 37.8H40.68C40.68 42.8805 38.6775 47.1671 35.2844 50.1937C31.8831 53.2275 27.031 55.04 21.28 55.04V57.04ZM42.68 37.8C42.68 34.1203 41.8798 31.1804 39.8428 28.6178C37.8382 26.0958 34.7099 24.036 30.2674 21.9359L29.4126 23.7441C33.7701 25.804 36.5618 27.7042 38.2772 29.8622C39.9602 31.9796 40.68 34.4397 40.68 37.8H42.68ZM30.2658 21.9352C27.537 20.651 25.9751 19.7492 25.0854 18.9118C24.6596 18.5111 24.412 18.146 24.2632 17.7817C24.113 17.4142 24.04 16.9907 24.04 16.44H22.04C22.04 17.1693 22.137 17.8658 22.4118 18.5383C22.688 19.214 23.1204 19.8089 23.7146 20.3682C24.8649 21.4508 26.703 22.469 29.4142 23.7448L30.2658 21.9352ZM24.04 16.44C24.04 15.2984 24.4852 14.4361 25.2697 13.8326C26.0836 13.2065 27.3457 12.8 29.04 12.8V10.8C27.0543 10.8 25.3164 11.2735 24.0503 12.2474C22.7548 13.2439 22.04 14.7016 22.04 16.44H24.04ZM29.04 12.8C31.6114 12.8 34.2805 13.8608 37.7972 16.5179L39.0028 14.9221C35.3195 12.1392 32.2286 10.8 29.04 10.8V12.8ZM39.2657 16.2205L45.1857 5.9805L43.4543 4.9795L37.5343 15.2195L39.2657 16.2205ZM44.8627 4.64008C39.5216 1.18891 34.4557 -0.400001 28.8 -0.400001V1.6C34.0243 1.6 38.7184 3.05108 43.7773 6.31992L44.8627 4.64008ZM112.904 1.64V0.639996H112.223L111.973 1.27362L112.904 1.64ZM102.824 27.24L103.752 27.6114L103.754 27.6064L102.824 27.24ZM101.224 31.24L102.145 31.6296L102.149 31.6206L102.152 31.6114L101.224 31.24ZM98.5838 39.16L97.5863 39.2312L99.5431 39.4422L98.5838 39.16ZM97.0638 24.6L96.078 24.7683L96.08 24.7799L96.0823 24.7915L97.0638 24.6ZM93.1438 1.64L94.1295 1.4717L93.9875 0.639996H93.1438V1.64ZM80.3438 1.64V0.639996H79.6683L79.4161 1.26656L80.3438 1.64ZM70.2638 26.68L71.1902 27.0564L71.1914 27.0534L70.2638 26.68ZM68.1838 31.8L67.2573 31.4236L67.2522 31.4362L67.2474 31.4489L68.1838 31.8ZM65.9438 39.16L64.9455 39.2187L66.9089 39.4217L65.9438 39.16ZM64.0238 21.64L63.0376 21.8057L63.0384 21.8103L64.0238 21.64ZM60.6638 1.64L61.6499 1.47432L61.5098 0.639996H60.6638V1.64ZM47.0638 1.64V0.639996H45.8695L46.0793 1.81563L47.0638 1.64ZM56.5838 55L55.5993 55.1756L55.7464 56H56.5838V55ZM71.0638 55V56H71.7363L71.9899 55.3771L71.0638 55ZM80.1838 32.6L79.2584 32.2208L79.2576 32.2229L80.1838 32.6ZM84.5838 19.88L85.5837 19.8663L83.6242 19.5985L84.5838 19.88ZM85.7838 33.72L86.7698 33.5532L86.7687 33.5472L85.7838 33.72ZM89.3838 55L88.3978 55.1668L88.5387 56H89.3838V55ZM104.584 55V56H105.242L105.502 55.3952L104.584 55ZM127.544 1.64L128.462 2.03524L129.063 0.639996H127.544V1.64ZM111.973 1.27362L101.893 26.8736L103.754 27.6064L113.834 2.00637L111.973 1.27362ZM101.895 26.8686L100.295 30.8686L102.152 31.6114L103.752 27.6114L101.895 26.8686ZM100.303 30.8504C99.3981 32.9887 98.8243 34.7983 97.6244 38.8778L99.5431 39.4422C100.743 35.3617 101.289 33.6513 102.145 31.6296L100.303 30.8504ZM99.5812 39.0888C99.1022 32.3821 98.699 27.7591 98.0452 24.4085L96.0823 24.7915C96.7085 28.0009 97.1053 32.4979 97.5863 39.2312L99.5812 39.0888ZM98.0495 24.4317L94.1295 1.4717L92.158 1.80829L96.078 24.7683L98.0495 24.4317ZM93.1438 0.639996H80.3438V2.64H93.1438V0.639996ZM79.4161 1.26656L69.3361 26.3066L71.1914 27.0534L81.2714 2.01343L79.4161 1.26656ZM69.3373 26.3036L67.2573 31.4236L69.1102 32.1764L71.1902 27.0564L69.3373 26.3036ZM67.2474 31.4489C66.7524 32.7688 66.2632 34.1614 64.9786 38.8983L66.9089 39.4217C68.1843 34.7186 68.6551 33.3912 69.1201 32.1511L67.2474 31.4489ZM66.942 39.1013C66.4603 30.9117 66.1367 27.9936 65.0091 21.4697L63.0384 21.8103C64.1508 28.2464 64.4672 31.0883 64.9455 39.2187L66.942 39.1013ZM65.0099 21.4743L61.6499 1.47432L59.6776 1.80567L63.0376 21.8057L65.0099 21.4743ZM60.6638 0.639996H47.0638V2.64H60.6638V0.639996ZM46.0793 1.81563L55.5993 55.1756L57.5682 54.8244L48.0482 1.46436L46.0793 1.81563ZM56.5838 56H71.0638V54H56.5838V56ZM71.9899 55.3771L81.1099 32.9771L79.2576 32.2229L70.1376 54.6229L71.9899 55.3771ZM81.1091 32.9792C83.1241 28.0626 83.7751 26.1894 85.5433 20.1615L83.6242 19.5985C81.8724 25.5706 81.2434 27.3774 79.2584 32.2208L81.1091 32.9792ZM83.5838 19.8937C83.6645 25.7788 83.9883 29.2727 84.7988 33.8928L86.7687 33.5472C85.9792 29.0473 85.663 25.6612 85.5837 19.8663L83.5838 19.8937ZM84.7978 33.8868L88.3978 55.1668L90.3697 54.8332L86.7697 33.5532L84.7978 33.8868ZM89.3838 56H104.584V54H89.3838V56ZM105.502 55.3952L128.462 2.03524L126.625 1.24475L103.665 54.6048L105.502 55.3952ZM127.544 0.639996H112.904V2.64H127.544V0.639996ZM158.573 46.04L159.543 45.7975L159.353 45.04H158.573V46.04ZM160.812 55L159.842 55.2425L160.032 56H160.812V55ZM174.973 55V56H176.243L175.945 54.7654L174.973 55ZM162.092 1.64L163.065 1.40536L162.88 0.639996H162.092V1.64ZM146.893 1.64V0.639996H146.272L145.997 1.19547L146.893 1.64ZM120.413 55L119.517 54.5555L118.8 56H120.413V55ZM135.452 55V56H136.096L136.363 55.4144L135.452 55ZM139.533 46.04V45.04H138.889L138.622 45.6256L139.533 46.04ZM149.853 23.56L150.765 23.9701L150.77 23.9587L149.853 23.56ZM152.253 17.24L153.248 17.1495L151.299 16.9402L152.253 17.24ZM152.573 19.16L153.561 19.0117L153.558 18.9877L153.553 18.9639L152.573 19.16ZM153.773 25.32L152.795 25.5308L152.796 25.5353L153.773 25.32ZM156.012 35.48V36.48H157.257L156.989 35.2647L156.012 35.48ZM144.493 35.48L143.58 35.0699L142.946 36.48H144.493V35.48ZM157.602 46.2825L159.842 55.2425L161.783 54.7575L159.543 45.7975L157.602 46.2825ZM160.812 56H174.973V54H160.812V56ZM175.945 54.7654L163.065 1.40536L161.12 1.87464L174 55.2346L175.945 54.7654ZM162.092 0.639996H146.893V2.64H162.092V0.639996ZM145.997 1.19547L119.517 54.5555L121.308 55.4445L147.788 2.08452L145.997 1.19547ZM120.413 56H135.452V54H120.413V56ZM136.363 55.4144L140.443 46.4544L138.622 45.6256L134.542 54.5856L136.363 55.4144ZM139.533 47.04H158.573V45.04H139.533V47.04ZM150.77 23.9587C151.575 22.1067 152.311 20.3894 153.206 17.5398L151.299 16.9402C150.434 19.6906 149.73 21.3333 148.935 23.1613L150.77 23.9587ZM151.257 17.3305C151.343 18.2797 151.52 18.9962 151.592 19.3561L153.553 18.9639C153.465 18.5238 153.322 17.9603 153.248 17.1495L151.257 17.3305ZM151.584 19.3083C151.828 20.9402 151.914 21.4448 152.795 25.5308L154.75 25.1092C153.871 21.0352 153.797 20.5798 153.561 19.0117L151.584 19.3083ZM152.796 25.5353L155.036 35.6953L156.989 35.2647L154.749 25.1047L152.796 25.5353ZM156.012 34.48H144.493V36.48H156.012V34.48ZM145.405 35.8901L150.765 23.9701L148.94 23.1499L143.58 35.0699L145.405 35.8901ZM178.997 55L178.005 54.878L177.867 56H178.997V55ZM192.518 55V56H193.403L193.51 55.1213L192.518 55ZM194.677 37.32V36.32H193.792L193.685 37.1987L194.677 37.32ZM219.238 31.16L219.973 31.8371L219.974 31.8364L219.238 31.16ZM218.917 6.36L219.617 5.64578V5.64578L218.917 6.36ZM185.557 1.64V0.639996H184.673L184.565 1.51798L185.557 1.64ZM208.038 14.6L207.315 15.2912L207.323 15.2993L207.33 15.3071L208.038 14.6ZM196.117 26.12L195.125 26.0004L194.99 27.12H196.117V26.12ZM197.717 12.84V11.84H196.831L196.725 12.7204L197.717 12.84ZM178.997 56H192.518V54H178.997V56ZM193.51 55.1213L195.67 37.4413L193.685 37.1987L191.525 54.8787L193.51 55.1213ZM194.677 38.32H200.678V36.32H194.677V38.32ZM200.678 38.32C209.29 38.32 216.023 36.1308 219.973 31.8371L218.502 30.4829C215.092 34.1892 209.025 36.32 200.678 36.32V38.32ZM219.974 31.8364C223.832 27.6356 224.397 22.5186 224.397 18.6H222.397C222.397 22.3614 221.843 26.8444 218.501 30.4836L219.974 31.8364ZM224.397 18.6C224.397 14.999 223.911 9.85374 219.617 5.64578L218.218 7.07421C221.924 10.7063 222.397 15.161 222.397 18.6H224.397ZM219.617 5.64578C215.318 1.43267 209.522 0.639996 203.397 0.639996V2.64C209.432 2.64 214.517 3.44733 218.218 7.07421L219.617 5.64578ZM203.397 0.639996H185.557V2.64H203.397V0.639996ZM184.565 1.51798L178.005 54.878L179.99 55.122L186.55 1.76202L184.565 1.51798ZM201.477 13.84C202.466 13.84 203.568 13.8233 204.642 14.0145C205.706 14.2039 206.636 14.5812 207.315 15.2912L208.76 13.9088C207.679 12.7788 206.289 12.2761 204.993 12.0455C203.707 11.8167 202.409 11.84 201.477 11.84V13.84ZM207.33 15.3071C207.908 15.885 208.557 17.052 208.557 19.16H210.557C210.557 16.628 209.767 14.915 208.745 13.8929L207.33 15.3071ZM208.557 19.16C208.557 20.3027 208.395 21.9487 207.17 23.1729L208.585 24.5871C210.4 22.7713 210.557 20.4173 210.557 19.16H208.557ZM207.17 23.1729C206.318 24.0249 205.126 24.5243 203.845 24.8028C202.571 25.0799 201.296 25.12 200.357 25.12V27.12C201.339 27.12 202.784 27.0801 204.27 26.7572C205.749 26.4357 207.357 25.8151 208.585 24.5871L207.17 23.1729ZM200.357 25.12H196.117V27.12H200.357V25.12ZM197.11 26.2396L198.71 12.9596L196.725 12.7204L195.125 26.0004L197.11 26.2396ZM197.717 13.84H201.477V11.84H197.717V13.84ZM56.08 73.64L56.87 74.2531L58.1218 72.64H56.08V73.64ZM39.68 73.64V72.64H39.1562L38.858 73.0705L39.68 73.64ZM30.48 86.92L29.658 86.3505L29.6538 86.3567L30.48 86.92ZM27.84 91.16L26.8913 91.4762L27.6303 93.6933L28.7238 91.6279L27.84 91.16ZM27.28 89.4L26.3271 89.7032L26.3381 89.7377L26.3515 89.7714L27.28 89.4ZM24.4 82.2L25.3214 81.8113L25.3187 81.805L24.4 82.2ZM20.72 73.64L21.6387 73.245L21.3786 72.64H20.72V73.64ZM5.76 73.64V72.64H4.20004L4.85132 74.0575L5.76 73.64ZM19.36 103.24L20.3523 103.364L20.3875 103.081L20.2687 102.822L19.36 103.24ZM16.4 127L15.4077 126.876L15.2677 128H16.4V127ZM29.92 127V128H30.8043L30.9125 127.122L29.92 127ZM32.8 103.64L32.01 103.027L31.8412 103.244L31.8075 103.518L32.8 103.64ZM56.08 72.64H39.68V74.64H56.08V72.64ZM38.858 73.0705L29.658 86.3505L31.302 87.4895L40.502 74.2095L38.858 73.0705ZM29.6538 86.3567C28.4478 88.1254 27.7027 89.282 26.9562 90.6921L28.7238 91.6279C29.4173 90.318 30.1122 89.2346 31.3062 87.4833L29.6538 86.3567ZM28.7887 90.8438C28.6747 90.5017 28.5798 90.1793 28.4878 89.8727C28.4004 89.5814 28.308 89.2774 28.2085 89.0286L26.3515 89.7714C26.412 89.9226 26.4796 90.1386 26.5722 90.4473C26.6602 90.7407 26.7653 91.0983 26.8913 91.4762L28.7887 90.8438ZM28.2329 89.0968C27.6555 87.282 27.472 86.9092 25.3214 81.8113L23.4786 82.5887C25.648 87.7308 25.7845 87.998 26.3271 89.7032L28.2329 89.0968ZM25.3187 81.805L21.6387 73.245L19.8013 74.035L23.4813 82.595L25.3187 81.805ZM20.72 72.64H5.76V74.64H20.72V72.64ZM4.85132 74.0575L18.4513 103.658L20.2687 102.822L6.66868 73.2225L4.85132 74.0575ZM18.3677 103.116L15.4077 126.876L17.3923 127.124L20.3523 103.364L18.3677 103.116ZM16.4 128H29.92V126H16.4V128ZM30.9125 127.122L33.7925 103.762L31.8075 103.518L28.9275 126.878L30.9125 127.122ZM33.59 104.253L56.87 74.2531L55.29 73.0269L32.01 103.027L33.59 104.253ZM110.453 97.64H111.453V97.6188L111.452 97.5977L110.453 97.64ZM96.5325 99.16L95.5341 99.217L95.5395 99.3111L95.5624 99.4025L96.5325 99.16ZM82.5325 71.6C73.4686 71.6 65.6733 74.6172 60.1362 79.8427C54.5949 85.0721 51.3725 92.4603 51.3725 101.08H53.3725C53.3725 92.9797 56.3901 86.1279 61.5088 81.2973C66.6317 76.4628 73.9165 73.6 82.5325 73.6V71.6ZM51.3725 101.08C51.3725 109.376 54.4125 116.39 59.7432 121.324C65.0674 126.252 72.6036 129.04 81.4925 129.04V127.04C73.0214 127.04 65.9976 124.388 61.1018 119.856C56.2125 115.33 53.3725 108.864 53.3725 101.08H51.3725ZM81.4925 129.04C90.3674 129.04 97.8747 125.995 103.164 120.632C108.453 115.271 111.453 107.667 111.453 98.68H109.453C109.453 107.213 106.612 114.289 101.741 119.228C96.8703 124.165 89.8976 127.04 81.4925 127.04V129.04ZM111.453 98.68C111.453 98.6794 111.453 98.6787 111.453 98.6781C111.453 98.6775 111.453 98.6769 111.453 98.6762C111.453 98.6756 111.453 98.675 111.453 98.6744C111.453 98.6737 111.453 98.6731 111.453 98.6725C111.453 98.6719 111.453 98.6712 111.453 98.6706C111.453 98.67 111.453 98.6693 111.453 98.6687C111.453 98.6681 111.453 98.6675 111.453 98.6668C111.453 98.6662 111.453 98.6656 111.453 98.6649C111.453 98.6643 111.453 98.6637 111.453 98.663C111.453 98.6624 111.453 98.6618 111.453 98.6612C111.453 98.6605 111.453 98.6599 111.453 98.6593C111.453 98.6586 111.453 98.658 111.453 98.6574C111.453 98.6567 111.453 98.6561 111.453 98.6555C111.453 98.6548 111.453 98.6542 111.453 98.6536C111.453 98.6529 111.453 98.6523 111.453 98.6517C111.453 98.651 111.453 98.6504 111.453 98.6498C111.453 98.6491 111.453 98.6485 111.453 98.6479C111.453 98.6472 111.453 98.6466 111.453 98.646C111.453 98.6453 111.453 98.6447 111.453 98.6441C111.453 98.6434 111.453 98.6428 111.453 98.6421C111.453 98.6415 111.453 98.6409 111.453 98.6402C111.453 98.6396 111.453 98.639 111.453 98.6383C111.453 98.6377 111.453 98.637 111.453 98.6364C111.453 98.6358 111.453 98.6351 111.453 98.6345C111.453 98.6339 111.453 98.6332 111.453 98.6326C111.453 98.6319 111.453 98.6313 111.453 98.6307C111.453 98.63 111.453 98.6294 111.453 98.6287C111.453 98.6281 111.453 98.6274 111.453 98.6268C111.453 98.6262 111.453 98.6255 111.453 98.6249C111.453 98.6242 111.453 98.6236 111.453 98.623C111.453 98.6223 111.453 98.6217 111.453 98.621C111.453 98.6204 111.453 98.6197 111.453 98.6191C111.453 98.6185 111.453 98.6178 111.453 98.6172C111.453 98.6165 111.453 98.6159 111.453 98.6152C111.453 98.6146 111.453 98.614 111.453 98.6133C111.453 98.6127 111.453 98.612 111.453 98.6114C111.453 98.6107 111.453 98.6101 111.453 98.6094C111.453 98.6088 111.453 98.6081 111.453 98.6075C111.453 98.6068 111.453 98.6062 111.453 98.6056C111.453 98.6049 111.453 98.6043 111.453 98.6036C111.453 98.603 111.453 98.6023 111.453 98.6017C111.453 98.601 111.453 98.6004 111.453 98.5997C111.453 98.5991 111.453 98.5984 111.453 98.5978C111.453 98.5971 111.453 98.5965 111.453 98.5958C111.453 98.5952 111.453 98.5945 111.453 98.5939C111.453 98.5932 111.453 98.5926 111.453 98.5919C111.453 98.5913 111.453 98.5906 111.453 98.59C111.453 98.5893 111.453 98.5887 111.453 98.588C111.453 98.5874 111.453 98.5867 111.453 98.5861C111.453 98.5854 111.453 98.5848 111.453 98.5841C111.453 98.5835 111.453 98.5828 111.453 98.5822C111.453 98.5815 111.453 98.5808 111.453 98.5802C111.453 98.5795 111.453 98.5789 111.453 98.5782C111.453 98.5776 111.453 98.5769 111.453 98.5763C111.453 98.5756 111.453 98.575 111.453 98.5743C111.453 98.5736 111.453 98.573 111.453 98.5723C111.453 98.5717 111.453 98.571 111.453 98.5704C111.453 98.5697 111.453 98.5691 111.453 98.5684C111.453 98.5677 111.453 98.5671 111.453 98.5664C111.453 98.5658 111.453 98.5651 111.453 98.5645C111.453 98.5638 111.453 98.5631 111.453 98.5625C111.453 98.5618 111.453 98.5612 111.453 98.5605C111.453 98.5599 111.453 98.5592 111.453 98.5585C111.453 98.5579 111.453 98.5572 111.453 98.5566C111.453 98.5559 111.453 98.5552 111.453 98.5546C111.453 98.5539 111.453 98.5533 111.453 98.5526C111.453 98.5519 111.453 98.5513 111.453 98.5506C111.453 98.55 111.453 98.5493 111.453 98.5486C111.453 98.548 111.453 98.5473 111.453 98.5467C111.453 98.546 111.453 98.5453 111.453 98.5447C111.453 98.544 111.453 98.5434 111.453 98.5427C111.453 98.542 111.453 98.5414 111.453 98.5407C111.453 98.54 111.453 98.5394 111.453 98.5387C111.453 98.538 111.453 98.5374 111.453 98.5367C111.453 98.5361 111.453 98.5354 111.453 98.5347C111.453 98.5341 111.453 98.5334 111.453 98.5327C111.453 98.5321 111.453 98.5314 111.453 98.5307C111.453 98.5301 111.453 98.5294 111.453 98.5287C111.453 98.5281 111.453 98.5274 111.453 98.5267C111.453 98.5261 111.453 98.5254 111.453 98.5247C111.453 98.5241 111.453 98.5234 111.453 98.5228C111.453 98.5221 111.453 98.5214 111.453 98.5208C111.453 98.5201 111.453 98.5194 111.453 98.5187C111.453 98.5181 111.453 98.5174 111.453 98.5167C111.453 98.5161 111.453 98.5154 111.453 98.5147C111.453 98.5141 111.453 98.5134 111.453 98.5127C111.453 98.5121 111.453 98.5114 111.453 98.5107C111.453 98.5101 111.453 98.5094 111.453 98.5087C111.453 98.508 111.453 98.5074 111.453 98.5067C111.453 98.506 111.453 98.5054 111.453 98.5047C111.453 98.504 111.453 98.5034 111.453 98.5027C111.453 98.502 111.453 98.5014 111.453 98.5007C111.453 98.5 111.453 98.4993 111.453 98.4987C111.453 98.498 111.453 98.4973 111.453 98.4967C111.453 98.496 111.453 98.4953 111.453 98.4946C111.453 98.494 111.453 98.4933 111.453 98.4926C111.453 98.4919 111.453 98.4913 111.453 98.4906C111.453 98.4899 111.453 98.4893 111.453 98.4886C111.453 98.4879 111.453 98.4872 111.453 98.4866C111.453 98.4859 111.453 98.4852 111.453 98.4845C111.453 98.4839 111.453 98.4832 111.453 98.4825C111.453 98.4818 111.453 98.4812 111.453 98.4805C111.453 98.4798 111.453 98.4791 111.453 98.4785C111.453 98.4778 111.453 98.4771 111.453 98.4764C111.453 98.4758 111.453 98.4751 111.453 98.4744C111.453 98.4737 111.453 98.4731 111.453 98.4724C111.453 98.4717 111.453 98.471 111.453 98.4704C111.453 98.4697 111.453 98.469 111.453 98.4683C111.453 98.4676 111.453 98.467 111.453 98.4663C111.453 98.4656 111.453 98.4649 111.453 98.4643C111.453 98.4636 111.453 98.4629 111.453 98.4622C111.453 98.4615 111.453 98.4609 111.453 98.4602C111.453 98.4595 111.453 98.4588 111.453 98.4582C111.453 98.4575 111.453 98.4568 111.453 98.4561C111.453 98.4554 111.453 98.4548 111.453 98.4541C111.453 98.4534 111.453 98.4527 111.453 98.452C111.453 98.4514 111.453 98.4507 111.453 98.45C111.453 98.4493 111.453 98.4486 111.453 98.448C111.453 98.4473 111.453 98.4466 111.453 98.4459C111.453 98.4452 111.453 98.4446 111.453 98.4439C111.453 98.4432 111.453 98.4425 111.453 98.4418C111.453 98.4412 111.453 98.4405 111.453 98.4398C111.453 98.4391 111.453 98.4384 111.453 98.4377C111.453 98.4371 111.453 98.4364 111.453 98.4357C111.453 98.435 111.453 98.4343 111.453 98.4336C111.453 98.433 111.453 98.4323 111.453 98.4316C111.453 98.4309 111.453 98.4302 111.453 98.4296C111.453 98.4289 111.453 98.4282 111.453 98.4275C111.453 98.4268 111.453 98.4261 111.453 98.4254C111.453 98.4248 111.453 98.4241 111.453 98.4234C111.453 98.4227 111.453 98.422 111.453 98.4213C111.453 98.4207 111.453 98.42 111.453 98.4193C111.453 98.4186 111.453 98.4179 111.453 98.4172C111.453 98.4165 111.453 98.4159 111.453 98.4152C111.453 98.4145 111.453 98.4138 111.453 98.4131C111.453 98.4124 111.453 98.4118 111.453 98.4111C111.453 98.4104 111.453 98.4097 111.453 98.409C111.453 98.4083 111.453 98.4076 111.453 98.4069C111.453 98.4063 111.453 98.4056 111.453 98.4049C111.453 98.4042 111.453 98.4035 111.453 98.4028C111.453 98.4021 111.453 98.4015 111.453 98.4008C111.453 98.4001 111.453 98.3994 111.453 98.3987C111.453 98.398 111.453 98.3973 111.453 98.3966C111.453 98.396 111.453 98.3953 111.453 98.3946C111.453 98.3939 111.453 98.3932 111.453 98.3925C111.453 98.3918 111.453 98.3911 111.453 98.3904C111.453 98.3898 111.453 98.3891 111.453 98.3884C111.453 98.3877 111.453 98.387 111.453 98.3863C111.453 98.3856 111.453 98.3849 111.453 98.3842C111.453 98.3836 111.453 98.3829 111.453 98.3822C111.453 98.3815 111.453 98.3808 111.453 98.3801C111.453 98.3794 111.453 98.3787 111.453 98.378C111.453 98.3773 111.453 98.3767 111.453 98.376C111.453 98.3753 111.453 98.3746 111.453 98.3739C111.453 98.3732 111.453 98.3725 111.453 98.3718C111.453 98.3711 111.453 98.3704 111.453 98.3697C111.453 98.3691 111.453 98.3684 111.453 98.3677C111.453 98.367 111.453 98.3663 111.453 98.3656C111.453 98.3649 111.453 98.3642 111.453 98.3635C111.453 98.3628 111.453 98.3621 111.453 98.3614C111.453 98.3608 111.453 98.3601 111.453 98.3594C111.453 98.3587 111.453 98.358 111.453 98.3573C111.453 98.3566 111.453 98.3559 111.453 98.3552C111.453 98.3545 111.453 98.3538 111.453 98.3531C111.453 98.3524 111.453 98.3517 111.453 98.3511C111.453 98.3504 111.453 98.3497 111.453 98.349C111.453 98.3483 111.453 98.3476 111.453 98.3469C111.453 98.3462 111.453 98.3455 111.453 98.3448C111.453 98.3441 111.453 98.3434 111.453 98.3427C111.453 98.342 111.453 98.3413 111.453 98.3406C111.453 98.34 111.453 98.3393 111.453 98.3386C111.453 98.3379 111.453 98.3372 111.453 98.3365C111.453 98.3358 111.453 98.3351 111.453 98.3344C111.453 98.3337 111.453 98.333 111.453 98.3323C111.453 98.3316 111.453 98.3309 111.453 98.3302C111.453 98.3295 111.453 98.3288 111.453 98.3281C111.453 98.3274 111.453 98.3268 111.453 98.326C111.453 98.3254 111.453 98.3247 111.453 98.324C111.453 98.3233 111.453 98.3226 111.453 98.3219C111.453 98.3212 111.453 98.3205 111.453 98.3198C111.453 98.3191 111.453 98.3184 111.453 98.3177C111.453 98.317 111.453 98.3163 111.453 98.3156C111.453 98.3149 111.453 98.3142 111.453 98.3135C111.453 98.3128 111.453 98.3121 111.453 98.3114C111.453 98.3107 111.453 98.31 111.453 98.3093C111.453 98.3086 111.453 98.3079 111.453 98.3072C111.453 98.3065 111.453 98.3059 111.453 98.3052C111.453 98.3045 111.453 98.3038 111.453 98.3031C111.453 98.3024 111.453 98.3017 111.453 98.301C111.453 98.3003 111.453 98.2996 111.453 98.2989C111.453 98.2982 111.453 98.2975 111.453 98.2968C111.453 98.2961 111.453 98.2954 111.453 98.2947C111.453 98.294 111.453 98.2933 111.453 98.2926C111.453 98.2919 111.453 98.2912 111.453 98.2905C111.453 98.2898 111.453 98.2891 111.453 98.2884C111.453 98.2877 111.453 98.287 111.453 98.2863C111.453 98.2856 111.453 98.2849 111.453 98.2842C111.453 98.2835 111.453 98.2828 111.453 98.2821C111.453 98.2814 111.453 98.2807 111.453 98.28C111.453 98.2793 111.453 98.2786 111.453 98.2779C111.453 98.2772 111.453 98.2765 111.453 98.2758C111.453 98.2751 111.453 98.2744 111.453 98.2737C111.453 98.273 111.453 98.2723 111.453 98.2716C111.453 98.2709 111.453 98.2702 111.453 98.2695C111.453 98.2688 111.453 98.2681 111.453 98.2674C111.453 98.2667 111.453 98.266 111.453 98.2653C111.453 98.2646 111.453 98.2639 111.453 98.2632C111.453 98.2625 111.453 98.2618 111.453 98.2611C111.453 98.2604 111.453 98.2597 111.453 98.259C111.453 98.2583 111.453 98.2576 111.453 98.2569C111.453 98.2562 111.453 98.2555 111.453 98.2548C111.453 98.2541 111.453 98.2534 111.453 98.2527C111.453 98.252 111.453 98.2513 111.453 98.2506C111.453 98.2499 111.453 98.2492 111.453 98.2485C111.453 98.2478 111.453 98.2471 111.453 98.2464C111.453 98.2457 111.453 98.245 111.453 98.2443C111.453 98.2436 111.453 98.2429 111.453 98.2422C111.453 98.2415 111.453 98.2408 111.453 98.2401C111.453 98.2394 111.453 98.2387 111.453 98.238C111.453 98.2373 111.453 98.2366 111.453 98.2359C111.453 98.2352 111.453 98.2345 111.453 98.2338C111.453 98.2331 111.453 98.2324 111.453 98.2317C111.453 98.231 111.453 98.2303 111.453 98.2296C111.453 98.2289 111.453 98.2282 111.453 98.2275C111.453 98.2268 111.453 98.2261 111.453 98.2254C111.453 98.2247 111.453 98.224 111.453 98.2233C111.453 98.2225 111.453 98.2218 111.453 98.2211C111.453 98.2204 111.453 98.2197 111.453 98.219C111.453 98.2183 111.453 98.2176 111.453 98.2169C111.453 98.2162 111.453 98.2155 111.453 98.2148C111.453 98.2141 111.453 98.2134 111.453 98.2127C111.453 98.212 111.453 98.2113 111.453 98.2106C111.453 98.2099 111.453 98.2092 111.453 98.2085C111.453 98.2078 111.453 98.2071 111.453 98.2064C111.453 98.2057 111.453 98.205 111.453 98.2043C111.453 98.2036 111.453 98.2029 111.453 98.2022C111.453 98.2015 111.453 98.2008 111.453 98.2001C111.453 98.1994 111.453 98.1987 111.453 98.198C111.453 98.1973 111.453 98.1966 111.453 98.1959C111.453 98.1952 111.453 98.1945 111.453 98.1937C111.453 98.193 111.453 98.1923 111.453 98.1916C111.453 98.1909 111.453 98.1902 111.453 98.1895C111.453 98.1888 111.453 98.1881 111.453 98.1874C111.453 98.1867 111.453 98.186 111.453 98.1853C111.453 98.1846 111.453 98.1839 111.453 98.1832C111.453 98.1825 111.453 98.1818 111.453 98.1811C111.453 98.1804 111.453 98.1797 111.453 98.179C111.453 98.1783 111.453 98.1776 111.453 98.1769C111.453 98.1762 111.453 98.1755 111.453 98.1748C111.453 98.1741 111.453 98.1734 111.453 98.1727C111.453 98.172 111.453 98.1712 111.453 98.1705C111.453 98.1698 111.453 98.1691 111.453 98.1684C111.453 98.1677 111.453 98.167 111.453 98.1663C111.453 98.1656 111.453 98.1649 111.453 98.1642C111.453 98.1635 111.453 98.1628 111.453 98.1621C111.453 98.1614 111.453 98.1607 111.453 98.16C111.453 98.1593 111.453 98.1586 111.453 98.1579C111.453 98.1572 111.453 98.1565 111.453 98.1558C111.453 98.1551 111.453 98.1544 111.453 98.1537C111.453 98.153 111.453 98.1523 111.453 98.1516C111.453 98.1509 111.453 98.1502 111.453 98.1495C111.453 98.1488 111.453 98.148 111.453 98.1473C111.453 98.1466 111.453 98.1459 111.453 98.1452C111.453 98.1445 111.453 98.1438 111.453 98.1431C111.453 98.1424 111.453 98.1417 111.453 98.141C111.453 98.1403 111.453 98.1396 111.453 98.1389C111.453 98.1382 111.453 98.1375 111.453 98.1368C111.453 98.1361 111.453 98.1354 111.453 98.1347C111.453 98.134 111.453 98.1333 111.453 98.1326C111.453 98.1319 111.453 98.1312 111.453 98.1305C111.453 98.1298 111.453 98.1291 111.453 98.1284C111.453 98.1277 111.453 98.127 111.453 98.1263C111.453 98.1255 111.453 98.1248 111.453 98.1241C111.453 98.1234 111.453 98.1227 111.453 98.122C111.453 98.1213 111.453 98.1206 111.453 98.1199C111.453 98.1192 111.453 98.1185 111.453 98.1178C111.453 98.1171 111.453 98.1164 111.453 98.1157C111.453 98.115 111.453 98.1143 111.453 98.1136C111.453 98.1129 111.453 98.1122 111.453 98.1115C111.453 98.1108 111.453 98.1101 111.453 98.1094C111.453 98.1087 111.453 98.108 111.453 98.1073C111.453 98.1066 111.453 98.1059 111.453 98.1052C111.453 98.1045 111.453 98.1038 111.453 98.1031C111.453 98.1024 111.453 98.1017 111.453 98.101C111.453 98.1003 111.453 98.0996 111.453 98.0989C111.453 98.0982 111.453 98.0975 111.453 98.0967C111.453 98.096 111.453 98.0953 111.453 98.0946C111.453 98.0939 111.453 98.0932 111.453 98.0925C111.453 98.0918 111.453 98.0911 111.453 98.0904C111.453 98.0897 111.453 98.089 111.453 98.0883C111.453 98.0876 111.453 98.0869 111.453 98.0862C111.453 98.0855 111.453 98.0848 111.453 98.0841C111.453 98.0834 111.453 98.0827 111.453 98.082C111.453 98.0813 111.453 98.0806 111.453 98.0799C111.453 98.0792 111.453 98.0785 111.453 98.0778C111.453 98.0771 111.453 98.0764 111.453 98.0757C111.453 98.075 111.453 98.0743 111.453 98.0736C111.453 98.0729 111.453 98.0722 111.453 98.0715C111.453 98.0708 111.453 98.0701 111.453 98.0694C111.453 98.0687 111.453 98.068 111.453 98.0673C111.453 98.0666 111.453 98.0659 111.453 98.0652C111.453 98.0645 111.453 98.0638 111.453 98.0631C111.453 98.0624 111.453 98.0617 111.453 98.061C111.453 98.0603 111.453 98.0596 111.453 98.0589C111.453 98.0582 111.453 98.0575 111.453 98.0568C111.453 98.0561 111.453 98.0554 111.453 98.0547C111.453 98.054 111.453 98.0533 111.453 98.0526C111.453 98.0519 111.453 98.0512 111.453 98.0505C111.453 98.0498 111.453 98.0491 111.453 98.0484C111.453 98.0477 111.453 98.047 111.453 98.0463C111.453 98.0456 111.453 98.0449 111.453 98.0442C111.453 98.0435 111.453 98.0428 111.453 98.0421C111.453 98.0414 111.453 98.0407 111.453 98.04C111.453 98.0393 111.453 98.0386 111.453 98.0379C111.453 98.0372 111.453 98.0365 111.453 98.0358C111.453 98.0351 111.453 98.0344 111.453 98.0337C111.453 98.033 111.453 98.0323 111.453 98.0316C111.453 98.0309 111.453 98.0302 111.453 98.0295C111.453 98.0288 111.453 98.0281 111.453 98.0274C111.453 98.0267 111.453 98.026 111.453 98.0253C111.453 98.0246 111.453 98.0239 111.453 98.0232C111.453 98.0225 111.453 98.0218 111.453 98.0211C111.453 98.0204 111.453 98.0197 111.453 98.019C111.453 98.0183 111.453 98.0176 111.453 98.0169C111.453 98.0162 111.453 98.0155 111.453 98.0148C111.453 98.0141 111.453 98.0135 111.453 98.0127C111.453 98.0121 111.453 98.0114 111.453 98.0107C111.453 98.01 111.453 98.0093 111.453 98.0086C111.453 98.0079 111.453 98.0072 111.453 98.0065C111.453 98.0058 111.453 98.0051 111.453 98.0044C111.453 98.0037 111.453 98.003 111.453 98.0023C111.453 98.0016 111.453 98.0009 111.453 98.0002C111.453 97.9995 111.453 97.9988 111.453 97.9981C111.453 97.9974 111.453 97.9967 111.453 97.996C111.453 97.9953 111.453 97.9946 111.453 97.9939C111.453 97.9932 111.453 97.9926 111.453 97.9919C111.453 97.9912 111.453 97.9905 111.453 97.9898C111.453 97.9891 111.453 97.9884 111.453 97.9877C111.453 97.987 111.453 97.9863 111.453 97.9856C111.453 97.9849 111.453 97.9842 111.453 97.9835C111.453 97.9828 111.453 97.9821 111.453 97.9814C111.453 97.9807 111.453 97.98 111.453 97.9794C111.453 97.9787 111.453 97.978 111.453 97.9773C111.453 97.9766 111.453 97.9759 111.453 97.9752C111.453 97.9745 111.453 97.9738 111.453 97.9731C111.453 97.9724 111.453 97.9717 111.453 97.971C111.453 97.9703 111.453 97.9696 111.453 97.9689C111.453 97.9683 111.453 97.9676 111.453 97.9669C111.453 97.9662 111.453 97.9655 111.453 97.9648C111.453 97.9641 111.453 97.9634 111.453 97.9627C111.453 97.962 111.453 97.9613 111.453 97.9606C111.453 97.9599 111.453 97.9592 111.453 97.9586C111.453 97.9579 111.453 97.9572 111.453 97.9565C111.453 97.9558 111.453 97.9551 111.453 97.9544C111.453 97.9537 111.453 97.953 111.453 97.9523C111.453 97.9516 111.453 97.9509 111.453 97.9503C111.453 97.9496 111.453 97.9489 111.453 97.9482C111.453 97.9475 111.453 97.9468 111.453 97.9461C111.453 97.9454 111.453 97.9447 111.453 97.944C111.453 97.9433 111.453 97.9427 111.453 97.942C111.453 97.9413 111.453 97.9406 111.453 97.9399C111.453 97.9392 111.453 97.9385 111.453 97.9378C111.453 97.9371 111.453 97.9364 111.453 97.9358C111.453 97.9351 111.453 97.9344 111.453 97.9337C111.453 97.933 111.453 97.9323 111.453 97.9316C111.453 97.9309 111.453 97.9302 111.453 97.9296C111.453 97.9289 111.453 97.9282 111.453 97.9275C111.453 97.9268 111.453 97.9261 111.453 97.9254C111.453 97.9247 111.453 97.924 111.453 97.9234C111.453 97.9227 111.453 97.922 111.453 97.9213C111.453 97.9206 111.453 97.9199 111.453 97.9192C111.453 97.9185 111.453 97.9179 111.453 97.9172C111.453 97.9165 111.453 97.9158 111.453 97.9151C111.453 97.9144 111.453 97.9137 111.453 97.9131C111.453 97.9124 111.453 97.9117 111.453 97.911C111.453 97.9103 111.453 97.9096 111.453 97.9089C111.453 97.9082 111.453 97.9076 111.453 97.9069C111.453 97.9062 111.453 97.9055 111.453 97.9048C111.453 97.9041 111.453 97.9035 111.453 97.9028C111.453 97.9021 111.453 97.9014 111.453 97.9007C111.453 97.9 111.453 97.8993 111.453 97.8987C111.453 97.898 111.453 97.8973 111.453 97.8966C111.453 97.8959 111.453 97.8952 111.453 97.8946C111.453 97.8939 111.453 97.8932 111.453 97.8925C111.453 97.8918 111.453 97.8911 111.453 97.8904C111.453 97.8898 111.453 97.8891 111.453 97.8884C111.453 97.8877 111.453 97.887 111.453 97.8864C111.453 97.8857 111.453 97.885 111.453 97.8843C111.453 97.8836 111.453 97.8829 111.453 97.8823C111.453 97.8816 111.453 97.8809 111.453 97.8802C111.453 97.8795 111.453 97.8788 111.453 97.8782C111.453 97.8775 111.453 97.8768 111.453 97.8761C111.453 97.8754 111.453 97.8748 111.453 97.8741C111.453 97.8734 111.453 97.8727 111.453 97.872C111.453 97.8714 111.453 97.8707 111.453 97.87C111.453 97.8693 111.453 97.8686 111.453 97.868C111.453 97.8673 111.453 97.8666 111.453 97.8659C111.453 97.8652 111.453 97.8646 111.453 97.8639C111.453 97.8632 111.453 97.8625 111.453 97.8618C111.453 97.8612 111.453 97.8605 111.453 97.8598C111.453 97.8591 111.453 97.8585 111.453 97.8578C111.453 97.8571 111.453 97.8564 111.453 97.8557C111.453 97.8551 111.453 97.8544 111.453 97.8537C111.453 97.853 111.453 97.8524 111.453 97.8517C111.453 97.851 111.453 97.8503 111.453 97.8496C111.453 97.849 111.453 97.8483 111.453 97.8476C111.453 97.8469 111.453 97.8463 111.453 97.8456C111.453 97.8449 111.453 97.8442 111.453 97.8436C111.453 97.8429 111.453 97.8422 111.453 97.8415C111.453 97.8409 111.453 97.8402 111.453 97.8395C111.453 97.8388 111.453 97.8382 111.453 97.8375C111.453 97.8368 111.453 97.8361 111.453 97.8355C111.453 97.8348 111.453 97.8341 111.453 97.8334C111.453 97.8328 111.453 97.8321 111.453 97.8314C111.453 97.8307 111.453 97.8301 111.453 97.8294C111.453 97.8287 111.453 97.8281 111.453 97.8274C111.453 97.8267 111.453 97.826 111.453 97.8254C111.453 97.8247 111.453 97.824 111.453 97.8233C111.453 97.8227 111.453 97.822 111.453 97.8213C111.453 97.8207 111.453 97.82 111.453 97.8193C111.453 97.8186 111.453 97.818 111.453 97.8173C111.453 97.8166 111.453 97.816 111.453 97.8153C111.453 97.8146 111.453 97.814 111.453 97.8133C111.453 97.8126 111.453 97.8119 111.453 97.8113C111.453 97.8106 111.453 97.8099 111.453 97.8093C111.453 97.8086 111.453 97.8079 111.453 97.8073C111.453 97.8066 111.453 97.8059 111.453 97.8053C111.453 97.8046 111.453 97.8039 111.453 97.8033C111.453 97.8026 111.453 97.8019 111.453 97.8012C111.453 97.8006 111.453 97.7999 111.453 97.7992C111.453 97.7986 111.453 97.7979 111.453 97.7972C111.453 97.7966 111.453 97.7959 111.453 97.7952C111.453 97.7946 111.453 97.7939 111.453 97.7933C111.453 97.7926 111.453 97.7919 111.453 97.7913C111.453 97.7906 111.453 97.7899 111.453 97.7893C111.453 97.7886 111.453 97.7879 111.453 97.7873C111.453 97.7866 111.453 97.7859 111.453 97.7853C111.453 97.7846 111.453 97.7839 111.453 97.7833C111.453 97.7826 111.453 97.782 111.453 97.7813C111.453 97.7806 111.453 97.78 111.453 97.7793C111.453 97.7786 111.453 97.778 111.453 97.7773C111.453 97.7766 111.453 97.776 111.453 97.7753C111.453 97.7747 111.453 97.774 111.453 97.7733C111.453 97.7727 111.453 97.772 111.453 97.7714C111.453 97.7707 111.453 97.77 111.453 97.7694C111.453 97.7687 111.453 97.7681 111.453 97.7674C111.453 97.7667 111.453 97.7661 111.453 97.7654C111.453 97.7648 111.453 97.7641 111.453 97.7634C111.453 97.7628 111.453 97.7621 111.453 97.7615C111.453 97.7608 111.453 97.7601 111.453 97.7595C111.453 97.7588 111.453 97.7582 111.453 97.7575C111.453 97.7569 111.453 97.7562 111.453 97.7555C111.453 97.7549 111.453 97.7542 111.453 97.7536C111.453 97.7529 111.453 97.7523 111.453 97.7516C111.453 97.7509 111.453 97.7503 111.453 97.7496C111.453 97.749 111.453 97.7483 111.453 97.7477C111.453 97.747 111.453 97.7464 111.453 97.7457C111.453 97.745 111.453 97.7444 111.453 97.7437C111.453 97.7431 111.453 97.7424 111.453 97.7418C111.453 97.7411 111.453 97.7405 111.453 97.7398C111.453 97.7392 111.453 97.7385 111.453 97.7378C111.453 97.7372 111.453 97.7365 111.453 97.7359C111.453 97.7352 111.453 97.7346 111.453 97.7339C111.453 97.7333 111.453 97.7326 111.453 97.732C111.453 97.7313 111.453 97.7307 111.453 97.73C111.453 97.7294 111.453 97.7287 111.453 97.7281C111.453 97.7274 111.453 97.7268 111.453 97.7261C111.453 97.7255 111.453 97.7248 111.453 97.7242C111.453 97.7235 111.453 97.7229 111.453 97.7222C111.453 97.7216 111.453 97.7209 111.453 97.7203C111.453 97.7196 111.453 97.719 111.453 97.7183C111.453 97.7177 111.453 97.717 111.453 97.7164C111.453 97.7157 111.453 97.7151 111.453 97.7144C111.453 97.7138 111.453 97.7132 111.453 97.7125C111.453 97.7119 111.453 97.7112 111.453 97.7106C111.453 97.7099 111.453 97.7093 111.453 97.7086C111.453 97.708 111.453 97.7073 111.453 97.7067C111.453 97.706 111.453 97.7054 111.453 97.7048C111.453 97.7041 111.453 97.7035 111.453 97.7028C111.453 97.7022 111.453 97.7015 111.453 97.7009C111.453 97.7003 111.453 97.6996 111.453 97.699C111.453 97.6983 111.453 97.6977 111.453 97.697C111.453 97.6964 111.453 97.6958 111.453 97.6951C111.453 97.6945 111.453 97.6938 111.453 97.6932C111.453 97.6926 111.453 97.6919 111.453 97.6913C111.453 97.6906 111.453 97.69 111.453 97.6893C111.453 97.6887 111.453 97.6881 111.453 97.6874C111.453 97.6868 111.453 97.6861 111.453 97.6855C111.453 97.6849 111.453 97.6842 111.453 97.6836C111.453 97.683 111.453 97.6823 111.453 97.6817C111.453 97.681 111.453 97.6804 111.453 97.6798C111.453 97.6791 111.453 97.6785 111.453 97.6779C111.453 97.6772 111.453 97.6766 111.453 97.6759C111.453 97.6753 111.453 97.6747 111.453 97.674C111.453 97.6734 111.453 97.6728 111.453 97.6721C111.453 97.6715 111.453 97.6709 111.453 97.6702C111.453 97.6696 111.453 97.669 111.453 97.6683C111.453 97.6677 111.453 97.6671 111.453 97.6664C111.453 97.6658 111.453 97.6652 111.453 97.6645C111.453 97.6639 111.453 97.6633 111.453 97.6626C111.453 97.662 111.453 97.6614 111.453 97.6607C111.453 97.6601 111.453 97.6595 111.453 97.6588C111.453 97.6582 111.453 97.6576 111.453 97.6569C111.453 97.6563 111.453 97.6557 111.453 97.6551C111.453 97.6544 111.453 97.6538 111.453 97.6532C111.453 97.6525 111.453 97.6519 111.453 97.6513C111.453 97.6507 111.453 97.65 111.453 97.6494C111.453 97.6488 111.453 97.6481 111.453 97.6475C111.453 97.6469 111.453 97.6463 111.453 97.6456C111.453 97.645 111.453 97.6444 111.453 97.6438C111.453 97.6431 111.453 97.6425 111.453 97.6419C111.453 97.6413 111.453 97.6406 111.453 97.64H109.453C109.453 97.6406 109.453 97.6413 109.453 97.6419C109.453 97.6425 109.453 97.6431 109.453 97.6438C109.453 97.6444 109.453 97.645 109.453 97.6456C109.453 97.6463 109.453 97.6469 109.453 97.6475C109.453 97.6481 109.453 97.6488 109.453 97.6494C109.453 97.65 109.453 97.6507 109.453 97.6513C109.453 97.6519 109.453 97.6525 109.453 97.6532C109.453 97.6538 109.453 97.6544 109.453 97.6551C109.453 97.6557 109.453 97.6563 109.453 97.6569C109.453 97.6576 109.453 97.6582 109.453 97.6588C109.453 97.6595 109.453 97.6601 109.453 97.6607C109.453 97.6614 109.453 97.662 109.453 97.6626C109.453 97.6633 109.453 97.6639 109.453 97.6645C109.453 97.6652 109.453 97.6658 109.453 97.6664C109.453 97.6671 109.453 97.6677 109.453 97.6683C109.453 97.669 109.453 97.6696 109.453 97.6702C109.453 97.6709 109.453 97.6715 109.453 97.6721C109.453 97.6728 109.453 97.6734 109.453 97.674C109.453 97.6747 109.453 97.6753 109.453 97.6759C109.453 97.6766 109.453 97.6772 109.453 97.6779C109.453 97.6785 109.453 97.6791 109.453 97.6798C109.453 97.6804 109.453 97.681 109.453 97.6817C109.453 97.6823 109.453 97.683 109.453 97.6836C109.453 97.6842 109.453 97.6849 109.453 97.6855C109.453 97.6861 109.453 97.6868 109.453 97.6874C109.453 97.6881 109.453 97.6887 109.453 97.6893C109.453 97.69 109.453 97.6906 109.453 97.6913C109.453 97.6919 109.453 97.6926 109.453 97.6932C109.453 97.6938 109.453 97.6945 109.453 97.6951C109.453 97.6958 109.453 97.6964 109.453 97.697C109.453 97.6977 109.453 97.6983 109.453 97.699C109.453 97.6996 109.453 97.7003 109.453 97.7009C109.453 97.7015 109.453 97.7022 109.453 97.7028C109.453 97.7035 109.453 97.7041 109.453 97.7048C109.453 97.7054 109.453 97.706 109.453 97.7067C109.453 97.7073 109.453 97.708 109.453 97.7086C109.453 97.7093 109.453 97.7099 109.453 97.7106C109.453 97.7112 109.453 97.7119 109.453 97.7125C109.453 97.7132 109.453 97.7138 109.453 97.7144C109.453 97.7151 109.453 97.7157 109.453 97.7164C109.453 97.717 109.453 97.7177 109.453 97.7183C109.453 97.719 109.453 97.7196 109.453 97.7203C109.453 97.7209 109.453 97.7216 109.453 97.7222C109.453 97.7229 109.453 97.7235 109.453 97.7242C109.453 97.7248 109.453 97.7255 109.453 97.7261C109.453 97.7268 109.453 97.7274 109.453 97.7281C109.453 97.7287 109.453 97.7294 109.453 97.73C109.453 97.7307 109.453 97.7313 109.453 97.732C109.453 97.7326 109.453 97.7333 109.453 97.7339C109.453 97.7346 109.453 97.7352 109.453 97.7359C109.453 97.7365 109.453 97.7372 109.453 97.7378C109.453 97.7385 109.453 97.7392 109.453 97.7398C109.453 97.7405 109.453 97.7411 109.453 97.7418C109.453 97.7424 109.453 97.7431 109.453 97.7437C109.453 97.7444 109.453 97.745 109.453 97.7457C109.453 97.7464 109.453 97.747 109.453 97.7477C109.453 97.7483 109.453 97.749 109.453 97.7496C109.453 97.7503 109.453 97.7509 109.453 97.7516C109.453 97.7523 109.453 97.7529 109.453 97.7536C109.453 97.7542 109.453 97.7549 109.453 97.7555C109.453 97.7562 109.453 97.7569 109.453 97.7575C109.453 97.7582 109.453 97.7588 109.453 97.7595C109.453 97.7601 109.453 97.7608 109.453 97.7615C109.453 97.7621 109.453 97.7628 109.453 97.7634C109.453 97.7641 109.453 97.7648 109.453 97.7654C109.453 97.7661 109.453 97.7667 109.453 97.7674C109.453 97.7681 109.453 97.7687 109.453 97.7694C109.453 97.77 109.453 97.7707 109.453 97.7714C109.453 97.772 109.453 97.7727 109.453 97.7733C109.453 97.774 109.453 97.7747 109.453 97.7753C109.453 97.776 109.453 97.7766 109.453 97.7773C109.453 97.778 109.453 97.7786 109.453 97.7793C109.453 97.78 109.453 97.7806 109.453 97.7813C109.453 97.782 109.453 97.7826 109.453 97.7833C109.453 97.7839 109.453 97.7846 109.453 97.7853C109.453 97.7859 109.453 97.7866 109.453 97.7873C109.453 97.7879 109.453 97.7886 109.453 97.7893C109.453 97.7899 109.453 97.7906 109.453 97.7913C109.453 97.7919 109.453 97.7926 109.453 97.7933C109.453 97.7939 109.453 97.7946 109.453 97.7952C109.453 97.7959 109.453 97.7966 109.453 97.7972C109.453 97.7979 109.453 97.7986 109.453 97.7992C109.453 97.7999 109.453 97.8006 109.453 97.8012C109.453 97.8019 109.453 97.8026 109.453 97.8033C109.453 97.8039 109.453 97.8046 109.453 97.8053C109.453 97.8059 109.453 97.8066 109.453 97.8073C109.453 97.8079 109.453 97.8086 109.453 97.8093C109.453 97.8099 109.453 97.8106 109.453 97.8113C109.453 97.8119 109.453 97.8126 109.453 97.8133C109.453 97.814 109.453 97.8146 109.453 97.8153C109.453 97.816 109.453 97.8166 109.453 97.8173C109.453 97.818 109.453 97.8186 109.453 97.8193C109.453 97.82 109.453 97.8207 109.453 97.8213C109.453 97.822 109.453 97.8227 109.453 97.8233C109.453 97.824 109.453 97.8247 109.453 97.8254C109.453 97.826 109.453 97.8267 109.453 97.8274C109.453 97.8281 109.453 97.8287 109.453 97.8294C109.453 97.8301 109.453 97.8307 109.453 97.8314C109.453 97.8321 109.453 97.8328 109.453 97.8334C109.453 97.8341 109.453 97.8348 109.453 97.8355C109.453 97.8361 109.453 97.8368 109.453 97.8375C109.453 97.8382 109.453 97.8388 109.453 97.8395C109.453 97.8402 109.453 97.8409 109.453 97.8415C109.453 97.8422 109.453 97.8429 109.453 97.8436C109.453 97.8442 109.453 97.8449 109.453 97.8456C109.453 97.8463 109.453 97.8469 109.453 97.8476C109.453 97.8483 109.453 97.849 109.453 97.8496C109.453 97.8503 109.453 97.851 109.453 97.8517C109.453 97.8524 109.453 97.853 109.453 97.8537C109.453 97.8544 109.453 97.8551 109.453 97.8557C109.453 97.8564 109.453 97.8571 109.453 97.8578C109.453 97.8585 109.453 97.8591 109.453 97.8598C109.453 97.8605 109.453 97.8612 109.453 97.8618C109.453 97.8625 109.453 97.8632 109.453 97.8639C109.453 97.8646 109.453 97.8652 109.453 97.8659C109.453 97.8666 109.453 97.8673 109.453 97.868C109.453 97.8686 109.453 97.8693 109.453 97.87C109.453 97.8707 109.453 97.8714 109.453 97.872C109.453 97.8727 109.453 97.8734 109.453 97.8741C109.453 97.8748 109.453 97.8754 109.453 97.8761C109.453 97.8768 109.453 97.8775 109.453 97.8782C109.453 97.8788 109.453 97.8795 109.453 97.8802C109.453 97.8809 109.453 97.8816 109.453 97.8823C109.453 97.8829 109.453 97.8836 109.453 97.8843C109.453 97.885 109.453 97.8857 109.453 97.8864C109.453 97.887 109.453 97.8877 109.453 97.8884C109.453 97.8891 109.453 97.8898 109.453 97.8904C109.453 97.8911 109.453 97.8918 109.453 97.8925C109.453 97.8932 109.453 97.8939 109.453 97.8946C109.453 97.8952 109.453 97.8959 109.453 97.8966C109.453 97.8973 109.453 97.898 109.453 97.8987C109.453 97.8993 109.453 97.9 109.453 97.9007C109.453 97.9014 109.453 97.9021 109.453 97.9028C109.453 97.9035 109.453 97.9041 109.453 97.9048C109.453 97.9055 109.453 97.9062 109.453 97.9069C109.453 97.9076 109.453 97.9082 109.453 97.9089C109.453 97.9096 109.453 97.9103 109.453 97.911C109.453 97.9117 109.453 97.9124 109.453 97.9131C109.453 97.9137 109.453 97.9144 109.453 97.9151C109.453 97.9158 109.453 97.9165 109.453 97.9172C109.453 97.9179 109.453 97.9185 109.453 97.9192C109.453 97.9199 109.453 97.9206 109.453 97.9213C109.453 97.922 109.453 97.9227 109.453 97.9234C109.453 97.924 109.453 97.9247 109.453 97.9254C109.453 97.9261 109.453 97.9268 109.453 97.9275C109.453 97.9282 109.453 97.9289 109.453 97.9296C109.453 97.9302 109.453 97.9309 109.453 97.9316C109.453 97.9323 109.453 97.933 109.453 97.9337C109.453 97.9344 109.453 97.9351 109.453 97.9358C109.453 97.9364 109.453 97.9371 109.453 97.9378C109.453 97.9385 109.453 97.9392 109.453 97.9399C109.453 97.9406 109.453 97.9413 109.453 97.942C109.453 97.9427 109.453 97.9433 109.453 97.944C109.453 97.9447 109.453 97.9454 109.453 97.9461C109.453 97.9468 109.453 97.9475 109.453 97.9482C109.453 97.9489 109.453 97.9496 109.453 97.9503C109.453 97.9509 109.453 97.9516 109.453 97.9523C109.453 97.953 109.453 97.9537 109.453 97.9544C109.453 97.9551 109.453 97.9558 109.453 97.9565C109.453 97.9572 109.453 97.9579 109.453 97.9586C109.453 97.9592 109.453 97.9599 109.453 97.9606C109.453 97.9613 109.453 97.962 109.453 97.9627C109.453 97.9634 109.453 97.9641 109.453 97.9648C109.453 97.9655 109.453 97.9662 109.453 97.9669C109.453 97.9676 109.453 97.9683 109.453 97.9689C109.453 97.9696 109.453 97.9703 109.453 97.971C109.453 97.9717 109.453 97.9724 109.453 97.9731C109.453 97.9738 109.453 97.9745 109.453 97.9752C109.453 97.9759 109.453 97.9766 109.453 97.9773C109.453 97.978 109.453 97.9787 109.453 97.9794C109.453 97.98 109.453 97.9807 109.453 97.9814C109.453 97.9821 109.453 97.9828 109.453 97.9835C109.453 97.9842 109.453 97.9849 109.453 97.9856C109.453 97.9863 109.453 97.987 109.453 97.9877C109.453 97.9884 109.453 97.9891 109.453 97.9898C109.453 97.9905 109.453 97.9912 109.453 97.9919C109.453 97.9926 109.453 97.9932 109.453 97.9939C109.453 97.9946 109.453 97.9953 109.453 97.996C109.453 97.9967 109.453 97.9974 109.453 97.9981C109.453 97.9988 109.453 97.9995 109.453 98.0002C109.453 98.0009 109.453 98.0016 109.453 98.0023C109.453 98.003 109.453 98.0037 109.453 98.0044C109.453 98.0051 109.453 98.0058 109.453 98.0065C109.453 98.0072 109.453 98.0079 109.453 98.0086C109.453 98.0093 109.453 98.01 109.453 98.0107C109.453 98.0114 109.453 98.0121 109.453 98.0127C109.453 98.0135 109.453 98.0141 109.453 98.0148C109.453 98.0155 109.453 98.0162 109.453 98.0169C109.453 98.0176 109.453 98.0183 109.453 98.019C109.453 98.0197 109.453 98.0204 109.453 98.0211C109.453 98.0218 109.453 98.0225 109.453 98.0232C109.453 98.0239 109.453 98.0246 109.453 98.0253C109.453 98.026 109.453 98.0267 109.453 98.0274C109.453 98.0281 109.453 98.0288 109.453 98.0295C109.453 98.0302 109.453 98.0309 109.453 98.0316C109.453 98.0323 109.453 98.033 109.453 98.0337C109.453 98.0344 109.453 98.0351 109.453 98.0358C109.453 98.0365 109.453 98.0372 109.453 98.0379C109.453 98.0386 109.453 98.0393 109.453 98.04C109.453 98.0407 109.453 98.0414 109.453 98.0421C109.453 98.0428 109.453 98.0435 109.453 98.0442C109.453 98.0449 109.453 98.0456 109.453 98.0463C109.453 98.047 109.453 98.0477 109.453 98.0484C109.453 98.0491 109.453 98.0498 109.453 98.0505C109.453 98.0512 109.453 98.0519 109.453 98.0526C109.453 98.0533 109.453 98.054 109.453 98.0547C109.453 98.0554 109.453 98.0561 109.453 98.0568C109.453 98.0575 109.453 98.0582 109.453 98.0589C109.453 98.0596 109.453 98.0603 109.453 98.061C109.453 98.0617 109.453 98.0624 109.453 98.0631C109.453 98.0638 109.453 98.0645 109.453 98.0652C109.453 98.0659 109.453 98.0666 109.453 98.0673C109.453 98.068 109.453 98.0687 109.453 98.0694C109.453 98.0701 109.453 98.0708 109.453 98.0715C109.453 98.0722 109.453 98.0729 109.453 98.0736C109.453 98.0743 109.453 98.075 109.453 98.0757C109.453 98.0764 109.453 98.0771 109.453 98.0778C109.453 98.0785 109.453 98.0792 109.453 98.0799C109.453 98.0806 109.453 98.0813 109.453 98.082C109.453 98.0827 109.453 98.0834 109.453 98.0841C109.453 98.0848 109.453 98.0855 109.453 98.0862C109.453 98.0869 109.453 98.0876 109.453 98.0883C109.453 98.089 109.453 98.0897 109.453 98.0904C109.453 98.0911 109.453 98.0918 109.453 98.0925C109.453 98.0932 109.453 98.0939 109.453 98.0946C109.453 98.0953 109.453 98.096 109.453 98.0967C109.453 98.0975 109.453 98.0982 109.453 98.0989C109.453 98.0996 109.453 98.1003 109.453 98.101C109.453 98.1017 109.453 98.1024 109.453 98.1031C109.453 98.1038 109.453 98.1045 109.453 98.1052C109.453 98.1059 109.453 98.1066 109.453 98.1073C109.453 98.108 109.453 98.1087 109.453 98.1094C109.453 98.1101 109.453 98.1108 109.453 98.1115C109.453 98.1122 109.453 98.1129 109.453 98.1136C109.453 98.1143 109.453 98.115 109.453 98.1157C109.453 98.1164 109.453 98.1171 109.453 98.1178C109.453 98.1185 109.453 98.1192 109.453 98.1199C109.453 98.1206 109.453 98.1213 109.453 98.122C109.453 98.1227 109.453 98.1234 109.453 98.1241C109.453 98.1248 109.453 98.1255 109.453 98.1263C109.453 98.127 109.453 98.1277 109.453 98.1284C109.453 98.1291 109.453 98.1298 109.453 98.1305C109.453 98.1312 109.453 98.1319 109.453 98.1326C109.453 98.1333 109.453 98.134 109.453 98.1347C109.453 98.1354 109.453 98.1361 109.453 98.1368C109.453 98.1375 109.453 98.1382 109.453 98.1389C109.453 98.1396 109.453 98.1403 109.453 98.141C109.453 98.1417 109.453 98.1424 109.453 98.1431C109.453 98.1438 109.453 98.1445 109.453 98.1452C109.453 98.1459 109.453 98.1466 109.453 98.1473C109.453 98.148 109.453 98.1488 109.453 98.1495C109.453 98.1502 109.453 98.1509 109.453 98.1516C109.453 98.1523 109.453 98.153 109.453 98.1537C109.453 98.1544 109.453 98.1551 109.453 98.1558C109.453 98.1565 109.453 98.1572 109.453 98.1579C109.453 98.1586 109.453 98.1593 109.453 98.16C109.453 98.1607 109.453 98.1614 109.453 98.1621C109.453 98.1628 109.453 98.1635 109.453 98.1642C109.453 98.1649 109.453 98.1656 109.453 98.1663C109.453 98.167 109.453 98.1677 109.453 98.1684C109.453 98.1691 109.453 98.1698 109.453 98.1705C109.453 98.1712 109.453 98.172 109.453 98.1727C109.453 98.1734 109.453 98.1741 109.453 98.1748C109.453 98.1755 109.453 98.1762 109.453 98.1769C109.453 98.1776 109.453 98.1783 109.453 98.179C109.453 98.1797 109.453 98.1804 109.453 98.1811C109.453 98.1818 109.453 98.1825 109.453 98.1832C109.453 98.1839 109.453 98.1846 109.453 98.1853C109.453 98.186 109.453 98.1867 109.453 98.1874C109.453 98.1881 109.453 98.1888 109.453 98.1895C109.453 98.1902 109.453 98.1909 109.453 98.1916C109.453 98.1923 109.453 98.193 109.453 98.1937C109.453 98.1945 109.453 98.1952 109.453 98.1959C109.453 98.1966 109.453 98.1973 109.453 98.198C109.453 98.1987 109.453 98.1994 109.453 98.2001C109.453 98.2008 109.453 98.2015 109.453 98.2022C109.453 98.2029 109.453 98.2036 109.453 98.2043C109.453 98.205 109.453 98.2057 109.453 98.2064C109.453 98.2071 109.453 98.2078 109.453 98.2085C109.453 98.2092 109.453 98.2099 109.453 98.2106C109.453 98.2113 109.453 98.212 109.453 98.2127C109.453 98.2134 109.453 98.2141 109.453 98.2148C109.453 98.2155 109.453 98.2162 109.453 98.2169C109.453 98.2176 109.453 98.2183 109.453 98.219C109.453 98.2197 109.453 98.2204 109.453 98.2211C109.453 98.2218 109.453 98.2225 109.453 98.2233C109.453 98.224 109.453 98.2247 109.453 98.2254C109.453 98.2261 109.453 98.2268 109.453 98.2275C109.453 98.2282 109.453 98.2289 109.453 98.2296C109.453 98.2303 109.453 98.231 109.453 98.2317C109.453 98.2324 109.453 98.2331 109.453 98.2338C109.453 98.2345 109.453 98.2352 109.453 98.2359C109.453 98.2366 109.453 98.2373 109.453 98.238C109.453 98.2387 109.453 98.2394 109.453 98.2401C109.453 98.2408 109.453 98.2415 109.453 98.2422C109.453 98.2429 109.453 98.2436 109.453 98.2443C109.453 98.245 109.453 98.2457 109.453 98.2464C109.453 98.2471 109.453 98.2478 109.453 98.2485C109.453 98.2492 109.453 98.2499 109.453 98.2506C109.453 98.2513 109.453 98.252 109.453 98.2527C109.453 98.2534 109.453 98.2541 109.453 98.2548C109.453 98.2555 109.453 98.2562 109.453 98.2569C109.453 98.2576 109.453 98.2583 109.453 98.259C109.453 98.2597 109.453 98.2604 109.453 98.2611C109.453 98.2618 109.453 98.2625 109.453 98.2632C109.453 98.2639 109.453 98.2646 109.453 98.2653C109.453 98.266 109.453 98.2667 109.453 98.2674C109.453 98.2681 109.453 98.2688 109.453 98.2695C109.453 98.2702 109.453 98.2709 109.453 98.2716C109.453 98.2723 109.453 98.273 109.453 98.2737C109.453 98.2744 109.453 98.2751 109.453 98.2758C109.453 98.2765 109.453 98.2772 109.453 98.2779C109.453 98.2786 109.453 98.2793 109.453 98.28C109.453 98.2807 109.453 98.2814 109.453 98.2821C109.453 98.2828 109.453 98.2835 109.453 98.2842C109.453 98.2849 109.453 98.2856 109.453 98.2863C109.453 98.287 109.453 98.2877 109.453 98.2884C109.453 98.2891 109.453 98.2898 109.453 98.2905C109.453 98.2912 109.453 98.2919 109.453 98.2926C109.453 98.2933 109.453 98.294 109.453 98.2947C109.453 98.2954 109.453 98.2961 109.453 98.2968C109.453 98.2975 109.453 98.2982 109.453 98.2989C109.453 98.2996 109.453 98.3003 109.453 98.301C109.453 98.3017 109.453 98.3024 109.453 98.3031C109.453 98.3038 109.453 98.3045 109.453 98.3052C109.453 98.3059 109.453 98.3065 109.453 98.3072C109.453 98.3079 109.453 98.3086 109.453 98.3093C109.453 98.31 109.453 98.3107 109.453 98.3114C109.453 98.3121 109.453 98.3128 109.453 98.3135C109.453 98.3142 109.453 98.3149 109.453 98.3156C109.453 98.3163 109.453 98.317 109.453 98.3177C109.453 98.3184 109.453 98.3191 109.453 98.3198C109.453 98.3205 109.453 98.3212 109.453 98.3219C109.453 98.3226 109.453 98.3233 109.453 98.324C109.453 98.3247 109.453 98.3254 109.453 98.326C109.453 98.3268 109.453 98.3274 109.453 98.3281C109.453 98.3288 109.453 98.3295 109.453 98.3302C109.453 98.3309 109.453 98.3316 109.453 98.3323C109.453 98.333 109.453 98.3337 109.453 98.3344C109.453 98.3351 109.453 98.3358 109.453 98.3365C109.453 98.3372 109.453 98.3379 109.453 98.3386C109.453 98.3393 109.453 98.34 109.453 98.3406C109.453 98.3413 109.453 98.342 109.453 98.3427C109.453 98.3434 109.453 98.3441 109.453 98.3448C109.453 98.3455 109.453 98.3462 109.453 98.3469C109.453 98.3476 109.453 98.3483 109.453 98.349C109.453 98.3497 109.453 98.3504 109.453 98.3511C109.453 98.3517 109.453 98.3524 109.453 98.3531C109.453 98.3538 109.453 98.3545 109.453 98.3552C109.453 98.3559 109.453 98.3566 109.453 98.3573C109.453 98.358 109.453 98.3587 109.453 98.3594C109.453 98.3601 109.453 98.3608 109.453 98.3614C109.453 98.3621 109.453 98.3628 109.453 98.3635C109.453 98.3642 109.453 98.3649 109.453 98.3656C109.453 98.3663 109.453 98.367 109.453 98.3677C109.453 98.3684 109.453 98.3691 109.453 98.3697C109.453 98.3704 109.453 98.3711 109.453 98.3718C109.453 98.3725 109.453 98.3732 109.453 98.3739C109.453 98.3746 109.453 98.3753 109.453 98.376C109.453 98.3767 109.453 98.3773 109.453 98.378C109.453 98.3787 109.453 98.3794 109.453 98.3801C109.453 98.3808 109.453 98.3815 109.453 98.3822C109.453 98.3829 109.453 98.3836 109.453 98.3842C109.453 98.3849 109.453 98.3856 109.453 98.3863C109.453 98.387 109.453 98.3877 109.453 98.3884C109.453 98.3891 109.453 98.3898 109.453 98.3904C109.453 98.3911 109.453 98.3918 109.453 98.3925C109.453 98.3932 109.453 98.3939 109.453 98.3946C109.453 98.3953 109.453 98.396 109.453 98.3966C109.453 98.3973 109.453 98.398 109.453 98.3987C109.453 98.3994 109.453 98.4001 109.453 98.4008C109.453 98.4015 109.453 98.4021 109.453 98.4028C109.453 98.4035 109.453 98.4042 109.453 98.4049C109.453 98.4056 109.453 98.4063 109.453 98.4069C109.453 98.4076 109.453 98.4083 109.453 98.409C109.453 98.4097 109.453 98.4104 109.453 98.4111C109.453 98.4118 109.453 98.4124 109.453 98.4131C109.453 98.4138 109.453 98.4145 109.453 98.4152C109.453 98.4159 109.453 98.4165 109.453 98.4172C109.453 98.4179 109.453 98.4186 109.453 98.4193C109.453 98.42 109.453 98.4207 109.453 98.4213C109.453 98.422 109.453 98.4227 109.453 98.4234C109.453 98.4241 109.453 98.4248 109.453 98.4254C109.453 98.4261 109.453 98.4268 109.453 98.4275C109.453 98.4282 109.453 98.4289 109.453 98.4296C109.453 98.4302 109.453 98.4309 109.453 98.4316C109.453 98.4323 109.453 98.433 109.453 98.4336C109.453 98.4343 109.453 98.435 109.453 98.4357C109.453 98.4364 109.453 98.4371 109.453 98.4377C109.453 98.4384 109.453 98.4391 109.453 98.4398C109.453 98.4405 109.453 98.4412 109.453 98.4418C109.453 98.4425 109.453 98.4432 109.453 98.4439C109.453 98.4446 109.453 98.4452 109.453 98.4459C109.453 98.4466 109.453 98.4473 109.453 98.448C109.453 98.4486 109.453 98.4493 109.453 98.45C109.453 98.4507 109.453 98.4514 109.453 98.452C109.453 98.4527 109.453 98.4534 109.453 98.4541C109.453 98.4548 109.453 98.4554 109.453 98.4561C109.453 98.4568 109.453 98.4575 109.453 98.4582C109.453 98.4588 109.453 98.4595 109.453 98.4602C109.453 98.4609 109.453 98.4615 109.453 98.4622C109.453 98.4629 109.453 98.4636 109.453 98.4643C109.453 98.4649 109.453 98.4656 109.453 98.4663C109.453 98.467 109.453 98.4676 109.453 98.4683C109.453 98.469 109.453 98.4697 109.453 98.4704C109.453 98.471 109.453 98.4717 109.453 98.4724C109.453 98.4731 109.453 98.4737 109.453 98.4744C109.453 98.4751 109.453 98.4758 109.453 98.4764C109.453 98.4771 109.453 98.4778 109.453 98.4785C109.453 98.4791 109.453 98.4798 109.453 98.4805C109.453 98.4812 109.453 98.4818 109.453 98.4825C109.453 98.4832 109.453 98.4839 109.453 98.4845C109.453 98.4852 109.453 98.4859 109.453 98.4866C109.453 98.4872 109.453 98.4879 109.453 98.4886C109.453 98.4893 109.453 98.4899 109.453 98.4906C109.453 98.4913 109.453 98.4919 109.453 98.4926C109.453 98.4933 109.453 98.494 109.453 98.4946C109.453 98.4953 109.453 98.496 109.453 98.4967C109.453 98.4973 109.453 98.498 109.453 98.4987C109.453 98.4993 109.453 98.5 109.453 98.5007C109.453 98.5014 109.453 98.502 109.453 98.5027C109.453 98.5034 109.453 98.504 109.453 98.5047C109.453 98.5054 109.453 98.506 109.453 98.5067C109.453 98.5074 109.453 98.508 109.453 98.5087C109.453 98.5094 109.453 98.5101 109.453 98.5107C109.453 98.5114 109.453 98.5121 109.453 98.5127C109.453 98.5134 109.453 98.5141 109.453 98.5147C109.453 98.5154 109.453 98.5161 109.453 98.5167C109.453 98.5174 109.453 98.5181 109.453 98.5187C109.453 98.5194 109.453 98.5201 109.453 98.5208C109.453 98.5214 109.453 98.5221 109.453 98.5228C109.453 98.5234 109.453 98.5241 109.453 98.5247C109.453 98.5254 109.453 98.5261 109.453 98.5267C109.453 98.5274 109.453 98.5281 109.453 98.5287C109.453 98.5294 109.453 98.5301 109.453 98.5307C109.453 98.5314 109.453 98.5321 109.453 98.5327C109.453 98.5334 109.453 98.5341 109.453 98.5347C109.453 98.5354 109.453 98.5361 109.453 98.5367C109.453 98.5374 109.453 98.538 109.453 98.5387C109.453 98.5394 109.453 98.54 109.453 98.5407C109.453 98.5414 109.453 98.542 109.453 98.5427C109.453 98.5434 109.453 98.544 109.453 98.5447C109.453 98.5453 109.453 98.546 109.453 98.5467C109.453 98.5473 109.453 98.548 109.453 98.5486C109.453 98.5493 109.453 98.55 109.453 98.5506C109.453 98.5513 109.453 98.5519 109.453 98.5526C109.453 98.5533 109.453 98.5539 109.453 98.5546C109.453 98.5552 109.453 98.5559 109.453 98.5566C109.453 98.5572 109.453 98.5579 109.453 98.5585C109.453 98.5592 109.453 98.5599 109.453 98.5605C109.453 98.5612 109.453 98.5618 109.453 98.5625C109.453 98.5631 109.453 98.5638 109.453 98.5645C109.453 98.5651 109.453 98.5658 109.453 98.5664C109.453 98.5671 109.453 98.5677 109.453 98.5684C109.453 98.5691 109.453 98.5697 109.453 98.5704C109.453 98.571 109.453 98.5717 109.453 98.5723C109.453 98.573 109.453 98.5736 109.453 98.5743C109.453 98.575 109.453 98.5756 109.453 98.5763C109.453 98.5769 109.453 98.5776 109.453 98.5782C109.453 98.5789 109.453 98.5795 109.453 98.5802C109.453 98.5808 109.453 98.5815 109.453 98.5822C109.453 98.5828 109.453 98.5835 109.453 98.5841C109.453 98.5848 109.453 98.5854 109.453 98.5861C109.453 98.5867 109.453 98.5874 109.453 98.588C109.453 98.5887 109.453 98.5893 109.453 98.59C109.453 98.5906 109.453 98.5913 109.453 98.5919C109.453 98.5926 109.453 98.5932 109.453 98.5939C109.453 98.5945 109.453 98.5952 109.453 98.5958C109.453 98.5965 109.453 98.5971 109.453 98.5978C109.453 98.5984 109.453 98.5991 109.453 98.5997C109.453 98.6004 109.453 98.601 109.453 98.6017C109.453 98.6023 109.453 98.603 109.453 98.6036C109.453 98.6043 109.453 98.6049 109.453 98.6056C109.453 98.6062 109.453 98.6068 109.453 98.6075C109.453 98.6081 109.453 98.6088 109.453 98.6094C109.453 98.6101 109.453 98.6107 109.453 98.6114C109.453 98.612 109.453 98.6127 109.453 98.6133C109.453 98.614 109.453 98.6146 109.453 98.6152C109.453 98.6159 109.453 98.6165 109.453 98.6172C109.453 98.6178 109.453 98.6185 109.453 98.6191C109.453 98.6197 109.453 98.6204 109.453 98.621C109.453 98.6217 109.453 98.6223 109.453 98.623C109.453 98.6236 109.453 98.6242 109.453 98.6249C109.453 98.6255 109.453 98.6262 109.453 98.6268C109.453 98.6274 109.453 98.6281 109.453 98.6287C109.453 98.6294 109.453 98.63 109.453 98.6307C109.453 98.6313 109.453 98.6319 109.453 98.6326C109.453 98.6332 109.453 98.6339 109.453 98.6345C109.453 98.6351 109.453 98.6358 109.453 98.6364C109.453 98.637 109.453 98.6377 109.453 98.6383C109.453 98.639 109.453 98.6396 109.453 98.6402C109.453 98.6409 109.453 98.6415 109.453 98.6421C109.453 98.6428 109.453 98.6434 109.453 98.6441C109.453 98.6447 109.453 98.6453 109.453 98.646C109.453 98.6466 109.453 98.6472 109.453 98.6479C109.453 98.6485 109.453 98.6491 109.453 98.6498C109.453 98.6504 109.453 98.651 109.453 98.6517C109.453 98.6523 109.453 98.6529 109.453 98.6536C109.453 98.6542 109.453 98.6548 109.453 98.6555C109.453 98.6561 109.453 98.6567 109.453 98.6574C109.453 98.658 109.453 98.6586 109.453 98.6593C109.453 98.6599 109.453 98.6605 109.453 98.6612C109.453 98.6618 109.453 98.6624 109.453 98.663C109.453 98.6637 109.453 98.6643 109.453 98.6649C109.453 98.6656 109.453 98.6662 109.453 98.6668C109.453 98.6675 109.453 98.6681 109.453 98.6687C109.453 98.6693 109.453 98.67 109.453 98.6706C109.453 98.6712 109.453 98.6719 109.453 98.6725C109.453 98.6731 109.453 98.6737 109.453 98.6744C109.453 98.675 109.453 98.6756 109.453 98.6762C109.453 98.6769 109.453 98.6775 109.453 98.6781C109.453 98.6787 109.453 98.6794 109.453 98.68H111.453ZM111.452 97.5977C111.121 89.7917 108.077 83.27 102.98 78.705C97.8877 74.1453 90.8175 71.6 82.5325 71.6V73.6C90.4075 73.6 96.9773 76.0147 101.645 80.195C106.308 84.37 109.144 90.3683 109.453 97.6823L111.452 97.5977ZM95.6125 100.12C95.6125 104.357 94.123 107.871 91.6133 110.325C89.1019 112.781 85.5031 114.24 81.1725 114.24V116.24C85.9619 116.24 90.0831 114.619 93.0117 111.755C95.942 108.889 97.6125 104.843 97.6125 100.12H95.6125ZM81.1725 114.24C76.913 114.24 73.4373 112.856 71.0314 110.505C68.6276 108.156 67.2125 104.766 67.2125 100.6H65.2125C65.2125 105.234 66.7974 109.164 69.6336 111.935C72.4677 114.704 76.472 116.24 81.1725 116.24V114.24ZM67.2125 100.6C67.2125 92.3862 73.3702 86.4 81.9725 86.4V84.4C72.3348 84.4 65.2125 91.2137 65.2125 100.6H67.2125ZM81.9725 86.4C85.9552 86.4 89.2174 87.6668 91.5358 89.8569C93.8542 92.0471 95.3065 95.2339 95.5341 99.217L97.5309 99.103C97.2785 94.6861 95.6508 90.9929 92.9092 88.4031C90.1676 85.8132 86.3898 84.4 81.9725 84.4V86.4ZM95.5624 99.4025C95.6077 99.5841 95.6125 99.7814 95.6125 100.12H97.6125C97.6125 99.8186 97.6173 99.3759 97.5026 98.9175L95.5624 99.4025ZM153.548 73.64V72.64H152.661L152.555 73.5198L153.548 73.64ZM149.868 104.04L150.859 104.172L150.86 104.16L149.868 104.04ZM146.988 112.6L147.727 113.273L147.734 113.266L147.74 113.259L146.988 112.6ZM130.827 102.44L129.835 102.319L129.834 102.33L129.832 102.34L130.827 102.44ZM134.348 73.64L135.34 73.7613L135.477 72.64H134.348V73.64ZM120.908 73.64V72.64H120.022L119.915 73.5187L120.908 73.64ZM117.388 102.44L116.395 102.319L116.395 102.319L117.388 102.44ZM157.228 122.12L156.537 121.396L156.535 121.399L157.228 122.12ZM163.308 104.52L164.3 104.644L164.3 104.641L163.308 104.52ZM167.068 73.64L168.06 73.7609L168.197 72.64H167.068V73.64ZM152.555 73.5198L148.875 103.92L150.86 104.16L154.54 73.7602L152.555 73.5198ZM148.876 103.908C148.239 108.685 147.705 110.261 146.235 111.941L147.74 113.259C149.63 111.099 150.216 108.995 150.859 104.172L148.876 103.908ZM146.248 111.927C144.913 113.396 142.602 114.24 139.388 114.24V116.24C142.893 116.24 145.862 115.324 147.727 113.273L146.248 111.927ZM139.388 114.24C136.561 114.24 134.656 113.589 133.454 112.453C132.264 111.328 131.588 109.558 131.588 106.92H129.588C129.588 109.882 130.351 112.272 132.081 113.907C133.799 115.531 136.294 116.24 139.388 116.24V114.24ZM131.588 106.92C131.588 105.598 131.665 104.111 131.823 102.54L129.832 102.34C129.67 103.969 129.588 105.522 129.588 106.92H131.588ZM131.82 102.561L135.34 73.7613L133.355 73.5187L129.835 102.319L131.82 102.561ZM134.348 72.64H120.908V74.64H134.348V72.64ZM119.915 73.5187L116.395 102.319L118.38 102.561L121.9 73.7613L119.915 73.5187ZM116.395 102.319C115.996 105.592 115.748 108.13 115.748 109.8H117.748C117.748 108.27 117.979 105.848 118.38 102.561L116.395 102.319ZM115.748 109.8C115.748 115.786 117.957 120.644 122.045 123.984C126.107 127.304 131.916 129.04 138.988 129.04V127.04C132.219 127.04 126.908 125.376 123.31 122.436C119.738 119.516 117.748 115.254 117.748 109.8H115.748ZM138.988 129.04C146.979 129.04 153.669 126.923 157.92 122.841L156.535 121.399C152.786 124.997 146.676 127.04 138.988 127.04V129.04ZM157.918 122.844C161.637 119.297 163.02 114.886 164.3 104.644L162.315 104.396C161.035 114.634 159.698 118.383 156.537 121.396L157.918 122.844ZM164.3 104.641L168.06 73.7609L166.075 73.5191L162.315 104.399L164.3 104.641ZM167.068 72.64H153.548V74.64H167.068V72.64ZM208.571 102.04L207.845 101.352L207.836 101.362L208.571 102.04ZM208.811 78.28L209.539 77.5946L209.536 77.5912L208.811 78.28ZM176.651 73.64V72.64H175.767L175.659 73.518L176.651 73.64ZM170.091 127L169.099 126.878L168.961 128H170.091V127ZM183.611 127V128H184.498L184.604 127.12L183.611 127ZM186.171 105.8L187.039 105.302L185.54 102.689L185.178 105.68L186.171 105.8ZM198.331 127L197.464 127.498L197.752 128H198.331V127ZM214.011 127V128H215.781L214.868 126.484L214.011 127ZM201.531 106.28L201.203 105.336L200.039 105.74L200.675 106.796L201.531 106.28ZM187.131 98.04L186.139 97.9181L186.001 99.04H187.131V98.04ZM188.811 84.36V83.36H187.927L187.819 84.2381L188.811 84.36ZM209.297 102.728C212.382 99.4715 213.891 95.2105 213.891 90.2H211.891C211.891 94.7895 210.52 98.5285 207.845 101.352L209.297 102.728ZM213.891 90.2C213.891 85.2167 212.317 80.5463 209.539 77.5946L208.083 78.9654C210.425 81.4537 211.891 85.5833 211.891 90.2H213.891ZM209.536 77.5912C206.219 74.0997 201.404 72.64 194.011 72.64V74.64C201.179 74.64 205.323 76.0603 208.086 78.9688L209.536 77.5912ZM194.011 72.64H176.651V74.64H194.011V72.64ZM175.659 73.518L169.099 126.878L171.084 127.122L177.644 73.762L175.659 73.518ZM170.091 128H183.611V126H170.091V128ZM184.604 127.12L187.164 105.92L185.178 105.68L182.618 126.88L184.604 127.12ZM185.304 106.298L197.464 127.498L199.199 126.502L187.039 105.302L185.304 106.298ZM198.331 128H214.011V126H198.331V128ZM214.868 126.484L202.388 105.764L200.675 106.796L213.155 127.516L214.868 126.484ZM201.86 107.224C203.72 106.577 205.078 106.01 206.228 105.316C207.393 104.613 208.304 103.803 209.306 102.718L207.836 101.362C206.918 102.357 206.15 103.027 205.194 103.604C204.224 104.19 203.022 104.703 201.203 105.336L201.86 107.224ZM191.371 85.36C194.179 85.36 195.764 85.7697 196.666 86.5119C197.508 87.2056 197.971 88.3839 197.971 90.6H199.971C199.971 88.1761 199.475 86.2344 197.937 84.9681C196.458 83.7503 194.243 83.36 191.371 83.36V85.36ZM197.971 90.6C197.971 92.9169 197.301 94.4419 196.06 95.4267C194.769 96.4508 192.68 97.04 189.531 97.04V99.04C192.862 99.04 195.493 98.4292 197.303 96.9933C199.162 95.5181 199.971 93.3231 199.971 90.6H197.971ZM189.531 97.04H187.131V99.04H189.531V97.04ZM188.124 98.1619L189.804 84.4819L187.819 84.2381L186.139 97.9181L188.124 98.1619ZM188.811 85.36H191.371V83.36H188.811V85.36Z" fill="#1D1D1D"/>
<path d="M38.68 181.88C38.68 174.76 35.64 170.84 27 166.84C21.64 164.44 20.28 163.16 20.28 160.52C20.28 157.72 22.44 155.96 26.12 155.96C29 155.96 31.88 157.16 35.48 159.88L41.32 149.72C36.36 146.68 34.2 145.8 29.16 145.08L30.12 137H22.12L21.16 145.32C11.88 147.32 6.52 153.32 6.52 161.56C6.52 164.52 7.24 167.24 8.52 169.24C10.28 171.96 12.36 173.56 18.76 176.84C23.72 179.4 24.92 180.52 24.92 182.92C24.92 186.04 22.04 188.12 17.72 188.12C14.28 188.12 11.4 187 6.68 183.88L0.68 193.96C6.28 197.48 9.72 198.92 14.44 199.56L13.4 207.96H21.4L22.44 199.4C32.6 197.64 38.68 191 38.68 181.88ZM113.529 145.64L103.449 171.24L101.849 175.24C100.969 177.32 100.409 179.08 99.2088 183.16C98.7288 176.44 98.3288 171.88 97.6888 168.6L93.7688 145.64H80.9688L70.8888 170.68L68.8088 175.8C68.3288 177.08 67.8488 178.44 66.5688 183.16C66.0888 175 65.7688 172.12 64.6488 165.64L61.2888 145.64H47.6888L57.2088 199H71.6888L80.8088 176.6C82.8088 171.72 83.4488 169.88 85.2088 163.88C85.2888 169.72 85.6088 173.16 86.4088 177.72L90.0088 199H105.209L128.169 145.64H113.529ZM159.198 190.04L161.438 199H175.598L162.718 145.64H147.518L121.038 199H136.078L140.158 190.04H159.198ZM150.478 167.56C151.278 165.72 151.998 164.04 152.878 161.24C152.958 162.12 153.118 162.76 153.198 163.16C153.438 164.76 153.518 165.24 154.398 169.32L156.638 179.48H145.118L150.478 167.56ZM186.182 145.64L179.622 199H193.142L199.702 145.64H186.182ZM209.27 145.64L202.71 199H216.23L218.79 178.12H234.15L235.59 166.44H220.23L221.35 157.4H238.23L239.67 145.64H209.27ZM278.201 145.64L274.521 176.04C273.881 180.84 273.321 182.68 271.641 184.6C270.041 186.36 267.401 187.24 264.041 187.24C258.121 187.24 255.241 184.52 255.241 178.92C255.241 177.56 255.321 176.04 255.481 174.44L259.001 145.64H245.561L242.041 174.44C241.641 177.72 241.401 180.2 241.401 181.8C241.401 193.24 249.801 200.04 263.641 200.04C271.481 200.04 277.881 197.96 281.881 194.12C285.321 190.84 286.681 186.76 287.961 176.52L291.721 145.64H278.201Z" fill="#67D4F8"/>
<path d="M38.68 181.88C38.68 174.76 35.64 170.84 27 166.84C21.64 164.44 20.28 163.16 20.28 160.52C20.28 157.72 22.44 155.96 26.12 155.96C29 155.96 31.88 157.16 35.48 159.88L41.32 149.72C36.36 146.68 34.2 145.8 29.16 145.08L30.12 137H22.12L21.16 145.32C11.88 147.32 6.52 153.32 6.52 161.56C6.52 164.52 7.24 167.24 8.52 169.24C10.28 171.96 12.36 173.56 18.76 176.84C23.72 179.4 24.92 180.52 24.92 182.92C24.92 186.04 22.04 188.12 17.72 188.12C14.28 188.12 11.4 187 6.68 183.88L0.68 193.96C6.28 197.48 9.72 198.92 14.44 199.56L13.4 207.96H21.4L22.44 199.4C32.6 197.64 38.68 191 38.68 181.88ZM113.529 145.64L103.449 171.24L101.849 175.24C100.969 177.32 100.409 179.08 99.2088 183.16C98.7288 176.44 98.3288 171.88 97.6888 168.6L93.7688 145.64H80.9688L70.8888 170.68L68.8088 175.8C68.3288 177.08 67.8488 178.44 66.5688 183.16C66.0888 175 65.7688 172.12 64.6488 165.64L61.2888 145.64H47.6888L57.2088 199H71.6888L80.8088 176.6C82.8088 171.72 83.4488 169.88 85.2088 163.88C85.2888 169.72 85.6088 173.16 86.4088 177.72L90.0088 199H105.209L128.169 145.64H113.529ZM159.198 190.04L161.438 199H175.598L162.718 145.64H147.518L121.038 199H136.078L140.158 190.04H159.198ZM150.478 167.56C151.278 165.72 151.998 164.04 152.878 161.24C152.958 162.12 153.118 162.76 153.198 163.16C153.438 164.76 153.518 165.24 154.398 169.32L156.638 179.48H145.118L150.478 167.56ZM186.182 145.64L179.622 199H193.142L199.702 145.64H186.182ZM209.27 145.64L202.71 199H216.23L218.79 178.12H234.15L235.59 166.44H220.23L221.35 157.4H238.23L239.67 145.64H209.27ZM278.201 145.64L274.521 176.04C273.881 180.84 273.321 182.68 271.641 184.6C270.041 186.36 267.401 187.24 264.041 187.24C258.121 187.24 255.241 184.52 255.241 178.92C255.241 177.56 255.321 176.04 255.481 174.44L259.001 145.64H245.561L242.041 174.44C241.641 177.72 241.401 180.2 241.401 181.8C241.401 193.24 249.801 200.04 263.641 200.04C271.481 200.04 277.881 197.96 281.881 194.12C285.321 190.84 286.681 186.76 287.961 176.52L291.721 145.64H278.201Z" fill="url(#paint0_linear_237_0)"/>
<defs>
<linearGradient id="paint0_linear_237_0" x1="-98.6591" y1="208" x2="332.867" y2="208" gradientUnits="userSpaceOnUse">
<stop stop-color="#8E77F7"/>
<stop offset="1" stop-color="#8E77F7" stop-opacity="0.05"/>
</linearGradient>
</defs>
</svg>
