<svg width="290" height="57" viewBox="0 0 290 57" fill="none" xmlns="http://www.w3.org/2000/svg">
<path d="M36.68 13.4L38.12 1.64H1.88L0.44 13.4H11.8L6.68 55H20.12L25.32 13.4H36.68ZM66.9075 0.599999C49.2275 0.599999 36.7475 12.36 36.7475 29.08C36.7475 45.16 48.5075 56.04 65.8675 56.04C83.1475 56.04 94.8275 44.2 94.8275 26.68C94.8275 26.36 94.8275 25.96 94.8275 25.64C94.1875 10.52 83.0675 0.599999 66.9075 0.599999ZM80.9875 28.12C80.9875 37.08 74.6675 43.24 65.5475 43.24C56.5875 43.24 50.5875 37.4 50.5875 28.6C50.5875 19.8 57.2275 13.4 66.3475 13.4C74.7475 13.4 80.4275 18.76 80.9075 27.16C80.9875 27.48 80.9875 27.8 80.9875 28.12ZM105.283 1.64L98.7225 55H112.243L115.203 30.92C116.243 33 117.763 35.8 119.203 37.96L130.643 55H146.883L128.643 28.84L149.043 1.64H133.523L115.923 25L118.803 1.64H105.283ZM157.432 1.64L150.872 55H180.712L182.152 43.24H165.832L166.952 33.96H182.152L183.592 22.28H168.392L169.512 13.4H185.192L186.632 1.64H157.432ZM233.624 1.64L230.344 28.68C229.944 31.8 229.784 34.44 229.704 37.8L228.664 35.8L226.584 31.72L224.264 27.4L209.064 1.64H194.504L187.944 55H201.464L204.504 30.36C204.904 27.08 205.064 24.28 205.064 20.28V17.88C207.304 23.24 209.304 27.32 211.624 31.08L225.784 55H240.584L247.144 1.64H233.624ZM273.613 0.599999C262.333 0.599999 254.013 7.72 254.013 17.4C254.013 24.6 256.812 28.04 266.333 32.84C271.373 35.32 272.573 36.6 272.573 38.92C272.573 42.2 269.693 44.36 265.453 44.36C261.773 44.36 258.973 43.24 254.173 39.96L248.093 50.2C255.213 54.6 259.693 56.04 266.093 56.04C278.013 56.04 286.493 48.52 286.493 37.8C286.493 30.76 283.453 27 274.653 22.84C269.213 20.28 267.853 19 267.853 16.44C267.853 13.56 270.173 11.8 273.853 11.8C276.733 11.8 279.613 13 283.213 15.72L289.133 5.48C283.933 2.12 279.053 0.599999 273.613 0.599999Z" fill="#67D4F8"/>
<path d="M36.68 13.4L38.12 1.64H1.88L0.44 13.4H11.8L6.68 55H20.12L25.32 13.4H36.68ZM66.9075 0.599999C49.2275 0.599999 36.7475 12.36 36.7475 29.08C36.7475 45.16 48.5075 56.04 65.8675 56.04C83.1475 56.04 94.8275 44.2 94.8275 26.68C94.8275 26.36 94.8275 25.96 94.8275 25.64C94.1875 10.52 83.0675 0.599999 66.9075 0.599999ZM80.9875 28.12C80.9875 37.08 74.6675 43.24 65.5475 43.24C56.5875 43.24 50.5875 37.4 50.5875 28.6C50.5875 19.8 57.2275 13.4 66.3475 13.4C74.7475 13.4 80.4275 18.76 80.9075 27.16C80.9875 27.48 80.9875 27.8 80.9875 28.12ZM105.283 1.64L98.7225 55H112.243L115.203 30.92C116.243 33 117.763 35.8 119.203 37.96L130.643 55H146.883L128.643 28.84L149.043 1.64H133.523L115.923 25L118.803 1.64H105.283ZM157.432 1.64L150.872 55H180.712L182.152 43.24H165.832L166.952 33.96H182.152L183.592 22.28H168.392L169.512 13.4H185.192L186.632 1.64H157.432ZM233.624 1.64L230.344 28.68C229.944 31.8 229.784 34.44 229.704 37.8L228.664 35.8L226.584 31.72L224.264 27.4L209.064 1.64H194.504L187.944 55H201.464L204.504 30.36C204.904 27.08 205.064 24.28 205.064 20.28V17.88C207.304 23.24 209.304 27.32 211.624 31.08L225.784 55H240.584L247.144 1.64H233.624ZM273.613 0.599999C262.333 0.599999 254.013 7.72 254.013 17.4C254.013 24.6 256.812 28.04 266.333 32.84C271.373 35.32 272.573 36.6 272.573 38.92C272.573 42.2 269.693 44.36 265.453 44.36C261.773 44.36 258.973 43.24 254.173 39.96L248.093 50.2C255.213 54.6 259.693 56.04 266.093 56.04C278.013 56.04 286.493 48.52 286.493 37.8C286.493 30.76 283.453 27 274.653 22.84C269.213 20.28 267.853 19 267.853 16.44C267.853 13.56 270.173 11.8 273.853 11.8C276.733 11.8 279.613 13 283.213 15.72L289.133 5.48C283.933 2.12 279.053 0.599999 273.613 0.599999Z" fill="url(#paint0_linear_1438_15233)"/>
<defs>
<linearGradient id="paint0_linear_1438_15233" x1="-97.6896" y1="64" x2="329.463" y2="64" gradientUnits="userSpaceOnUse">
<stop stop-color="#8E77F7"/>
<stop offset="1" stop-color="#8E77F7" stop-opacity="0.05"/>
</linearGradient>
</defs>
</svg>
