<svg width="108" height="34" viewBox="0 0 108 34" fill="none" xmlns="http://www.w3.org/2000/svg">
<path d="M0 2.08022V0.489557C0 0.234284 0.20694 0.0273438 0.462213 0.0273438H5.34954C5.60481 0.0273438 5.81175 0.234284 5.81175 0.489557V18.5011C5.81175 18.7563 6.01869 18.9633 6.27397 18.9633H25.1729C25.4281 18.9633 25.6351 19.1702 25.6351 19.4255V33.5376C25.6351 33.7929 25.4281 33.9998 25.1729 33.9998H20.5603C20.305 33.9998 20.0981 33.7929 20.0981 33.5376V31.9154C20.0981 31.6602 20.3046 31.4532 20.5599 31.4532H23.0779C23.0698 31.4532 23.074 25.4214 23.0774 22.0022C23.0777 21.7468 22.8707 21.5416 22.6152 21.5416H6.27397C6.01869 21.5416 5.81175 21.7485 5.81175 22.0038V33.5376C5.81175 33.7929 5.60481 33.9998 5.34954 33.9998H0.472793C0.217519 33.9998 0.0105794 33.7929 0.0105794 33.5376V31.8943C0.0105794 31.639 0.21752 31.4321 0.472793 31.4321H2.75011C3.00538 31.4321 3.21232 31.2251 3.21232 30.9699V3.00465C3.21232 2.74937 3.00538 2.54243 2.75011 2.54243H0.462213C0.20694 2.54243 0 2.33549 0 2.08022Z" fill="#67D4F8"/>
<path d="M0 2.08022V0.489557C0 0.234284 0.20694 0.0273438 0.462213 0.0273438H5.34954C5.60481 0.0273438 5.81175 0.234284 5.81175 0.489557V18.5011C5.81175 18.7563 6.01869 18.9633 6.27397 18.9633H25.1729C25.4281 18.9633 25.6351 19.1702 25.6351 19.4255V33.5376C25.6351 33.7929 25.4281 33.9998 25.1729 33.9998H20.5603C20.305 33.9998 20.0981 33.7929 20.0981 33.5376V31.9154C20.0981 31.6602 20.3046 31.4532 20.5599 31.4532H23.0779C23.0698 31.4532 23.074 25.4214 23.0774 22.0022C23.0777 21.7468 22.8707 21.5416 22.6152 21.5416H6.27397C6.01869 21.5416 5.81175 21.7485 5.81175 22.0038V33.5376C5.81175 33.7929 5.60481 33.9998 5.34954 33.9998H0.472793C0.217519 33.9998 0.0105794 33.7929 0.0105794 33.5376V31.8943C0.0105794 31.639 0.21752 31.4321 0.472793 31.4321H2.75011C3.00538 31.4321 3.21232 31.2251 3.21232 30.9699V3.00465C3.21232 2.74937 3.00538 2.54243 2.75011 2.54243H0.462213C0.20694 2.54243 0 2.33549 0 2.08022Z" fill="url(#paint0_linear_7028_43024)"/>
<path d="M11.0963 33.4999V26.378C11.0963 26.1227 11.3032 25.9158 11.5585 25.9158H13.4057C13.6609 25.9158 13.8679 26.1227 13.8679 26.378V30.997C13.8679 31.2523 14.0748 31.4592 14.3301 31.4592H16.3843C16.6395 31.4592 16.8465 31.6656 16.8465 31.9209V33.5001C16.8465 33.7554 16.6395 33.9621 16.3843 33.9621H11.5585C11.3032 33.9621 11.0963 33.7552 11.0963 33.4999Z" fill="#67D4F8"/>
<path d="M11.0963 33.4999V26.378C11.0963 26.1227 11.3032 25.9158 11.5585 25.9158H13.4057C13.6609 25.9158 13.8679 26.1227 13.8679 26.378V30.997C13.8679 31.2523 14.0748 31.4592 14.3301 31.4592H16.3843C16.6395 31.4592 16.8465 31.6656 16.8465 31.9209V33.5001C16.8465 33.7554 16.6395 33.9621 16.3843 33.9621H11.5585C11.3032 33.9621 11.0963 33.7552 11.0963 33.4999Z" fill="url(#paint1_linear_7028_43024)"/>
<path d="M16.6842 2.07875V0.464166C16.6842 0.208893 16.4773 0.00195312 16.222 0.00195312H11.4271C11.1718 0.00195312 10.9648 0.208894 10.9648 0.464167V14.5548C10.9648 14.8101 11.1718 15.017 11.4271 15.017H30.3914C30.6466 15.017 30.8536 15.224 30.8536 15.4792V33.5254C30.8536 33.7806 31.0605 33.9876 31.3158 33.9876H36.2117C36.467 33.9876 36.6739 33.7806 36.6739 33.5254V31.8949C36.6739 31.6396 36.467 31.4327 36.2117 31.4327H33.8988C33.6435 31.4327 33.4366 31.2257 33.4366 30.9705V3.00318C33.4366 2.74791 33.6435 2.54097 33.8988 2.54097H36.1382C36.3934 2.54097 36.6004 2.33403 36.6004 2.07875V0.464166C36.6004 0.208893 36.3934 0.00195312 36.1382 0.00195312H31.2482C30.993 0.00195312 30.786 0.208893 30.786 0.464166V11.7939C30.786 12.0492 30.5791 12.2561 30.3238 12.2561H14.1485C13.8932 12.2561 13.6863 12.0492 13.6863 11.7939V3.00318C13.6863 2.74791 13.8932 2.54097 14.1485 2.54097H16.222C16.4773 2.54097 16.6842 2.33403 16.6842 2.07875Z" fill="#67D4F8"/>
<path d="M16.6842 2.07875V0.464166C16.6842 0.208893 16.4773 0.00195312 16.222 0.00195312H11.4271C11.1718 0.00195312 10.9648 0.208894 10.9648 0.464167V14.5548C10.9648 14.8101 11.1718 15.017 11.4271 15.017H30.3914C30.6466 15.017 30.8536 15.224 30.8536 15.4792V33.5254C30.8536 33.7806 31.0605 33.9876 31.3158 33.9876H36.2117C36.467 33.9876 36.6739 33.7806 36.6739 33.5254V31.8949C36.6739 31.6396 36.467 31.4327 36.2117 31.4327H33.8988C33.6435 31.4327 33.4366 31.2257 33.4366 30.9705V3.00318C33.4366 2.74791 33.6435 2.54097 33.8988 2.54097H36.1382C36.3934 2.54097 36.6004 2.33403 36.6004 2.07875V0.464166C36.6004 0.208893 36.3934 0.00195312 36.1382 0.00195312H31.2482C30.993 0.00195312 30.786 0.208893 30.786 0.464166V11.7939C30.786 12.0492 30.5791 12.2561 30.3238 12.2561H14.1485C13.8932 12.2561 13.6863 12.0492 13.6863 11.7939V3.00318C13.6863 2.74791 13.8932 2.54097 14.1485 2.54097H16.222C16.4773 2.54097 16.6842 2.33403 16.6842 2.07875Z" fill="url(#paint2_linear_7028_43024)"/>
<path d="M19.9545 2.08056V0.482222C19.9545 0.226948 20.1615 0.0200083 20.4167 0.0200083H25.0087C25.2639 0.0200083 25.4709 0.226948 25.4709 0.482221V7.60716C25.4709 7.86244 25.2639 8.06938 25.0087 8.06938H23.3799C23.1246 8.06938 22.9177 7.86244 22.9177 7.60716V3.00499C22.9177 2.74971 22.7108 2.54277 22.4555 2.54277H20.4167C20.1615 2.54277 19.9545 2.33583 19.9545 2.08056Z" fill="#67D4F8"/>
<path d="M19.9545 2.08056V0.482222C19.9545 0.226948 20.1615 0.0200083 20.4167 0.0200083H25.0087C25.2639 0.0200083 25.4709 0.226948 25.4709 0.482221V7.60716C25.4709 7.86244 25.2639 8.06938 25.0087 8.06938H23.3799C23.1246 8.06938 22.9177 7.86244 22.9177 7.60716V3.00499C22.9177 2.74971 22.7108 2.54277 22.4555 2.54277H20.4167C20.1615 2.54277 19.9545 2.33583 19.9545 2.08056Z" fill="url(#paint3_linear_7028_43024)"/>
<path d="M51.6738 15.3766H52.9658V8.91656H60.6243V15.3766H61.9078V1.35156H60.6243V7.77756H52.9658V1.35156H51.6738V15.3766Z" fill="black"/>
<path d="M66.2954 4.93006C66.5221 4.93006 66.7148 4.85073 66.8734 4.69206C67.0321 4.5334 67.1114 4.34073 67.1114 4.11406C67.1114 3.8874 67.0321 3.69756 66.8734 3.54456C66.7148 3.3859 66.5221 3.30656 66.2954 3.30656C66.0688 3.30656 65.8761 3.3859 65.7174 3.54456C65.5644 3.69756 65.4879 3.8874 65.4879 4.11406C65.4879 4.34073 65.5644 4.5334 65.7174 4.69206C65.8761 4.85073 66.0688 4.93006 66.2954 4.93006ZM65.6749 15.3766H66.9159V6.67256H65.6749V15.3766Z" fill="black"/>
<path d="M70.2409 15.3766H71.4819V9.70706C71.4819 9.29906 71.581 8.92223 71.7794 8.57656C71.9834 8.22523 72.2752 7.94473 72.6549 7.73506C73.0345 7.51973 73.4907 7.41206 74.0234 7.41206C74.7827 7.41206 75.372 7.65006 75.7914 8.12606C76.2164 8.60206 76.4289 9.28773 76.4289 10.1831V15.3766H77.6699V9.94506C77.6699 8.82306 77.3781 7.95323 76.7944 7.33556C76.2164 6.71223 75.4231 6.40056 74.4144 6.40056C73.6947 6.40056 73.0827 6.54223 72.5784 6.82556C72.0797 7.1089 71.7142 7.45456 71.4819 7.86256V6.67256H70.2409V15.3766Z" fill="black"/>
<path d="M84.5392 15.6486C85.3099 15.6486 86.0097 15.4616 86.6387 15.0876C87.2677 14.7136 87.7692 14.1979 88.1432 13.5406V15.3766H89.3842V6.67256H88.1432V8.48306C87.8145 7.8314 87.3272 7.3214 86.6812 6.95306C86.0409 6.58473 85.3269 6.40056 84.5392 6.40056C83.7119 6.40056 82.9695 6.60173 82.3122 7.00406C81.6605 7.40073 81.1449 7.94756 80.7652 8.64456C80.3912 9.34156 80.2042 10.1321 80.2042 11.0161C80.2042 11.9114 80.394 12.7076 80.7737 13.4046C81.159 14.1016 81.6775 14.6512 82.3292 15.0536C82.9809 15.4502 83.7175 15.6486 84.5392 15.6486ZM84.8452 14.5691C84.1992 14.5691 83.6212 14.4161 83.1112 14.1101C82.6069 13.8041 82.2102 13.3847 81.9212 12.8521C81.6322 12.3194 81.4877 11.7102 81.4877 11.0246C81.4877 10.3332 81.6322 9.72123 81.9212 9.18856C82.2102 8.6559 82.6069 8.2394 83.1112 7.93906C83.6155 7.63306 84.1935 7.48006 84.8452 7.48006C85.4969 7.48006 86.0749 7.63306 86.5792 7.93906C87.0835 8.2394 87.4774 8.6559 87.7607 9.18856C88.0497 9.72123 88.1942 10.3332 88.1942 11.0246C88.1942 11.7102 88.0497 12.3222 87.7607 12.8606C87.4717 13.3932 87.075 13.8126 86.5707 14.1186C86.072 14.4189 85.4969 14.5691 84.8452 14.5691Z" fill="black"/>
<path d="M94.7547 15.6486C95.3101 15.6486 95.7974 15.5182 96.2168 15.2576L95.9022 14.2716C95.6529 14.4586 95.3582 14.5521 95.0183 14.5521C94.2986 14.5521 93.9388 14.0562 93.9388 13.0646V7.60756H96.1063V6.67256H93.9388V3.41706H92.6978V6.67256H91.8138V7.60756H92.6978V13.1326C92.6978 13.9316 92.8763 14.5521 93.2332 14.9941C93.5959 15.4304 94.1031 15.6486 94.7547 15.6486Z" fill="black"/>
<path d="M102.27 15.6486C103.041 15.6486 103.741 15.4616 104.37 15.0876C104.999 14.7136 105.5 14.1979 105.874 13.5406V15.3766H107.115V6.67256H105.874V8.48306C105.546 7.8314 105.058 7.3214 104.412 6.95306C103.772 6.58473 103.058 6.40056 102.27 6.40056C101.443 6.40056 100.701 6.60173 100.043 7.00406C99.3917 7.40073 98.876 7.94756 98.4963 8.64456C98.1223 9.34156 97.9353 10.1321 97.9353 11.0161C97.9353 11.9114 98.1252 12.7076 98.5048 13.4046C98.8902 14.1016 99.4087 14.6512 100.06 15.0536C100.712 15.4502 101.449 15.6486 102.27 15.6486ZM102.576 14.5691C101.93 14.5691 101.352 14.4161 100.842 14.1101C100.338 13.8041 99.9413 13.3847 99.6523 12.8521C99.3633 12.3194 99.2188 11.7102 99.2188 11.0246C99.2188 10.3332 99.3633 9.72123 99.6523 9.18856C99.9413 8.6559 100.338 8.2394 100.842 7.93906C101.347 7.63306 101.925 7.48006 102.576 7.48006C103.228 7.48006 103.806 7.63306 104.31 7.93906C104.815 8.2394 105.209 8.6559 105.492 9.18856C105.781 9.72123 105.925 10.3332 105.925 11.0246C105.925 11.7102 105.781 12.3222 105.492 12.8606C105.203 13.3932 104.806 13.8126 104.302 14.1186C103.803 14.4189 103.228 14.5691 102.576 14.5691Z" fill="black"/>
<path d="M90.5354 30.2106C90.9902 30.2106 91.4032 30.0954 91.7743 29.8648C92.1455 29.6342 92.4415 29.3162 92.6622 28.9109V30.0429H93.3945V24.6764H92.6622V25.7926C92.4682 25.3909 92.1806 25.0764 91.7994 24.8493C91.4216 24.6222 91.0002 24.5087 90.5354 24.5087C90.0471 24.5087 89.6091 24.6327 89.2212 24.8807C88.8366 25.1253 88.5323 25.4625 88.3082 25.8922C88.0875 26.322 87.9772 26.8094 87.9772 27.3544C87.9772 27.9064 88.0892 28.3973 88.3133 28.8271C88.5407 29.2568 88.8466 29.5957 89.2312 29.8438C89.6158 30.0884 90.0505 30.2106 90.5354 30.2106ZM90.716 29.5451C90.3347 29.5451 89.9936 29.4507 89.6927 29.2621C89.3951 29.0734 89.161 28.8148 88.9904 28.4864C88.8199 28.158 88.7346 27.7824 88.7346 27.3597C88.7346 26.9334 88.8199 26.5561 88.9904 26.2276C89.161 25.8992 89.3951 25.6424 89.6927 25.4572C89.9903 25.2686 90.3314 25.1742 90.716 25.1742C91.1005 25.1742 91.4416 25.2686 91.7392 25.4572C92.0368 25.6424 92.2693 25.8992 92.4365 26.2276C92.607 26.5561 92.6923 26.9334 92.6923 27.3597C92.6923 27.7824 92.607 28.1597 92.4365 28.4917C92.2659 28.8201 92.0318 29.0786 91.7342 29.2673C91.4399 29.4525 91.1005 29.5451 90.716 29.5451Z" fill="black" fill-opacity="0.5"/>
<path d="M71.1424 30.014L70.2161 27.5194H67.2007L66.2796 30.014H65.3945L68.3379 22.1216H69.1252L72.048 30.014H71.1424ZM69.9537 26.7076L69.0738 24.2291C69.0532 24.1646 69.0189 24.0588 68.9709 23.9119C68.9263 23.7649 68.8799 23.6126 68.8319 23.4549C68.7839 23.2972 68.7444 23.1699 68.7136 23.0732C68.6793 23.2201 68.6415 23.3671 68.6004 23.514C68.5626 23.6574 68.5249 23.7918 68.4871 23.9173C68.4494 24.0391 68.4168 24.1431 68.3894 24.2291L67.494 26.7076H69.9537Z" fill="black" fill-opacity="0.5"/>
<path d="M73.8233 30.014H72.964V21.6484H73.8233V30.014Z" fill="black" fill-opacity="0.5"/>
<path d="M78.2796 24.014C78.9828 24.014 79.5437 24.2667 79.9623 24.7721C80.3808 25.2775 80.59 26.0373 80.59 27.0517C80.59 27.7219 80.494 28.2846 80.3019 28.7398C80.1098 29.195 79.8388 29.5391 79.4888 29.7721C79.1424 30.0051 78.7324 30.1216 78.259 30.1216C77.9605 30.1216 77.6981 30.0803 77.4717 29.9979C77.2453 29.9155 77.0515 29.8044 76.8902 29.6646C76.729 29.5248 76.5952 29.3725 76.4888 29.2076H76.4271C76.4374 29.3474 76.4494 29.5158 76.4631 29.713C76.4803 29.9101 76.4888 30.0821 76.4888 30.2291V32.6484H75.6295V24.1216H76.3345L76.4477 24.9925H76.4888C76.5986 24.8133 76.7324 24.6502 76.8902 24.5033C77.048 24.3527 77.2401 24.2345 77.4665 24.1484C77.6964 24.0588 77.9674 24.014 78.2796 24.014ZM78.1304 24.7667C77.7393 24.7667 77.4237 24.8456 77.1835 25.0033C76.9468 25.161 76.7736 25.3975 76.6638 25.713C76.554 26.0248 76.4957 26.4173 76.4888 26.8904V27.0624C76.4888 27.5606 76.5403 27.9818 76.6432 28.3259C76.7496 28.6699 76.9228 28.9316 77.1629 29.1108C77.4065 29.29 77.7324 29.3796 78.1406 29.3796C78.4906 29.3796 78.7822 29.2811 79.0154 29.0839C79.2487 28.8868 79.4219 28.6126 79.5352 28.2613C79.6518 27.9065 79.7101 27.4997 79.7101 27.0409C79.7101 26.3456 79.5798 25.7936 79.319 25.385C79.0617 24.9728 78.6655 24.7667 78.1304 24.7667Z" fill="black" fill-opacity="0.5"/>
<path d="M82.9365 21.6484V24.1484C82.9365 24.2918 82.9331 24.437 82.9262 24.5839C82.9194 24.7273 82.9074 24.8599 82.8902 24.9818H82.9468C83.0634 24.7739 83.211 24.6001 83.3893 24.4603C83.5712 24.3169 83.777 24.2094 84.0068 24.1377C84.2367 24.0624 84.4803 24.0248 84.7375 24.0248C85.1904 24.0248 85.5677 24.1001 85.8696 24.2506C86.1749 24.4011 86.4031 24.6341 86.554 24.9495C86.7084 25.2649 86.7856 25.6735 86.7856 26.1753V30.014H85.9417V26.2345C85.9417 25.7434 85.8336 25.376 85.6175 25.1323C85.4048 24.8886 85.0772 24.7667 84.6346 24.7667C84.2161 24.7667 83.8816 24.8509 83.6312 25.0194C83.3842 25.1843 83.2058 25.428 83.096 25.7506C82.9897 26.0732 82.9365 26.4674 82.9365 26.9334V30.014H82.0823V21.6484H82.9365Z" fill="black" fill-opacity="0.5"/>
<defs>
<linearGradient id="paint0_linear_7028_43024" x1="-8.28456" y1="33.9998" x2="29.0877" y2="33.9998" gradientUnits="userSpaceOnUse">
<stop stop-color="#8E77F7"/>
<stop offset="1" stop-color="#8E77F7" stop-opacity="0.05"/>
</linearGradient>
<linearGradient id="paint1_linear_7028_43024" x1="-8.28456" y1="33.9998" x2="29.0877" y2="33.9998" gradientUnits="userSpaceOnUse">
<stop stop-color="#8E77F7"/>
<stop offset="1" stop-color="#8E77F7" stop-opacity="0.05"/>
</linearGradient>
<linearGradient id="paint2_linear_7028_43024" x1="2.65637" y1="33.9876" x2="40.1366" y2="33.9876" gradientUnits="userSpaceOnUse">
<stop stop-color="#8E77F7"/>
<stop offset="1" stop-color="#8E77F7" stop-opacity="0.05"/>
</linearGradient>
<linearGradient id="paint3_linear_7028_43024" x1="2.65637" y1="33.9876" x2="40.1366" y2="33.9876" gradientUnits="userSpaceOnUse">
<stop stop-color="#8E77F7"/>
<stop offset="1" stop-color="#8E77F7" stop-opacity="0.05"/>
</linearGradient>
</defs>
</svg>
