<svg width="146" height="32" viewBox="0 0 146 32" fill="none" xmlns="http://www.w3.org/2000/svg">
<path d="M0.674316 2.75126V1.33225C0.674316 1.10453 0.859782 0.919922 1.08857 0.919922H5.46874C5.69752 0.919922 5.88299 1.10453 5.88299 1.33225V17.4C5.88299 17.6277 6.06845 17.8123 6.29724 17.8123H23.235C23.4638 17.8123 23.6493 17.9969 23.6493 18.2246V30.8138C23.6493 31.0415 23.4638 31.2262 23.235 31.2262H19.1011C18.8723 31.2262 18.6868 31.0415 18.6868 30.8138V29.3667C18.6868 29.139 18.8719 28.9544 19.1007 28.9544H21.3574C21.3502 28.9544 21.3539 23.5735 21.357 20.5233C21.3573 20.2954 21.1717 20.1124 20.9428 20.1124H6.29724C6.06846 20.1124 5.88299 20.297 5.88299 20.5247V30.8138C5.88299 31.0415 5.69752 31.2262 5.46874 31.2262H1.09805C0.869264 31.2262 0.683798 31.0415 0.683798 30.8138V29.3479C0.683798 29.1201 0.869264 28.9355 1.09805 28.9355H3.13905C3.36783 28.9355 3.5533 28.7509 3.5533 28.5232V3.57592C3.5533 3.3482 3.36783 3.16359 3.13905 3.16359H1.08857C0.859782 3.16359 0.674316 2.97898 0.674316 2.75126Z" fill="#67D4F8"/>
<path d="M0.674316 2.75126V1.33225C0.674316 1.10453 0.859782 0.919922 1.08857 0.919922H5.46874C5.69752 0.919922 5.88299 1.10453 5.88299 1.33225V17.4C5.88299 17.6277 6.06845 17.8123 6.29724 17.8123H23.235C23.4638 17.8123 23.6493 17.9969 23.6493 18.2246V30.8138C23.6493 31.0415 23.4638 31.2262 23.235 31.2262H19.1011C18.8723 31.2262 18.6868 31.0415 18.6868 30.8138V29.3667C18.6868 29.139 18.8719 28.9544 19.1007 28.9544H21.3574C21.3502 28.9544 21.3539 23.5735 21.357 20.5233C21.3573 20.2954 21.1717 20.1124 20.9428 20.1124H6.29724C6.06846 20.1124 5.88299 20.297 5.88299 20.5247V30.8138C5.88299 31.0415 5.69752 31.2262 5.46874 31.2262H1.09805C0.869264 31.2262 0.683798 31.0415 0.683798 30.8138V29.3479C0.683798 29.1201 0.869264 28.9355 1.09805 28.9355H3.13905C3.36783 28.9355 3.5533 28.7509 3.5533 28.5232V3.57592C3.5533 3.3482 3.36783 3.16359 3.13905 3.16359H1.08857C0.859782 3.16359 0.674316 2.97898 0.674316 2.75126Z" fill="url(#paint0_linear_8742_26721)"/>
<path d="M10.6191 30.7802V24.4269C10.6191 24.1992 10.8046 24.0145 11.0334 24.0145H12.6889C12.9177 24.0145 13.1031 24.1992 13.1031 24.4269V28.5474C13.1031 28.7751 13.2886 28.9597 13.5174 28.9597H15.3584C15.5872 28.9597 15.7726 29.1438 15.7726 29.3716V30.7803C15.7726 31.0081 15.5872 31.1925 15.3584 31.1925H11.0334C10.8046 31.1925 10.6191 31.0079 10.6191 30.7802Z" fill="#67D4F8"/>
<path d="M10.6191 30.7802V24.4269C10.6191 24.1992 10.8046 24.0145 11.0334 24.0145H12.6889C12.9177 24.0145 13.1031 24.1992 13.1031 24.4269V28.5474C13.1031 28.7751 13.2886 28.9597 13.5174 28.9597H15.3584C15.5872 28.9597 15.7726 29.1438 15.7726 29.3716V30.7803C15.7726 31.0081 15.5872 31.1925 15.3584 31.1925H11.0334C10.8046 31.1925 10.6191 31.0079 10.6191 30.7802Z" fill="url(#paint1_linear_8742_26721)"/>
<path d="M15.6266 2.74916V1.30882C15.6266 1.08109 15.4412 0.896484 15.2124 0.896484H10.915C10.6862 0.896484 10.5007 1.08109 10.5007 1.30882V13.8788C10.5007 14.1066 10.6862 14.2912 10.915 14.2912H27.9114C28.1402 14.2912 28.3256 14.4758 28.3256 14.7035V30.8021C28.3256 31.0298 28.5111 31.2145 28.7399 31.2145H33.1278C33.3565 31.2145 33.542 31.0298 33.542 30.8021V29.3476C33.542 29.1199 33.3565 28.9353 33.1278 28.9353H31.0548C30.826 28.9353 30.6406 28.7507 30.6406 28.5229V3.57382C30.6406 3.3461 30.826 3.16149 31.0548 3.16149H33.0618C33.2906 3.16149 33.4761 2.97688 33.4761 2.74916V1.30882C33.4761 1.08109 33.2906 0.896484 33.0618 0.896484H28.6793C28.4506 0.896484 28.2651 1.08109 28.2651 1.30882V11.4159C28.2651 11.6436 28.0796 11.8282 27.8508 11.8282H13.354C13.1252 11.8282 12.9398 11.6436 12.9398 11.4159V3.57382C12.9398 3.3461 13.1252 3.16149 13.354 3.16149H15.2124C15.4412 3.16149 15.6266 2.97688 15.6266 2.74916Z" fill="#67D4F8"/>
<path d="M15.6266 2.74916V1.30882C15.6266 1.08109 15.4412 0.896484 15.2124 0.896484H10.915C10.6862 0.896484 10.5007 1.08109 10.5007 1.30882V13.8788C10.5007 14.1066 10.6862 14.2912 10.915 14.2912H27.9114C28.1402 14.2912 28.3256 14.4758 28.3256 14.7035V30.8021C28.3256 31.0298 28.5111 31.2145 28.7399 31.2145H33.1278C33.3565 31.2145 33.542 31.0298 33.542 30.8021V29.3476C33.542 29.1199 33.3565 28.9353 33.1278 28.9353H31.0548C30.826 28.9353 30.6406 28.7507 30.6406 28.5229V3.57382C30.6406 3.3461 30.826 3.16149 31.0548 3.16149H33.0618C33.2906 3.16149 33.4761 2.97688 33.4761 2.74916V1.30882C33.4761 1.08109 33.2906 0.896484 33.0618 0.896484H28.6793C28.4506 0.896484 28.2651 1.08109 28.2651 1.30882V11.4159C28.2651 11.6436 28.0796 11.8282 27.8508 11.8282H13.354C13.1252 11.8282 12.9398 11.6436 12.9398 11.4159V3.57382C12.9398 3.3461 13.1252 3.16149 13.354 3.16149H15.2124C15.4412 3.16149 15.6266 2.97688 15.6266 2.74916Z" fill="url(#paint2_linear_8742_26721)"/>
<path d="M18.5576 2.75077V1.32492C18.5576 1.0972 18.743 0.912591 18.9718 0.912591H23.0872C23.316 0.912591 23.5015 1.0972 23.5015 1.32492V7.68096C23.5015 7.90868 23.316 8.09329 23.0872 8.09329H21.6275C21.3987 8.09329 21.2132 7.90868 21.2132 7.68096V3.57543C21.2132 3.34771 21.0278 3.1631 20.799 3.1631H18.9718C18.743 3.1631 18.5576 2.9785 18.5576 2.75077Z" fill="#67D4F8"/>
<path d="M18.5576 2.75077V1.32492C18.5576 1.0972 18.743 0.912591 18.9718 0.912591H23.0872C23.316 0.912591 23.5015 1.0972 23.5015 1.32492V7.68096C23.5015 7.90868 23.316 8.09329 23.0872 8.09329H21.6275C21.3987 8.09329 21.2132 7.90868 21.2132 7.68096V3.57543C21.2132 3.34771 21.0278 3.1631 20.799 3.1631H18.9718C18.743 3.1631 18.5576 2.9785 18.5576 2.75077Z" fill="url(#paint3_linear_8742_26721)"/>
<path d="M42.8696 28.7473H45.2621V16.8402H59.4438V28.7473H61.8206V2.89648H59.4438V14.7408H45.2621V2.89648H42.8696V28.7473Z" fill="white"/>
<path d="M69.9454 9.49235C70.3651 9.49235 70.7219 9.34612 71.0157 9.05367C71.3095 8.76121 71.4564 8.40609 71.4564 7.9883C71.4564 7.57051 71.3095 7.22061 71.0157 6.93861C70.7219 6.64615 70.3651 6.49993 69.9454 6.49993C69.5256 6.49993 69.1689 6.64615 68.8751 6.93861C68.5917 7.22061 68.4501 7.57051 68.4501 7.9883C68.4501 8.40609 68.5917 8.76121 68.8751 9.05367C69.1689 9.34612 69.5256 9.49235 69.9454 9.49235ZM68.7964 28.7473H71.0944V12.7041H68.7964V28.7473Z" fill="white"/>
<path d="M77.2514 28.7473H79.5495V18.2973C79.5495 17.5453 79.7331 16.8507 80.1004 16.2135C80.4781 15.566 81.0186 15.049 81.7216 14.6625C82.4247 14.2656 83.2694 14.0672 84.2557 14.0672C85.6619 14.0672 86.7532 14.5058 87.5297 15.3832C88.3167 16.2606 88.7102 17.5244 88.7102 19.1746V28.7473H91.0082V18.736C91.0082 16.6679 90.4678 15.0646 89.387 13.9261C88.3167 12.7772 86.8476 12.2028 84.9798 12.2028C83.6471 12.2028 82.5139 12.4639 81.5799 12.9861C80.6565 13.5084 79.9797 14.1455 79.5495 14.8975V12.7041H77.2514V28.7473Z" fill="white"/>
<path d="M103.729 29.2486C105.156 29.2486 106.452 28.9039 107.616 28.2146C108.781 27.5252 109.71 26.5747 110.402 25.3632V28.7473H112.7V12.7041H110.402V16.0412C109.794 14.8401 108.891 13.9 107.695 13.2211C106.509 12.5422 105.187 12.2028 103.729 12.2028C102.197 12.2028 100.822 12.5736 99.6047 13.3151C98.398 14.0463 97.4431 15.0542 96.74 16.3389C96.0475 17.6236 95.7012 19.0806 95.7012 20.71C95.7012 22.3603 96.0527 23.8278 96.7558 25.1125C97.4693 26.3972 98.4295 27.4103 99.6362 28.1519C100.843 28.883 102.207 29.2486 103.729 29.2486ZM104.295 27.2589C103.099 27.2589 102.029 26.9769 101.084 26.4129C100.15 25.8488 99.4158 25.0759 98.8807 24.0941C98.3455 23.1123 98.0779 21.9895 98.0779 20.7257C98.0779 19.4514 98.3455 18.3234 98.8807 17.3416C99.4158 16.3598 100.15 15.5921 101.084 15.0385C102.018 14.4745 103.088 14.1925 104.295 14.1925C105.502 14.1925 106.572 14.4745 107.506 15.0385C108.44 15.5921 109.169 16.3598 109.694 17.3416C110.229 18.3234 110.497 19.4514 110.497 20.7257C110.497 21.9895 110.229 23.1175 109.694 24.1098C109.159 25.0916 108.424 25.8645 107.49 26.4285C106.567 26.9821 105.502 27.2589 104.295 27.2589Z" fill="white"/>
<path d="M122.645 29.2486C123.674 29.2486 124.576 29.0084 125.353 28.5279L124.77 26.7105C124.309 27.0552 123.763 27.2275 123.133 27.2275C121.801 27.2275 121.134 26.3136 121.134 24.4858V14.4275H125.148V12.7041H121.134V6.7036H118.836V12.7041H117.199V14.4275H118.836V24.6111C118.836 26.0838 119.167 27.2275 119.828 28.0422C120.499 28.8465 121.439 29.2486 122.645 29.2486Z" fill="white"/>
<path d="M136.562 29.2486C137.99 29.2486 139.285 28.9039 140.45 28.2146C141.615 27.5252 142.544 26.5747 143.236 25.3632V28.7473H145.534V12.7041H143.236V16.0412C142.628 14.8401 141.725 13.9 140.529 13.2211C139.343 12.5422 138.021 12.2028 136.562 12.2028C135.03 12.2028 133.656 12.5736 132.439 13.3151C131.232 14.0463 130.277 15.0542 129.574 16.3389C128.881 17.6236 128.535 19.0806 128.535 20.71C128.535 22.3603 128.887 23.8278 129.59 25.1125C130.303 26.3972 131.263 27.4103 132.47 28.1519C133.677 28.883 135.041 29.2486 136.562 29.2486ZM137.129 27.2589C135.933 27.2589 134.863 26.9769 133.918 26.4129C132.984 25.8488 132.25 25.0759 131.715 24.0941C131.179 23.1123 130.912 21.9895 130.912 20.7257C130.912 19.4514 131.179 18.3234 131.715 17.3416C132.25 16.3598 132.984 15.5921 133.918 15.0385C134.852 14.4745 135.922 14.1925 137.129 14.1925C138.336 14.1925 139.406 14.4745 140.34 15.0385C141.274 15.5921 142.003 16.3598 142.528 17.3416C143.063 18.3234 143.331 19.4514 143.331 20.7257C143.331 21.9895 143.063 23.1175 142.528 24.1098C141.993 25.0916 141.258 25.8645 140.324 26.4285C139.401 26.9821 138.336 27.2589 137.129 27.2589Z" fill="white"/>
<defs>
<linearGradient id="paint0_linear_8742_26721" x1="-6.75056" y1="31.2262" x2="26.7437" y2="31.2262" gradientUnits="userSpaceOnUse">
<stop stop-color="#8E77F7"/>
<stop offset="1" stop-color="#8E77F7" stop-opacity="0.05"/>
</linearGradient>
<linearGradient id="paint1_linear_8742_26721" x1="-6.75056" y1="31.2262" x2="26.7437" y2="31.2262" gradientUnits="userSpaceOnUse">
<stop stop-color="#8E77F7"/>
<stop offset="1" stop-color="#8E77F7" stop-opacity="0.05"/>
</linearGradient>
<linearGradient id="paint2_linear_8742_26721" x1="3.05442" y1="31.2145" x2="36.6453" y2="31.2145" gradientUnits="userSpaceOnUse">
<stop stop-color="#8E77F7"/>
<stop offset="1" stop-color="#8E77F7" stop-opacity="0.05"/>
</linearGradient>
<linearGradient id="paint3_linear_8742_26721" x1="3.05442" y1="31.2145" x2="36.6453" y2="31.2145" gradientUnits="userSpaceOnUse">
<stop stop-color="#8E77F7"/>
<stop offset="1" stop-color="#8E77F7" stop-opacity="0.05"/>
</linearGradient>
</defs>
</svg>
