<svg width="145" height="32" viewBox="0 0 145 32" fill="none" xmlns="http://www.w3.org/2000/svg">
<path d="M0 2.75126V1.33225C0 1.10453 0.184607 0.919922 0.412332 0.919922H4.77223C4.99995 0.919922 5.18456 1.10453 5.18456 1.33225V17.4C5.18456 17.6277 5.36917 17.8123 5.59689 17.8123H22.4562C22.684 17.8123 22.8686 17.9969 22.8686 18.2246V30.8138C22.8686 31.0415 22.684 31.2262 22.4562 31.2262H18.3414C18.1137 31.2262 17.9291 31.0415 17.9291 30.8138V29.3667C17.9291 29.139 18.1134 28.9544 18.3411 28.9544H20.5874C20.5802 28.9544 20.5839 23.5735 20.587 20.5233C20.5872 20.2954 20.4025 20.1124 20.1746 20.1124H5.59689C5.36917 20.1124 5.18456 20.297 5.18456 20.5247V30.8138C5.18456 31.0415 4.99995 31.2262 4.77223 31.2262H0.42177C0.194045 31.2262 0.00943768 31.0415 0.00943768 30.8138V29.3479C0.00943768 29.1201 0.194045 28.9355 0.42177 28.9355H2.45332C2.68104 28.9355 2.86565 28.7509 2.86565 28.5232V3.57592C2.86565 3.3482 2.68104 3.16359 2.45332 3.16359H0.412332C0.184607 3.16359 0 2.97898 0 2.75126Z" fill="#67D4F8"/>
<path d="M0 2.75126V1.33225C0 1.10453 0.184607 0.919922 0.412332 0.919922H4.77223C4.99995 0.919922 5.18456 1.10453 5.18456 1.33225V17.4C5.18456 17.6277 5.36917 17.8123 5.59689 17.8123H22.4562C22.684 17.8123 22.8686 17.9969 22.8686 18.2246V30.8138C22.8686 31.0415 22.684 31.2262 22.4562 31.2262H18.3414C18.1137 31.2262 17.9291 31.0415 17.9291 30.8138V29.3667C17.9291 29.139 18.1134 28.9544 18.3411 28.9544H20.5874C20.5802 28.9544 20.5839 23.5735 20.587 20.5233C20.5872 20.2954 20.4025 20.1124 20.1746 20.1124H5.59689C5.36917 20.1124 5.18456 20.297 5.18456 20.5247V30.8138C5.18456 31.0415 4.99995 31.2262 4.77223 31.2262H0.42177C0.194045 31.2262 0.00943768 31.0415 0.00943768 30.8138V29.3479C0.00943768 29.1201 0.194045 28.9355 0.42177 28.9355H2.45332C2.68104 28.9355 2.86565 28.7509 2.86565 28.5232V3.57592C2.86565 3.3482 2.68104 3.16359 2.45332 3.16359H0.412332C0.184607 3.16359 0 2.97898 0 2.75126Z" fill="url(#paint0_linear_3906_3791)"/>
<path d="M9.89879 30.7802V24.4269C9.89879 24.1992 10.0834 24.0145 10.3111 24.0145H11.9589C12.1867 24.0145 12.3713 24.1992 12.3713 24.4269V28.5474C12.3713 28.7751 12.5559 28.9597 12.7836 28.9597H14.6161C14.8438 28.9597 15.0284 29.1438 15.0284 29.3716V30.7803C15.0284 31.0081 14.8438 31.1925 14.6161 31.1925H10.3111C10.0834 31.1925 9.89879 31.0079 9.89879 30.7802Z" fill="#67D4F8"/>
<path d="M9.89879 30.7802V24.4269C9.89879 24.1992 10.0834 24.0145 10.3111 24.0145H11.9589C12.1867 24.0145 12.3713 24.1992 12.3713 24.4269V28.5474C12.3713 28.7751 12.5559 28.9597 12.7836 28.9597H14.6161C14.8438 28.9597 15.0284 29.1438 15.0284 29.3716V30.7803C15.0284 31.0081 14.8438 31.1925 14.6161 31.1925H10.3111C10.0834 31.1925 9.89879 31.0079 9.89879 30.7802Z" fill="url(#paint1_linear_3906_3791)"/>
<path d="M14.8834 2.74965V1.3093C14.8834 1.08158 14.6988 0.896973 14.4711 0.896973H10.1936C9.96586 0.896973 9.78125 1.08158 9.78125 1.30931V13.8793C9.78125 14.107 9.96586 14.2916 10.1936 14.2916H27.1113C27.339 14.2916 27.5236 14.4763 27.5236 14.704V30.8026C27.5236 31.0303 27.7082 31.2149 27.936 31.2149H32.3035C32.5312 31.2149 32.7158 31.0303 32.7158 30.8026V29.3481C32.7158 29.1204 32.5312 28.9357 32.3035 28.9357H30.2402C30.0125 28.9357 29.8279 28.7511 29.8279 28.5234V3.57431C29.8279 3.34659 30.0125 3.16198 30.2402 3.16198H32.2379C32.4656 3.16198 32.6502 2.97737 32.6502 2.74965V1.3093C32.6502 1.08158 32.4656 0.896973 32.2379 0.896973H27.8757C27.648 0.896973 27.4634 1.08158 27.4634 1.3093V11.4163C27.4634 11.6441 27.2788 11.8287 27.051 11.8287H12.6213C12.3936 11.8287 12.209 11.6441 12.209 11.4163V3.57431C12.209 3.34659 12.3936 3.16198 12.6213 3.16198H14.4711C14.6988 3.16198 14.8834 2.97737 14.8834 2.74965Z" fill="#67D4F8"/>
<path d="M14.8834 2.74965V1.3093C14.8834 1.08158 14.6988 0.896973 14.4711 0.896973H10.1936C9.96586 0.896973 9.78125 1.08158 9.78125 1.30931V13.8793C9.78125 14.107 9.96586 14.2916 10.1936 14.2916H27.1113C27.339 14.2916 27.5236 14.4763 27.5236 14.704V30.8026C27.5236 31.0303 27.7082 31.2149 27.936 31.2149H32.3035C32.5312 31.2149 32.7158 31.0303 32.7158 30.8026V29.3481C32.7158 29.1204 32.5312 28.9357 32.3035 28.9357H30.2402C30.0125 28.9357 29.8279 28.7511 29.8279 28.5234V3.57431C29.8279 3.34659 30.0125 3.16198 30.2402 3.16198H32.2379C32.4656 3.16198 32.6502 2.97737 32.6502 2.74965V1.3093C32.6502 1.08158 32.4656 0.896973 32.2379 0.896973H27.8757C27.648 0.896973 27.4634 1.08158 27.4634 1.3093V11.4163C27.4634 11.6441 27.2788 11.8287 27.051 11.8287H12.6213C12.3936 11.8287 12.209 11.6441 12.209 11.4163V3.57431C12.209 3.34659 12.3936 3.16198 12.6213 3.16198H14.4711C14.6988 3.16198 14.8834 2.97737 14.8834 2.74965Z" fill="url(#paint2_linear_3906_3791)"/>
<path d="M17.8008 2.75126V1.32541C17.8008 1.09769 17.9854 0.913079 18.2131 0.913079H22.3095C22.5372 0.913079 22.7218 1.09769 22.7218 1.32541V7.68144C22.7218 7.90917 22.5372 8.09378 22.3095 8.09378H20.8565C20.6288 8.09378 20.4442 7.90917 20.4442 7.68144V3.57592C20.4442 3.3482 20.2596 3.16359 20.0318 3.16359H18.2131C17.9854 3.16359 17.8008 2.97898 17.8008 2.75126Z" fill="#67D4F8"/>
<path d="M17.8008 2.75126V1.32541C17.8008 1.09769 17.9854 0.913079 18.2131 0.913079H22.3095C22.5372 0.913079 22.7218 1.09769 22.7218 1.32541V7.68144C22.7218 7.90917 22.5372 8.09378 22.3095 8.09378H20.8565C20.6288 8.09378 20.4442 7.90917 20.4442 7.68144V3.57592C20.4442 3.3482 20.2596 3.16359 20.0318 3.16359H18.2131C17.9854 3.16359 17.8008 2.97898 17.8008 2.75126Z" fill="url(#paint3_linear_3906_3791)"/>
<path d="M42 28.7477H44.3814V16.8407H58.4975V28.7477H60.8632V2.89697H58.4975V14.7413H44.3814V2.89697H42V28.7477Z" fill="white"/>
<path d="M68.9504 9.49284C69.3682 9.49284 69.7233 9.34661 70.0158 9.05416C70.3082 8.7617 70.4544 8.40658 70.4544 7.98879C70.4544 7.571 70.3082 7.2211 70.0158 6.93909C69.7233 6.64664 69.3682 6.50041 68.9504 6.50041C68.5326 6.50041 68.1775 6.64664 67.885 6.93909C67.603 7.2211 67.462 7.571 67.462 7.98879C67.462 8.40658 67.603 8.7617 67.885 9.05416C68.1775 9.34661 68.5326 9.49284 68.9504 9.49284ZM67.8067 28.7477H70.0941V12.7046H67.8067V28.7477Z" fill="white"/>
<path d="M76.2226 28.7477H78.51V18.2978C78.51 17.5457 78.6928 16.8512 79.0584 16.214C79.4344 15.5665 79.9723 15.0494 80.6721 14.663C81.3719 14.2661 82.2127 14.0676 83.1945 14.0676C84.5941 14.0676 85.6804 14.5063 86.4533 15.3837C87.2366 16.261 87.6283 17.5249 87.6283 19.1751V28.7477H89.9157V18.7364C89.9157 16.6684 89.3778 15.0651 88.302 13.9266C87.2366 12.7777 85.7744 12.2033 83.9152 12.2033C82.5887 12.2033 81.4607 12.4644 80.5311 12.9866C79.612 13.5088 78.9383 14.146 78.51 14.898V12.7046H76.2226V28.7477Z" fill="white"/>
<path d="M102.577 29.2491C103.998 29.2491 105.288 28.9044 106.447 28.2151C107.606 27.5257 108.531 26.5752 109.22 25.3636V28.7477H111.507V12.7046H109.22V16.0417C108.614 14.8405 107.716 13.9005 106.525 13.2216C105.345 12.5427 104.029 12.2033 102.577 12.2033C101.052 12.2033 99.684 12.574 98.4724 13.3156C97.2713 14.0467 96.3208 15.0547 95.621 16.3394C94.9316 17.6241 94.587 19.0811 94.587 20.7105C94.587 22.3608 94.9369 23.8283 95.6367 25.113C96.3469 26.3977 97.3026 27.4108 98.5037 28.1524C99.7049 28.8835 101.063 29.2491 102.577 29.2491ZM103.141 27.2594C101.951 27.2594 100.885 26.9774 99.9451 26.4133C99.0155 25.8493 98.2844 25.0764 97.7517 24.0946C97.219 23.1128 96.9527 21.99 96.9527 20.7262C96.9527 19.4519 97.219 18.3239 97.7517 17.3421C98.2844 16.3603 99.0155 15.5926 99.9451 15.039C100.875 14.475 101.94 14.193 103.141 14.193C104.342 14.193 105.408 14.475 106.337 15.039C107.267 15.5926 107.993 16.3603 108.515 17.3421C109.048 18.3239 109.314 19.4519 109.314 20.7262C109.314 21.99 109.048 23.118 108.515 24.1103C107.982 25.0921 107.251 25.865 106.322 26.429C105.403 26.9826 104.342 27.2594 103.141 27.2594Z" fill="white"/>
<path d="M121.406 29.2491C122.43 29.2491 123.328 29.0089 124.101 28.5284L123.521 26.711C123.062 27.0557 122.519 27.228 121.892 27.228C120.566 27.228 119.902 26.3141 119.902 24.4863V14.428H123.897V12.7046H119.902V6.70409H117.615V12.7046H115.986V14.428H117.615V24.6116C117.615 26.0843 117.944 27.228 118.602 28.0427C119.27 28.847 120.205 29.2491 121.406 29.2491Z" fill="white"/>
<path d="M135.259 29.2491C136.68 29.2491 137.969 28.9044 139.129 28.2151C140.288 27.5257 141.213 26.5752 141.902 25.3636V28.7477H144.189V12.7046H141.902V16.0417C141.296 14.8405 140.398 13.9005 139.207 13.2216C138.027 12.5427 136.711 12.2033 135.259 12.2033C133.734 12.2033 132.366 12.574 131.154 13.3156C129.953 14.0467 129.003 15.0547 128.303 16.3394C127.614 17.6241 127.269 19.0811 127.269 20.7105C127.269 22.3608 127.619 23.8283 128.319 25.113C129.029 26.3977 129.984 27.4108 131.186 28.1524C132.387 28.8835 133.745 29.2491 135.259 29.2491ZM135.823 27.2594C134.632 27.2594 133.567 26.9774 132.627 26.4133C131.697 25.8493 130.966 25.0764 130.434 24.0946C129.901 23.1128 129.635 21.99 129.635 20.7262C129.635 19.4519 129.901 18.3239 130.434 17.3421C130.966 16.3603 131.697 15.5926 132.627 15.039C133.557 14.475 134.622 14.193 135.823 14.193C137.024 14.193 138.09 14.475 139.019 15.039C139.949 15.5926 140.675 16.3603 141.197 17.3421C141.73 18.3239 141.996 19.4519 141.996 20.7262C141.996 21.99 141.73 23.118 141.197 24.1103C140.664 25.0921 139.933 25.865 139.004 26.429C138.084 26.9826 137.024 27.2594 135.823 27.2594Z" fill="white"/>
<defs>
<linearGradient id="paint0_linear_3906_3791" x1="-7.3905" y1="31.2261" x2="25.9486" y2="31.2261" gradientUnits="userSpaceOnUse">
<stop stop-color="#8E77F7"/>
<stop offset="1" stop-color="#8E77F7" stop-opacity="0.05"/>
</linearGradient>
<linearGradient id="paint1_linear_3906_3791" x1="-7.3905" y1="31.2261" x2="25.9486" y2="31.2261" gradientUnits="userSpaceOnUse">
<stop stop-color="#8E77F7"/>
<stop offset="1" stop-color="#8E77F7" stop-opacity="0.05"/>
</linearGradient>
<linearGradient id="paint2_linear_3906_3791" x1="2.36941" y1="31.2149" x2="35.8048" y2="31.2149" gradientUnits="userSpaceOnUse">
<stop stop-color="#8E77F7"/>
<stop offset="1" stop-color="#8E77F7" stop-opacity="0.05"/>
</linearGradient>
<linearGradient id="paint3_linear_3906_3791" x1="2.36941" y1="31.2149" x2="35.8048" y2="31.2149" gradientUnits="userSpaceOnUse">
<stop stop-color="#8E77F7"/>
<stop offset="1" stop-color="#8E77F7" stop-opacity="0.05"/>
</linearGradient>
</defs>
</svg>
