<svg width="100" height="43" viewBox="0 0 100 43" fill="none" xmlns="http://www.w3.org/2000/svg">
<path d="M0 2.07827V0.487604C0 0.232331 0.20694 0.0253906 0.462213 0.0253906H5.34954C5.60481 0.0253906 5.81175 0.232331 5.81175 0.487604V18.4991C5.81175 18.7544 6.01869 18.9613 6.27397 18.9613H25.1729C25.4281 18.9613 25.6351 19.1682 25.6351 19.4235V33.5357C25.6351 33.7909 25.4281 33.9979 25.1729 33.9979H20.5603C20.305 33.9979 20.0981 33.7909 20.0981 33.5357V31.9135C20.0981 31.6582 20.3046 31.4513 20.5599 31.4513H23.0779C23.0698 31.4513 23.074 25.4195 23.0774 22.0003C23.0777 21.7448 22.8707 21.5396 22.6152 21.5396H6.27397C6.01869 21.5396 5.81175 21.7466 5.81175 22.0018V33.5357C5.81175 33.7909 5.60481 33.9979 5.34954 33.9979H0.472793C0.217519 33.9979 0.0105794 33.7909 0.0105794 33.5357V31.8923C0.0105794 31.6371 0.21752 31.4301 0.472793 31.4301H2.75011C3.00538 31.4301 3.21232 31.2232 3.21232 30.9679V3.00269C3.21232 2.74742 3.00538 2.54048 2.75011 2.54048H0.462213C0.20694 2.54048 0 2.33354 0 2.07827Z" fill="#67D4F8"/>
<path d="M0 2.07827V0.487604C0 0.232331 0.20694 0.0253906 0.462213 0.0253906H5.34954C5.60481 0.0253906 5.81175 0.232331 5.81175 0.487604V18.4991C5.81175 18.7544 6.01869 18.9613 6.27397 18.9613H25.1729C25.4281 18.9613 25.6351 19.1682 25.6351 19.4235V33.5357C25.6351 33.7909 25.4281 33.9979 25.1729 33.9979H20.5603C20.305 33.9979 20.0981 33.7909 20.0981 33.5357V31.9135C20.0981 31.6582 20.3046 31.4513 20.5599 31.4513H23.0779C23.0698 31.4513 23.074 25.4195 23.0774 22.0003C23.0777 21.7448 22.8707 21.5396 22.6152 21.5396H6.27397C6.01869 21.5396 5.81175 21.7466 5.81175 22.0018V33.5357C5.81175 33.7909 5.60481 33.9979 5.34954 33.9979H0.472793C0.217519 33.9979 0.0105794 33.7909 0.0105794 33.5357V31.8923C0.0105794 31.6371 0.21752 31.4301 0.472793 31.4301H2.75011C3.00538 31.4301 3.21232 31.2232 3.21232 30.9679V3.00269C3.21232 2.74742 3.00538 2.54048 2.75011 2.54048H0.462213C0.20694 2.54048 0 2.33354 0 2.07827Z" fill="url(#paint0_linear_8991_43279)"/>
<path d="M11.0963 33.4979V26.3761C11.0963 26.1208 11.3032 25.9138 11.5585 25.9138H13.4057C13.6609 25.9138 13.8679 26.1208 13.8679 26.3761V30.9951C13.8679 31.2503 14.0748 31.4573 14.3301 31.4573H16.3843C16.6395 31.4573 16.8465 31.6637 16.8465 31.9189V33.4981C16.8465 33.7534 16.6395 33.9601 16.3843 33.9601H11.5585C11.3032 33.9601 11.0963 33.7532 11.0963 33.4979Z" fill="#67D4F8"/>
<path d="M11.0963 33.4979V26.3761C11.0963 26.1208 11.3032 25.9138 11.5585 25.9138H13.4057C13.6609 25.9138 13.8679 26.1208 13.8679 26.3761V30.9951C13.8679 31.2503 14.0748 31.4573 14.3301 31.4573H16.3843C16.6395 31.4573 16.8465 31.6637 16.8465 31.9189V33.4981C16.8465 33.7534 16.6395 33.9601 16.3843 33.9601H11.5585C11.3032 33.9601 11.0963 33.7532 11.0963 33.4979Z" fill="url(#paint1_linear_8991_43279)"/>
<path d="M16.6842 2.0768V0.462213C16.6842 0.20694 16.4773 0 16.222 0H11.4271C11.1718 0 10.9648 0.206941 10.9648 0.462214V14.5529C10.9648 14.8081 11.1718 15.0151 11.4271 15.0151H30.3914C30.6466 15.0151 30.8536 15.222 30.8536 15.4773V33.5234C30.8536 33.7787 31.0605 33.9856 31.3158 33.9856H36.2117C36.467 33.9856 36.6739 33.7787 36.6739 33.5234V31.8929C36.6739 31.6377 36.467 31.4307 36.2117 31.4307H33.8988C33.6435 31.4307 33.4366 31.2238 33.4366 30.9685V3.00123C33.4366 2.74595 33.6435 2.53901 33.8988 2.53901H36.1382C36.3934 2.53901 36.6004 2.33207 36.6004 2.0768V0.462213C36.6004 0.20694 36.3934 0 36.1382 0H31.2482C30.993 0 30.786 0.20694 30.786 0.462213V11.7919C30.786 12.0472 30.5791 12.2541 30.3238 12.2541H14.1485C13.8932 12.2541 13.6863 12.0472 13.6863 11.7919V3.00123C13.6863 2.74595 13.8932 2.53901 14.1485 2.53901H16.222C16.4773 2.53901 16.6842 2.33207 16.6842 2.0768Z" fill="#67D4F8"/>
<path d="M16.6842 2.0768V0.462213C16.6842 0.20694 16.4773 0 16.222 0H11.4271C11.1718 0 10.9648 0.206941 10.9648 0.462214V14.5529C10.9648 14.8081 11.1718 15.0151 11.4271 15.0151H30.3914C30.6466 15.0151 30.8536 15.222 30.8536 15.4773V33.5234C30.8536 33.7787 31.0605 33.9856 31.3158 33.9856H36.2117C36.467 33.9856 36.6739 33.7787 36.6739 33.5234V31.8929C36.6739 31.6377 36.467 31.4307 36.2117 31.4307H33.8988C33.6435 31.4307 33.4366 31.2238 33.4366 30.9685V3.00123C33.4366 2.74595 33.6435 2.53901 33.8988 2.53901H36.1382C36.3934 2.53901 36.6004 2.33207 36.6004 2.0768V0.462213C36.6004 0.20694 36.3934 0 36.1382 0H31.2482C30.993 0 30.786 0.20694 30.786 0.462213V11.7919C30.786 12.0472 30.5791 12.2541 30.3238 12.2541H14.1485C13.8932 12.2541 13.6863 12.0472 13.6863 11.7919V3.00123C13.6863 2.74595 13.8932 2.53901 14.1485 2.53901H16.222C16.4773 2.53901 16.6842 2.33207 16.6842 2.0768Z" fill="url(#paint2_linear_8991_43279)"/>
<path d="M19.9545 2.07861V0.480269C19.9545 0.224995 20.1615 0.0180552 20.4167 0.0180552H25.0087C25.2639 0.0180552 25.4709 0.224995 25.4709 0.480268V7.60521C25.4709 7.86048 25.2639 8.06743 25.0087 8.06743H23.3799C23.1246 8.06743 22.9177 7.86048 22.9177 7.60521V3.00303C22.9177 2.74776 22.7108 2.54082 22.4555 2.54082H20.4167C20.1615 2.54082 19.9545 2.33388 19.9545 2.07861Z" fill="#67D4F8"/>
<path d="M19.9545 2.07861V0.480269C19.9545 0.224995 20.1615 0.0180552 20.4167 0.0180552H25.0087C25.2639 0.0180552 25.4709 0.224995 25.4709 0.480268V7.60521C25.4709 7.86048 25.2639 8.06743 25.0087 8.06743H23.3799C23.1246 8.06743 22.9177 7.86048 22.9177 7.60521V3.00303C22.9177 2.74776 22.7108 2.54082 22.4555 2.54082H20.4167C20.1615 2.54082 19.9545 2.33388 19.9545 2.07861Z" fill="url(#paint3_linear_8991_43279)"/>
<path d="M43.4727 23.8902H44.7647V17.4302H52.4232V23.8902H53.7067V9.86523H52.4232V16.2912H44.7647V9.86523H43.4727V23.8902Z" fill="black"/>
<path d="M58.0943 13.4437C58.3209 13.4437 58.5136 13.3644 58.6723 13.2057C58.8309 13.0471 58.9102 12.8544 58.9102 12.6277C58.9102 12.4011 58.8309 12.2112 58.6723 12.0582C58.5136 11.8996 58.3209 11.8202 58.0943 11.8202C57.8676 11.8202 57.6749 11.8996 57.5163 12.0582C57.3633 12.2112 57.2868 12.4011 57.2868 12.6277C57.2868 12.8544 57.3633 13.0471 57.5163 13.2057C57.6749 13.3644 57.8676 13.4437 58.0943 13.4437ZM57.4738 23.8902H58.7148V15.1862H57.4738V23.8902Z" fill="black"/>
<path d="M62.0397 23.8902H63.2807V18.2207C63.2807 17.8127 63.3799 17.4359 63.5782 17.0902C63.7822 16.7389 64.074 16.4584 64.4537 16.2487C64.8334 16.0334 65.2895 15.9257 65.8222 15.9257C66.5815 15.9257 67.1709 16.1637 67.5902 16.6397C68.0152 17.1157 68.2277 17.8014 68.2277 18.6967V23.8902H69.4687V18.4587C69.4687 17.3367 69.1769 16.4669 68.5932 15.8492C68.0152 15.2259 67.2219 14.9142 66.2132 14.9142C65.4935 14.9142 64.8815 15.0559 64.3772 15.3392C63.8785 15.6226 63.513 15.9682 63.2807 16.3762V15.1862H62.0397V23.8902Z" fill="black"/>
<path d="M76.338 24.1622C77.1087 24.1622 77.8085 23.9752 78.4375 23.6012C79.0665 23.2272 79.568 22.7116 79.942 22.0542V23.8902H81.183V15.1862H79.942V16.9967C79.6134 16.3451 79.126 15.8351 78.48 15.4667C77.8397 15.0984 77.1257 14.9142 76.338 14.9142C75.5107 14.9142 74.7684 15.1154 74.111 15.5177C73.4594 15.9144 72.9437 16.4612 72.564 17.1582C72.19 17.8552 72.003 18.6457 72.003 19.5297C72.003 20.4251 72.1929 21.2212 72.5725 21.9182C72.9579 22.6152 73.4764 23.1649 74.128 23.5672C74.7797 23.9639 75.5164 24.1622 76.338 24.1622ZM76.644 23.0827C75.998 23.0827 75.42 22.9297 74.91 22.6237C74.4057 22.3177 74.009 21.8984 73.72 21.3657C73.431 20.8331 73.2865 20.2239 73.2865 19.5382C73.2865 18.8469 73.431 18.2349 73.72 17.7022C74.009 17.1696 74.4057 16.7531 74.91 16.4527C75.4144 16.1467 75.9924 15.9937 76.644 15.9937C77.2957 15.9937 77.8737 16.1467 78.378 16.4527C78.8824 16.7531 79.2762 17.1696 79.5595 17.7022C79.8485 18.2349 79.993 18.8469 79.993 19.5382C79.993 20.2239 79.8485 20.8359 79.5595 21.3742C79.2705 21.9069 78.8739 22.3262 78.3695 22.6322C77.8709 22.9326 77.2957 23.0827 76.644 23.0827Z" fill="black"/>
<path d="M86.5536 24.1622C87.1089 24.1622 87.5962 24.0319 88.0156 23.7712L87.7011 22.7852C87.4517 22.9722 87.1571 23.0657 86.8171 23.0657C86.0974 23.0657 85.7376 22.5699 85.7376 21.5782V16.1212H87.9051V15.1862H85.7376V11.9307H84.4966V15.1862H83.6126V16.1212H84.4966V21.6462C84.4966 22.4452 84.6751 23.0657 85.0321 23.5077C85.3947 23.9441 85.9019 24.1622 86.5536 24.1622Z" fill="black"/>
<path d="M94.0692 24.1622C94.8398 24.1622 95.5397 23.9752 96.1687 23.6012C96.7977 23.2272 97.2992 22.7116 97.6732 22.0542V23.8902H98.9142V15.1862H97.6732V16.9967C97.3445 16.3451 96.8572 15.8351 96.2112 15.4667C95.5708 15.0984 94.8568 14.9142 94.0692 14.9142C93.2418 14.9142 92.4995 15.1154 91.8422 15.5177C91.1905 15.9144 90.6748 16.4612 90.2952 17.1582C89.9212 17.8552 89.7342 18.6457 89.7342 19.5297C89.7342 20.4251 89.924 21.2212 90.3037 21.9182C90.689 22.6152 91.2075 23.1649 91.8592 23.5672C92.5108 23.9639 93.2475 24.1622 94.0692 24.1622ZM94.3752 23.0827C93.7292 23.0827 93.1512 22.9297 92.6412 22.6237C92.1368 22.3177 91.7402 21.8984 91.4512 21.3657C91.1622 20.8331 91.0177 20.2239 91.0177 19.5382C91.0177 18.8469 91.1622 18.2349 91.4512 17.7022C91.7402 17.1696 92.1368 16.7531 92.6412 16.4527C93.1455 16.1467 93.7235 15.9937 94.3752 15.9937C95.0268 15.9937 95.6048 16.1467 96.1092 16.4527C96.6135 16.7531 97.0073 17.1696 97.2907 17.7022C97.5797 18.2349 97.7242 18.8469 97.7242 19.5382C97.7242 20.2239 97.5797 20.8359 97.2907 21.3742C97.0017 21.9069 96.605 22.3262 96.1007 22.6322C95.602 22.9326 95.0268 23.0827 94.3752 23.0827Z" fill="black"/>
<rect x="50.457" y="28" width="49" height="15" rx="2.4" fill="#67D4F8"/>
<rect x="50.457" y="28" width="49" height="15" rx="2.4" fill="url(#paint4_linear_8991_43279)"/>
<path d="M58.6711 39H57.3391V33.8266H55.6332V32.718H60.377V33.8266H58.6711V39ZM63.3181 35.0383C63.0402 35.0383 62.8225 35.1271 62.665 35.3047C62.5074 35.4794 62.4172 35.7286 62.3942 36.0523H64.2333C64.2276 35.7286 64.1431 35.4794 63.9798 35.3047C63.8165 35.1271 63.5959 35.0383 63.3181 35.0383ZM63.5028 39.0859C62.7294 39.0859 62.125 38.8725 61.6896 38.4457C61.2541 38.0189 61.0364 37.4145 61.0364 36.6324C61.0364 35.8275 61.237 35.2059 61.638 34.7676C62.0419 34.3264 62.5991 34.1059 63.3095 34.1059C63.9884 34.1059 64.5169 34.2992 64.895 34.6859C65.2732 35.0727 65.4622 35.6069 65.4622 36.2887V36.9246H62.3642C62.3785 37.297 62.4888 37.5878 62.695 37.7969C62.9013 38.006 63.1906 38.1105 63.563 38.1105C63.8523 38.1105 64.1259 38.0805 64.3837 38.0203C64.6415 37.9602 64.9108 37.8642 65.1915 37.7324V38.7465C64.9623 38.8611 64.7174 38.9456 64.4567 39C64.1961 39.0573 63.8781 39.0859 63.5028 39.0859ZM69.9674 37.5734C69.9674 38.0661 69.7955 38.4414 69.4518 38.6992C69.1109 38.957 68.5996 39.0859 67.9178 39.0859C67.5683 39.0859 67.2704 39.0616 67.024 39.0129C66.7777 38.9671 66.5471 38.8983 66.3323 38.8066V37.7238C66.5757 37.8384 66.8493 37.9344 67.153 38.0117C67.4595 38.0891 67.7287 38.1277 67.9608 38.1277C68.4363 38.1277 68.674 37.9902 68.674 37.7152C68.674 37.6121 68.6425 37.529 68.5795 37.466C68.5165 37.4001 68.4076 37.3271 68.253 37.2469C68.0983 37.1638 67.892 37.0678 67.6342 36.959C67.2647 36.8043 66.9925 36.6611 66.8178 36.5293C66.6459 36.3975 66.5199 36.2471 66.4397 36.0781C66.3623 35.9062 66.3237 35.6957 66.3237 35.4465C66.3237 35.0197 66.4884 34.6902 66.8178 34.4582C67.1501 34.2233 67.6199 34.1059 68.2272 34.1059C68.8058 34.1059 69.3687 34.2319 69.9158 34.484L69.5205 35.4293C69.2799 35.3262 69.055 35.2417 68.8459 35.1758C68.6368 35.1099 68.4234 35.077 68.2057 35.077C67.819 35.077 67.6256 35.1815 67.6256 35.3906C67.6256 35.5081 67.6872 35.6098 67.8104 35.6957C67.9364 35.7816 68.21 35.9091 68.6311 36.0781C69.0063 36.2299 69.2813 36.3717 69.4561 36.5035C69.6308 36.6353 69.7597 36.7871 69.8428 36.959C69.9259 37.1309 69.9674 37.3357 69.9674 37.5734ZM73.1019 38.0418C73.3311 38.0418 73.6061 37.9917 73.9269 37.8914V38.8668C73.6003 39.0129 73.1993 39.0859 72.7238 39.0859C72.1995 39.0859 71.8171 38.9542 71.5765 38.6906C71.3387 38.4242 71.2199 38.026 71.2199 37.4961V35.1801H70.5925V34.6258L71.3144 34.1875L71.6925 33.1734H72.5304V34.1961H73.8753V35.1801H72.5304V37.4961C72.5304 37.6823 72.582 37.8198 72.6851 37.9086C72.7911 37.9974 72.93 38.0418 73.1019 38.0418ZM79.4247 39H78.1141V36.1941C78.1141 35.8475 78.0525 35.5883 77.9293 35.4164C77.8062 35.2417 77.6099 35.1543 77.3407 35.1543C76.974 35.1543 76.709 35.2775 76.5458 35.5238C76.3825 35.7673 76.3008 36.1727 76.3008 36.7398V39H74.9903V34.1961H75.9915L76.1676 34.8105H76.2407C76.3868 34.5785 76.5873 34.4038 76.8422 34.2863C77.1 34.166 77.3922 34.1059 77.7188 34.1059C78.2774 34.1059 78.7013 34.2577 78.9907 34.5613C79.28 34.8621 79.4247 35.2975 79.4247 35.8676V39ZM82.8513 35.0383C82.5735 35.0383 82.3558 35.1271 82.1982 35.3047C82.0407 35.4794 81.9504 35.7286 81.9275 36.0523H83.7666C83.7608 35.7286 83.6763 35.4794 83.513 35.3047C83.3498 35.1271 83.1292 35.0383 82.8513 35.0383ZM83.0361 39.0859C82.2627 39.0859 81.6582 38.8725 81.2228 38.4457C80.7874 38.0189 80.5697 37.4145 80.5697 36.6324C80.5697 35.8275 80.7702 35.2059 81.1713 34.7676C81.5752 34.3264 82.1323 34.1059 82.8427 34.1059C83.5216 34.1059 84.0502 34.2992 84.4283 34.6859C84.8064 35.0727 84.9955 35.6069 84.9955 36.2887V36.9246H81.8974C81.9117 37.297 82.022 37.5878 82.2283 37.7969C82.4345 38.006 82.7239 38.1105 83.0963 38.1105C83.3856 38.1105 83.6591 38.0805 83.917 38.0203C84.1748 37.9602 84.444 37.8642 84.7248 37.7324V38.7465C84.4956 38.8611 84.2507 38.9456 83.99 39C83.7293 39.0573 83.4114 39.0859 83.0361 39.0859ZM88.1729 38.0418C88.4021 38.0418 88.6771 37.9917 88.9979 37.8914V38.8668C88.6714 39.0129 88.2703 39.0859 87.7948 39.0859C87.2706 39.0859 86.8882 38.9542 86.6475 38.6906C86.4098 38.4242 86.2909 38.026 86.2909 37.4961V35.1801H85.6635V34.6258L86.3854 34.1875L86.7635 33.1734H87.6014V34.1961H88.9464V35.1801H87.6014V37.4961C87.6014 37.6823 87.653 37.8198 87.7561 37.9086C87.8621 37.9974 88.001 38.0418 88.1729 38.0418ZM93.4129 37.5734C93.4129 38.0661 93.241 38.4414 92.8973 38.6992C92.5564 38.957 92.045 39.0859 91.3633 39.0859C91.0138 39.0859 90.7159 39.0616 90.4695 39.0129C90.2232 38.9671 89.9926 38.8983 89.7777 38.8066V37.7238C90.0212 37.8384 90.2948 37.9344 90.5984 38.0117C90.9049 38.0891 91.1742 38.1277 91.4062 38.1277C91.8818 38.1277 92.1195 37.9902 92.1195 37.7152C92.1195 37.6121 92.088 37.529 92.025 37.466C91.962 37.4001 91.8531 37.3271 91.6984 37.2469C91.5437 37.1638 91.3375 37.0678 91.0797 36.959C90.7101 36.8043 90.438 36.6611 90.2633 36.5293C90.0914 36.3975 89.9654 36.2471 89.8851 36.0781C89.8078 35.9062 89.7691 35.6957 89.7691 35.4465C89.7691 35.0197 89.9338 34.6902 90.2633 34.4582C90.5956 34.2233 91.0654 34.1059 91.6726 34.1059C92.2513 34.1059 92.8142 34.2319 93.3613 34.484L92.966 35.4293C92.7254 35.3262 92.5005 35.2417 92.2914 35.1758C92.0823 35.1099 91.8689 35.077 91.6512 35.077C91.2644 35.077 91.0711 35.1815 91.0711 35.3906C91.0711 35.5081 91.1327 35.6098 91.2558 35.6957C91.3819 35.7816 91.6555 35.9091 92.0765 36.0781C92.4518 36.2299 92.7268 36.3717 92.9015 36.5035C93.0763 36.6353 93.2052 36.7871 93.2883 36.959C93.3713 37.1309 93.4129 37.3357 93.4129 37.5734Z" fill="white"/>
<defs>
<linearGradient id="paint0_linear_8991_43279" x1="-8.28456" y1="33.9979" x2="29.0877" y2="33.9979" gradientUnits="userSpaceOnUse">
<stop stop-color="#8E77F7"/>
<stop offset="1" stop-color="#8E77F7" stop-opacity="0.05"/>
</linearGradient>
<linearGradient id="paint1_linear_8991_43279" x1="-8.28456" y1="33.9979" x2="29.0877" y2="33.9979" gradientUnits="userSpaceOnUse">
<stop stop-color="#8E77F7"/>
<stop offset="1" stop-color="#8E77F7" stop-opacity="0.05"/>
</linearGradient>
<linearGradient id="paint2_linear_8991_43279" x1="2.65637" y1="33.9856" x2="40.1366" y2="33.9856" gradientUnits="userSpaceOnUse">
<stop stop-color="#8E77F7"/>
<stop offset="1" stop-color="#8E77F7" stop-opacity="0.05"/>
</linearGradient>
<linearGradient id="paint3_linear_8991_43279" x1="2.65637" y1="33.9856" x2="40.1366" y2="33.9856" gradientUnits="userSpaceOnUse">
<stop stop-color="#8E77F7"/>
<stop offset="1" stop-color="#8E77F7" stop-opacity="0.05"/>
</linearGradient>
<linearGradient id="paint4_linear_8991_43279" x1="34.6216" y1="43" x2="106.057" y2="43" gradientUnits="userSpaceOnUse">
<stop stop-color="#8E77F7"/>
<stop offset="1" stop-color="#8E77F7" stop-opacity="0.05"/>
</linearGradient>
</defs>
</svg>
