<svg viewBox="0 0 127 125" fill="none" xmlns="http://www.w3.org/2000/svg">
<g opacity="0.3" filter="url(#filter0_f_933_26748)">
<circle cx="59" cy="66" r="45" fill="#67D4F8"/>
<circle cx="59" cy="66" r="45" fill="url(#paint0_linear_933_26748)"/>
</g>
<g opacity="0.3" filter="url(#filter1_f_933_26748)">
<circle cx="68" cy="59" r="45" fill="#67D4F8"/>
<circle cx="68" cy="59" r="45" fill="url(#paint1_linear_933_26748)"/>
</g>
<circle cx="63" cy="62" r="45" fill="white"/>
<circle cx="63" cy="62" r="44.5" stroke="#67D4F8" stroke-opacity="0.46"/>
<circle cx="63" cy="62" r="44.5" stroke="url(#paint2_linear_933_26748)" stroke-opacity="0.46"/>
<path d="M43 45.2741V43.5393C43 43.2608 43.2257 43.0352 43.5041 43.0352H48.8343C49.1127 43.0352 49.3384 43.2608 49.3384 43.5393V63.1829C49.3384 63.4614 49.5641 63.687 49.8425 63.687H70.454C70.7324 63.687 70.9581 63.9127 70.9581 64.1911V79.5821C70.9581 79.8605 70.7324 80.0862 70.454 80.0862H65.4234C65.145 80.0862 64.9193 79.8605 64.9193 79.5821V77.8129C64.9193 77.5345 65.1446 77.3088 65.423 77.3088H68.1692C68.1604 77.3088 68.1649 70.7305 68.1687 67.0014C68.169 66.7228 67.9432 66.499 67.6646 66.499H49.8425C49.5641 66.499 49.3384 66.7247 49.3384 67.0031V79.5821C49.3384 79.8605 49.1127 80.0862 48.8343 80.0862H43.5156C43.2372 80.0862 43.0115 79.8605 43.0115 79.5821V77.7899C43.0115 77.5115 43.2372 77.2858 43.5156 77.2858H45.9993C46.2777 77.2858 46.5034 77.0601 46.5034 76.7817V46.2823C46.5034 46.0039 46.2777 45.7782 45.9993 45.7782H43.5041C43.2257 45.7782 43 45.5525 43 45.2741Z" fill="#67D4F8"/>
<path d="M43 45.2741V43.5393C43 43.2608 43.2257 43.0352 43.5041 43.0352H48.8343C49.1127 43.0352 49.3384 43.2608 49.3384 43.5393V63.1829C49.3384 63.4614 49.5641 63.687 49.8425 63.687H70.454C70.7324 63.687 70.9581 63.9127 70.9581 64.1911V79.5821C70.9581 79.8605 70.7324 80.0862 70.454 80.0862H65.4234C65.145 80.0862 64.9193 79.8605 64.9193 79.5821V77.8129C64.9193 77.5345 65.1446 77.3088 65.423 77.3088H68.1692C68.1604 77.3088 68.1649 70.7305 68.1687 67.0014C68.169 66.7228 67.9432 66.499 67.6646 66.499H49.8425C49.5641 66.499 49.3384 66.7247 49.3384 67.0031V79.5821C49.3384 79.8605 49.1127 80.0862 48.8343 80.0862H43.5156C43.2372 80.0862 43.0115 79.8605 43.0115 79.5821V77.7899C43.0115 77.5115 43.2372 77.2858 43.5156 77.2858H45.9993C46.2777 77.2858 46.5034 77.0601 46.5034 76.7817V46.2823C46.5034 46.0039 46.2777 45.7782 45.9993 45.7782H43.5041C43.2257 45.7782 43 45.5525 43 45.2741Z" fill="url(#paint3_linear_933_26748)"/>
<path d="M55.1018 79.541V71.7737C55.1018 71.4953 55.3275 71.2696 55.6059 71.2696H57.6205C57.8989 71.2696 58.1246 71.4953 58.1246 71.7737V76.8113C58.1246 77.0897 58.3503 77.3154 58.6287 77.3154H60.869C61.1474 77.3154 61.3731 77.5405 61.3731 77.8189V79.5412C61.3731 79.8196 61.1474 80.0451 60.869 80.0451H55.6059C55.3275 80.0451 55.1018 79.8194 55.1018 79.541Z" fill="#67D4F8"/>
<path d="M55.1018 79.541V71.7737C55.1018 71.4953 55.3275 71.2696 55.6059 71.2696H57.6205C57.8989 71.2696 58.1246 71.4953 58.1246 71.7737V76.8113C58.1246 77.0897 58.3503 77.3154 58.6287 77.3154H60.869C61.1474 77.3154 61.3731 77.5405 61.3731 77.8189V79.5412C61.3731 79.8196 61.1474 80.0451 60.869 80.0451H55.6059C55.3275 80.0451 55.1018 79.8194 55.1018 79.541Z" fill="url(#paint4_linear_933_26748)"/>
<path d="M61.1986 45.265V43.5041C61.1986 43.2257 60.9729 43 60.6945 43H55.465C55.1866 43 54.9609 43.2257 54.9609 43.5041V58.8716C54.9609 59.15 55.1866 59.3757 55.465 59.3757H76.1479C76.4263 59.3757 76.652 59.6014 76.652 59.8798V79.5613C76.652 79.8397 76.8777 80.0654 77.1561 80.0654H82.4957C82.7741 80.0654 82.9998 79.8397 82.9998 79.5613V77.7831C82.9998 77.5047 82.7741 77.279 82.4957 77.279H79.9731C79.6947 77.279 79.469 77.0533 79.469 76.7749V46.2732C79.469 45.9948 79.6947 45.7691 79.9731 45.7691H82.4154C82.6938 45.7691 82.9195 45.5434 82.9195 45.265V43.5041C82.9195 43.2257 82.6938 43 82.4154 43H77.0824C76.804 43 76.5783 43.2257 76.5783 43.5041V55.8605C76.5783 56.1389 76.3526 56.3646 76.0742 56.3646H58.4331C58.1547 56.3646 57.929 56.1389 57.929 55.8605V46.2732C57.929 45.9948 58.1547 45.7691 58.4331 45.7691H60.6945C60.9729 45.7691 61.1986 45.5434 61.1986 45.265Z" fill="#67D4F8"/>
<path d="M61.1986 45.265V43.5041C61.1986 43.2257 60.9729 43 60.6945 43H55.465C55.1866 43 54.9609 43.2257 54.9609 43.5041V58.8716C54.9609 59.15 55.1866 59.3757 55.465 59.3757H76.1479C76.4263 59.3757 76.652 59.6014 76.652 59.8798V79.5613C76.652 79.8397 76.8777 80.0654 77.1561 80.0654H82.4957C82.7741 80.0654 82.9998 79.8397 82.9998 79.5613V77.7831C82.9998 77.5047 82.7741 77.279 82.4957 77.279H79.9731C79.6947 77.279 79.469 77.0533 79.469 76.7749V46.2732C79.469 45.9948 79.6947 45.7691 79.9731 45.7691H82.4154C82.6938 45.7691 82.9195 45.5434 82.9195 45.265V43.5041C82.9195 43.2257 82.6938 43 82.4154 43H77.0824C76.804 43 76.5783 43.2257 76.5783 43.5041V55.8605C76.5783 56.1389 76.3526 56.3646 76.0742 56.3646H58.4331C58.1547 56.3646 57.929 56.1389 57.929 55.8605V46.2732C57.929 45.9948 58.1547 45.7691 58.4331 45.7691H60.6945C60.9729 45.7691 61.1986 45.5434 61.1986 45.265Z" fill="url(#paint5_linear_933_26748)"/>
<path d="M64.7653 45.267V43.5238C64.7653 43.2454 64.991 43.0197 65.2694 43.0197H70.2774C70.5558 43.0197 70.7815 43.2454 70.7815 43.5238V51.2944C70.7815 51.5728 70.5558 51.7985 70.2774 51.7985H68.501C68.2226 51.7985 67.9969 51.5728 67.9969 51.2944V46.2752C67.9969 45.9968 67.7713 45.7711 67.4928 45.7711H65.2694C64.991 45.7711 64.7653 45.5454 64.7653 45.267Z" fill="#67D4F8"/>
<path d="M64.7653 45.267V43.5238C64.7653 43.2454 64.991 43.0197 65.2694 43.0197H70.2774C70.5558 43.0197 70.7815 43.2454 70.7815 43.5238V51.2944C70.7815 51.5728 70.5558 51.7985 70.2774 51.7985H68.501C68.2226 51.7985 67.9969 51.5728 67.9969 51.2944V46.2752C67.9969 45.9968 67.7713 45.7711 67.4928 45.7711H65.2694C64.991 45.7711 64.7653 45.5454 64.7653 45.267Z" fill="url(#paint6_linear_933_26748)"/>
<defs>
<filter id="filter0_f_933_26748" x="0" y="7" width="118" height="118" filterUnits="userSpaceOnUse" color-interpolation-filters="sRGB">
<feFlood flood-opacity="0" result="BackgroundImageFix"/>
<feBlend mode="normal" in="SourceGraphic" in2="BackgroundImageFix" result="shape"/>
<feGaussianBlur stdDeviation="7" result="effect1_foregroundBlur_933_26748"/>
</filter>
<filter id="filter1_f_933_26748" x="9" y="0" width="118" height="118" filterUnits="userSpaceOnUse" color-interpolation-filters="sRGB">
<feFlood flood-opacity="0" result="BackgroundImageFix"/>
<feBlend mode="normal" in="SourceGraphic" in2="BackgroundImageFix" result="shape"/>
<feGaussianBlur stdDeviation="7" result="effect1_foregroundBlur_933_26748"/>
</filter>
<linearGradient id="paint0_linear_933_26748" x1="-15.0855" y1="111" x2="116.122" y2="111" gradientUnits="userSpaceOnUse">
<stop stop-color="#8E77F7"/>
<stop offset="1" stop-color="#8E77F7" stop-opacity="0.05"/>
</linearGradient>
<linearGradient id="paint1_linear_933_26748" x1="-6.08555" y1="104" x2="125.122" y2="104" gradientUnits="userSpaceOnUse">
<stop stop-color="#8E77F7"/>
<stop offset="1" stop-color="#8E77F7" stop-opacity="0.05"/>
</linearGradient>
<linearGradient id="paint2_linear_933_26748" x1="-11.0855" y1="107" x2="120.122" y2="107" gradientUnits="userSpaceOnUse">
<stop stop-color="#8E77F7"/>
<stop offset="1" stop-color="#8E77F7" stop-opacity="0.05"/>
</linearGradient>
<linearGradient id="paint3_linear_933_26748" x1="33.9647" y1="80.0862" x2="74.7237" y2="80.0862" gradientUnits="userSpaceOnUse">
<stop stop-color="#8E77F7"/>
<stop offset="1" stop-color="#8E77F7" stop-opacity="0.05"/>
</linearGradient>
<linearGradient id="paint4_linear_933_26748" x1="33.9647" y1="80.0862" x2="74.7237" y2="80.0862" gradientUnits="userSpaceOnUse">
<stop stop-color="#8E77F7"/>
<stop offset="1" stop-color="#8E77F7" stop-opacity="0.05"/>
</linearGradient>
<linearGradient id="paint5_linear_933_26748" x1="45.8996" y1="80.0654" x2="86.7762" y2="80.0654" gradientUnits="userSpaceOnUse">
<stop stop-color="#8E77F7"/>
<stop offset="1" stop-color="#8E77F7" stop-opacity="0.05"/>
</linearGradient>
<linearGradient id="paint6_linear_933_26748" x1="45.8996" y1="80.0654" x2="86.7762" y2="80.0654" gradientUnits="userSpaceOnUse">
<stop stop-color="#8E77F7"/>
<stop offset="1" stop-color="#8E77F7" stop-opacity="0.05"/>
</linearGradient>
</defs>
</svg>
