<svg width="21" height="15" viewBox="0 0 21 15" fill="none" xmlns="http://www.w3.org/2000/svg">
<path d="M17.7782 1.20994C16.4396 0.650737 15.0047 0.237416 13.5042 0.00239091C13.4908 1.46541e-05 13.477 0.001546 13.4646 0.00677319C13.4522 0.0120004 13.4419 0.0206648 13.4351 0.0315665C13.2513 0.330616 13.0466 0.720434 12.9031 1.0284C11.3117 0.808153 9.69382 0.808153 8.10242 1.0284C7.9426 0.687093 7.76238 0.3543 7.56259 0.0315665C7.55582 0.0205306 7.54557 0.0116702 7.53322 0.00616763C7.52087 0.000665093 7.50701 -0.00121793 7.49347 0.00076997C5.99385 0.235795 4.55898 0.649116 3.21947 1.20913C3.20794 1.2136 3.19817 1.22124 3.19147 1.23101C0.468708 4.93874 -0.277602 8.55489 0.0889911 12.1257C0.0900112 12.1344 0.0929418 12.1429 0.0976047 12.1505C0.102267 12.1582 0.108565 12.1649 0.116114 12.1702C1.70532 13.242 3.47787 14.0584 5.35953 14.5853C5.37265 14.5891 5.38668 14.589 5.39979 14.5853C5.4129 14.5815 5.42448 14.5742 5.43303 14.5642C5.83724 14.0618 6.19771 13.5309 6.50568 12.9734C6.52406 12.9409 6.50656 12.902 6.46981 12.8891C5.90461 12.6919 5.35698 12.454 4.83195 12.1775C4.82252 12.1725 4.81457 12.1655 4.80882 12.1569C4.80307 12.1484 4.79969 12.1387 4.799 12.1286C4.7983 12.1186 4.80031 12.1085 4.80484 12.0994C4.80937 12.0902 4.81628 12.0823 4.82495 12.0762C4.93519 12.0008 5.04543 11.9222 5.15043 11.8436C5.15988 11.8366 5.17126 11.8321 5.18331 11.8306C5.19536 11.8292 5.2076 11.8309 5.21867 11.8355C8.6545 13.2651 12.3755 13.2651 15.7711 11.8355C15.7822 11.8306 15.7946 11.8287 15.8068 11.83C15.819 11.8313 15.8306 11.8357 15.8402 11.8428C15.9452 11.9222 16.0546 12.0008 16.1657 12.0762C16.1745 12.0822 16.1815 12.09 16.1862 12.0991C16.1908 12.1081 16.193 12.1181 16.1925 12.1282C16.192 12.1382 16.1888 12.148 16.1832 12.1566C16.1776 12.1652 16.1698 12.1724 16.1605 12.1775C15.6373 12.4563 15.0931 12.6921 14.5217 12.8883C14.513 12.8912 14.505 12.8959 14.4983 12.9019C14.4916 12.9079 14.4864 12.9152 14.483 12.9233C14.4796 12.9313 14.4781 12.94 14.4786 12.9486C14.4791 12.9572 14.4816 12.9657 14.4859 12.9734C14.8008 13.5301 15.1613 14.0602 15.5576 14.5634C15.5659 14.5738 15.5774 14.5815 15.5905 14.5855C15.6037 14.5896 15.6179 14.5898 15.6311 14.5861C17.516 14.0607 19.2915 13.2439 20.8824 12.1702C20.8902 12.1652 20.8967 12.1587 20.9015 12.1511C20.9064 12.1436 20.9094 12.1352 20.9104 12.1265C21.3479 7.99812 20.1772 4.41114 17.8053 1.23263C17.7995 1.2223 17.7899 1.21425 17.7782 1.20994ZM7.01926 9.95126C5.9851 9.95126 5.13205 9.08491 5.13205 8.02243C5.13205 6.95914 5.96848 6.0936 7.01926 6.0936C8.07792 6.0936 8.9231 6.96644 8.90647 8.02243C8.90647 9.08572 8.07005 9.95126 7.01926 9.95126V9.95126ZM13.9968 9.95126C12.9617 9.95126 12.1096 9.08491 12.1096 8.02243C12.1096 6.95914 12.9451 6.0936 13.9968 6.0936C15.0554 6.0936 15.9006 6.96644 15.884 8.02243C15.884 9.08572 15.0563 9.95126 13.9968 9.95126V9.95126Z" fill="black"/>
</svg>
