<svg width="21" height="21" viewBox="0 0 21 21" fill="none" xmlns="http://www.w3.org/2000/svg">
<path d="M10.5002 7.76663C8.99495 7.76663 7.76653 8.99504 7.76653 10.5003C7.76653 12.0056 8.99495 13.234 10.5002 13.234C12.0055 13.234 13.2339 12.0056 13.2339 10.5003C13.2339 8.99504 12.0055 7.76663 10.5002 7.76663ZM18.6992 10.5003C18.6992 9.36829 18.7095 8.24651 18.6459 7.11653C18.5823 5.80403 18.2829 4.63918 17.3232 3.67942C16.3614 2.7176 15.1986 2.42024 13.8861 2.35666C12.754 2.29309 11.6322 2.30334 10.5023 2.30334C9.37024 2.30334 8.24846 2.29309 7.11848 2.35666C5.80598 2.42024 4.64114 2.71965 3.68137 3.67942C2.71956 4.64124 2.42219 5.80403 2.35862 7.11653C2.29504 8.24856 2.3053 9.37034 2.3053 10.5003C2.3053 11.6303 2.29504 12.7541 2.35862 13.8841C2.42219 15.1966 2.72161 16.3615 3.68137 17.3212C4.64319 18.283 5.80598 18.5804 7.11848 18.644C8.25051 18.7075 9.37229 18.6973 10.5023 18.6973C11.6343 18.6973 12.7561 18.7075 13.8861 18.644C15.1986 18.5804 16.3634 18.281 17.3232 17.3212C18.285 16.3594 18.5823 15.1966 18.6459 13.8841C18.7115 12.7541 18.6992 11.6323 18.6992 10.5003V10.5003ZM10.5002 14.7065C8.17258 14.7065 6.29407 12.828 6.29407 10.5003C6.29407 8.17268 8.17258 6.29417 10.5002 6.29417C12.8279 6.29417 14.7064 8.17268 14.7064 10.5003C14.7064 12.828 12.8279 14.7065 10.5002 14.7065ZM14.8786 7.10422C14.3352 7.10422 13.8963 6.66536 13.8963 6.1219C13.8963 5.57844 14.3352 5.13958 14.8786 5.13958C15.4221 5.13958 15.861 5.57844 15.861 6.1219C15.8611 6.25095 15.8358 6.37876 15.7865 6.49801C15.7372 6.61726 15.6649 6.72562 15.5736 6.81687C15.4824 6.90812 15.374 6.98047 15.2547 7.02978C15.1355 7.07909 15.0077 7.10439 14.8786 7.10422V7.10422Z" fill="#1A1A1A"/>
</svg>
