<svg width="33" height="33" viewBox="0 0 33 33" fill="none" xmlns="http://www.w3.org/2000/svg">
<path fill-rule="evenodd" clip-rule="evenodd" d="M27.5997 15.2968C28.2988 14.3456 27.6761 12.997 26.4987 12.9123L7.99228 11.5806C6.70184 11.4877 5.86614 12.9966 6.74862 14.0286C7.40157 14.7922 8.41204 15.9387 9.46899 17.003C10.336 17.8759 11.3094 18.772 12.1731 19.3247C12.2707 19.7492 12.4386 20.1947 12.624 20.6184C12.9077 21.2673 13.2845 21.9795 13.6892 22.6837C14.4997 24.0939 15.4606 25.5375 16.1177 26.492C16.9029 27.6327 18.5464 27.6145 19.3426 26.5313L27.5997 15.2968ZM9.08434 13.6643L25.4517 14.8421L17.7447 25.3283C17.1007 24.3917 16.1862 23.0145 15.4232 21.6871C15.0372 21.0155 14.6995 20.3731 14.4564 19.8171C14.3698 19.6191 14.3005 19.4436 14.2463 19.2905L19.5725 17.5547C20.0976 17.3836 20.3845 16.8191 20.2134 16.2941C20.0423 15.769 19.4779 15.482 18.9528 15.6531L13.1196 17.5541C12.5083 17.1381 11.7204 16.4317 10.888 15.5937C10.2475 14.9486 9.62026 14.2671 9.08434 13.6643Z" fill="#09244B"/>
</svg>
