<svg width="80" height="80" viewBox="0 0 80 80" fill="none" xmlns="http://www.w3.org/2000/svg">
<path d="M10 17.5001C9.33696 17.5001 8.70107 17.7635 8.23223 18.2323C7.76339 18.7012 7.5 19.3371 7.5 20.0001C7.5 20.6631 7.76339 21.299 8.23223 21.7679C8.70107 22.2367 9.33696 22.5001 10 22.5001H15.55L22.11 48.7501C22.6675 50.9751 24.66 52.5001 26.9525 52.5001H58.1275C60.385 52.5001 62.3025 51.0001 62.895 48.8251L69.375 25.0001H64.14L58.125 47.5001H26.95L20.3925 21.2501C20.1216 20.1732 19.4972 19.2183 18.6192 18.5384C17.7412 17.8585 16.6604 17.4929 15.55 17.5001H10ZM55 52.5001C50.8875 52.5001 47.5 55.8876 47.5 60.0001C47.5 64.1126 50.8875 67.5001 55 67.5001C59.1125 67.5001 62.5 64.1126 62.5 60.0001C62.5 55.8876 59.1125 52.5001 55 52.5001ZM32.5 52.5001C28.3875 52.5001 25 55.8876 25 60.0001C25 64.1126 28.3875 67.5001 32.5 67.5001C36.6125 67.5001 40 64.1126 40 60.0001C40 55.8876 36.6125 52.5001 32.5 52.5001ZM40 17.5001V30.0001H32.5L42.5 40.0001L52.5 30.0001H45V17.5001H40ZM32.5 57.5001C33.91 57.5001 35 58.5901 35 60.0001C35 61.4101 33.91 62.5001 32.5 62.5001C31.09 62.5001 30 61.4101 30 60.0001C30 58.5901 31.09 57.5001 32.5 57.5001ZM55 57.5001C56.41 57.5001 57.5 58.5901 57.5 60.0001C57.5 61.4101 56.41 62.5001 55 62.5001C53.59 62.5001 52.5 61.4101 52.5 60.0001C52.5 58.5901 53.59 57.5001 55 57.5001Z" fill="#67D4F8"/>
<path d="M10 17.5001C9.33696 17.5001 8.70107 17.7635 8.23223 18.2323C7.76339 18.7012 7.5 19.3371 7.5 20.0001C7.5 20.6631 7.76339 21.299 8.23223 21.7679C8.70107 22.2367 9.33696 22.5001 10 22.5001H15.55L22.11 48.7501C22.6675 50.9751 24.66 52.5001 26.9525 52.5001H58.1275C60.385 52.5001 62.3025 51.0001 62.895 48.8251L69.375 25.0001H64.14L58.125 47.5001H26.95L20.3925 21.2501C20.1216 20.1732 19.4972 19.2183 18.6192 18.5384C17.7412 17.8585 16.6604 17.4929 15.55 17.5001H10ZM55 52.5001C50.8875 52.5001 47.5 55.8876 47.5 60.0001C47.5 64.1126 50.8875 67.5001 55 67.5001C59.1125 67.5001 62.5 64.1126 62.5 60.0001C62.5 55.8876 59.1125 52.5001 55 52.5001ZM32.5 52.5001C28.3875 52.5001 25 55.8876 25 60.0001C25 64.1126 28.3875 67.5001 32.5 67.5001C36.6125 67.5001 40 64.1126 40 60.0001C40 55.8876 36.6125 52.5001 32.5 52.5001ZM40 17.5001V30.0001H32.5L42.5 40.0001L52.5 30.0001H45V17.5001H40ZM32.5 57.5001C33.91 57.5001 35 58.5901 35 60.0001C35 61.4101 33.91 62.5001 32.5 62.5001C31.09 62.5001 30 61.4101 30 60.0001C30 58.5901 31.09 57.5001 32.5 57.5001ZM55 57.5001C56.41 57.5001 57.5 58.5901 57.5 60.0001C57.5 61.4101 56.41 62.5001 55 62.5001C53.59 62.5001 52.5 61.4101 52.5 60.0001C52.5 58.5901 53.59 57.5001 55 57.5001Z" fill="url(#paint0_linear_6669_58816)"/>
<defs>
<linearGradient id="paint0_linear_6669_58816" x1="-12.4963" y1="67.5001" x2="77.7087" y2="67.5001" gradientUnits="userSpaceOnUse">
<stop stop-color="#8E77F7"/>
<stop offset="1" stop-color="#8E77F7" stop-opacity="0.05"/>
</linearGradient>
</defs>
</svg>
