<svg width="26" height="25" viewBox="0 0 26 25" fill="none" xmlns="http://www.w3.org/2000/svg">
<g clip-path="url(#clip0_5475_59628)">
<path d="M9.56504 1.52097C9.56504 1.92539 9.40439 2.31325 9.11842 2.59922C8.83245 2.88519 8.44459 3.04585 8.04016 3.04585H3.98018V7.10584C3.98018 7.51026 3.81952 7.89812 3.53355 8.18409C3.24758 8.47006 2.85972 8.63072 2.4553 8.63072C2.05088 8.63072 1.66302 8.47006 1.37705 8.18409C1.09108 7.89812 0.93042 7.51026 0.93042 7.10584V1.52097C0.93042 1.11655 1.09108 0.72869 1.37705 0.44272C1.66302 0.15675 2.05088 -0.00390625 2.4553 -0.00390625L8.04016 -0.00390625C8.44459 -0.00390625 8.83245 0.15675 9.11842 0.44272C9.40439 0.72869 9.56504 1.11655 9.56504 1.52097ZM8.04016 21.3444H3.98018V17.2844C3.98018 16.88 3.81952 16.4921 3.53355 16.2061C3.24758 15.9202 2.85972 15.7595 2.4553 15.7595C2.05088 15.7595 1.66302 15.9202 1.37705 16.2061C1.09108 16.4921 0.93042 16.88 0.93042 17.2844L0.93042 22.8693C0.93042 23.2737 1.09108 23.6615 1.37705 23.9475C1.66302 24.2335 2.05088 24.3941 2.4553 24.3941H8.04016C8.44459 24.3941 8.83245 24.2335 9.11842 23.9475C9.40439 23.6615 9.56504 23.2737 9.56504 22.8693C9.56504 22.4648 9.40439 22.077 9.11842 21.791C8.83245 21.505 8.44459 21.3444 8.04016 21.3444ZM23.8036 15.7595C23.3992 15.7595 23.0113 15.9202 22.7253 16.2061C22.4394 16.4921 22.2787 16.88 22.2787 17.2844V21.3444H18.2187C17.8143 21.3444 17.4264 21.505 17.1405 21.791C16.8545 22.077 16.6938 22.4648 16.6938 22.8693C16.6938 23.2737 16.8545 23.6615 17.1405 23.9475C17.4264 24.2335 17.8143 24.3941 18.2187 24.3941H23.8036C24.208 24.3941 24.5959 24.2335 24.8818 23.9475C25.1678 23.6615 25.3285 23.2737 25.3285 22.8693V17.2844C25.3285 16.88 25.1678 16.4921 24.8818 16.2061C24.5959 15.9202 24.208 15.7595 23.8036 15.7595ZM23.8036 -0.00390625H18.2187C17.8143 -0.00390625 17.4264 0.15675 17.1405 0.44272C16.8545 0.72869 16.6938 1.11655 16.6938 1.52097C16.6938 1.92539 16.8545 2.31325 17.1405 2.59922C17.4264 2.88519 17.8143 3.04585 18.2187 3.04585H22.2787V7.10584C22.2787 7.51026 22.4394 7.89812 22.7253 8.18409C23.0113 8.47006 23.3992 8.63072 23.8036 8.63072C24.208 8.63072 24.5959 8.47006 24.8818 8.18409C25.1678 7.89812 25.3285 7.51026 25.3285 7.10584V1.52097C25.3285 1.11655 25.1678 0.72869 24.8818 0.44272C24.5959 0.15675 24.208 -0.00390625 23.8036 -0.00390625V-0.00390625Z" fill="#1A1A1A"/>
</g>
<defs>
<clipPath id="clip0_5475_59628">
<rect width="24.3981" height="24.3981" fill="white" transform="translate(0.930664)"/>
</clipPath>
</defs>
</svg>
