<svg width="26" height="25" viewBox="0 0 26 25" fill="none" xmlns="http://www.w3.org/2000/svg">
<path d="M9.56431 1.52097C9.56431 1.92539 9.40366 2.31325 9.11768 2.59922C8.83171 2.88519 8.44386 3.04585 8.03943 3.04585H3.97944V7.10584C3.97944 7.51026 3.81879 7.89812 3.53282 8.18409C3.24685 8.47006 2.85899 8.63072 2.45457 8.63072C2.05014 8.63072 1.66228 8.47006 1.37631 8.18409C1.09034 7.89812 0.929688 7.51026 0.929688 7.10584V1.52097C0.929688 1.11655 1.09034 0.72869 1.37631 0.44272C1.66228 0.15675 2.05014 -0.00390625 2.45457 -0.00390625L8.03943 -0.00390625C8.44386 -0.00390625 8.83171 0.15675 9.11768 0.44272C9.40366 0.72869 9.56431 1.11655 9.56431 1.52097ZM8.03943 21.3444H3.97944V17.2844C3.97944 16.88 3.81879 16.4921 3.53282 16.2061C3.24685 15.9202 2.85899 15.7595 2.45457 15.7595C2.05014 15.7595 1.66228 15.9202 1.37631 16.2061C1.09034 16.4921 0.929688 16.88 0.929688 17.2844L0.929688 22.8693C0.929688 23.2737 1.09034 23.6615 1.37631 23.9475C1.66228 24.2335 2.05014 24.3941 2.45457 24.3941H8.03943C8.44386 24.3941 8.83171 24.2335 9.11768 23.9475C9.40366 23.6615 9.56431 23.2737 9.56431 22.8693C9.56431 22.4648 9.40366 22.077 9.11768 21.791C8.83171 21.505 8.44386 21.3444 8.03943 21.3444ZM23.8029 15.7595C23.3984 15.7595 23.0106 15.9202 22.7246 16.2061C22.4386 16.4921 22.278 16.88 22.278 17.2844V21.3444H18.218C17.8136 21.3444 17.4257 21.505 17.1397 21.791C16.8538 22.077 16.6931 22.4648 16.6931 22.8693C16.6931 23.2737 16.8538 23.6615 17.1397 23.9475C17.4257 24.2335 17.8136 24.3941 18.218 24.3941H23.8029C24.2073 24.3941 24.5951 24.2335 24.8811 23.9475C25.1671 23.6615 25.3277 23.2737 25.3277 22.8693V17.2844C25.3277 16.88 25.1671 16.4921 24.8811 16.2061C24.5951 15.9202 24.2073 15.7595 23.8029 15.7595ZM23.8029 -0.00390625H18.218C17.8136 -0.00390625 17.4257 0.15675 17.1397 0.44272C16.8538 0.72869 16.6931 1.11655 16.6931 1.52097C16.6931 1.92539 16.8538 2.31325 17.1397 2.59922C17.4257 2.88519 17.8136 3.04585 18.218 3.04585H22.278V7.10584C22.278 7.51026 22.4386 7.89812 22.7246 8.18409C23.0106 8.47006 23.3984 8.63072 23.8029 8.63072C24.2073 8.63072 24.5951 8.47006 24.8811 8.18409C25.1671 7.89812 25.3277 7.51026 25.3277 7.10584V1.52097C25.3277 1.11655 25.1671 0.72869 24.8811 0.44272C24.5951 0.15675 24.2073 -0.00390625 23.8029 -0.00390625V-0.00390625Z" fill="white"/>
</svg>
