<svg width="88" height="89" viewBox="0 0 88 89" fill="none" xmlns="http://www.w3.org/2000/svg">
<g clip-path="url(#clip0_6744_60710)">
<path d="M44 88.316C19.56 88.316 -0.199951 68.556 -0.199951 44.116C-0.199951 19.676 19.56 -0.0839844 44 -0.0839844C68.44 -0.0839844 88.2 19.676 88.2 44.116C88.2 68.556 68.44 88.316 44 88.316ZM44 5.11602C22.42 5.11602 5.00005 22.536 5.00005 44.116C5.00005 65.696 22.42 83.116 44 83.116C65.58 83.116 83 65.696 83 44.116C83 22.536 65.58 5.11602 44 5.11602Z" fill="#67D4F8"/>
<path d="M44 88.316C19.56 88.316 -0.199951 68.556 -0.199951 44.116C-0.199951 19.676 19.56 -0.0839844 44 -0.0839844C68.44 -0.0839844 88.2 19.676 88.2 44.116C88.2 68.556 68.44 88.316 44 88.316ZM44 5.11602C22.42 5.11602 5.00005 22.536 5.00005 44.116C5.00005 65.696 22.42 83.116 44 83.116C65.58 83.116 83 65.696 83 44.116C83 22.536 65.58 5.11602 44 5.11602Z" fill="url(#paint0_linear_6744_60710)"/>
<path d="M38.7997 63.3553L16.1797 40.7353L19.8197 37.0953L38.7997 56.0753L68.1797 26.6953L71.8197 30.3353L38.7997 63.3553Z" fill="#67D4F8"/>
<path d="M38.7997 63.3553L16.1797 40.7353L19.8197 37.0953L38.7997 56.0753L68.1797 26.6953L71.8197 30.3353L38.7997 63.3553Z" fill="url(#paint1_linear_6744_60710)"/>
</g>
<defs>
<linearGradient id="paint0_linear_6744_60710" x1="-28.7684" y1="88.316" x2="100.106" y2="88.316" gradientUnits="userSpaceOnUse">
<stop stop-color="#8E77F7"/>
<stop offset="1" stop-color="#8E77F7" stop-opacity="0.05"/>
</linearGradient>
<linearGradient id="paint1_linear_6744_60710" x1="-1.80165" y1="63.3553" x2="79.3136" y2="63.3553" gradientUnits="userSpaceOnUse">
<stop stop-color="#8E77F7"/>
<stop offset="1" stop-color="#8E77F7" stop-opacity="0.05"/>
</linearGradient>
<clipPath id="clip0_6744_60710">
<rect width="88" height="88" fill="white" transform="translate(0 0.115234)"/>
</clipPath>
</defs>
</svg>
