<svg width="29" height="26" viewBox="0 0 29 26" fill="none" xmlns="http://www.w3.org/2000/svg">
	<path
		d="M14.407 24.8559C14.0253 24.8559 13.6572 24.7176 13.3704 24.4664C12.2872 23.5192 11.2429 22.6291 10.3215 21.8439L10.3167 21.8398C7.61533 19.5377 5.28257 17.5497 3.65947 15.5913C1.8451 13.4019 1 11.3261 1 9.0584C1 6.85513 1.75549 4.82248 3.12717 3.33461C4.51521 1.82914 6.4198 1 8.49071 1C10.0385 1 11.456 1.48934 12.7037 2.45432C13.3334 2.94141 13.9042 3.53755 14.407 4.2329C14.9101 3.53755 15.4806 2.94141 16.1105 2.45432C17.3582 1.48934 18.7757 1 20.3235 1C22.3942 1 24.299 1.82914 25.6871 3.33461C27.0587 4.82248 27.814 6.85513 27.814 9.0584C27.814 11.3261 26.9691 13.4019 25.1548 15.5911C23.5317 17.5497 21.1991 19.5375 18.4981 21.8394C17.5751 22.6258 16.5291 23.5173 15.4434 24.4668C15.1568 24.7176 14.7885 24.8559 14.407 24.8559ZM8.49071 2.57073C6.86373 2.57073 5.3691 3.22005 4.28179 4.39921C3.17831 5.59618 2.57052 7.25078 2.57052 9.0584C2.57052 10.9657 3.27937 12.6714 4.86871 14.5891C6.40457 16.4424 8.68889 18.3891 11.3338 20.6432L11.3353 20.6445L11.3402 20.6486C12.2651 21.4368 13.3136 22.3304 14.4048 23.2845C15.5025 22.3286 16.5526 21.4335 17.4793 20.6441C17.4817 20.642 17.4841 20.64 17.4865 20.638C20.1288 18.3859 22.4108 16.4411 23.9455 14.5891C25.5347 12.6714 26.2435 10.9657 26.2435 9.0584C26.2435 7.25078 25.6357 5.59618 24.5322 4.39921C23.4451 3.22005 21.9503 2.57073 20.3235 2.57073C19.1317 2.57073 18.0374 2.9496 17.0712 3.6967C16.2101 4.3628 15.6103 5.20483 15.2587 5.79401C15.0778 6.09698 14.7595 6.27782 14.407 6.27782C14.0545 6.27782 13.7362 6.09698 13.5554 5.79401C13.2039 5.20483 12.6041 4.3628 11.7428 3.6967C10.7766 2.9496 9.68236 2.57073 8.49071 2.57073Z"
		fill="black"
	/>
	<path
		d="M8.49071 2.57073C6.86373 2.57073 5.3691 3.22005 4.28179 4.39921C3.17831 5.59618 2.57052 7.25078 2.57052 9.0584C2.57052 10.9657 3.27937 12.6714 4.86871 14.5891C6.40457 16.4424 8.68889 18.3891 11.3338 20.6432L11.3353 20.6445L11.3402 20.6486C12.2651 21.4368 13.3136 22.3304 14.4048 23.2845C15.5025 22.3286 16.5526 21.4335 17.4793 20.6441L17.4865 20.638C20.1288 18.3859 22.4108 16.4411 23.9455 14.5891C25.5347 12.6714 26.2435 10.9657 26.2435 9.0584C26.2435 7.25078 25.6357 5.59618 24.5322 4.39921C23.4451 3.22005 21.9503 2.57073 20.3235 2.57073C19.1317 2.57073 18.0374 2.9496 17.0712 3.6967C16.2101 4.3628 15.6103 5.20483 15.2587 5.79401C15.0778 6.09698 14.7595 6.27782 14.407 6.27782C14.0545 6.27782 13.7362 6.09698 13.5554 5.79401C13.2039 5.20483 12.6041 4.3628 11.7428 3.6967C10.7766 2.9496 9.68236 2.57073 8.49071 2.57073Z"
		fill="white"
	/>
	<path
		d="M4.28179 4.39921L4.10242 4.23382L4.10241 4.23384L4.28179 4.39921ZM4.86871 14.5891L5.05657 14.4334L5.05656 14.4334L4.86871 14.5891ZM11.3353 20.6445L11.1771 20.8302L11.1791 20.8319L11.3353 20.6445ZM11.3402 20.6486L11.4985 20.4629L11.4964 20.4611L11.3402 20.6486ZM14.4048 23.2845L14.2442 23.4682L14.4044 23.6083L14.565 23.4685L14.4048 23.2845ZM23.9455 14.5891L24.1334 14.7448L24.1334 14.7448L23.9455 14.5891ZM24.5322 4.39921L24.7116 4.23384L24.7116 4.23384L24.5322 4.39921ZM17.0712 3.6967L16.9219 3.50369L16.9219 3.50373L17.0712 3.6967ZM15.2587 5.79401L15.4682 5.91905L15.4682 5.91905L15.2587 5.79401ZM13.5554 5.79401L13.3458 5.919L13.3459 5.91905L13.5554 5.79401ZM11.7428 3.6967L11.8921 3.50371L11.8921 3.50369L11.7428 3.6967ZM11.3338 20.6432L11.4921 20.4575L11.4921 20.4575L11.3338 20.6432ZM8.49071 2.32674C6.7967 2.32674 5.23668 3.00375 4.10242 4.23382L4.46115 4.56461C5.50153 3.43634 6.93075 2.81471 8.49071 2.81471V2.32674ZM4.10241 4.23384C2.95269 5.48096 2.32654 7.19681 2.32654 9.0584H2.8145C2.8145 7.30476 3.40393 5.7114 4.46117 4.56459L4.10241 4.23384ZM2.32654 9.0584C2.32654 11.0379 3.06649 12.7969 4.68086 14.7448L5.05656 14.4334C3.49225 12.5459 2.8145 10.8934 2.8145 9.0584H2.32654ZM11.1791 20.8319L11.1841 20.836L11.4964 20.4611L11.4915 20.4571L11.1791 20.8319ZM11.182 20.8343C12.107 21.6226 13.1543 22.5152 14.2442 23.4682L14.5654 23.1009C13.4728 22.1456 12.4233 21.251 11.4985 20.4629L11.182 20.8343ZM14.565 23.4685C15.6616 22.5135 16.7108 21.6193 17.6375 20.8298L17.3211 20.4584C16.3944 21.2478 15.3434 22.1436 14.2445 23.1005L14.565 23.4685ZM24.1334 14.7448C25.7475 12.7969 26.4875 11.0379 26.4875 9.0584H25.9995C25.9995 10.8934 25.3218 12.5459 23.7577 14.4334L24.1334 14.7448ZM26.4875 9.0584C26.4875 7.19681 25.8613 5.48096 24.7116 4.23384L24.3529 4.56459C25.4101 5.7114 25.9995 7.30476 25.9995 9.0584H26.4875ZM24.7116 4.23384C23.5776 3.00374 22.0173 2.32674 20.3235 2.32674V2.81471C21.8833 2.81471 23.3127 3.43635 24.3529 4.56459L24.7116 4.23384ZM20.3235 2.32674C19.0762 2.32674 17.9297 2.72443 16.9219 3.50369L17.2204 3.88972C18.1451 3.17476 19.1871 2.81471 20.3235 2.81471V2.32674ZM16.9219 3.50373C16.0278 4.19542 15.4094 5.06546 15.0492 5.66896L15.4682 5.91905C15.8113 5.3442 16.3925 4.53018 17.2205 3.88968L16.9219 3.50373ZM15.0492 5.66896C14.9123 5.89827 14.6735 6.03384 14.407 6.03384V6.52181C14.8455 6.52181 15.2433 6.29569 15.4682 5.91905L15.0492 5.66896ZM14.407 6.03384C14.1405 6.03384 13.9017 5.89827 13.7649 5.66896L13.3459 5.91905C13.5707 6.29569 13.9685 6.52181 14.407 6.52181V6.03384ZM13.7649 5.66901C13.4049 5.06546 12.7865 4.19541 11.8921 3.50371L11.5936 3.8897C12.4217 4.53019 13.003 5.3442 13.3458 5.919L13.7649 5.66901ZM11.8921 3.50369C10.8843 2.72443 9.73781 2.32674 8.49071 2.32674V2.81471C9.6269 2.81471 10.669 3.17476 11.5936 3.88972L11.8921 3.50369ZM4.68086 14.7448C6.23324 16.618 8.53653 18.5799 11.1756 20.8289L11.4921 20.4575C8.84125 18.1984 6.5759 16.2668 5.05657 14.4334L4.68086 14.7448ZM11.1755 20.8289L11.1771 20.8302L11.4936 20.4588L11.4921 20.4575L11.1755 20.8289ZM17.6448 20.8237C20.2812 18.5767 22.5821 16.6167 24.1334 14.7448L23.7577 14.4334C22.2394 16.2654 19.9764 18.1952 17.3282 20.4523L17.6448 20.8237ZM13.3704 24.4664L13.6919 24.0993L13.6916 24.099L13.3704 24.4664ZM10.3215 21.8439L10.0013 22.2122L10.005 22.2153L10.3215 21.8439ZM10.3167 21.8398L10.6369 21.4716L10.6332 21.4684L10.3167 21.8398ZM3.65947 15.5913L3.28376 15.9027L3.28377 15.9027L3.65947 15.5913ZM3.12717 3.33461L2.76842 3.00384L2.7684 3.00386L3.12717 3.33461ZM12.7037 2.45432L13.0023 2.06836L13.0022 2.06833L12.7037 2.45432ZM14.407 4.2329L14.0116 4.51883L14.4069 5.0655L14.8024 4.51891L14.407 4.2329ZM16.1105 2.45432L16.409 2.84033L16.409 2.84031L16.1105 2.45432ZM25.6871 3.33461L26.0458 3.00386L26.0458 3.00384L25.6871 3.33461ZM25.1548 15.5911L24.7791 15.2797L24.779 15.2797L25.1548 15.5911ZM18.4981 21.8394L18.8145 22.2109L18.8146 22.2108L18.4981 21.8394ZM15.4434 24.4668L15.1222 24.0995L15.122 24.0996L15.4434 24.4668ZM17.4793 20.6441L17.1628 20.2727L17.7958 21.0155L17.4793 20.6441ZM17.4865 20.638L17.803 21.0093L17.17 20.2666L17.4865 20.638ZM14.407 24.3679C14.1434 24.3679 13.8897 24.2725 13.6919 24.0993L13.0489 24.8334C13.4248 25.1627 13.9072 25.3438 14.407 25.3438V24.3679ZM13.6916 24.099C12.6057 23.1495 11.5591 22.2575 10.6379 21.4725L10.005 22.2153C10.9266 23.0007 11.9687 23.8889 13.0492 24.8337L13.6916 24.099ZM10.6416 21.4757L10.6369 21.4716L9.99657 22.2081L10.0013 22.2122L10.6416 21.4757ZM10.6332 21.4684C7.92081 19.157 5.62538 17.1986 4.03517 15.2799L3.28377 15.9027C4.93975 17.9007 7.30986 19.9185 10.0002 22.2112L10.6332 21.4684ZM4.03518 15.2799C2.27444 13.1553 1.48796 11.1859 1.48796 9.0584H0.512039C0.512039 11.4663 1.41576 13.6486 3.28376 15.9027L4.03518 15.2799ZM1.48796 9.0584C1.48796 6.96588 2.20501 5.05479 3.48593 3.66535L2.7684 3.00386C1.30598 4.59017 0.512039 6.74439 0.512039 9.0584H1.48796ZM3.48592 3.66537C4.78041 2.26137 6.55436 1.48796 8.49071 1.48796V0.512039C6.28524 0.512039 4.25001 1.39691 2.76842 3.00384L3.48592 3.66537ZM8.49071 1.48796C9.92825 1.48796 11.2412 1.94007 12.4052 2.84031L13.0022 2.06833C11.6708 1.03862 10.1488 0.512039 8.49071 0.512039V1.48796ZM12.4052 2.84028C12.9951 3.29667 13.5339 3.8583 14.0116 4.51883L14.8024 3.94696C14.2744 3.21679 13.6717 2.58616 13.0023 2.06836L12.4052 2.84028ZM14.8024 4.51891C15.2803 3.85827 15.8189 3.29666 16.409 2.84033L15.812 2.06831C15.1423 2.58617 14.5398 3.21682 14.0117 3.94688L14.8024 4.51891ZM16.409 2.84031C17.573 1.94007 18.886 1.48796 20.3235 1.48796V0.512039C18.6654 0.512039 17.1434 1.03862 15.812 2.06833L16.409 2.84031ZM20.3235 1.48796C22.2597 1.48796 24.0338 2.26137 25.3283 3.66537L26.0458 3.00384C24.5642 1.39691 22.5288 0.512039 20.3235 0.512039V1.48796ZM25.3283 3.66535C26.6092 5.05477 27.3261 6.96585 27.3261 9.0584H28.302C28.302 6.74442 27.5083 4.59019 26.0458 3.00386L25.3283 3.66535ZM27.3261 9.0584C27.3261 11.186 26.5398 13.1553 24.7791 15.2797L25.5305 15.9025C27.3985 13.6486 28.302 11.4663 28.302 9.0584H27.3261ZM24.779 15.2797C23.1888 17.1986 20.8936 19.1568 18.1816 21.468L18.8146 22.2108C21.5046 19.9183 23.8745 17.9007 25.5305 15.9024L24.779 15.2797ZM18.1817 21.468C17.2588 22.2542 16.2105 23.1477 15.1222 24.0995L15.7646 24.8341C16.8476 23.887 17.8913 22.9974 18.8145 22.2109L18.1817 21.468ZM15.122 24.0996C14.9245 24.2724 14.6705 24.3679 14.407 24.3679V25.3438C14.9066 25.3438 15.389 25.1628 15.7647 24.834L15.122 24.0996ZM17.7959 21.0155L17.803 21.0093L17.17 20.2666L17.1628 20.2727L17.7959 21.0155ZM17.7958 21.0155C17.8134 21.0005 17.7855 21.0242 17.803 21.0093L17.17 20.2666C17.1688 20.2676 17.1676 20.2687 17.1664 20.2697C17.1652 20.2707 17.164 20.2717 17.1628 20.2727L17.7958 21.0155Z"
		fill="black"
	/>
</svg>
