<svg width="29" height="26" viewBox="0 0 29 26" fill="none" xmlns="http://www.w3.org/2000/svg">
<path d="M15.6063 5.87604C15.4255 6.17901 15.1072 6.35986 14.7547 6.35986C14.4022 6.35986 14.0839 6.17901 13.903 5.87604C13.5516 5.28686 12.9518 4.44483 12.0905 3.77874C11.1243 3.03163 10.03 2.65276 8.83837 2.65276C7.21138 2.65276 5.71676 3.30208 4.62944 4.48125C3.52597 5.67821 2.91818 7.33281 2.91818 9.14044C2.91818 11.0477 3.62703 12.7534 5.21637 14.6711L15.6063 5.87604ZM15.6063 5.87604L15.8158 6.00108C16.1589 5.42624 16.7402 4.61223 17.5681 3.97175C18.4927 3.2568 19.5348 2.89674 20.6712 2.89674C22.2309 2.89674 23.6604 3.51838 24.7005 4.64662C25.7577 5.79343 26.3472 7.38679 26.3472 9.14044C26.3472 10.9754 25.6694 12.628 24.1053 14.5154C22.5857 16.3491 20.32 18.2807 17.6688 20.5404C16.7873 21.2913 15.7934 22.1384 14.7527 23.0429C13.7179 22.1402 12.7256 21.2944 11.8462 20.5449L11.8441 20.5432L11.8412 20.5408C11.8409 20.5406 11.8406 20.5403 11.8403 20.54C9.18922 18.2807 6.92367 16.3489 5.40423 14.5154L5.40422 14.5154C3.83991 12.6279 3.16216 10.9754 3.16216 9.14044C3.16216 7.3868 3.75158 5.79345 4.80881 4.64664C5.84919 3.51837 7.27841 2.89674 8.83837 2.89674C9.97456 2.89674 11.0166 3.25678 11.9412 3.97173C12.7694 4.61222 13.3506 5.42623 13.6935 6.00103L13.6935 6.00108C13.9183 6.37772 14.3162 6.60384 14.7547 6.60384C15.1932 6.60384 15.591 6.37772 15.8158 6.00108L15.6063 5.87604ZM10.509 22.1101L10.5109 22.1117C11.4324 22.8969 12.4756 23.786 13.5575 24.7321C13.8888 25.0222 14.3139 25.1819 14.7547 25.1819C15.1952 25.1819 15.6205 25.0222 15.9517 24.7325C17.036 23.7842 18.0809 22.8936 19.004 22.1072L19.004 22.1071L19.0189 22.0945C21.7081 19.8026 24.0537 17.8036 25.6903 15.8288C27.5315 13.6073 28.4057 11.4782 28.4057 9.14044C28.4057 6.88181 27.6312 4.78837 26.2141 3.25127L26.0438 3.40831L26.2141 3.25126C24.7793 1.69506 22.8092 0.838051 20.6712 0.838051C19.0682 0.838051 17.5985 1.346 16.3089 2.34335C15.7408 2.78269 15.221 3.30682 14.7547 3.90799C14.2885 3.30679 13.7686 2.78268 13.2007 2.34337L13.2006 2.34336C11.9111 1.34601 10.4413 0.838051 8.83837 0.838051C6.70018 0.838051 4.73026 1.69506 3.29545 3.25126L3.29544 3.25127C1.87839 4.78836 1.10368 6.88179 1.10368 9.14044C1.10368 11.4782 1.97809 13.6073 3.81927 15.829L3.81928 15.829C5.45624 17.8041 7.80286 19.8039 10.4934 22.0967L10.5043 22.106L10.5062 22.1076L10.509 22.1101Z" fill="white" stroke="white" stroke-width="0.487961"/>
</svg>
