<svg width="15" height="11" viewBox="0 0 15 11" fill="none" xmlns="http://www.w3.org/2000/svg">
	<path
		d="M0 3H3V0H1.5C0.675 0 0 0.675 0 1.5V3ZM0 6.75H3V3.75H0V6.75ZM3.75 6.75H6.75V3.75H3.75V6.75ZM7.5 6.75H10.5V3.75H7.5V6.75ZM3.75 3H6.75V0H3.75V3ZM7.5 0V3H10.5V0H7.5ZM11.25 6.75H14.25V3.75H11.25V6.75ZM1.5 10.5H3V7.5H0V9C0 9.825 0.675 10.5 1.5 10.5ZM3.75 10.5H6.75V7.5H3.75V10.5ZM7.5 10.5H10.5V7.5H7.5V10.5ZM11.25 10.5H12.75C13.575 10.5 14.25 9.825 14.25 9V7.5H11.25V10.5ZM11.25 0V3H14.25V1.5C14.25 0.675 13.575 0 12.75 0H11.25Z"
		fill="#585858"
	/>
</svg>
