<svg width="24" height="24" viewBox="0 0 24 24" fill="none" xmlns="http://www.w3.org/2000/svg">
<path d="M7.53007 4.01073C6.32202 4.39731 5.10591 4.78389 4.82 4.87248L4.30859 5.03758V8.58926C4.30859 10.7154 4.3247 12.3181 4.34886 12.5839C4.52604 14.4443 5.33141 16.208 6.67638 17.6738C6.98242 18.008 11.8388 22.2403 11.9757 22.2926C12.0321 22.3127 16.3005 18.6725 17.0012 18.004C18.2173 16.8483 19.1677 15.157 19.5059 13.5382C19.6831 12.6846 19.6952 12.3664 19.6831 8.5812L19.671 5.02147L16.9368 4.15973C15.4348 3.68859 14.1985 3.30603 14.1905 3.31006C14.1864 3.31812 14.4119 3.76509 14.6979 4.30872L15.2173 5.2953L15.9945 5.54496C16.4213 5.68187 17.0656 5.88724 17.4281 5.99999L18.0844 6.20536L18.0683 9.47516C18.0562 12.6161 18.0522 12.7611 17.9717 13.1275C17.6656 14.5087 17.0334 15.6805 16.063 16.6711C15.8777 16.8604 14.9354 17.694 13.973 18.5195C13.0106 19.349 12.173 20.0698 12.1126 20.1262L12.0079 20.2228L10.1596 18.6322C7.90054 16.6832 7.56228 16.353 7.02269 15.5235C6.60792 14.8832 6.30188 14.1946 6.11665 13.4819C5.93544 12.757 5.91933 12.4872 5.91933 9.25771V6.20939L6.49517 6.02818C6.80926 5.92751 7.45356 5.72214 7.9247 5.57315C8.39182 5.42416 8.77839 5.28724 8.77839 5.27516C8.77839 5.26308 9.0039 4.82013 9.28175 4.29261C9.5596 3.76107 9.7851 3.32214 9.7851 3.31409C9.7851 3.28993 9.73678 3.30603 7.53007 4.01073Z" fill="#FF4C2F"/>
<path d="M11.8945 3.43092C11.8582 3.5034 10.8435 5.44032 9.64348 7.73159L7.46094 11.8994L7.49315 12.2376C7.56564 12.9302 7.82335 13.6631 8.24214 14.3276C8.39114 14.5692 8.43543 14.6135 8.4757 14.5692C8.49986 14.541 9.29717 13.0349 10.2475 11.2229C11.1938 9.41481 11.979 7.93293 11.9952 7.93293C12.0072 7.93293 12.8045 9.3987 13.7629 11.1866C14.7213 12.9745 15.5227 14.4685 15.5468 14.5088C15.5871 14.5772 15.5951 14.5732 15.6596 14.4886C16.0743 13.945 16.4166 13.047 16.5133 12.2537L16.5616 11.851L14.2743 7.58662C13.018 5.243 11.9831 3.31414 11.975 3.31011C11.971 3.30206 11.9347 3.35441 11.8945 3.43092Z" fill="#FF4C2F"/>
<path d="M10.873 13.6873L9.76562 15.898L10.3898 16.4416C10.7321 16.7396 11.2354 17.1705 11.5052 17.396L12.0005 17.8067L12.1093 17.7181C12.1737 17.6698 12.669 17.2389 13.2126 16.7598L14.2073 15.89L13.1039 13.6833C12.4958 12.4712 11.9965 11.4765 11.9885 11.4765C11.9844 11.4765 11.4811 12.4712 10.873 13.6873Z" fill="#FF4C2F"/>
</svg>
