<svg width="24" height="24" viewBox="0 0 24 24" fill="none" xmlns="http://www.w3.org/2000/svg">
<path d="M20.6476 2.67419L13.1523 8.24105L14.5384 4.95668L20.6476 2.67419Z" fill="#E2761B" stroke="#E2761B" stroke-linecap="round" stroke-linejoin="round"/>
<path d="M3.34375 2.67419L10.7788 8.29378L9.46051 4.95668L3.34375 2.67419Z" fill="#E4761B" stroke="#E4761B" stroke-linecap="round" stroke-linejoin="round"/>
<path d="M17.9494 15.5781L15.9531 18.6365L20.2243 19.8116L21.4522 15.6459L17.9494 15.5781Z" fill="#E4761B" stroke="#E4761B" stroke-linecap="round" stroke-linejoin="round"/>
<path d="M2.55273 15.6459L3.77307 19.8116L8.04426 18.6365L6.04803 15.5781L2.55273 15.6459Z" fill="#E4761B" stroke="#E4761B" stroke-linecap="round" stroke-linejoin="round"/>
<path d="M7.80349 10.4106L6.61328 12.211L10.8543 12.3993L10.7037 7.84186L7.80349 10.4106Z" fill="#E4761B" stroke="#E4761B" stroke-linecap="round" stroke-linejoin="round"/>
<path d="M16.1862 10.4105L13.2483 7.78906L13.1504 12.3992L17.3839 12.2109L16.1862 10.4105Z" fill="#E4761B" stroke="#E4761B" stroke-linecap="round" stroke-linejoin="round"/>
<path d="M8.04297 18.6366L10.5891 17.3937L8.38948 15.6761L8.04297 18.6366Z" fill="#E4761B" stroke="#E4761B" stroke-linecap="round" stroke-linejoin="round"/>
<path d="M13.4004 17.3937L15.9541 18.6366L15.6 15.6761L13.4004 17.3937Z" fill="#E4761B" stroke="#E4761B" stroke-linecap="round" stroke-linejoin="round"/>
<path d="M15.954 18.6365L13.4004 17.3936L13.6038 19.0583L13.5812 19.7589L15.954 18.6365Z" fill="#D7C1B3" stroke="#D7C1B3" stroke-linecap="round" stroke-linejoin="round"/>
<path d="M8.04492 18.6365L10.4178 19.7589L10.4027 19.0583L10.5911 17.3936L8.04492 18.6365Z" fill="#D7C1B3" stroke="#D7C1B3" stroke-linecap="round" stroke-linejoin="round"/>
<path d="M10.4563 14.5763L8.33203 13.9511L9.83108 13.2656L10.4563 14.5763Z" fill="#233447" stroke="#233447" stroke-linecap="round" stroke-linejoin="round"/>
<path d="M13.5371 14.5763L14.1623 13.2656L15.6689 13.9511L13.5371 14.5763Z" fill="#233447" stroke="#233447" stroke-linecap="round" stroke-linejoin="round"/>
<path d="M8.04505 18.6365L8.40663 15.5782L6.04883 15.646L8.04505 18.6365Z" fill="#CD6116" stroke="#CD6116" stroke-linecap="round" stroke-linejoin="round"/>
<path d="M15.5938 15.5782L15.9553 18.6365L17.9516 15.646L15.5938 15.5782Z" fill="#CD6116" stroke="#CD6116" stroke-linecap="round" stroke-linejoin="round"/>
<path d="M17.3859 12.2109L13.1523 12.3993L13.5441 14.5763L14.1693 13.2656L15.6759 13.9511L17.3859 12.2109Z" fill="#CD6116" stroke="#CD6116" stroke-linecap="round" stroke-linejoin="round"/>
<path d="M8.33079 13.9511L9.83739 13.2656L10.4551 14.5763L10.8543 12.3993L6.61328 12.2109L8.33079 13.9511Z" fill="#CD6116" stroke="#CD6116" stroke-linecap="round" stroke-linejoin="round"/>
<path d="M6.61328 12.2109L8.39106 15.6761L8.33079 13.951L6.61328 12.2109Z" fill="#E4751F" stroke="#E4751F" stroke-linecap="round" stroke-linejoin="round"/>
<path d="M15.6749 13.951L15.5996 15.6761L17.3849 12.2109L15.6749 13.951Z" fill="#E4751F" stroke="#E4751F" stroke-linecap="round" stroke-linejoin="round"/>
<path d="M10.8543 12.3993L10.4551 14.5763L10.9523 17.1451L11.0652 13.7628L10.8543 12.3993Z" fill="#E4751F" stroke="#E4751F" stroke-linecap="round" stroke-linejoin="round"/>
<path d="M13.1526 12.3993L12.9492 13.7552L13.0396 17.1451L13.5443 14.5763L13.1526 12.3993Z" fill="#E4751F" stroke="#E4751F" stroke-linecap="round" stroke-linejoin="round"/>
<path d="M13.5438 14.5763L13.0391 17.145L13.4006 17.3936L15.6003 15.6761L15.6756 13.951L13.5438 14.5763Z" fill="#F6851B" stroke="#F6851B" stroke-linecap="round" stroke-linejoin="round"/>
<path d="M8.33203 13.951L8.39229 15.6761L10.5919 17.3936L10.9535 17.145L10.4563 14.5763L8.33203 13.951Z" fill="#F6851B" stroke="#F6851B" stroke-linecap="round" stroke-linejoin="round"/>
<path d="M13.5816 19.7589L13.6042 19.0583L13.4159 18.8926H10.576L10.4027 19.0583L10.4178 19.7589L8.04492 18.6365L8.87355 19.3144L10.5534 20.482H13.4385L15.1259 19.3144L15.9545 18.6365L13.5816 19.7589Z" fill="#C0AD9E" stroke="#C0AD9E" stroke-linecap="round" stroke-linejoin="round"/>
<path d="M13.4024 17.3936L13.0408 17.145H10.9542L10.5926 17.3936L10.4043 19.0584L10.5776 18.8927H13.4175L13.6058 19.0584L13.4024 17.3936Z" fill="#161616" stroke="#161616" stroke-linecap="round" stroke-linejoin="round"/>
<path d="M20.9654 8.60263L21.6057 5.52919L20.649 2.67419L13.4023 8.05273L16.1895 10.4105L20.1293 11.5631L21.0031 10.5461L20.6264 10.2749L21.2291 9.72504L20.762 9.36346L21.3647 8.90395L20.9654 8.60263Z" fill="#763D16" stroke="#763D16" stroke-linecap="round" stroke-linejoin="round"/>
<path d="M2.39648 5.52919L3.03679 8.60263L2.63001 8.90395L3.23264 9.36346L2.77313 9.72504L3.37577 10.2749L2.99912 10.5461L3.86541 11.5631L7.80515 10.4105L10.5923 8.05273L3.34564 2.67419L2.39648 5.52919Z" fill="#763D16" stroke="#763D16" stroke-linecap="round" stroke-linejoin="round"/>
<path d="M20.1289 11.5631L16.1891 10.4106L17.3869 12.211L15.6016 15.6761L17.9518 15.646H21.4547L20.1289 11.5631Z" fill="#F6851B" stroke="#F6851B" stroke-linecap="round" stroke-linejoin="round"/>
<path d="M7.80321 10.4106L3.86347 11.5631L2.55273 15.646H6.04803L8.39078 15.6761L6.613 12.211L7.80321 10.4106Z" fill="#F6851B" stroke="#F6851B" stroke-linecap="round" stroke-linejoin="round"/>
<path d="M13.1521 12.3992L13.4007 8.05265L14.5457 4.9566H9.46094L10.5909 8.05265L10.8545 12.3992L10.9449 13.7702L10.9525 17.1449H13.0391L13.0542 13.7702L13.1521 12.3992Z" fill="#F6851B" stroke="#F6851B" stroke-linecap="round" stroke-linejoin="round"/>
</svg>
