<svg width="24" height="24" viewBox="0 0 24 24" fill="none" xmlns="http://www.w3.org/2000/svg">
<path d="M12 24C18.6274 24 24 18.6274 24 12C24 5.37258 18.6274 0 12 0C5.37258 0 0 5.37258 0 12C0 18.6274 5.37258 24 12 24Z" fill="url(#paint0_linear_1438_15303)"/>
<path fill-rule="evenodd" clip-rule="evenodd" d="M8.03847 7.12042C7.46493 7.12042 7 7.58536 7 8.15889V9.36862C7 9.94216 7.46493 10.4071 8.03847 10.4071H9.87577V17.1745C9.87577 17.748 10.3407 18.2129 10.9142 18.2129H12.124C12.6975 18.2129 13.1624 17.748 13.1624 17.1745V9.37742C13.1625 9.37449 13.1625 9.37156 13.1625 9.36862V8.15889C13.1625 7.58536 12.6975 7.12042 12.124 7.12042H10.9142H8.03847Z" fill="white"/>
<path d="M15.6277 10.4071C16.5353 10.4071 17.271 9.67136 17.271 8.76376C17.271 7.85619 16.5353 7.12042 15.6277 7.12042C14.7201 7.12042 13.9844 7.85619 13.9844 8.76376C13.9844 9.67136 14.7201 10.4071 15.6277 10.4071Z" fill="white"/>
<defs>
<linearGradient id="paint0_linear_1438_15303" x1="4" y1="3.16667" x2="19.8333" y2="21.3333" gradientUnits="userSpaceOnUse">
<stop stop-color="#0364FF"/>
<stop offset="1" stop-color="#0016DE"/>
</linearGradient>
</defs>
</svg>
