<svg width="24" height="16" viewBox="0 0 24 16" fill="none" xmlns="http://www.w3.org/2000/svg">
<path d="M4.91401 3.50055C8.82691 -0.330505 15.171 -0.330505 19.0839 3.50055L19.5548 3.96162C19.7504 4.15317 19.7504 4.46374 19.5548 4.65529L17.9439 6.23254C17.846 6.32831 17.6874 6.32831 17.5896 6.23254L16.9416 5.59804C14.2118 2.92541 9.78605 2.92541 7.05632 5.59804L6.36231 6.27753C6.26449 6.37331 6.10589 6.37331 6.00807 6.27753L4.39713 4.70029C4.20149 4.50874 4.20149 4.19817 4.39713 4.00662L4.91401 3.50055ZM22.4154 6.76245L23.8492 8.1662C24.0448 8.35775 24.0448 8.66832 23.8492 8.85987L17.3844 15.1896C17.1887 15.3811 16.8715 15.3811 16.6759 15.1896C16.6759 15.1896 16.6759 15.1896 16.6759 15.1896L12.0875 10.6972C12.0386 10.6493 11.9593 10.6493 11.9104 10.6972C11.9104 10.6972 11.9104 10.6972 11.9104 10.6972L7.32218 15.1896C7.12653 15.3811 6.80933 15.3811 6.61368 15.1896C6.61368 15.1896 6.61368 15.1896 6.61368 15.1896L0.148687 8.85979C-0.0469581 8.66824 -0.0469581 8.35767 0.148687 8.16612L1.58243 6.76237C1.77807 6.57081 2.09527 6.57081 2.29092 6.76237L6.87932 11.2548C6.92823 11.3027 7.00753 11.3027 7.05644 11.2548C7.05644 11.2548 7.05644 11.2548 7.05644 11.2548L11.6446 6.76237C11.8402 6.57081 12.1575 6.5708 12.3531 6.76235C12.3531 6.76235 12.3531 6.76236 12.3531 6.76236L16.9415 11.2548C16.9904 11.3027 17.0697 11.3027 17.1186 11.2548L21.7069 6.76245C21.9026 6.5709 22.2198 6.5709 22.4154 6.76245Z" fill="#3B99FC"/>
</svg>
