<svg width="144" height="111" viewBox="0 0 144 111" fill="none" xmlns="http://www.w3.org/2000/svg">
<mask id="path-1-inside-1_301_35" fill="white">
<path fill-rule="evenodd" clip-rule="evenodd" d="M73.9052 2.29371C71.7633 2.8757 71.063 3.60005 68.7015 7.67589C65.9229 12.4718 65.7089 12.9652 65.7089 14.5783C65.7089 16.3268 66.3895 17.9138 67.6018 18.9922L68.5266 19.8151L62.9622 29.6196C59.9016 35.0124 57.3704 39.4518 57.3375 39.4853C57.3044 39.5187 56.9288 39.3988 56.5031 39.2191C54.5807 38.4075 51.7107 39.0605 50.2224 40.6482C49.1835 41.7566 45.7431 47.8288 45.4468 49.0772C44.988 51.0098 45.6747 53.5266 47.0182 54.8374C47.7504 55.5516 68.3669 67.7427 69.6102 68.1963C70.6538 68.5774 72.128 68.5521 73.3465 68.1326C74.9581 67.5776 76.1111 66.2289 78.4906 62.1155L80.6148 58.443L80.5977 56.8228C80.5761 54.7964 79.9519 53.2198 78.7777 52.2256L77.9562 51.53L82.2487 44.185C84.6095 40.1452 87.2036 35.7062 88.0132 34.3204L89.4852 31.8008L90.6102 32.1035C91.2291 32.2701 92.085 32.4075 92.5124 32.4088C93.7405 32.4129 95.4297 31.7566 96.3557 30.9156C97.5477 29.8335 101.354 23.0687 101.689 21.4368C101.983 20.0058 101.844 18.4707 101.318 17.3435C100.493 15.5759 99.3735 14.8088 88.3877 8.48535C76.4074 1.58924 76.4425 1.60414 73.9052 2.29371ZM93.4217 39.1636L92.3289 39.3751L85.6303 50.9811L86.1194 51.9537C86.5976 52.9046 86.9535 53.1317 102.105 62.1501C112.268 68.1994 118.116 71.5545 119.098 71.8989C120.356 72.3404 120.884 72.4093 122.411 72.3311C125.543 72.1709 127.807 70.6818 129.293 67.804C129.962 66.5091 130 66.3149 130 64.1678C130 62.1038 129.946 61.7966 129.405 60.758C129.078 60.1302 128.445 59.2553 128 58.8137C127.518 58.3363 120.627 54.1591 110.994 48.5056C102.086 43.2777 94.7339 38.9895 94.656 38.9761C94.578 38.9629 94.0226 39.0471 93.4217 39.1636ZM53.7913 90.5496C52.619 91.0206 51.97 92.0649 48.5077 99.0511C44.6868 106.761 44.5716 107.119 45.4489 108.553C45.6995 108.963 46.3021 109.485 46.8123 109.735C47.7213 110.179 47.8805 110.182 72.5102 110.182C95.6783 110.182 97.3418 110.157 98.0372 109.804C99.1127 109.258 99.7517 108.184 99.7517 106.921C99.7517 106.013 99.3162 105.003 96.2493 98.7981C94.3228 94.9005 92.5192 91.4993 92.2411 91.2401C91.9628 90.9806 91.4645 90.6645 91.1336 90.538C90.3315 90.2308 54.5568 90.242 53.7913 90.5496Z"/>
</mask>
<path fill-rule="evenodd" clip-rule="evenodd" d="M73.9052 2.29371C71.7633 2.8757 71.063 3.60005 68.7015 7.67589C65.9229 12.4718 65.7089 12.9652 65.7089 14.5783C65.7089 16.3268 66.3895 17.9138 67.6018 18.9922L68.5266 19.8151L62.9622 29.6196C59.9016 35.0124 57.3704 39.4518 57.3375 39.4853C57.3044 39.5187 56.9288 39.3988 56.5031 39.2191C54.5807 38.4075 51.7107 39.0605 50.2224 40.6482C49.1835 41.7566 45.7431 47.8288 45.4468 49.0772C44.988 51.0098 45.6747 53.5266 47.0182 54.8374C47.7504 55.5516 68.3669 67.7427 69.6102 68.1963C70.6538 68.5774 72.128 68.5521 73.3465 68.1326C74.9581 67.5776 76.1111 66.2289 78.4906 62.1155L80.6148 58.443L80.5977 56.8228C80.5761 54.7964 79.9519 53.2198 78.7777 52.2256L77.9562 51.53L82.2487 44.185C84.6095 40.1452 87.2036 35.7062 88.0132 34.3204L89.4852 31.8008L90.6102 32.1035C91.2291 32.2701 92.085 32.4075 92.5124 32.4088C93.7405 32.4129 95.4297 31.7566 96.3557 30.9156C97.5477 29.8335 101.354 23.0687 101.689 21.4368C101.983 20.0058 101.844 18.4707 101.318 17.3435C100.493 15.5759 99.3735 14.8088 88.3877 8.48535C76.4074 1.58924 76.4425 1.60414 73.9052 2.29371ZM93.4217 39.1636L92.3289 39.3751L85.6303 50.9811L86.1194 51.9537C86.5976 52.9046 86.9535 53.1317 102.105 62.1501C112.268 68.1994 118.116 71.5545 119.098 71.8989C120.356 72.3404 120.884 72.4093 122.411 72.3311C125.543 72.1709 127.807 70.6818 129.293 67.804C129.962 66.5091 130 66.3149 130 64.1678C130 62.1038 129.946 61.7966 129.405 60.758C129.078 60.1302 128.445 59.2553 128 58.8137C127.518 58.3363 120.627 54.1591 110.994 48.5056C102.086 43.2777 94.7339 38.9895 94.656 38.9761C94.578 38.9629 94.0226 39.0471 93.4217 39.1636ZM53.7913 90.5496C52.619 91.0206 51.97 92.0649 48.5077 99.0511C44.6868 106.761 44.5716 107.119 45.4489 108.553C45.6995 108.963 46.3021 109.485 46.8123 109.735C47.7213 110.179 47.8805 110.182 72.5102 110.182C95.6783 110.182 97.3418 110.157 98.0372 109.804C99.1127 109.258 99.7517 108.184 99.7517 106.921C99.7517 106.013 99.3162 105.003 96.2493 98.7981C94.3228 94.9005 92.5192 91.4993 92.2411 91.2401C91.9628 90.9806 91.4645 90.6645 91.1336 90.538C90.3315 90.2308 54.5568 90.242 53.7913 90.5496Z" fill="#F5BAFF"/>
<path fill-rule="evenodd" clip-rule="evenodd" d="M73.9052 2.29371C71.7633 2.8757 71.063 3.60005 68.7015 7.67589C65.9229 12.4718 65.7089 12.9652 65.7089 14.5783C65.7089 16.3268 66.3895 17.9138 67.6018 18.9922L68.5266 19.8151L62.9622 29.6196C59.9016 35.0124 57.3704 39.4518 57.3375 39.4853C57.3044 39.5187 56.9288 39.3988 56.5031 39.2191C54.5807 38.4075 51.7107 39.0605 50.2224 40.6482C49.1835 41.7566 45.7431 47.8288 45.4468 49.0772C44.988 51.0098 45.6747 53.5266 47.0182 54.8374C47.7504 55.5516 68.3669 67.7427 69.6102 68.1963C70.6538 68.5774 72.128 68.5521 73.3465 68.1326C74.9581 67.5776 76.1111 66.2289 78.4906 62.1155L80.6148 58.443L80.5977 56.8228C80.5761 54.7964 79.9519 53.2198 78.7777 52.2256L77.9562 51.53L82.2487 44.185C84.6095 40.1452 87.2036 35.7062 88.0132 34.3204L89.4852 31.8008L90.6102 32.1035C91.2291 32.2701 92.085 32.4075 92.5124 32.4088C93.7405 32.4129 95.4297 31.7566 96.3557 30.9156C97.5477 29.8335 101.354 23.0687 101.689 21.4368C101.983 20.0058 101.844 18.4707 101.318 17.3435C100.493 15.5759 99.3735 14.8088 88.3877 8.48535C76.4074 1.58924 76.4425 1.60414 73.9052 2.29371ZM93.4217 39.1636L92.3289 39.3751L85.6303 50.9811L86.1194 51.9537C86.5976 52.9046 86.9535 53.1317 102.105 62.1501C112.268 68.1994 118.116 71.5545 119.098 71.8989C120.356 72.3404 120.884 72.4093 122.411 72.3311C125.543 72.1709 127.807 70.6818 129.293 67.804C129.962 66.5091 130 66.3149 130 64.1678C130 62.1038 129.946 61.7966 129.405 60.758C129.078 60.1302 128.445 59.2553 128 58.8137C127.518 58.3363 120.627 54.1591 110.994 48.5056C102.086 43.2777 94.7339 38.9895 94.656 38.9761C94.578 38.9629 94.0226 39.0471 93.4217 39.1636ZM53.7913 90.5496C52.619 91.0206 51.97 92.0649 48.5077 99.0511C44.6868 106.761 44.5716 107.119 45.4489 108.553C45.6995 108.963 46.3021 109.485 46.8123 109.735C47.7213 110.179 47.8805 110.182 72.5102 110.182C95.6783 110.182 97.3418 110.157 98.0372 109.804C99.1127 109.258 99.7517 108.184 99.7517 106.921C99.7517 106.013 99.3162 105.003 96.2493 98.7981C94.3228 94.9005 92.5192 91.4993 92.2411 91.2401C91.9628 90.9806 91.4645 90.6645 91.1336 90.538C90.3315 90.2308 54.5568 90.242 53.7913 90.5496Z" fill="url(#paint0_linear_301_35)"/>
<path d="M73.9052 2.29371L75.3473 7.60129L75.3477 7.60119L73.9052 2.29371ZM68.7015 7.67589L63.9425 4.91861L63.9425 4.91869L68.7015 7.67589ZM67.6018 18.9922L71.2579 14.8833L71.2574 14.8829L67.6018 18.9922ZM68.5266 19.8151L73.3099 22.5298L75.5049 18.6623L72.1827 15.7062L68.5266 19.8151ZM62.9622 29.6196L58.1788 26.9049L58.1788 26.9049L62.9622 29.6196ZM57.3375 39.4853L61.247 43.3538L61.2532 43.3475L61.2595 43.3412L57.3375 39.4853ZM56.5031 39.2191L58.6428 34.1524L58.6423 34.1522L56.5031 39.2191ZM50.2224 40.6482L46.2098 36.8866L46.2095 36.887L50.2224 40.6482ZM45.4468 49.0772L50.7981 50.3475L50.7981 50.3472L45.4468 49.0772ZM47.0182 54.8374L43.1773 58.7741L43.1777 58.7745L47.0182 54.8374ZM69.6102 68.1963L71.4967 63.03L71.4955 63.0296L69.6102 68.1963ZM73.3465 68.1326L75.137 73.333L75.1373 73.3329L73.3465 68.1326ZM78.4906 62.1155L83.2514 64.8695L83.2515 64.8693L78.4906 62.1155ZM80.6148 58.443L85.3758 61.1968L86.1304 59.8921L86.1145 58.3849L80.6148 58.443ZM80.5977 56.8228L86.0974 56.7647L86.0974 56.7642L80.5977 56.8228ZM78.7777 52.2256L75.2235 56.423L75.2238 56.4232L78.7777 52.2256ZM77.9562 51.53L73.2076 48.7549L70.8771 52.7427L74.402 55.7274L77.9562 51.53ZM82.2487 44.185L86.9972 46.9601L86.9972 46.9601L82.2487 44.185ZM88.0132 34.3204L83.2642 31.5459L83.2641 31.5462L88.0132 34.3204ZM89.4852 31.8008L90.914 26.4897L86.856 25.398L84.7363 29.0264L89.4852 31.8008ZM90.6102 32.1035L92.0396 26.7925L92.039 26.7923L90.6102 32.1035ZM92.5124 32.4088L92.5307 26.9088L92.529 26.9088L92.5124 32.4088ZM96.3557 30.9156L92.6589 26.8433L92.6581 26.844L96.3557 30.9156ZM101.689 21.4368L96.3015 20.3294L96.3013 20.3302L101.689 21.4368ZM101.318 17.3435L96.3333 19.6685L96.3338 19.6695L101.318 17.3435ZM88.3877 8.48535L85.6439 13.2521L85.644 13.2521L88.3877 8.48535ZM93.4217 39.1636L94.4668 44.5634L94.468 44.5632L93.4217 39.1636ZM92.3289 39.3751L91.2839 33.9753L88.82 34.4521L87.5654 36.6257L92.3289 39.3751ZM85.6303 50.9811L80.8668 48.2317L79.3836 50.8014L80.7166 53.4522L85.6303 50.9811ZM86.1194 51.9537L91.0331 49.4828L91.033 49.4826L86.1194 51.9537ZM102.105 62.1501L99.2917 66.8762L99.2918 66.8763L102.105 62.1501ZM119.098 71.8989L120.92 66.7094L120.919 66.7091L119.098 71.8989ZM122.411 72.3311L122.13 66.8383L122.13 66.8383L122.411 72.3311ZM129.293 67.804L134.18 70.3283L134.18 70.3282L129.293 67.804ZM129.405 60.758L134.282 58.2155L134.282 58.2154L129.405 60.758ZM128 58.8137L131.873 54.9084L131.872 54.9076L128 58.8137ZM110.994 48.5056L108.21 53.249L108.21 53.2491L110.994 48.5056ZM94.656 38.9761L95.589 33.5558L95.5805 33.5543L95.572 33.5529L94.656 38.9761ZM53.7913 90.5496L55.8415 95.6532L55.8421 95.653L53.7913 90.5496ZM48.5077 99.0511L53.4358 101.493L53.4358 101.493L48.5077 99.0511ZM45.4489 108.553L40.7569 111.423L40.757 111.423L45.4489 108.553ZM46.8123 109.735L44.3946 114.675L44.3957 114.675L46.8123 109.735ZM72.5102 110.182L72.5101 104.682L72.5101 104.682L72.5102 110.182ZM98.0372 109.804L95.5478 104.899L95.5465 104.9L98.0372 109.804ZM96.2493 98.7981L101.18 96.3611L101.18 96.361L96.2493 98.7981ZM92.2411 91.2401L88.4908 95.2632L88.4909 95.2633L92.2411 91.2401ZM91.1336 90.538L89.1664 95.6741L89.1684 95.6749L91.1336 90.538ZM72.4631 -3.01386C70.8151 -2.56608 69.0874 -1.86094 67.4316 -0.148395C66.1475 1.17975 65.064 2.98307 63.9425 4.91861L73.4604 10.4332C74.0385 9.43546 74.4573 8.74355 74.7931 8.2372C75.1312 7.72745 75.2969 7.54192 75.3398 7.4976C75.3399 7.49747 75.2426 7.5893 75.0909 7.66948C74.9868 7.72451 74.997 7.69647 75.3473 7.60129L72.4631 -3.01386ZM63.9425 4.91869C62.6221 7.19776 61.6754 8.84497 61.1171 10.1328C60.3491 11.9041 60.2089 13.2105 60.2089 14.5783H71.2089C71.2089 14.2808 71.2224 14.3383 71.1965 14.4805C71.1664 14.6453 71.13 14.6915 71.2094 14.5084C71.4526 13.9473 72.0023 12.9499 73.4604 10.4331L63.9425 4.91869ZM60.2089 14.5783C60.2089 17.76 61.462 20.8916 63.9462 23.1015L71.2574 14.8829C71.2759 14.8993 71.2705 14.9036 71.2555 14.8687C71.2396 14.8317 71.2089 14.7384 71.2089 14.5783H60.2089ZM63.9457 23.1011L64.8705 23.9239L72.1827 15.7062L71.2579 14.8833L63.9457 23.1011ZM63.7433 17.1003L58.1788 26.9049L67.7455 32.3343L73.3099 22.5298L63.7433 17.1003ZM58.1788 26.9049C56.6498 29.5991 55.2537 32.0539 54.2365 33.838C53.7275 34.7307 53.3152 35.4525 53.0289 35.9515C52.8852 36.2021 52.7767 36.3905 52.7049 36.5143C52.6679 36.5782 52.6471 36.6138 52.6383 36.6286C52.6321 36.639 52.6411 36.6236 52.6579 36.5962C52.664 36.5863 52.6904 36.5432 52.7269 36.4869C52.7434 36.4615 52.7846 36.3983 52.8403 36.3191C52.8679 36.2799 52.9185 36.209 52.9852 36.1227C53.0286 36.0664 53.1855 35.8633 53.4155 35.6294L61.2595 43.3412C61.4897 43.1069 61.6469 42.9035 61.6908 42.8467C61.7579 42.7598 61.809 42.6882 61.8371 42.6482C61.894 42.5674 61.9366 42.5021 61.9548 42.4741C61.9948 42.4124 62.0258 42.3619 62.0378 42.3424C62.0662 42.2959 62.0917 42.2531 62.1066 42.2278C62.1401 42.1712 62.18 42.1028 62.2213 42.0315C62.3061 41.8851 62.4248 41.679 62.5708 41.4245C62.864 40.9132 63.2819 40.1817 63.7925 39.2863C64.8142 37.4942 66.214 35.0329 67.7455 32.3343L58.1788 26.9049ZM53.428 35.6167C54.56 34.4727 55.8322 34.1783 56.2683 34.0927C56.8187 33.9847 57.2621 33.987 57.4733 33.9932C57.9103 34.0063 58.2386 34.0712 58.3356 34.0907C58.5802 34.1398 58.7383 34.1921 58.7393 34.1924C58.7853 34.2071 58.7451 34.1956 58.6428 34.1524L54.3635 44.2858C54.6868 44.4224 55.0472 44.5607 55.3957 44.6719C55.5479 44.7205 55.8328 44.8077 56.1704 44.8755C56.314 44.9043 56.6803 44.9745 57.1459 44.9884C57.3713 44.9951 57.8266 44.9967 58.3864 44.8868C58.8318 44.7994 60.1108 44.502 61.247 43.3538L53.428 35.6167ZM58.6423 34.1522C56.3664 33.1913 53.9447 33.2239 51.9797 33.671C49.9994 34.1216 47.8526 35.1342 46.2098 36.8866L54.235 44.4097C54.1846 44.4634 54.1489 44.4915 54.1371 44.5003C54.1252 44.5093 54.1299 44.5044 54.1544 44.4913C54.1787 44.4783 54.2154 44.461 54.2638 44.4431C54.312 44.4253 54.3651 44.4094 54.4202 44.3968C54.4753 44.3843 54.5256 44.3767 54.5679 44.3728C54.6104 44.3689 54.6369 44.3694 54.6457 44.3699C54.6548 44.3703 54.6365 44.3702 54.5928 44.3609C54.5492 44.3516 54.4701 44.3308 54.3639 44.286L58.6423 34.1522ZM46.2095 36.887C45.5451 37.5958 44.8788 38.6131 44.4377 39.3071C43.9031 40.1483 43.3181 41.1329 42.7708 42.099C42.2241 43.0639 41.6855 44.0622 41.2509 44.933C40.9326 45.5706 40.3429 46.7646 40.0954 47.8072L50.7981 50.3472C50.7163 50.6922 50.6344 50.8353 50.7423 50.5859C50.8131 50.4222 50.9285 50.175 51.0929 49.8457C51.4191 49.1922 51.8611 48.3691 52.3414 47.5214C52.8211 46.6748 53.3095 45.8555 53.7214 45.2074C54.2269 44.4121 54.3803 44.2547 54.2353 44.4093L46.2095 36.887ZM40.0955 47.807C39.6154 49.8292 39.7736 51.8896 40.2505 53.638C40.7231 55.3701 41.6405 57.2747 43.1773 58.7741L50.8591 50.9008C50.9763 51.0151 50.9967 51.0718 50.9679 51.019C50.9418 50.9712 50.8991 50.8762 50.8627 50.7429C50.8266 50.6105 50.8093 50.4864 50.8056 50.3913C50.8017 50.2925 50.8142 50.2795 50.7981 50.3475L40.0955 47.807ZM43.1777 58.7745C43.6604 59.2454 44.2652 59.6343 44.3124 59.666C44.5646 59.8354 44.8725 60.0338 45.2073 60.2456C45.8838 60.6737 46.7859 61.2296 47.8235 61.8609C49.905 63.1274 52.6107 64.745 55.3231 66.3488C58.0356 67.9528 60.773 69.5538 62.9181 70.7866C63.9879 71.4015 64.9285 71.9351 65.6518 72.335C66.0109 72.5334 66.3408 72.7124 66.6177 72.8567C66.7699 72.9361 67.2484 73.1893 67.7249 73.3631L71.4955 63.0296C71.8165 63.1467 71.9883 63.2515 71.7016 63.102C71.5395 63.0176 71.2983 62.8874 70.9732 62.7078C70.3283 62.3513 69.4484 61.8525 68.3992 61.2495C66.3062 60.0466 63.6105 58.4701 60.922 56.8803C58.2333 55.2905 55.5699 53.6981 53.541 52.4636C52.5235 51.8445 51.685 51.3273 51.0891 50.9502C50.7876 50.7595 50.5763 50.6223 50.4454 50.5344C50.1096 50.3088 50.4675 50.5188 50.8587 50.9004L43.1777 58.7745ZM67.7237 73.3627C70.1381 74.2443 72.9261 74.0942 75.137 73.333L71.5559 62.9322C71.5565 62.932 71.549 62.9346 71.5337 62.9385C71.5184 62.9423 71.498 62.9468 71.4733 62.951C71.4216 62.9598 71.3673 62.9647 71.3188 62.9655C71.2958 62.9659 71.2782 62.9653 71.2669 62.9646C71.2555 62.9639 71.2539 62.9633 71.2624 62.9646C71.2706 62.9658 71.2936 62.9695 71.3303 62.9785C71.3667 62.9874 71.4232 63.0031 71.4967 63.03L67.7237 73.3627ZM75.1373 73.3329C78.9849 72.0079 81.0484 68.6779 83.2514 64.8695L73.7298 59.3615C72.5518 61.3979 71.8822 62.379 71.4501 62.8845C71.2664 63.0994 71.211 63.1245 71.2741 63.0789C71.3595 63.0172 71.471 62.9614 71.5557 62.9323L75.1373 73.3329ZM83.2515 64.8693L85.3758 61.1968L75.8539 55.6892L73.7296 59.3617L83.2515 64.8693ZM86.1145 58.3849L86.0974 56.7647L75.098 56.8808L75.1151 58.501L86.1145 58.3849ZM86.0974 56.7642C86.0645 53.6789 85.0824 50.3571 82.3316 48.0281L75.2238 56.4232C75.1501 56.3608 75.0923 56.2948 75.0519 56.2371C75.0125 56.1809 75.0015 56.1499 75.0061 56.1617C75.0182 56.1921 75.093 56.4055 75.098 56.8814L86.0974 56.7642ZM82.3318 48.0283L81.5103 47.3326L74.402 55.7274L75.2235 56.423L82.3318 48.0283ZM82.7047 54.3051L86.9972 46.9601L77.5001 41.4099L73.2076 48.7549L82.7047 54.3051ZM86.9972 46.9601C89.3579 42.9206 91.9524 38.481 92.7622 37.0946L83.2641 31.5462C82.4549 32.9315 79.8611 37.3699 77.5001 41.4099L86.9972 46.9601ZM92.7621 37.0949L94.2341 34.5753L84.7363 29.0264L83.2642 31.5459L92.7621 37.0949ZM88.0564 37.112L89.1815 37.4147L92.039 26.7923L90.914 26.4897L88.0564 37.112ZM89.1808 37.4145C90.0549 37.6498 91.4171 37.9055 92.4957 37.9087L92.529 26.9088C92.6138 26.909 92.6691 26.9123 92.6857 26.9134C92.7054 26.9147 92.7085 26.9153 92.6932 26.9137C92.6605 26.9103 92.5957 26.9022 92.5047 26.8876C92.4159 26.8733 92.3218 26.856 92.2327 26.8374C92.1416 26.8184 92.0757 26.8022 92.0396 26.7925L89.1808 37.4145ZM92.494 37.9087C93.9866 37.9137 95.4128 37.5433 96.5391 37.1057C97.6705 36.6662 98.9606 35.9795 100.053 34.9871L92.6581 26.844C92.7165 26.791 92.756 26.7618 92.7693 26.7522C92.7834 26.7421 92.7822 26.744 92.7637 26.7548C92.7456 26.7653 92.7174 26.7807 92.6796 26.7988C92.642 26.8168 92.6 26.8351 92.5555 26.8524C92.511 26.8697 92.4686 26.8842 92.4305 26.8957C92.3923 26.9073 92.364 26.9142 92.3476 26.9177C92.3307 26.9213 92.3342 26.9197 92.3586 26.9169C92.3819 26.9142 92.4403 26.9085 92.5307 26.9088L92.494 37.9087ZM100.053 34.9878C100.956 34.1673 101.778 32.9381 102.251 32.2127C102.863 31.2754 103.523 30.17 104.137 29.0793C104.751 27.9882 105.354 26.8475 105.84 25.8336C106.226 25.0294 106.836 23.7139 107.076 22.5434L96.3013 20.3302C96.3626 20.0318 96.42 19.9422 96.3117 20.2106C96.2314 20.4098 96.1033 20.6991 95.9231 21.0746C95.5645 21.822 95.0787 22.746 94.5502 23.6855C94.0215 24.6252 93.4862 25.5158 93.0384 26.2023C92.8131 26.5475 92.6364 26.8004 92.5134 26.9644C92.3406 27.1948 92.4054 27.0734 92.6589 26.8433L100.053 34.9878ZM107.076 22.5442C107.565 20.1641 107.411 17.3944 106.302 15.0174L96.3338 19.6695C96.3041 19.6058 96.3011 19.5831 96.308 19.6104C96.3146 19.6362 96.3259 19.6911 96.3333 19.7728C96.3491 19.9462 96.3389 20.1472 96.3015 20.3294L107.076 22.5442ZM106.302 15.0184C105.918 14.1958 105.395 13.2901 104.509 12.3438C103.72 11.5008 102.786 10.7802 101.772 10.0855C99.7939 8.73056 96.5394 6.83142 91.1314 3.7186L85.644 13.2521C91.2218 16.4627 94.0201 18.1088 95.5547 19.1602C96.2969 19.6687 96.4837 19.8664 96.4796 19.862C96.3788 19.7544 96.3048 19.6074 96.3333 19.6685L106.302 15.0184ZM91.1315 3.71865C85.3439 0.387179 81.9605 -1.57469 79.7674 -2.5123C78.55 -3.03279 77.1948 -3.47187 75.6492 -3.4987C74.188 -3.52405 72.9435 -3.14442 72.4628 -3.01376L75.3477 7.60119C76.1356 7.38705 75.8382 7.50624 75.4584 7.49965C74.9942 7.49159 74.8547 7.35049 75.4432 7.6021C76.862 8.20867 79.4512 9.68741 85.6439 13.2521L91.1315 3.71865ZM92.3767 33.7638L91.2839 33.9753L93.374 44.7749L94.4668 44.5634L92.3767 33.7638ZM80.7166 53.4522L81.2057 54.4247L91.033 49.4826L90.5439 48.51L80.7166 53.4522ZM81.2057 54.4246C81.5703 55.1496 82.0823 55.9557 83.0613 56.8145C83.7461 57.4152 84.6289 58.011 85.6519 58.6636C87.7869 60.0254 91.7661 62.3968 99.2917 66.8762L104.918 57.4239C97.2922 52.885 93.5178 50.6337 91.5674 49.3896C90.5478 48.7392 90.305 48.5363 90.3151 48.5452C90.3691 48.5925 90.5432 48.7533 90.7411 49.0205C90.9397 49.2884 91.0493 49.5149 91.0331 49.4828L81.2057 54.4246ZM99.2918 66.8763C104.383 69.9064 108.415 72.2748 111.308 73.9345C112.751 74.7625 113.936 75.4288 114.839 75.9177C115.558 76.3069 116.53 76.8267 117.277 77.0887L120.919 66.7091C121.175 66.7989 121.048 66.7701 120.076 66.2443C119.289 65.8182 118.193 65.2031 116.782 64.3932C113.964 62.7768 109.991 60.4431 104.918 57.4239L99.2918 66.8763ZM117.276 77.0884C118.034 77.3544 118.9 77.6278 119.942 77.7637C120.939 77.8937 121.864 77.8664 122.692 77.824L122.13 66.8383C121.431 66.8741 121.329 66.8514 121.365 66.8561C121.446 66.8668 121.42 66.8849 120.92 66.7094L117.276 77.0884ZM122.692 77.824C125.085 77.7015 127.414 77.0486 129.492 75.6816C131.561 74.3205 133.085 72.4468 134.18 70.3283L124.407 65.2798C124.015 66.0389 123.664 66.3487 123.447 66.4916C123.238 66.6287 122.869 66.8005 122.13 66.8383L122.692 77.824ZM134.18 70.3282C134.503 69.7029 135.036 68.6963 135.296 67.3549C135.512 66.2467 135.5 65.0742 135.5 64.1678H124.5C124.5 64.7158 124.497 65.0224 124.488 65.2337C124.48 65.4305 124.472 65.3935 124.499 65.2561C124.533 65.0781 124.586 64.9321 124.61 64.873C124.615 64.8611 124.607 64.8813 124.572 64.9539C124.535 65.0286 124.485 65.1278 124.407 65.2798L134.18 70.3282ZM135.5 64.1678C135.5 63.2493 135.502 62.1551 135.324 61.1327C135.095 59.8205 134.629 58.8813 134.282 58.2155L124.528 63.3005C124.642 63.5197 124.635 63.5219 124.606 63.4457C124.586 63.3957 124.561 63.3254 124.537 63.2407C124.513 63.1559 124.497 63.0813 124.487 63.0241C124.47 62.9241 124.479 62.9222 124.488 63.1315C124.496 63.3462 124.5 63.6555 124.5 64.1678H135.5ZM134.282 58.2154C133.725 57.1475 132.769 55.7969 131.873 54.9084L124.127 62.7191C124.071 62.6629 124.068 62.6545 124.119 62.716C124.163 62.7691 124.222 62.8452 124.289 62.9374C124.355 63.0289 124.415 63.1183 124.464 63.1948C124.515 63.2762 124.534 63.3123 124.528 63.3005L134.282 58.2154ZM131.872 54.9076C131.366 54.4063 130.716 53.9831 130.603 53.9065C130.284 53.6918 129.887 53.4347 129.436 53.1494C128.528 52.5745 127.285 51.8098 125.78 50.8973C122.763 49.0684 118.607 46.5965 113.778 43.7621L108.21 53.2491C113.014 56.0683 117.121 58.5117 120.078 60.3041C121.56 61.2023 122.732 61.9247 123.553 62.4439C123.966 62.7058 124.261 62.8975 124.45 63.0247C124.843 63.29 124.513 63.1017 124.128 62.7198L131.872 54.9076ZM113.778 43.7622C109.321 41.1465 105.251 38.7648 102.285 37.0345C100.802 36.1698 99.591 35.4653 98.7431 34.9748C98.3207 34.7304 97.9801 34.5343 97.7386 34.3967C97.6206 34.3294 97.5104 34.267 97.4207 34.2173C97.3802 34.1949 97.3157 34.1594 97.2461 34.1227C97.2168 34.1073 97.1427 34.0685 97.05 34.0238C97.0078 34.0035 96.9095 33.9567 96.7825 33.9035C96.7195 33.8772 96.6062 33.831 96.462 33.781C96.3651 33.7473 96.0321 33.6321 95.589 33.5558L93.723 44.3964C93.2806 44.3202 92.9484 44.2052 92.8526 44.1719C92.7094 44.1222 92.5974 44.0765 92.5359 44.0508C92.4119 43.9989 92.3175 43.9538 92.28 43.9358C92.1967 43.8957 92.1357 43.8636 92.1228 43.8568C92.0861 43.8375 92.0685 43.8274 92.0883 43.8384C92.1192 43.8555 92.1836 43.8918 92.2915 43.9533C92.5017 44.0731 92.8179 44.2551 93.2349 44.4963C94.0658 44.977 95.2639 45.6738 96.7426 46.5363C99.6985 48.2604 103.759 50.6368 108.21 53.249L113.778 43.7622ZM95.572 33.5529C95.1448 33.4807 94.8028 33.476 94.6866 33.475C94.5264 33.4735 94.3944 33.479 94.3125 33.4834C94.148 33.4921 94.0073 33.5062 93.921 33.5156C93.7395 33.5353 93.5586 33.5609 93.4093 33.5836C93.0988 33.6307 92.7351 33.6943 92.3754 33.764L94.468 44.5632C94.7093 44.5164 94.9237 44.4797 95.0607 44.4589C95.135 44.4476 95.1452 44.4473 95.1085 44.4513C95.0947 44.4528 95.0148 44.4616 94.898 44.4678C94.8399 44.4709 94.7284 44.4758 94.5852 44.4745C94.5116 44.4738 94.4074 44.4713 94.282 44.463C94.1641 44.4551 93.9733 44.4387 93.7401 44.3993L95.572 33.5529ZM51.741 85.446C49.5929 86.309 48.3544 87.8167 47.3369 89.454C46.4251 90.921 45.2698 93.1986 43.5797 96.6088L53.4358 101.493C55.2079 97.9174 56.1082 96.1797 56.6796 95.2603C56.95 94.8251 56.9783 94.8558 56.8011 95.0288C56.5153 95.3079 56.1484 95.5299 55.8415 95.6532L51.741 85.446ZM43.5797 96.6088C41.7801 100.24 40.538 102.74 39.9811 104.47C39.6638 105.456 39.3489 106.807 39.5792 108.356C39.8089 109.902 40.5076 111.015 40.7569 111.423L50.1409 105.684C49.9516 105.374 50.3357 105.905 50.4597 106.739C50.5842 107.577 50.3725 108.088 50.4519 107.841C50.5358 107.58 50.7519 107.036 51.2746 105.921C51.7789 104.845 52.4746 103.433 53.4358 101.493L43.5797 96.6088ZM40.757 111.423C41.2867 112.289 41.9523 112.945 42.4315 113.361C42.9435 113.804 43.6147 114.293 44.3946 114.675L49.2301 104.795C49.386 104.871 49.4835 104.935 49.526 104.964C49.5732 104.996 49.6071 105.023 49.635 105.047C49.6615 105.07 49.7107 105.115 49.7786 105.19C49.8359 105.254 49.9783 105.418 50.1408 105.683L40.757 111.423ZM44.3957 114.675C44.5469 114.749 44.9775 114.964 45.5596 115.141C46.1118 115.31 46.6331 115.398 47.0977 115.454C47.9389 115.554 49.0764 115.597 50.6703 115.624C53.9645 115.682 60.2308 115.682 72.5103 115.682L72.5101 104.682C60.1599 104.682 54.0318 104.681 50.8617 104.626C49.2235 104.598 48.6114 104.556 48.3974 104.531C48.3344 104.523 48.5017 104.538 48.775 104.622C49.0782 104.715 49.3051 104.831 49.2289 104.794L44.3957 114.675ZM72.5102 115.682C84.0709 115.682 90.3319 115.676 93.7824 115.625C95.4771 115.599 96.6481 115.562 97.4759 115.492C98.2707 115.425 99.3775 115.292 100.528 114.707L95.5465 104.9C96.3493 104.492 96.9873 104.494 96.5506 104.531C96.1469 104.565 95.3237 104.601 93.6195 104.626C90.2724 104.675 84.1175 104.682 72.5101 104.682L72.5102 115.682ZM100.527 114.708C103.555 113.171 105.252 110.133 105.252 106.921H94.2517C94.2517 106.616 94.3324 106.22 94.5707 105.82C94.8117 105.414 95.1611 105.096 95.5478 104.899L100.527 114.708ZM105.252 106.921C105.252 105.296 104.757 103.958 104.201 102.669C103.64 101.367 102.691 99.4189 101.18 96.3611L91.3187 101.235C92.8742 104.382 93.6768 106.042 94.1 107.024C94.5285 108.017 94.2517 107.639 94.2517 106.921H105.252ZM101.18 96.361C100.199 94.3764 99.2422 92.5038 98.4861 91.0779C98.1107 90.37 97.7675 89.7398 97.4869 89.2495C97.3495 89.0096 97.2012 88.7578 97.0563 88.5297C96.9853 88.418 96.8865 88.2667 96.7698 88.1051C96.7112 88.0239 96.4265 87.6226 95.9912 87.2168L88.4909 95.2633C88.0904 94.8899 87.8524 94.5456 87.8517 94.5446C87.793 94.4632 87.7633 94.4153 87.772 94.429C87.7865 94.4518 87.8398 94.5387 87.9407 94.715C88.1366 95.0572 88.4169 95.5695 88.768 96.2315C89.4648 97.5454 90.3731 99.3222 91.3187 101.235L101.18 96.361ZM95.9914 87.2169C95.2354 86.5123 94.1403 85.7995 93.0987 85.401L89.1684 95.6749C88.9887 95.6061 88.8755 95.5475 88.8409 95.5292C88.7961 95.5056 88.7717 95.4904 88.7619 95.4842C88.7517 95.4777 88.7331 95.4656 88.7026 95.4428C88.6783 95.4246 88.601 95.3658 88.4908 95.2632L95.9914 87.2169ZM93.1007 85.4018C92.5067 85.1743 91.9891 85.1007 91.9305 85.0914C91.7526 85.0633 91.5971 85.0464 91.4967 85.0365C91.2893 85.0161 91.075 85.0023 90.8902 84.9923C90.5082 84.9714 90.0232 84.9543 89.4784 84.9396C88.3772 84.9099 86.8761 84.886 85.1271 84.8672C81.6213 84.8296 77.0286 84.8118 72.447 84.8132C67.8654 84.8147 63.275 84.8354 59.7736 84.8752C58.027 84.895 56.5285 84.9199 55.4305 84.9503C54.8875 84.9653 54.4037 84.9827 54.0229 85.0039C53.839 85.0141 53.6238 85.0281 53.4151 85.0491C53.3146 85.0591 53.1557 85.0766 52.9733 85.1062C52.9242 85.1141 52.3702 85.1932 51.7404 85.4463L55.8421 95.653C55.4725 95.8015 55.1717 95.874 55.0566 95.9006C54.9103 95.9345 54.7948 95.9545 54.7317 95.9647C54.607 95.9849 54.5222 95.9932 54.5118 95.9943C54.4834 95.9971 54.5127 95.9936 54.6331 95.987C54.8608 95.9743 55.2249 95.9602 55.7349 95.9461C56.743 95.9182 58.1713 95.8941 59.8987 95.8745C63.3455 95.8353 67.8924 95.8147 72.4504 95.8132C77.0084 95.8118 81.5577 95.8296 85.0091 95.8666C86.7387 95.8852 88.1701 95.9084 89.1818 95.9356C89.6935 95.9494 90.0601 95.9633 90.2906 95.9759C90.4121 95.9825 90.4443 95.9861 90.4194 95.9836C90.4103 95.9828 90.3299 95.975 90.2107 95.9562C90.1503 95.9466 90.0407 95.9281 89.902 95.8969C89.7905 95.8718 89.5112 95.8062 89.1664 95.6741L93.1007 85.4018ZM87.5654 36.6257L80.8668 48.2317L90.3938 53.7305L97.0925 42.1245L87.5654 36.6257Z" fill="#1D1D1D" mask="url(#path-1-inside-1_301_35)"/>
<defs>
<linearGradient id="paint0_linear_301_35" x1="87" y1="110.09" x2="93" y2="32.0898" gradientUnits="userSpaceOnUse">
<stop stop-color="#BAABFF"/>
<stop offset="1" stop-color="#9492FF" stop-opacity="0.05"/>
</linearGradient>
</defs>
</svg>
