<svg width="85" height="110" viewBox="0 0 85 110" fill="none" xmlns="http://www.w3.org/2000/svg">
<path d="M26.0809 7.96469C27.2913 5.87557 27.8978 4.97716 28.3627 4.49626C28.6418 4.20756 28.8439 4.07025 29.6263 3.85765L29.6265 3.8576C30.3376 3.66434 30.4256 3.65882 30.5061 3.66022L30.5061 3.66022C30.5445 3.66089 30.7788 3.66495 31.5243 3.98365C33.1366 4.67299 35.9244 6.27251 42.0158 9.77886L42.0158 9.77889C47.5512 12.965 50.4635 14.6744 52.109 15.8017C52.9191 16.3567 53.2928 16.6852 53.487 16.8926C53.6329 17.0484 53.7082 17.1646 53.8255 17.4161L53.8258 17.4166C54.06 17.9186 54.1915 18.8353 53.9956 19.7909M26.0809 7.96469L23.7015 6.58604M26.0809 7.96469L23.7015 6.58604M26.0809 7.96469C24.6572 10.4221 24.0083 11.5819 23.6863 12.3247C23.469 12.8258 23.4589 12.9625 23.4589 13.4884C23.4589 14.5204 23.8533 15.335 24.4296 15.8477L24.4299 15.8479L25.3546 16.6708L27.0157 18.1488L25.9183 20.0826L20.3539 29.8871C20.3539 29.8871 20.3539 29.8871 20.3539 29.8871C18.823 32.5846 17.4241 35.0443 16.4035 36.8344C15.8933 37.7291 15.4768 38.4581 15.1853 38.9664C15.0399 39.22 14.9238 39.4216 14.8422 39.5624C14.8019 39.6318 14.7668 39.692 14.7395 39.7382C14.7268 39.7597 14.71 39.788 14.6928 39.816C14.6885 39.823 14.6811 39.835 14.6716 39.8501C14.6647 39.8612 14.6566 39.8738 14.6478 39.8874C14.6383 39.9021 14.6166 39.9353 14.5879 39.9761C14.5737 39.9963 14.5481 40.0322 14.5144 40.0758C14.4924 40.1044 14.4137 40.2062 14.2985 40.3234L14.2922 40.3297C13.7231 40.9048 13.0819 41.0543 12.8568 41.0985C12.5746 41.1538 12.344 41.1532 12.2277 41.1497C11.9878 41.1426 11.7951 41.1062 11.7117 41.0894C11.5196 41.0509 11.3455 40.9985 11.2316 40.9622C10.9817 40.8825 10.7014 40.7758 10.4333 40.6626C10.1294 40.5344 9.54316 40.4587 8.81008 40.6255C8.08459 40.7906 7.5237 41.1245 7.22885 41.4389M23.7015 6.58604C26.063 2.5102 26.7633 1.78585 28.9052 1.20387L23.5266 18.7252L22.6018 17.9024C21.3895 16.8239 20.7089 15.237 20.7089 13.4884C20.7089 11.8753 20.9229 11.3819 23.7015 6.58604ZM7.22885 41.4389C7.22916 41.4386 7.22876 41.439 7.22763 41.4404C7.21663 41.4535 7.13632 41.5491 6.97666 41.7749C6.81695 42.0009 6.62219 42.2937 6.40049 42.6425C5.9579 43.3389 5.44533 44.1995 4.94876 45.076C4.45186 45.953 3.9857 46.8199 3.63237 47.5277C3.33604 48.1214 3.19553 48.4552 3.14481 48.5758C3.12515 48.6225 3.11897 48.6372 3.12244 48.6225C3.01839 49.0608 3.02479 49.6991 3.20968 50.3769C3.37479 50.9821 3.62978 51.4293 3.85187 51.6866C3.86924 51.6985 3.88928 51.7121 3.91218 51.7274C4.07335 51.8357 4.30884 51.9882 4.61862 52.1842C5.2347 52.5741 6.08905 53.1009 7.11164 53.7231C9.15368 54.9655 11.8276 56.5643 14.5222 58.1576C17.2168 59.7509 19.9229 61.3335 22.0289 62.5439C23.0833 63.1499 23.9783 63.6574 24.6429 64.0247C24.9764 64.2091 25.2398 64.3514 25.4306 64.4509C25.5223 64.4987 25.5796 64.5272 25.6096 64.5419C25.9918 64.6571 26.7643 64.679 27.4511 64.4426C27.9447 64.2726 28.6425 63.9146 31.1101 59.6488C31.1101 59.6487 31.1102 59.6487 31.1102 59.6487L32.857 56.6286L32.8479 55.7622C32.8479 55.7621 32.8479 55.762 32.8479 55.7619C32.8319 54.2652 32.3866 53.5613 32.0007 53.2346L32.0006 53.2345L31.1791 52.5389L29.4167 51.0465L30.5819 49.0526L34.8744 41.7076C37.2353 37.6677 39.8292 33.229 40.6386 31.8435L40.6387 31.8433L42.1107 29.3238L43.1706 27.5096L45.1996 28.0554L46.3246 28.3581L46.3249 28.3582C46.5251 28.412 46.7985 28.4696 47.0689 28.513C47.2006 28.5341 47.3162 28.5494 47.4075 28.559C47.4885 28.5674 47.5258 28.5688 47.5265 28.5689C47.5267 28.569 47.525 28.5689 47.5216 28.5689M7.22885 41.4389L5.22239 39.5583M7.22885 41.4389C7.2288 41.439 7.22875 41.439 7.22869 41.4391L5.22239 39.5583M47.5216 28.5689C47.6963 28.5695 48.0772 28.5101 48.5514 28.3259C49.0231 28.1427 49.3587 27.9245 49.5069 27.7899L49.5073 27.7896C49.5069 27.79 49.5085 27.7881 49.512 27.7838C49.551 27.7366 49.83 27.3991 50.3416 26.615C50.8303 25.8659 51.3969 24.9215 51.9469 23.9441C52.4967 22.9667 53.0118 21.9885 53.4024 21.1745C53.5982 20.7666 53.7526 20.4208 53.862 20.1496C53.9661 19.8917 53.9961 19.7821 53.9972 19.7824C53.9974 19.7824 53.9968 19.7853 53.9956 19.7909M47.5216 28.5689C47.5213 28.5689 47.521 28.5689 47.5207 28.5689L47.5216 28.5689ZM53.9956 19.7909C53.9955 19.7917 53.9953 19.7927 53.9951 19.7937L53.9952 19.7933C53.9953 19.7925 53.9955 19.7917 53.9956 19.7909ZM5.22239 39.5583C4.18347 40.6668 0.743071 46.7389 0.446786 47.9874C-0.0119623 49.92 0.674665 52.4367 2.0182 53.7476C2.75036 54.4618 23.3669 66.6528 24.6102 67.1065L11.5031 38.1293C9.58072 37.3176 6.71065 37.9707 5.22239 39.5583ZM46.3614 45.4629L49.0832 40.7472C49.0948 40.745 49.1063 40.7429 49.1178 40.7407C49.2636 40.8247 49.4285 40.92 49.6119 41.0261C50.4471 41.5092 51.6485 42.2079 53.1282 43.071C56.0867 44.7966 60.1496 47.1744 64.6021 49.7875L65.994 47.4158L64.6021 49.7875C69.4123 52.6105 73.5313 55.061 76.5034 56.8625C77.9911 57.7643 79.1812 58.4973 80.0235 59.0304C80.4464 59.2982 80.7669 59.5062 80.9878 59.6553C81.0589 59.7032 81.1102 59.7389 81.1453 59.7637C81.3847 60.0331 81.7774 60.5769 81.9663 60.9394C82.1803 61.3499 82.1893 61.4124 82.1949 61.4515C82.1954 61.4549 82.1959 61.4581 82.1964 61.4614C82.2289 61.6471 82.25 61.9892 82.25 63.078C82.25 64.2351 82.2299 64.5268 82.198 64.6909C82.1975 64.6933 82.1971 64.6956 82.1967 64.6981C82.1881 64.7454 82.1734 64.826 81.85 65.4521C81.2823 66.5511 80.6382 67.2518 79.9579 67.6993C79.2821 68.1438 78.4229 68.4359 77.2706 68.4949L77.4112 71.2413L77.2706 68.4949C76.5393 68.5323 76.2311 68.5221 76.0091 68.4932C75.8097 68.4672 75.5732 68.4124 75.0087 68.2143L75.0083 68.2141C75.0087 68.2143 75.0066 68.2133 75.0017 68.211C74.9505 68.1871 74.5964 68.0218 73.7671 67.5728C72.951 67.1311 71.8328 66.5031 70.4131 65.6887C67.5769 64.0615 63.5886 61.719 58.5113 58.6971C50.9107 54.1731 47.0851 51.8917 45.0886 50.6182C44.4939 50.2389 44.109 49.9784 43.8589 49.7986L46.3614 45.4629ZM47.2411 90.1502C46.9628 89.8908 46.4645 89.5747 46.1336 89.4481L47.2411 90.1502ZM3.50775 97.9612L5.97177 99.1823C7.72339 95.6478 8.68741 93.7752 9.3439 92.7189C9.51959 92.4362 9.64817 92.254 9.73695 92.1388C9.97942 92.1282 10.2872 92.1176 10.6588 92.1073C11.6894 92.0788 13.1352 92.0545 14.8674 92.0348C18.3279 91.9954 22.8856 91.9748 27.4496 91.9734C32.0135 91.972 36.5736 91.9897 40.0386 92.0269C41.7731 92.0455 43.2219 92.0689 44.256 92.0968C44.6661 92.1079 44.9993 92.1193 45.2534 92.1309C45.2761 92.1699 45.3007 92.2125 45.3272 92.2588C45.5443 92.638 45.8404 93.1798 46.1975 93.8532C46.9091 95.1951 47.8296 96.9959 48.784 98.9268C50.3285 102.052 51.1676 103.783 51.6253 104.845C51.8525 105.372 51.9465 105.645 51.9861 105.788C51.9942 105.817 51.9989 105.837 52.0015 105.849C51.9988 106.001 51.9612 106.09 51.9342 106.136C51.9274 106.147 51.9197 106.158 51.9107 106.17C51.8738 106.174 51.831 106.178 51.7819 106.182C51.2722 106.225 50.362 106.26 48.6603 106.286C45.2873 106.336 39.1059 106.342 27.5102 106.342C15.1776 106.342 9.01495 106.341 5.81383 106.286C4.1867 106.257 3.44328 106.216 3.07248 106.172C3.0443 106.168 3.02083 106.165 3.00164 106.163C2.99378 106.158 2.98408 106.151 2.97262 106.143C2.93017 106.114 2.88159 106.077 2.83412 106.036C2.82301 106.026 2.81272 106.017 2.80326 106.008C2.81213 105.978 2.82238 105.945 2.83422 105.908C3.1509 104.925 4.00588 103.149 5.97176 99.1824L3.50775 97.9612ZM45.045 91.7926C45.0447 91.7914 45.0547 91.805 45.0759 91.8376C45.0559 91.8103 45.0452 91.7939 45.045 91.7926Z" fill="#F5BAFF"/>
<path d="M26.0809 7.96469C27.2913 5.87557 27.8978 4.97716 28.3627 4.49626C28.6418 4.20756 28.8439 4.07025 29.6263 3.85765L29.6265 3.8576C30.3376 3.66434 30.4256 3.65882 30.5061 3.66022L30.5061 3.66022C30.5445 3.66089 30.7788 3.66495 31.5243 3.98365C33.1366 4.67299 35.9244 6.27251 42.0158 9.77886L42.0158 9.77889C47.5512 12.965 50.4635 14.6744 52.109 15.8017C52.9191 16.3567 53.2928 16.6852 53.487 16.8926C53.6329 17.0484 53.7082 17.1646 53.8255 17.4161L53.8258 17.4166C54.06 17.9186 54.1915 18.8353 53.9956 19.7909M26.0809 7.96469L23.7015 6.58604M26.0809 7.96469L23.7015 6.58604M26.0809 7.96469C24.6572 10.4221 24.0083 11.5819 23.6863 12.3247C23.469 12.8258 23.4589 12.9625 23.4589 13.4884C23.4589 14.5204 23.8533 15.335 24.4296 15.8477L24.4299 15.8479L25.3546 16.6708L27.0157 18.1488L25.9183 20.0826L20.3539 29.8871C20.3539 29.8871 20.3539 29.8871 20.3539 29.8871C18.823 32.5846 17.4241 35.0443 16.4035 36.8344C15.8933 37.7291 15.4768 38.4581 15.1853 38.9664C15.0399 39.22 14.9238 39.4216 14.8422 39.5624C14.8019 39.6318 14.7668 39.692 14.7395 39.7382C14.7268 39.7597 14.71 39.788 14.6928 39.816C14.6885 39.823 14.6811 39.835 14.6716 39.8501C14.6647 39.8612 14.6566 39.8738 14.6478 39.8874C14.6383 39.9021 14.6166 39.9353 14.5879 39.9761C14.5737 39.9963 14.5481 40.0322 14.5144 40.0758C14.4924 40.1044 14.4137 40.2062 14.2985 40.3234L14.2922 40.3297C13.7231 40.9048 13.0819 41.0543 12.8568 41.0985C12.5746 41.1538 12.344 41.1532 12.2277 41.1497C11.9878 41.1426 11.7951 41.1062 11.7117 41.0894C11.5196 41.0509 11.3455 40.9985 11.2316 40.9622C10.9817 40.8825 10.7014 40.7758 10.4333 40.6626C10.1294 40.5344 9.54316 40.4587 8.81008 40.6255C8.08459 40.7906 7.5237 41.1245 7.22885 41.4389M23.7015 6.58604C26.063 2.5102 26.7633 1.78585 28.9052 1.20387L23.5266 18.7252L22.6018 17.9024C21.3895 16.8239 20.7089 15.237 20.7089 13.4884C20.7089 11.8753 20.9229 11.3819 23.7015 6.58604ZM7.22885 41.4389C7.22916 41.4386 7.22876 41.439 7.22763 41.4404C7.21663 41.4535 7.13632 41.5491 6.97666 41.7749C6.81695 42.0009 6.62219 42.2937 6.40049 42.6425C5.9579 43.3389 5.44533 44.1995 4.94876 45.076C4.45186 45.953 3.9857 46.8199 3.63237 47.5277C3.33604 48.1214 3.19553 48.4552 3.14481 48.5758C3.12515 48.6225 3.11897 48.6372 3.12244 48.6225C3.01839 49.0608 3.02479 49.6991 3.20968 50.3769C3.37479 50.9821 3.62978 51.4293 3.85187 51.6866C3.86924 51.6985 3.88928 51.7121 3.91218 51.7274C4.07335 51.8357 4.30884 51.9882 4.61862 52.1842C5.2347 52.5741 6.08905 53.1009 7.11164 53.7231C9.15368 54.9655 11.8276 56.5643 14.5222 58.1576C17.2168 59.7509 19.9229 61.3335 22.0289 62.5439C23.0833 63.1499 23.9783 63.6574 24.6429 64.0247C24.9764 64.2091 25.2398 64.3514 25.4306 64.4509C25.5223 64.4987 25.5796 64.5272 25.6096 64.5419C25.9918 64.6571 26.7643 64.679 27.4511 64.4426C27.9447 64.2726 28.6425 63.9146 31.1101 59.6488C31.1101 59.6487 31.1102 59.6487 31.1102 59.6487L32.857 56.6286L32.8479 55.7622C32.8479 55.7621 32.8479 55.762 32.8479 55.7619C32.8319 54.2652 32.3866 53.5613 32.0007 53.2346L32.0006 53.2345L31.1791 52.5389L29.4167 51.0465L30.5819 49.0526L34.8744 41.7076C37.2353 37.6677 39.8292 33.229 40.6386 31.8435L40.6387 31.8433L42.1107 29.3238L43.1706 27.5096L45.1996 28.0554L46.3246 28.3581L46.3249 28.3582C46.5251 28.412 46.7985 28.4696 47.0689 28.513C47.2006 28.5341 47.3162 28.5494 47.4075 28.559C47.4885 28.5674 47.5258 28.5688 47.5265 28.5689C47.5267 28.569 47.525 28.5689 47.5216 28.5689M7.22885 41.4389L5.22239 39.5583M7.22885 41.4389C7.2288 41.439 7.22875 41.439 7.22869 41.4391L5.22239 39.5583M47.5216 28.5689C47.6963 28.5695 48.0772 28.5101 48.5514 28.3259C49.0231 28.1427 49.3587 27.9245 49.5069 27.7899L49.5073 27.7896C49.5069 27.79 49.5085 27.7881 49.512 27.7838C49.551 27.7366 49.83 27.3991 50.3416 26.615C50.8303 25.8659 51.3969 24.9215 51.9469 23.9441C52.4967 22.9667 53.0118 21.9885 53.4024 21.1745C53.5982 20.7666 53.7526 20.4208 53.862 20.1496C53.9661 19.8917 53.9961 19.7821 53.9972 19.7824C53.9974 19.7824 53.9968 19.7853 53.9956 19.7909M47.5216 28.5689C47.5213 28.5689 47.521 28.5689 47.5207 28.5689L47.5216 28.5689ZM53.9956 19.7909C53.9955 19.7917 53.9953 19.7927 53.9951 19.7937L53.9952 19.7933C53.9953 19.7925 53.9955 19.7917 53.9956 19.7909ZM5.22239 39.5583C4.18347 40.6668 0.743071 46.7389 0.446786 47.9874C-0.0119623 49.92 0.674665 52.4367 2.0182 53.7476C2.75036 54.4618 23.3669 66.6528 24.6102 67.1065L11.5031 38.1293C9.58072 37.3176 6.71065 37.9707 5.22239 39.5583ZM46.3614 45.4629L49.0832 40.7472C49.0948 40.745 49.1063 40.7429 49.1178 40.7407C49.2636 40.8247 49.4285 40.92 49.6119 41.0261C50.4471 41.5092 51.6485 42.2079 53.1282 43.071C56.0867 44.7966 60.1496 47.1744 64.6021 49.7875L65.994 47.4158L64.6021 49.7875C69.4123 52.6105 73.5313 55.061 76.5034 56.8625C77.9911 57.7643 79.1812 58.4973 80.0235 59.0304C80.4464 59.2982 80.7669 59.5062 80.9878 59.6553C81.0589 59.7032 81.1102 59.7389 81.1453 59.7637C81.3847 60.0331 81.7774 60.5769 81.9663 60.9394C82.1803 61.3499 82.1893 61.4124 82.1949 61.4515C82.1954 61.4549 82.1959 61.4581 82.1964 61.4614C82.2289 61.6471 82.25 61.9892 82.25 63.078C82.25 64.2351 82.2299 64.5268 82.198 64.6909C82.1975 64.6933 82.1971 64.6956 82.1967 64.6981C82.1881 64.7454 82.1734 64.826 81.85 65.4521C81.2823 66.5511 80.6382 67.2518 79.9579 67.6993C79.2821 68.1438 78.4229 68.4359 77.2706 68.4949L77.4112 71.2413L77.2706 68.4949C76.5393 68.5323 76.2311 68.5221 76.0091 68.4932C75.8097 68.4672 75.5732 68.4124 75.0087 68.2143L75.0083 68.2141C75.0087 68.2143 75.0066 68.2133 75.0017 68.211C74.9505 68.1871 74.5964 68.0218 73.7671 67.5728C72.951 67.1311 71.8328 66.5031 70.4131 65.6887C67.5769 64.0615 63.5886 61.719 58.5113 58.6971C50.9107 54.1731 47.0851 51.8917 45.0886 50.6182C44.4939 50.2389 44.109 49.9784 43.8589 49.7986L46.3614 45.4629ZM47.2411 90.1502C46.9628 89.8908 46.4645 89.5747 46.1336 89.4481L47.2411 90.1502ZM3.50775 97.9612L5.97177 99.1823C7.72339 95.6478 8.68741 93.7752 9.3439 92.7189C9.51959 92.4362 9.64817 92.254 9.73695 92.1388C9.97942 92.1282 10.2872 92.1176 10.6588 92.1073C11.6894 92.0788 13.1352 92.0545 14.8674 92.0348C18.3279 91.9954 22.8856 91.9748 27.4496 91.9734C32.0135 91.972 36.5736 91.9897 40.0386 92.0269C41.7731 92.0455 43.2219 92.0689 44.256 92.0968C44.6661 92.1079 44.9993 92.1193 45.2534 92.1309C45.2761 92.1699 45.3007 92.2125 45.3272 92.2588C45.5443 92.638 45.8404 93.1798 46.1975 93.8532C46.9091 95.1951 47.8296 96.9959 48.784 98.9268C50.3285 102.052 51.1676 103.783 51.6253 104.845C51.8525 105.372 51.9465 105.645 51.9861 105.788C51.9942 105.817 51.9989 105.837 52.0015 105.849C51.9988 106.001 51.9612 106.09 51.9342 106.136C51.9274 106.147 51.9197 106.158 51.9107 106.17C51.8738 106.174 51.831 106.178 51.7819 106.182C51.2722 106.225 50.362 106.26 48.6603 106.286C45.2873 106.336 39.1059 106.342 27.5102 106.342C15.1776 106.342 9.01495 106.341 5.81383 106.286C4.1867 106.257 3.44328 106.216 3.07248 106.172C3.0443 106.168 3.02083 106.165 3.00164 106.163C2.99378 106.158 2.98408 106.151 2.97262 106.143C2.93017 106.114 2.88159 106.077 2.83412 106.036C2.82301 106.026 2.81272 106.017 2.80326 106.008C2.81213 105.978 2.82238 105.945 2.83422 105.908C3.1509 104.925 4.00588 103.149 5.97176 99.1824L3.50775 97.9612ZM45.045 91.7926C45.0447 91.7914 45.0547 91.805 45.0759 91.8376C45.0559 91.8103 45.0452 91.7939 45.045 91.7926Z" fill="url(#paint0_linear_1819_47771)"/>
<path d="M26.0809 7.96469C27.2913 5.87557 27.8978 4.97716 28.3627 4.49626C28.6418 4.20756 28.8439 4.07025 29.6263 3.85765L29.6265 3.8576C30.3376 3.66434 30.4256 3.65882 30.5061 3.66022L30.5061 3.66022C30.5445 3.66089 30.7788 3.66495 31.5243 3.98365C33.1366 4.67299 35.9244 6.27251 42.0158 9.77886L42.0158 9.77889C47.5512 12.965 50.4635 14.6744 52.109 15.8017C52.9191 16.3567 53.2928 16.6852 53.487 16.8926C53.6329 17.0484 53.7082 17.1646 53.8255 17.4161L53.8258 17.4166C54.06 17.9186 54.1915 18.8353 53.9956 19.7909M26.0809 7.96469L23.7015 6.58604M26.0809 7.96469L23.7015 6.58604M26.0809 7.96469C24.6572 10.4221 24.0083 11.5819 23.6863 12.3247C23.469 12.8258 23.4589 12.9625 23.4589 13.4884C23.4589 14.5204 23.8533 15.335 24.4296 15.8477L24.4299 15.8479L25.3546 16.6708L27.0157 18.1488L25.9183 20.0826L20.3539 29.8871C20.3539 29.8871 20.3539 29.8871 20.3539 29.8871C18.823 32.5846 17.4241 35.0443 16.4035 36.8344C15.8933 37.7291 15.4768 38.4581 15.1853 38.9664C15.0399 39.22 14.9238 39.4216 14.8422 39.5624C14.8019 39.6318 14.7668 39.692 14.7395 39.7382C14.7268 39.7597 14.71 39.788 14.6928 39.816C14.6885 39.823 14.6811 39.835 14.6716 39.8501C14.6647 39.8612 14.6566 39.8738 14.6478 39.8874C14.6383 39.9021 14.6166 39.9353 14.5879 39.9761C14.5737 39.9963 14.5481 40.0322 14.5144 40.0758C14.4924 40.1044 14.4137 40.2062 14.2985 40.3234L14.2922 40.3297C13.7231 40.9048 13.0819 41.0543 12.8568 41.0985C12.5746 41.1538 12.344 41.1532 12.2277 41.1497C11.9878 41.1426 11.7951 41.1062 11.7117 41.0894C11.5196 41.0509 11.3455 40.9985 11.2316 40.9622C10.9817 40.8825 10.7014 40.7758 10.4333 40.6626C10.1294 40.5344 9.54316 40.4587 8.81008 40.6255C8.08459 40.7906 7.5237 41.1245 7.22885 41.4389M23.7015 6.58604C26.063 2.5102 26.7633 1.78585 28.9052 1.20387L23.5266 18.7252L22.6018 17.9024C21.3895 16.8239 20.7089 15.237 20.7089 13.4884C20.7089 11.8753 20.9229 11.3819 23.7015 6.58604ZM7.22885 41.4389C7.22916 41.4386 7.22876 41.439 7.22763 41.4404C7.21663 41.4535 7.13632 41.5491 6.97666 41.7749C6.81695 42.0009 6.62219 42.2937 6.40049 42.6425C5.9579 43.3389 5.44533 44.1995 4.94876 45.076C4.45186 45.953 3.9857 46.8199 3.63237 47.5277C3.33604 48.1214 3.19553 48.4552 3.14481 48.5758C3.12515 48.6225 3.11897 48.6372 3.12244 48.6225C3.01839 49.0608 3.02479 49.6991 3.20968 50.3769C3.37479 50.9821 3.62978 51.4293 3.85187 51.6866C3.86924 51.6985 3.88928 51.7121 3.91218 51.7274C4.07335 51.8357 4.30884 51.9882 4.61862 52.1842C5.2347 52.5741 6.08905 53.1009 7.11164 53.7231C9.15368 54.9655 11.8276 56.5643 14.5222 58.1576C17.2168 59.7509 19.9229 61.3335 22.0289 62.5439C23.0833 63.1499 23.9783 63.6574 24.6429 64.0247C24.9764 64.2091 25.2398 64.3514 25.4306 64.4509C25.5223 64.4987 25.5796 64.5272 25.6096 64.5419C25.9918 64.6571 26.7643 64.679 27.4511 64.4426C27.9447 64.2726 28.6425 63.9146 31.1101 59.6488C31.1101 59.6487 31.1102 59.6487 31.1102 59.6487L32.857 56.6286L32.8479 55.7622C32.8479 55.7621 32.8479 55.762 32.8479 55.7619C32.8319 54.2652 32.3866 53.5613 32.0007 53.2346L32.0006 53.2345L31.1791 52.5389L29.4167 51.0465L30.5819 49.0526L34.8744 41.7076C37.2353 37.6677 39.8292 33.229 40.6386 31.8435L40.6387 31.8433L42.1107 29.3238L43.1706 27.5096L45.1996 28.0554L46.3246 28.3581L46.3249 28.3582C46.5251 28.412 46.7985 28.4696 47.0689 28.513C47.2006 28.5341 47.3162 28.5494 47.4075 28.559C47.4885 28.5674 47.5258 28.5688 47.5265 28.5689C47.5267 28.569 47.525 28.5689 47.5216 28.5689M7.22885 41.4389L5.22239 39.5583M7.22885 41.4389C7.2288 41.439 7.22875 41.439 7.22869 41.4391L5.22239 39.5583M47.5216 28.5689C47.6963 28.5695 48.0772 28.5101 48.5514 28.3259C49.0231 28.1427 49.3587 27.9245 49.5069 27.7899L49.5073 27.7896C49.5069 27.79 49.5085 27.7881 49.512 27.7838C49.551 27.7366 49.83 27.3991 50.3416 26.615C50.8303 25.8659 51.3969 24.9215 51.9469 23.9441C52.4967 22.9667 53.0118 21.9885 53.4024 21.1745C53.5982 20.7666 53.7526 20.4208 53.862 20.1496C53.9661 19.8917 53.9961 19.7821 53.9972 19.7824C53.9974 19.7824 53.9968 19.7853 53.9956 19.7909M47.5216 28.5689C47.5213 28.5689 47.521 28.5689 47.5207 28.5689L47.5216 28.5689ZM53.9956 19.7909C53.9955 19.7917 53.9953 19.7927 53.9951 19.7937L53.9952 19.7933C53.9953 19.7925 53.9955 19.7917 53.9956 19.7909ZM5.22239 39.5583C4.18347 40.6668 0.743071 46.7389 0.446786 47.9874C-0.0119623 49.92 0.674665 52.4367 2.0182 53.7476C2.75036 54.4618 23.3669 66.6528 24.6102 67.1065L11.5031 38.1293C9.58072 37.3176 6.71065 37.9707 5.22239 39.5583ZM46.3614 45.4629L49.0832 40.7472C49.0948 40.745 49.1063 40.7429 49.1178 40.7407C49.2636 40.8247 49.4285 40.92 49.6119 41.0261C50.4471 41.5092 51.6485 42.2079 53.1282 43.071C56.0867 44.7966 60.1496 47.1744 64.6021 49.7875L65.994 47.4158L64.6021 49.7875C69.4123 52.6105 73.5313 55.061 76.5034 56.8625C77.9911 57.7643 79.1812 58.4973 80.0235 59.0304C80.4464 59.2982 80.7669 59.5062 80.9878 59.6553C81.0589 59.7032 81.1102 59.7389 81.1453 59.7637C81.3847 60.0331 81.7774 60.5769 81.9663 60.9394C82.1803 61.3499 82.1893 61.4124 82.1949 61.4515C82.1954 61.4549 82.1959 61.4581 82.1964 61.4614C82.2289 61.6471 82.25 61.9892 82.25 63.078C82.25 64.2351 82.2299 64.5268 82.198 64.6909C82.1975 64.6933 82.1971 64.6956 82.1967 64.6981C82.1881 64.7454 82.1734 64.826 81.85 65.4521C81.2823 66.5511 80.6382 67.2518 79.9579 67.6993C79.2821 68.1438 78.4229 68.4359 77.2706 68.4949L77.4112 71.2413L77.2706 68.4949C76.5393 68.5323 76.2311 68.5221 76.0091 68.4932C75.8097 68.4672 75.5732 68.4124 75.0087 68.2143L75.0083 68.2141C75.0087 68.2143 75.0066 68.2133 75.0017 68.211C74.9505 68.1871 74.5964 68.0218 73.7671 67.5728C72.951 67.1311 71.8328 66.5031 70.4131 65.6887C67.5769 64.0615 63.5886 61.719 58.5113 58.6971C50.9107 54.1731 47.0851 51.8917 45.0886 50.6182C44.4939 50.2389 44.109 49.9784 43.8589 49.7986L46.3614 45.4629ZM47.2411 90.1502C46.9628 89.8908 46.4645 89.5747 46.1336 89.4481L47.2411 90.1502ZM3.50775 97.9612L5.97177 99.1823C7.72339 95.6478 8.68741 93.7752 9.3439 92.7189C9.51959 92.4362 9.64817 92.254 9.73695 92.1388C9.97942 92.1282 10.2872 92.1176 10.6588 92.1073C11.6894 92.0788 13.1352 92.0545 14.8674 92.0348C18.3279 91.9954 22.8856 91.9748 27.4496 91.9734C32.0135 91.972 36.5736 91.9897 40.0386 92.0269C41.7731 92.0455 43.2219 92.0689 44.256 92.0968C44.6661 92.1079 44.9993 92.1193 45.2534 92.1309C45.2761 92.1699 45.3007 92.2125 45.3272 92.2588C45.5443 92.638 45.8404 93.1798 46.1975 93.8532C46.9091 95.1951 47.8296 96.9959 48.784 98.9268C50.3285 102.052 51.1676 103.783 51.6253 104.845C51.8525 105.372 51.9465 105.645 51.9861 105.788C51.9942 105.817 51.9989 105.837 52.0015 105.849C51.9988 106.001 51.9612 106.09 51.9342 106.136C51.9274 106.147 51.9197 106.158 51.9107 106.17C51.8738 106.174 51.831 106.178 51.7819 106.182C51.2722 106.225 50.362 106.26 48.6603 106.286C45.2873 106.336 39.1059 106.342 27.5102 106.342C15.1776 106.342 9.01495 106.341 5.81383 106.286C4.1867 106.257 3.44328 106.216 3.07248 106.172C3.0443 106.168 3.02083 106.165 3.00164 106.163C2.99378 106.158 2.98408 106.151 2.97262 106.143C2.93017 106.114 2.88159 106.077 2.83412 106.036C2.82301 106.026 2.81272 106.017 2.80326 106.008C2.81213 105.978 2.82238 105.945 2.83422 105.908C3.1509 104.925 4.00588 103.149 5.97176 99.1824L3.50775 97.9612ZM45.045 91.7926C45.0447 91.7914 45.0547 91.805 45.0759 91.8376C45.0559 91.8103 45.0452 91.7939 45.045 91.7926Z" stroke="#1D1D1D" stroke-width="5.5"/>
<defs>
<linearGradient id="paint0_linear_1819_47771" x1="42" y1="109" x2="48" y2="31" gradientUnits="userSpaceOnUse">
<stop stop-color="#BAABFF"/>
<stop offset="1" stop-color="#9492FF" stop-opacity="0.05"/>
</linearGradient>
</defs>
</svg>
