<svg width="144" height="111" viewBox="0 0 144 111" fill="none" xmlns="http://www.w3.org/2000/svg">
<path fill-rule="evenodd" clip-rule="evenodd" d="M65.6263 8.15552C57.1954 8.23731 54.6404 8.31989 54.2472 8.52357C53.407 8.95845 30.6533 32.2503 30.2819 33.0556C29.9755 33.7203 29.9559 35.0258 30.0493 48.6499C30.1051 56.8278 30.2206 64.5055 30.3058 65.7116L30.4608 67.9041L52.9469 90.096L52.0947 92.2676C51.6259 93.4619 50.3831 96.616 49.3329 99.2768L47.4234 104.114H41.3412C35.4578 104.114 35.2335 104.128 34.4837 104.55C33.4836 105.112 32.811 106.416 32.9811 107.464C33.1148 108.288 33.5736 108.983 34.3835 109.588C34.9136 109.984 35.216 110.001 42.5054 110.056C50.7871 110.118 51.0636 110.085 51.8268 108.939C52.0106 108.663 53.6027 104.797 55.3647 100.347L58.5685 92.2562L59.2405 92.1188C59.61 92.0434 65.6056 91.9552 72.5637 91.9231C83.4608 91.873 85.2366 91.9051 85.3733 92.1547C85.4605 92.3139 86.9456 96.0351 88.674 100.424C90.4021 104.813 91.9811 108.639 92.1826 108.927C92.9969 110.092 93.2173 110.118 101.514 110.056C108.804 110.001 109.106 109.984 109.636 109.588C110.446 108.983 110.905 108.288 111.039 107.464C111.209 106.416 110.536 105.112 109.536 104.55C108.786 104.128 108.562 104.114 102.675 104.114C97.9912 104.114 96.5671 104.057 96.4925 103.865C96.439 103.728 95.2124 100.614 93.7663 96.9458L91.1374 90.2759L96.2914 85.0763C111.466 69.7675 113.646 67.5024 113.867 66.8103C114.192 65.7981 113.861 33.0069 113.519 32.2908C113.204 31.6297 89.9254 8.76774 89.1025 8.31092C88.4075 7.92511 88.9978 7.9289 65.6263 8.15552ZM84.1786 14.0829C84.1786 14.2099 78.2061 28.1455 78.101 28.2636C78.0747 28.2931 77.4339 28.163 76.6773 27.9745C74.7436 27.4929 69.2761 27.4929 67.3425 27.9745C66.5858 28.163 65.9441 28.2931 65.9166 28.2636C65.8781 28.2221 60.3764 15.5367 59.9028 14.3973C59.8221 14.2028 61.8636 14.1383 69.4459 14.096C74.751 14.0665 80.2363 14.0206 81.6351 13.9943C83.0339 13.968 84.1786 14.0079 84.1786 14.0829ZM57.4146 23.7707L60.4085 30.7027L59.2771 31.449C57.5497 32.5882 54.7794 35.3619 53.5261 37.2073L52.4014 38.8631L51.7823 38.6045C51.442 38.4623 48.2909 37.1942 44.78 35.7866C41.269 34.3788 38.3629 33.2016 38.322 33.1707C38.2811 33.1398 41.8687 29.4343 46.2945 24.9365C50.7203 20.4387 54.3593 16.7767 54.3811 16.7989C54.4028 16.8208 55.7679 19.9583 57.4146 23.7707ZM105.77 33.1067C105.651 33.2072 96.6718 36.8614 92.6041 38.4647L91.6028 38.8593L90.6683 37.4537C89.434 35.5977 86.9355 33.0173 85.1052 31.7083L83.6314 30.6542L86.3143 24.4448C87.7899 21.0296 89.1238 17.9353 89.2786 17.5685L89.5597 16.9018L97.7385 24.9423C102.237 29.3645 105.851 33.0385 105.77 33.1067ZM76.3806 34.0926C81.0205 35.411 84.6992 38.4837 86.7717 42.7722C88.1108 45.5429 88.444 47.0025 88.4338 50.0535C88.4174 54.9323 86.7817 58.6982 83.2184 62.0596C76.9155 68.0055 67.1043 68.0055 60.8013 62.0596C58.4219 59.8147 57.0628 57.6186 56.1258 54.5034C55.6757 53.0071 55.5957 52.3621 55.586 50.1532C55.5722 46.9987 55.8904 45.5832 57.2457 42.7722C59.5725 37.9464 63.9263 34.6872 69.3828 33.6866C70.9335 33.4021 74.7249 33.6222 76.3806 34.0926ZM43.2443 41.6228L50.0873 44.3681L49.9884 45.0663C49.4358 48.9734 49.3921 49.8949 49.6498 52.1972C49.7945 53.4868 49.9247 54.7973 49.9395 55.1093C49.9664 55.672 49.9136 55.6979 43.1035 58.4507C39.3288 59.9763 36.2094 61.2247 36.1713 61.2247C36.1334 61.2247 36.1023 56.1977 36.1023 50.0535C36.1023 43.9093 36.1697 38.8812 36.2519 38.8798C36.3341 38.8784 39.4808 40.1129 43.2443 41.6228ZM107.917 50.0535C107.917 56.1977 107.888 61.2247 107.852 61.2247C107.815 61.2247 104.696 59.9743 100.919 58.4461C94.1242 55.6963 94.0533 55.6616 94.0803 55.1047C94.095 54.7953 94.2253 53.4868 94.3699 52.1972C94.6279 49.8929 94.5862 49.012 94.032 45.0663L93.9338 44.3681L100.676 41.6429C104.385 40.1442 107.531 38.9098 107.668 38.9C107.865 38.886 107.917 41.24 107.917 50.0535ZM53.3842 62.671C54.627 64.5541 57.5455 67.4529 59.4722 68.7178L60.9982 69.7198L55.3825 83.975L53.0736 81.7271C51.8037 80.4907 47.9163 76.6714 44.4349 73.2394L38.1052 66.9996L38.7495 66.7018C39.6252 66.2973 52.1267 61.2546 52.2952 61.2381C52.369 61.2307 52.8592 61.8754 53.3842 62.671ZM98.999 64.1562L105.74 66.87L103.687 68.9845C102.558 70.1477 98.7375 74.0403 95.1972 77.6351C89.1916 83.7334 88.747 84.1407 88.5585 83.7194C88.4474 83.4711 87.1559 80.2204 85.6885 76.4958L83.0207 69.7236L84.5472 68.7266C86.4631 67.4752 89.3826 64.5695 90.6439 62.6586C91.3593 61.5748 91.6902 61.2313 91.9322 61.3213C92.1113 61.3881 95.2914 62.6638 98.999 64.1562ZM69.9651 72.4201C71.5989 72.613 72.4408 72.6096 74.1544 72.4025C75.3339 72.2603 76.5646 72.1332 76.8895 72.1203L77.48 72.0967L80.1523 78.8416C81.6219 82.5512 82.7626 85.6482 82.687 85.7239C82.6114 85.7995 77.708 85.8932 71.7906 85.9323L61.0319 86.0031L61.2139 85.5333C62.2877 82.7583 66.4566 72.3056 66.5493 72.1556C66.6162 72.0473 66.9521 72.0082 67.2956 72.0686C67.6393 72.1292 68.8406 72.2872 69.9651 72.4201Z" fill="#1D1D1D"/>
<path d="M69.9651 72.4201C71.5989 72.613 72.4408 72.6096 74.1544 72.4025C75.3339 72.2603 76.5646 72.1332 76.8895 72.1203L77.48 72.0967L80.1523 78.8416C81.6219 82.5512 82.7626 85.6482 82.687 85.7239C82.6114 85.7995 77.708 85.8932 71.7906 85.9323L61.0319 86.0031L61.2139 85.5333C62.2877 82.7583 66.4566 72.3056 66.5493 72.1556C66.6162 72.0473 66.9521 72.0082 67.2956 72.0686C67.6393 72.1292 68.8406 72.2872 69.9651 72.4201Z" fill="#67D4F8"/>
<path d="M69.9651 72.4201C71.5989 72.613 72.4408 72.6096 74.1544 72.4025C75.3339 72.2603 76.5646 72.1332 76.8895 72.1203L77.48 72.0967L80.1523 78.8416C81.6219 82.5512 82.7626 85.6482 82.687 85.7239C82.6114 85.7995 77.708 85.8932 71.7906 85.9323L61.0319 86.0031L61.2139 85.5333C62.2877 82.7583 66.4566 72.3056 66.5493 72.1556C66.6162 72.0473 66.9521 72.0082 67.2956 72.0686C67.6393 72.1292 68.8406 72.2872 69.9651 72.4201Z" fill="url(#paint0_linear_301_36)"/>
<path d="M105.77 33.1067C105.651 33.2072 96.6718 36.8614 92.6041 38.4647L91.6028 38.8593L90.6683 37.4537C89.434 35.5977 86.9355 33.0173 85.1052 31.7083L83.6314 30.6542L86.3143 24.4448C87.7899 21.0296 89.1238 17.9353 89.2786 17.5685L89.5597 16.9018L97.7385 24.9423C102.237 29.3645 105.851 33.0385 105.77 33.1067Z" fill="#67D4F8"/>
<path d="M105.77 33.1067C105.651 33.2072 96.6718 36.8614 92.6041 38.4647L91.6028 38.8593L90.6683 37.4537C89.434 35.5977 86.9355 33.0173 85.1052 31.7083L83.6314 30.6542L86.3143 24.4448C87.7899 21.0296 89.1238 17.9353 89.2786 17.5685L89.5597 16.9018L97.7385 24.9423C102.237 29.3645 105.851 33.0385 105.77 33.1067Z" fill="url(#paint1_linear_301_36)"/>
<path d="M107.917 50.0535C107.917 56.1977 107.888 61.2247 107.852 61.2247C107.815 61.2247 104.696 59.9743 100.919 58.4461C94.1242 55.6963 94.0533 55.6616 94.0803 55.1047C94.095 54.7953 94.2253 53.4868 94.3699 52.1972C94.6279 49.8929 94.5862 49.012 94.032 45.0663L93.9338 44.3681L100.676 41.6429C104.385 40.1442 107.531 38.9098 107.668 38.9C107.865 38.886 107.917 41.24 107.917 50.0535Z" fill="#67D4F8"/>
<path d="M107.917 50.0535C107.917 56.1977 107.888 61.2247 107.852 61.2247C107.815 61.2247 104.696 59.9743 100.919 58.4461C94.1242 55.6963 94.0533 55.6616 94.0803 55.1047C94.095 54.7953 94.2253 53.4868 94.3699 52.1972C94.6279 49.8929 94.5862 49.012 94.032 45.0663L93.9338 44.3681L100.676 41.6429C104.385 40.1442 107.531 38.9098 107.668 38.9C107.865 38.886 107.917 41.24 107.917 50.0535Z" fill="url(#paint2_linear_301_36)"/>
<path d="M57.4146 23.7707L60.4085 30.7027L59.2771 31.449C57.5497 32.5882 54.7794 35.3619 53.5261 37.2073L52.4014 38.8631L51.7823 38.6045C51.442 38.4623 48.2909 37.1942 44.78 35.7866C41.269 34.3788 38.3629 33.2016 38.322 33.1707C38.2811 33.1398 41.8687 29.4343 46.2945 24.9365C50.7203 20.4387 54.3593 16.7767 54.3811 16.7989C54.4028 16.8208 55.7679 19.9583 57.4146 23.7707Z" fill="#67D4F8"/>
<path d="M57.4146 23.7707L60.4085 30.7027L59.2771 31.449C57.5497 32.5882 54.7794 35.3619 53.5261 37.2073L52.4014 38.8631L51.7823 38.6045C51.442 38.4623 48.2909 37.1942 44.78 35.7866C41.269 34.3788 38.3629 33.2016 38.322 33.1707C38.2811 33.1398 41.8687 29.4343 46.2945 24.9365C50.7203 20.4387 54.3593 16.7767 54.3811 16.7989C54.4028 16.8208 55.7679 19.9583 57.4146 23.7707Z" fill="url(#paint3_linear_301_36)"/>
<path d="M53.3842 62.671C54.627 64.5541 57.5455 67.4529 59.4722 68.7178L60.9982 69.7198L55.3825 83.975L53.0736 81.7271C51.8037 80.4907 47.9163 76.6714 44.4349 73.2394L38.1052 66.9996L38.7495 66.7018C39.6252 66.2973 52.1267 61.2546 52.2952 61.2381C52.369 61.2307 52.8592 61.8754 53.3842 62.671Z" fill="#67D4F8"/>
<path d="M53.3842 62.671C54.627 64.5541 57.5455 67.4529 59.4722 68.7178L60.9982 69.7198L55.3825 83.975L53.0736 81.7271C51.8037 80.4907 47.9163 76.6714 44.4349 73.2394L38.1052 66.9996L38.7495 66.7018C39.6252 66.2973 52.1267 61.2546 52.2952 61.2381C52.369 61.2307 52.8592 61.8754 53.3842 62.671Z" fill="url(#paint4_linear_301_36)"/>
<path d="M43.2443 41.6228L50.0873 44.3681L49.9884 45.0663C49.4358 48.9734 49.3921 49.8949 49.6498 52.1972C49.7945 53.4868 49.9247 54.7973 49.9395 55.1093C49.9664 55.672 49.9136 55.6979 43.1035 58.4507C39.3288 59.9763 36.2094 61.2247 36.1713 61.2247C36.1334 61.2247 36.1023 56.1977 36.1023 50.0535C36.1023 43.9093 36.1697 38.8812 36.2519 38.8798C36.3341 38.8784 39.4808 40.1129 43.2443 41.6228Z" fill="#67D4F8"/>
<path d="M43.2443 41.6228L50.0873 44.3681L49.9884 45.0663C49.4358 48.9734 49.3921 49.8949 49.6498 52.1972C49.7945 53.4868 49.9247 54.7973 49.9395 55.1093C49.9664 55.672 49.9136 55.6979 43.1035 58.4507C39.3288 59.9763 36.2094 61.2247 36.1713 61.2247C36.1334 61.2247 36.1023 56.1977 36.1023 50.0535C36.1023 43.9093 36.1697 38.8812 36.2519 38.8798C36.3341 38.8784 39.4808 40.1129 43.2443 41.6228Z" fill="url(#paint5_linear_301_36)"/>
<path d="M84.1786 14.0829C84.1786 14.2099 78.2061 28.1455 78.101 28.2636C78.0747 28.2931 77.4339 28.163 76.6773 27.9745C74.7436 27.4929 69.2761 27.4929 67.3425 27.9745C66.5858 28.163 65.9441 28.2931 65.9166 28.2636C65.8781 28.2221 60.3764 15.5367 59.9028 14.3973C59.8221 14.2028 61.8636 14.1383 69.4459 14.096C74.751 14.0665 80.2363 14.0206 81.6351 13.9943C83.0339 13.968 84.1786 14.0079 84.1786 14.0829Z" fill="#67D4F8"/>
<path d="M84.1786 14.0829C84.1786 14.2099 78.2061 28.1455 78.101 28.2636C78.0747 28.2931 77.4339 28.163 76.6773 27.9745C74.7436 27.4929 69.2761 27.4929 67.3425 27.9745C66.5858 28.163 65.9441 28.2931 65.9166 28.2636C65.8781 28.2221 60.3764 15.5367 59.9028 14.3973C59.8221 14.2028 61.8636 14.1383 69.4459 14.096C74.751 14.0665 80.2363 14.0206 81.6351 13.9943C83.0339 13.968 84.1786 14.0079 84.1786 14.0829Z" fill="url(#paint6_linear_301_36)"/>
<path d="M98.999 64.1562L105.74 66.87L103.687 68.9845C102.558 70.1477 98.7375 74.0403 95.1972 77.6351C89.1916 83.7334 88.747 84.1407 88.5585 83.7194C88.4474 83.4711 87.1559 80.2204 85.6885 76.4958L83.0207 69.7236L84.5472 68.7266C86.4631 67.4752 89.3826 64.5695 90.6439 62.6586C91.3593 61.5748 91.6902 61.2313 91.9322 61.3213C92.1113 61.3881 95.2914 62.6638 98.999 64.1562Z" fill="#67D4F8"/>
<path d="M98.999 64.1562L105.74 66.87L103.687 68.9845C102.558 70.1477 98.7375 74.0403 95.1972 77.6351C89.1916 83.7334 88.747 84.1407 88.5585 83.7194C88.4474 83.4711 87.1559 80.2204 85.6885 76.4958L83.0207 69.7236L84.5472 68.7266C86.4631 67.4752 89.3826 64.5695 90.6439 62.6586C91.3593 61.5748 91.6902 61.2313 91.9322 61.3213C92.1113 61.3881 95.2914 62.6638 98.999 64.1562Z" fill="url(#paint7_linear_301_36)"/>
<path fill-rule="evenodd" clip-rule="evenodd" d="M77.2002 86C79.4093 86 81.2002 84.2091 81.2002 82C81.2002 79.7909 79.4093 78 77.2002 78C74.9911 78 73.2002 79.7909 73.2002 82C73.2002 84.2091 74.9911 86 77.2002 86Z" fill="#111111"/>
<path fill-rule="evenodd" clip-rule="evenodd" d="M90.2002 81C92.4093 81 94.2002 79.2091 94.2002 77C94.2002 74.7909 92.4093 73 90.2002 73C87.9911 73 86.2002 74.7909 86.2002 77C86.2002 79.2091 87.9911 81 90.2002 81Z" fill="#1D1D1D"/>
<path fill-rule="evenodd" clip-rule="evenodd" d="M104 59.5C106.209 59.5 108 57.7091 108 55.5C108 53.2909 106.209 51.5 104 51.5C101.791 51.5 100 53.2909 100 55.5C100 57.7091 101.791 59.5 104 59.5Z" fill="#1D1D1D"/>
<path fill-rule="evenodd" clip-rule="evenodd" d="M55 78C57.2091 78 59 76.2091 59 74C59 71.7909 57.2091 70 55 70C52.7909 70 51 71.7909 51 74C51 76.2091 52.7909 78 55 78Z" fill="#1D1D1D"/>
<path fill-rule="evenodd" clip-rule="evenodd" d="M41 59C43.2091 59 45 57.2091 45 55C45 52.7909 43.2091 51 41 51C38.7909 51 37 52.7909 37 55C37 57.2091 38.7909 59 41 59Z" fill="#1D1D1D"/>
<defs>
<linearGradient id="paint0_linear_301_36" x1="70" y1="91.5" x2="74" y2="69.5" gradientUnits="userSpaceOnUse">
<stop stop-color="#8E77F7"/>
<stop offset="1" stop-color="#8E77F7" stop-opacity="0.05"/>
</linearGradient>
<linearGradient id="paint1_linear_301_36" x1="83.5" y1="37.5" x2="102.5" y2="23" gradientUnits="userSpaceOnUse">
<stop stop-color="#8E77F7"/>
<stop offset="1" stop-color="#8E77F7" stop-opacity="0.05"/>
</linearGradient>
<linearGradient id="paint2_linear_301_36" x1="3.96594e-06" y1="76" x2="135" y2="43" gradientUnits="userSpaceOnUse">
<stop stop-color="#8E77F7"/>
<stop offset="1" stop-color="#8E77F7" stop-opacity="0.05"/>
</linearGradient>
<linearGradient id="paint3_linear_301_36" x1="85.5" y1="60.5" x2="45" y2="14.5" gradientUnits="userSpaceOnUse">
<stop stop-color="#8E77F7"/>
<stop offset="1" stop-color="#8E77F7" stop-opacity="0.05"/>
</linearGradient>
<linearGradient id="paint4_linear_301_36" x1="76" y1="49.5" x2="41" y2="79.5" gradientUnits="userSpaceOnUse">
<stop stop-color="#8E77F7"/>
<stop offset="1" stop-color="#8E77F7" stop-opacity="0.05"/>
</linearGradient>
<linearGradient id="paint5_linear_301_36" x1="58.5" y1="47" x2="19.5" y2="59" gradientUnits="userSpaceOnUse">
<stop stop-color="#8E77F7"/>
<stop offset="1" stop-color="#8E77F7" stop-opacity="0.05"/>
</linearGradient>
<linearGradient id="paint6_linear_301_36" x1="72" y1="33.5" x2="72" y2="9.5" gradientUnits="userSpaceOnUse">
<stop stop-color="#8E77F7"/>
<stop offset="1" stop-color="#8E77F7" stop-opacity="0.05"/>
</linearGradient>
<linearGradient id="paint7_linear_301_36" x1="82" y1="59" x2="97.5" y2="80" gradientUnits="userSpaceOnUse">
<stop stop-color="#8E77F7"/>
<stop offset="1" stop-color="#8E77F7" stop-opacity="0.05"/>
</linearGradient>
</defs>
</svg>
