<svg width="84" height="103" viewBox="0 0 84 103" fill="none" xmlns="http://www.w3.org/2000/svg">
<path fill-rule="evenodd" clip-rule="evenodd" d="M35.6263 0.155518C27.1954 0.237308 24.6404 0.319895 24.2472 0.523571C23.407 0.958451 0.653333 24.2503 0.281889 25.0556C-0.0245226 25.7203 -0.0440724 27.0258 0.0492873 40.6499C0.105144 48.8278 0.220646 56.5055 0.305827 57.7116L0.460828 59.9041L11.7039 71.0002L22.9469 82.096L22.0947 84.2676C21.6259 85.4619 20.3831 88.616 19.3329 91.2768L17.4234 96.1143H11.3412C5.45777 96.1143 5.23354 96.1285 4.48367 96.55C3.48365 97.1121 2.81098 98.4164 2.98114 99.4639C3.1148 100.288 3.57362 100.983 4.38353 101.588C4.91357 101.984 5.21599 102.001 12.5054 102.056C20.7871 102.118 21.0636 102.085 21.8268 100.939C22.0106 100.663 23.6027 96.797 25.3647 92.347L28.5685 84.2562L29.2405 84.1188C29.61 84.0434 35.6056 83.9552 42.5637 83.9231C53.4608 83.873 55.2366 83.9051 55.3733 84.1547C55.4605 84.3139 56.9456 88.0351 58.674 92.4238C60.4021 96.8125 61.9811 100.639 62.1826 100.927C62.9969 102.092 63.2173 102.118 71.5143 102.056C78.8038 102.001 79.1062 101.984 79.6362 101.588C80.4461 100.983 80.905 100.288 81.0386 99.4639C81.2088 98.4164 80.5361 97.1121 79.5361 96.55C78.7862 96.1285 78.5622 96.1143 72.6751 96.1143C67.9912 96.1143 66.5671 96.0569 66.4925 95.865C66.439 95.7279 65.2124 92.6141 63.7663 88.9458L61.1374 82.2759L66.2914 77.0763C81.4659 61.7675 83.6455 59.5024 83.8673 58.8103C84.1917 57.7981 83.8612 25.0069 83.5192 24.2908C83.2038 23.6297 59.9254 0.767742 59.1025 0.310918C58.4075 -0.0748889 58.9978 -0.0710986 35.6263 0.155518ZM54.1786 6.08286C54.1786 6.20993 48.2061 20.1455 48.101 20.2636C48.0747 20.2931 47.4339 20.163 46.6773 19.9745C44.7436 19.4929 39.2761 19.4929 37.3425 19.9745C36.5858 20.163 35.9441 20.2931 35.9166 20.2636C35.8781 20.2221 30.3764 7.53672 29.9028 6.39725C29.8221 6.20275 31.8636 6.13832 39.4459 6.09603C44.751 6.0665 50.2363 6.02062 51.6351 5.99429C53.0339 5.96796 54.1786 6.00785 54.1786 6.08286ZM27.4146 15.7707L30.4085 22.7027L29.2771 23.449C27.5497 24.5882 24.7794 27.3619 23.5261 29.2073L22.4014 30.8631L21.7823 30.6045C21.442 30.4623 18.2909 29.1942 14.78 27.7866C11.269 26.3788 8.36289 25.2016 8.32199 25.1707C8.2811 25.1398 11.8687 21.4343 16.2945 16.9365C20.7203 12.4387 24.3593 8.77673 24.3811 8.79887C24.4028 8.82081 25.7679 11.9583 27.4146 15.7707ZM75.7704 25.1067C75.6511 25.2072 66.6718 28.8614 62.6041 30.4647L61.6028 30.8593L60.6683 29.4537C59.434 27.5977 56.9355 25.0173 55.1052 23.7083L53.6314 22.6542L56.3143 16.4448C57.7899 13.0296 59.1238 9.93534 59.2786 9.56849L59.5597 8.9018L67.7385 16.9423C72.2369 21.3645 75.8512 25.0385 75.7704 25.1067ZM46.3806 26.0926C51.0205 27.411 54.6992 30.4837 56.7717 34.7722C58.1108 37.5429 58.444 39.0025 58.4338 42.0535C58.4174 46.9323 56.7817 50.6982 53.2184 54.0596C46.9155 60.0055 37.1043 60.0055 30.8013 54.0596C28.4219 51.8147 27.0628 49.6186 26.1258 46.5034C25.6757 45.0071 25.5957 44.3621 25.586 42.1532C25.5722 38.9987 25.8904 37.5832 27.2457 34.7722C29.5725 29.9464 33.9263 26.6872 39.3828 25.6866C40.9335 25.4021 44.7249 25.6222 46.3806 26.0926ZM13.2443 33.6228L20.0873 36.3681L19.9884 37.0663C19.4358 40.9734 19.3921 41.8949 19.6498 44.1972C19.7945 45.4868 19.9247 46.7973 19.9395 47.1093C19.9664 47.672 19.9136 47.6979 13.1035 50.4507C9.3288 51.9763 6.20943 53.2247 6.17133 53.2247C6.13343 53.2247 6.10231 48.1977 6.10231 42.0535C6.10231 35.9093 6.16973 30.8812 6.25192 30.8798C6.33411 30.8784 9.48081 32.1129 13.2443 33.6228ZM77.9174 42.0535C77.9174 48.1977 77.8877 53.2247 77.8516 53.2247C77.8153 53.2247 74.696 51.9743 70.9195 50.4461C64.1242 47.6963 64.0533 47.6616 64.0803 47.1047C64.095 46.7953 64.2253 45.4868 64.3699 44.1972C64.6279 41.8929 64.5862 41.012 64.032 37.0663L63.9338 36.3681L70.6763 33.6429C74.3848 32.1442 77.5311 30.9098 77.6681 30.9C77.8648 30.886 77.9174 33.24 77.9174 42.0535ZM23.3842 54.671C24.627 56.5541 27.5455 59.4529 29.4722 60.7178L30.9982 61.7198L28.1905 68.8473L25.3825 75.975L23.0736 73.7271C21.8037 72.4907 17.9163 68.6714 14.4349 65.2394L8.10515 58.9996L8.74949 58.7018C9.62524 58.2973 22.1267 53.2546 22.2952 53.2381C22.369 53.2307 22.8592 53.8754 23.3842 54.671ZM68.999 56.1562L75.7403 58.87L73.6871 60.9845C72.5578 62.1477 68.7375 66.0403 65.1972 69.6351C59.1916 75.7334 58.747 76.1407 58.5585 75.7194C58.4474 75.4711 57.1559 72.2204 55.6885 68.4958L53.0207 61.7236L54.5472 60.7266C56.4631 59.4752 59.3826 56.5695 60.6439 54.6586C61.3593 53.5748 61.6902 53.2313 61.9322 53.3213C62.1113 53.3881 65.2914 54.6638 68.999 56.1562ZM39.9651 64.4201C41.5989 64.613 42.4408 64.6096 44.1544 64.4025C45.3339 64.2603 46.5646 64.1332 46.8895 64.1203L47.48 64.0967L50.1523 70.8416C51.6219 74.5512 52.7626 77.6482 52.687 77.7239C52.6114 77.7995 47.708 77.8932 41.7906 77.9323L31.0319 78.0031L31.2139 77.5333C32.2877 74.7583 36.4566 64.3056 36.5493 64.1556C36.6162 64.0473 36.9521 64.0082 37.2956 64.0686C37.6393 64.1292 38.8406 64.2872 39.9651 64.4201Z" fill="#1D1D1D"/>
<path d="M39.9651 64.4201C41.5989 64.613 42.4408 64.6096 44.1544 64.4025C45.3339 64.2603 46.5646 64.1332 46.8895 64.1203L47.48 64.0967L50.1523 70.8416C51.6219 74.5512 52.7626 77.6482 52.687 77.7239C52.6114 77.7995 47.708 77.8932 41.7906 77.9323L31.0319 78.0031L31.2139 77.5333C32.2877 74.7583 36.4566 64.3056 36.5493 64.1556C36.6162 64.0473 36.9521 64.0082 37.2956 64.0686C37.6393 64.1292 38.8406 64.2872 39.9651 64.4201Z" fill="#67D4F8"/>
<path d="M39.9651 64.4201C41.5989 64.613 42.4408 64.6096 44.1544 64.4025C45.3339 64.2603 46.5646 64.1332 46.8895 64.1203L47.48 64.0967L50.1523 70.8416C51.6219 74.5512 52.7626 77.6482 52.687 77.7239C52.6114 77.7995 47.708 77.8932 41.7906 77.9323L31.0319 78.0031L31.2139 77.5333C32.2877 74.7583 36.4566 64.3056 36.5493 64.1556C36.6162 64.0473 36.9521 64.0082 37.2956 64.0686C37.6393 64.1292 38.8406 64.2872 39.9651 64.4201Z" fill="url(#paint0_linear_1819_47793)"/>
<path d="M75.7704 25.1067C75.6511 25.2072 66.6718 28.8614 62.6041 30.4647L61.6028 30.8593L60.6683 29.4537C59.434 27.5977 56.9355 25.0173 55.1052 23.7083L53.6314 22.6542L56.3143 16.4448C57.7899 13.0296 59.1238 9.93534 59.2786 9.56849L59.5597 8.9018L67.7385 16.9423C72.2369 21.3645 75.8512 25.0385 75.7704 25.1067Z" fill="#67D4F8"/>
<path d="M75.7704 25.1067C75.6511 25.2072 66.6718 28.8614 62.6041 30.4647L61.6028 30.8593L60.6683 29.4537C59.434 27.5977 56.9355 25.0173 55.1052 23.7083L53.6314 22.6542L56.3143 16.4448C57.7899 13.0296 59.1238 9.93534 59.2786 9.56849L59.5597 8.9018L67.7385 16.9423C72.2369 21.3645 75.8512 25.0385 75.7704 25.1067Z" fill="url(#paint1_linear_1819_47793)"/>
<path d="M77.9174 42.0535C77.9174 48.1977 77.8877 53.2247 77.8516 53.2247C77.8153 53.2247 74.696 51.9743 70.9195 50.4461C64.1242 47.6963 64.0533 47.6616 64.0803 47.1047C64.095 46.7953 64.2253 45.4868 64.3699 44.1972C64.6279 41.8929 64.5862 41.012 64.032 37.0663L63.9338 36.3681L70.6763 33.6429C74.3848 32.1442 77.5311 30.9098 77.6681 30.9C77.8648 30.886 77.9174 33.24 77.9174 42.0535Z" fill="#67D4F8"/>
<path d="M77.9174 42.0535C77.9174 48.1977 77.8877 53.2247 77.8516 53.2247C77.8153 53.2247 74.696 51.9743 70.9195 50.4461C64.1242 47.6963 64.0533 47.6616 64.0803 47.1047C64.095 46.7953 64.2253 45.4868 64.3699 44.1972C64.6279 41.8929 64.5862 41.012 64.032 37.0663L63.9338 36.3681L70.6763 33.6429C74.3848 32.1442 77.5311 30.9098 77.6681 30.9C77.8648 30.886 77.9174 33.24 77.9174 42.0535Z" fill="url(#paint2_linear_1819_47793)"/>
<path d="M27.4146 15.7707L30.4085 22.7027L29.2771 23.449C27.5497 24.5882 24.7794 27.3619 23.5261 29.2073L22.4014 30.8631L21.7823 30.6045C21.442 30.4623 18.2909 29.1942 14.78 27.7866C11.269 26.3788 8.36289 25.2016 8.32199 25.1707C8.2811 25.1398 11.8687 21.4343 16.2945 16.9365C20.7203 12.4387 24.3593 8.77673 24.3811 8.79887C24.4028 8.82081 25.7679 11.9583 27.4146 15.7707Z" fill="#67D4F8"/>
<path d="M27.4146 15.7707L30.4085 22.7027L29.2771 23.449C27.5497 24.5882 24.7794 27.3619 23.5261 29.2073L22.4014 30.8631L21.7823 30.6045C21.442 30.4623 18.2909 29.1942 14.78 27.7866C11.269 26.3788 8.36289 25.2016 8.32199 25.1707C8.2811 25.1398 11.8687 21.4343 16.2945 16.9365C20.7203 12.4387 24.3593 8.77673 24.3811 8.79887C24.4028 8.82081 25.7679 11.9583 27.4146 15.7707Z" fill="url(#paint3_linear_1819_47793)"/>
<path d="M23.3842 54.671C24.627 56.5541 27.5455 59.4529 29.4722 60.7178L30.9982 61.7198L28.1905 68.8473L25.3825 75.975L23.0736 73.7271C21.8037 72.4907 17.9163 68.6714 14.4349 65.2394L8.10515 58.9996L8.74949 58.7018C9.62524 58.2973 22.1267 53.2546 22.2952 53.2381C22.369 53.2307 22.8592 53.8754 23.3842 54.671Z" fill="#67D4F8"/>
<path d="M23.3842 54.671C24.627 56.5541 27.5455 59.4529 29.4722 60.7178L30.9982 61.7198L28.1905 68.8473L25.3825 75.975L23.0736 73.7271C21.8037 72.4907 17.9163 68.6714 14.4349 65.2394L8.10515 58.9996L8.74949 58.7018C9.62524 58.2973 22.1267 53.2546 22.2952 53.2381C22.369 53.2307 22.8592 53.8754 23.3842 54.671Z" fill="url(#paint4_linear_1819_47793)"/>
<path d="M13.2443 33.6228L20.0873 36.3681L19.9884 37.0663C19.4358 40.9734 19.3921 41.8949 19.6498 44.1972C19.7945 45.4868 19.9247 46.7973 19.9395 47.1093C19.9664 47.672 19.9136 47.6979 13.1035 50.4507C9.3288 51.9763 6.20943 53.2247 6.17133 53.2247C6.13343 53.2247 6.10231 48.1977 6.10231 42.0535C6.10231 35.9093 6.16973 30.8812 6.25192 30.8798C6.33411 30.8784 9.48081 32.1129 13.2443 33.6228Z" fill="#67D4F8"/>
<path d="M13.2443 33.6228L20.0873 36.3681L19.9884 37.0663C19.4358 40.9734 19.3921 41.8949 19.6498 44.1972C19.7945 45.4868 19.9247 46.7973 19.9395 47.1093C19.9664 47.672 19.9136 47.6979 13.1035 50.4507C9.3288 51.9763 6.20943 53.2247 6.17133 53.2247C6.13343 53.2247 6.10231 48.1977 6.10231 42.0535C6.10231 35.9093 6.16973 30.8812 6.25192 30.8798C6.33411 30.8784 9.48081 32.1129 13.2443 33.6228Z" fill="url(#paint5_linear_1819_47793)"/>
<path d="M54.1786 6.08286C54.1786 6.20993 48.2061 20.1455 48.101 20.2636C48.0747 20.2931 47.4339 20.163 46.6773 19.9745C44.7436 19.4929 39.2761 19.4929 37.3425 19.9745C36.5858 20.163 35.9441 20.2931 35.9166 20.2636C35.8781 20.2221 30.3764 7.53672 29.9028 6.39725C29.8221 6.20275 31.8636 6.13832 39.4459 6.09603C44.751 6.0665 50.2363 6.02062 51.6351 5.99429C53.0339 5.96796 54.1786 6.00785 54.1786 6.08286Z" fill="#67D4F8"/>
<path d="M54.1786 6.08286C54.1786 6.20993 48.2061 20.1455 48.101 20.2636C48.0747 20.2931 47.4339 20.163 46.6773 19.9745C44.7436 19.4929 39.2761 19.4929 37.3425 19.9745C36.5858 20.163 35.9441 20.2931 35.9166 20.2636C35.8781 20.2221 30.3764 7.53672 29.9028 6.39725C29.8221 6.20275 31.8636 6.13832 39.4459 6.09603C44.751 6.0665 50.2363 6.02062 51.6351 5.99429C53.0339 5.96796 54.1786 6.00785 54.1786 6.08286Z" fill="url(#paint6_linear_1819_47793)"/>
<path d="M68.999 56.1562L75.7403 58.87L73.6871 60.9845C72.5578 62.1477 68.7375 66.0403 65.1972 69.6351C59.1916 75.7334 58.747 76.1407 58.5585 75.7194C58.4474 75.4711 57.1559 72.2204 55.6885 68.4958L53.0207 61.7236L54.5472 60.7266C56.4631 59.4752 59.3826 56.5695 60.6439 54.6586C61.3593 53.5748 61.6902 53.2313 61.9322 53.3213C62.1113 53.3881 65.2914 54.6638 68.999 56.1562Z" fill="#67D4F8"/>
<path d="M68.999 56.1562L75.7403 58.87L73.6871 60.9845C72.5578 62.1477 68.7375 66.0403 65.1972 69.6351C59.1916 75.7334 58.747 76.1407 58.5585 75.7194C58.4474 75.4711 57.1559 72.2204 55.6885 68.4958L53.0207 61.7236L54.5472 60.7266C56.4631 59.4752 59.3826 56.5695 60.6439 54.6586C61.3593 53.5748 61.6902 53.2313 61.9322 53.3213C62.1113 53.3881 65.2914 54.6638 68.999 56.1562Z" fill="url(#paint7_linear_1819_47793)"/>
<circle cx="47.1992" cy="74" r="2" stroke="#111111" stroke-width="4"/>
<circle cx="60.1992" cy="69" r="2" stroke="#1D1D1D" stroke-width="4"/>
<circle cx="74" cy="47.5" r="2" stroke="#1D1D1D" stroke-width="4"/>
<circle cx="25" cy="66" r="2" stroke="#1D1D1D" stroke-width="4"/>
<circle cx="11" cy="47" r="2" stroke="#1D1D1D" stroke-width="4"/>
<defs>
<linearGradient id="paint0_linear_1819_47793" x1="40" y1="83.5" x2="44" y2="61.5" gradientUnits="userSpaceOnUse">
<stop stop-color="#8E77F7"/>
<stop offset="1" stop-color="#8E77F7" stop-opacity="0.05"/>
</linearGradient>
<linearGradient id="paint1_linear_1819_47793" x1="53.5" y1="29.5" x2="72.5" y2="15" gradientUnits="userSpaceOnUse">
<stop stop-color="#8E77F7"/>
<stop offset="1" stop-color="#8E77F7" stop-opacity="0.05"/>
</linearGradient>
<linearGradient id="paint2_linear_1819_47793" x1="-30" y1="68" x2="105" y2="35" gradientUnits="userSpaceOnUse">
<stop stop-color="#8E77F7"/>
<stop offset="1" stop-color="#8E77F7" stop-opacity="0.05"/>
</linearGradient>
<linearGradient id="paint3_linear_1819_47793" x1="55.5" y1="52.5" x2="15" y2="6.5" gradientUnits="userSpaceOnUse">
<stop stop-color="#8E77F7"/>
<stop offset="1" stop-color="#8E77F7" stop-opacity="0.05"/>
</linearGradient>
<linearGradient id="paint4_linear_1819_47793" x1="46" y1="41.5" x2="11" y2="71.5" gradientUnits="userSpaceOnUse">
<stop stop-color="#8E77F7"/>
<stop offset="1" stop-color="#8E77F7" stop-opacity="0.05"/>
</linearGradient>
<linearGradient id="paint5_linear_1819_47793" x1="28.5" y1="39" x2="-10.5" y2="51" gradientUnits="userSpaceOnUse">
<stop stop-color="#8E77F7"/>
<stop offset="1" stop-color="#8E77F7" stop-opacity="0.05"/>
</linearGradient>
<linearGradient id="paint6_linear_1819_47793" x1="42" y1="25.5" x2="42" y2="1.5" gradientUnits="userSpaceOnUse">
<stop stop-color="#8E77F7"/>
<stop offset="1" stop-color="#8E77F7" stop-opacity="0.05"/>
</linearGradient>
<linearGradient id="paint7_linear_1819_47793" x1="52" y1="51" x2="67.5" y2="72" gradientUnits="userSpaceOnUse">
<stop stop-color="#8E77F7"/>
<stop offset="1" stop-color="#8E77F7" stop-opacity="0.05"/>
</linearGradient>
</defs>
</svg>
