<svg width="144" height="110" viewBox="0 0 144 110" fill="none" xmlns="http://www.w3.org/2000/svg">
<path d="M78.7881 102.454L38.174 71.287C37.6263 70.8667 37.2566 70.2558 37.1385 69.5756L32.0686 40.3929C31.7934 38.8084 32.9303 37.3267 34.532 37.1824L64.1113 34.5181C64.799 34.4561 65.4849 34.6551 66.0327 35.0755L106.835 66.3867C108.046 67.3163 108.269 69.0548 107.33 70.2594L82.6328 101.963C81.704 103.155 79.9871 103.375 78.7881 102.454Z" fill="#67D4F8"/>
<path d="M78.7881 102.454L38.174 71.287C37.6263 70.8667 37.2566 70.2558 37.1385 69.5756L32.0686 40.3929C31.7934 38.8084 32.9303 37.3267 34.532 37.1824L64.1113 34.5181C64.799 34.4561 65.4849 34.6551 66.0327 35.0755L106.835 66.3867C108.046 67.3163 108.269 69.0548 107.33 70.2594L82.6328 101.963C81.704 103.155 79.9871 103.375 78.7881 102.454Z" fill="url(#paint0_linear_301_34)"/>
<path fill-rule="evenodd" clip-rule="evenodd" d="M74.8267 107.617L34.2126 76.4491C32.3692 75.0346 31.1253 72.9786 30.7276 70.6894L25.6577 41.5067C24.7313 36.174 28.5575 31.1873 33.9483 30.7017L63.5275 28.0373C65.8421 27.8289 68.1504 28.4985 69.9941 29.9133L66.0327 35.0755C65.4849 34.6551 64.799 34.4561 64.1113 34.5181L34.532 37.1824C32.9303 37.3267 31.7934 38.8084 32.0686 40.3929L37.1385 69.5756C37.2566 70.2558 37.6263 70.8667 38.174 71.287L78.7881 102.454L74.8267 107.617ZM78.7881 102.454L74.8267 107.617C78.862 110.713 84.64 109.974 87.766 105.962L112.463 74.2583C115.622 70.2041 114.873 64.3533 110.796 61.2245L69.9941 29.9133L66.0327 35.0755L106.835 66.3867C108.046 67.3163 108.269 69.0548 107.33 70.2594L82.6328 101.963C81.704 103.155 79.9871 103.375 78.7881 102.454Z" fill="#1D1D1D"/>
<path d="M50.8006 46.588C52.8496 48.1603 53.236 51.0958 51.6638 53.1448C50.0916 55.1938 47.156 55.5803 45.107 54.008C43.0581 52.4358 42.6716 49.5002 44.2438 47.4513C45.8161 45.4023 48.7516 45.0158 50.8006 46.588Z" fill="#1D1D1D"/>
<defs>
<linearGradient id="paint0_linear_301_34" x1="138.278" y1="129.641" x2="30.8657" y2="21.8816" gradientUnits="userSpaceOnUse">
<stop stop-color="#8E77F7"/>
<stop offset="1" stop-color="#8E77F7" stop-opacity="0.05"/>
</linearGradient>
</defs>
</svg>
