<svg width="145" height="145" viewBox="0 0 145 145" fill="none" xmlns="http://www.w3.org/2000/svg">
<path d="M68.665 36.0461L66.6843 38.6271L68.665 36.0461C67.4692 35.1285 65.9721 34.6942 64.471 34.8294L34.8917 37.4937C31.3955 37.8087 28.9139 41.0429 29.5147 44.5015L34.5846 73.6841C34.8425 75.1689 35.6493 76.5023 36.8448 77.4198L77.459 108.587C80.0762 110.596 83.8236 110.116 85.851 107.514L110.548 75.8105C112.597 73.1811 112.111 69.3865 109.467 67.3573L68.665 36.0461Z" fill="#67D4F8"/>
<path d="M68.665 36.0461L66.6843 38.6271L68.665 36.0461C67.4692 35.1285 65.9721 34.6942 64.471 34.8294L34.8917 37.4937C31.3955 37.8087 28.9139 41.0429 29.5147 44.5015L34.5846 73.6841C34.8425 75.1689 35.6493 76.5023 36.8448 77.4198L77.459 108.587C80.0762 110.596 83.8236 110.116 85.851 107.514L110.548 75.8105C112.597 73.1811 112.111 69.3865 109.467 67.3573L68.665 36.0461Z" fill="url(#paint0_linear_1828_47836)"/>
<path d="M68.665 36.0461L66.6843 38.6271L68.665 36.0461C67.4692 35.1285 65.9721 34.6942 64.471 34.8294L34.8917 37.4937C31.3955 37.8087 28.9139 41.0429 29.5147 44.5015L34.5846 73.6841C34.8425 75.1689 35.6493 76.5023 36.8448 77.4198L77.459 108.587C80.0762 110.596 83.8236 110.116 85.851 107.514L110.548 75.8105C112.597 73.1811 112.111 69.3865 109.467 67.3573L68.665 36.0461Z" stroke="#1D1D1D" stroke-width="6.50694"/>
<circle cx="48.6056" cy="53.8497" r="4.67634" transform="rotate(-52.5 48.6056 53.8497)" fill="#1D1D1D"/>
<defs>
<linearGradient id="paint0_linear_1828_47836" x1="133.026" y1="118.569" x2="31.873" y2="40.9522" gradientUnits="userSpaceOnUse">
<stop stop-color="#8E77F7"/>
<stop offset="1" stop-color="#8E77F7" stop-opacity="0.05"/>
</linearGradient>
</defs>
</svg>
