<svg width="101" height="80" viewBox="0 0 101 80" fill="none" xmlns="http://www.w3.org/2000/svg">
<path fill-rule="evenodd" clip-rule="evenodd" d="M34.5664 7.5303L19.929 14.4266L13.6555 10.505C4.45984 4.75671 4.75513 4.88859 3.13178 5.8009C1.71483 6.5973 1.23758 8.21749 1.98726 9.68688C2.33322 10.365 3.2885 11.0189 10.513 15.5232C16.9179 19.5165 18.8234 20.6156 19.4684 20.689C20.4193 20.797 19.1009 21.3789 37.4498 12.7526C49.6165 7.03275 49.956 6.88747 50.4602 7.18001C50.7451 7.3454 57.4094 11.148 65.2698 15.6305C79.2832 23.6216 79.5827 23.7805 80.6458 23.7855C81.703 23.7902 81.8506 23.7157 86.5596 20.8031C89.2159 19.1601 91.4048 17.8302 91.424 17.848C91.4431 17.8657 91.3352 18.4561 91.1844 19.1599C90.6205 21.7917 90.9469 23.0995 92.3321 23.7569C93.7976 24.4523 95.6699 23.9583 96.3178 22.7052C96.7896 21.7933 98.8186 12.0605 98.7131 11.216C98.6028 10.3313 98.1793 9.62971 97.4787 9.1708C96.8674 8.77024 87.1555 6.35049 86.1453 6.34695C84.7226 6.34221 83.3727 7.70752 83.3727 9.15148C83.3727 10.9682 84.2804 11.8661 86.6408 12.3848C87.5516 12.5849 88.0801 12.7881 87.9715 12.8967C87.8725 12.9957 86.1677 14.0816 84.1833 15.31C80.9141 17.3335 80.5364 17.5192 80.1668 17.2854C79.9422 17.1434 73.3274 13.3659 65.4669 8.89088C52.5681 1.54728 51.0792 0.748515 50.1895 0.694107C49.2544 0.637137 48.4552 0.986842 34.5664 7.5303ZM40.7481 19.931C40.4343 20.1378 39.9907 20.602 39.7625 20.9626L39.3475 21.6178L39.2947 47.5914L39.2419 73.5652L35.2043 73.5652L31.1667 73.5652L31.1659 51.8318C31.1653 30.364 31.1604 30.0904 30.7665 29.4444C30.5251 29.0486 30.0226 28.6376 29.4935 28.4036C28.6606 28.0353 28.1993 28.0196 19.7552 28.072C11.1545 28.1256 10.8748 28.1392 10.3469 28.5337C10.0476 28.7572 9.61985 29.185 9.39631 29.4844C8.9922 30.0253 8.98944 30.1598 8.9372 51.7843L8.88456 73.5397L5.45198 73.6018C1.63972 73.6706 1.42249 73.7382 0.446508 75.1603C-0.435047 76.4448 0.238933 78.5872 1.71917 79.2056C2.27093 79.4362 9.9114 79.479 50.4984 79.479C103.819 79.479 99.4368 79.5894 100.412 78.2227C101.004 77.3918 101.021 75.7925 100.445 75.021C99.4821 73.7313 99.2675 73.6694 95.5189 73.6018L92.0865 73.5399L92.0335 53.3613C91.981 33.3298 91.9777 33.1788 91.5742 32.6385C91.3506 32.339 90.9229 31.9113 90.6236 31.6877C90.0951 31.2929 89.8199 31.2797 81.0751 31.2292C71.0208 31.1711 71.1803 31.1515 70.2512 32.5425L69.8038 33.2123L69.8038 53.3887L69.8038 73.5652L65.7662 73.5652L61.7286 73.5652L61.6758 47.5936C61.6237 22.0196 61.6168 21.6119 61.2287 20.9677C61.0119 20.6078 60.5579 20.1421 60.2198 19.9328C59.6355 19.5709 59.1537 19.5521 50.462 19.5535C41.7968 19.5547 41.289 19.5744 40.7481 19.931ZM55.6106 49.5156L55.6106 73.5652L50.4852 73.5652L45.3599 73.5652L45.3599 49.5156L45.3599 25.466L50.4852 25.466L55.6106 25.466L55.6106 49.5156ZM25.2529 53.7538L25.2529 73.5652L20.029 73.5652L14.8051 73.5652L14.8051 53.7538L14.8051 33.9425L20.029 33.9425L25.2529 33.9425L25.2529 53.7538ZM86.1654 55.3308L86.1654 73.5652L80.9415 73.5652L75.7176 73.5652L75.7176 55.3308L75.7176 37.0965L80.9415 37.0965L86.1654 37.0965L86.1654 55.3308Z" fill="#67D4F8"/>
<path fill-rule="evenodd" clip-rule="evenodd" d="M34.5664 7.5303L19.929 14.4266L13.6555 10.505C4.45984 4.75671 4.75513 4.88859 3.13178 5.8009C1.71483 6.5973 1.23758 8.21749 1.98726 9.68688C2.33322 10.365 3.2885 11.0189 10.513 15.5232C16.9179 19.5165 18.8234 20.6156 19.4684 20.689C20.4193 20.797 19.1009 21.3789 37.4498 12.7526C49.6165 7.03275 49.956 6.88747 50.4602 7.18001C50.7451 7.3454 57.4094 11.148 65.2698 15.6305C79.2832 23.6216 79.5827 23.7805 80.6458 23.7855C81.703 23.7902 81.8506 23.7157 86.5596 20.8031C89.2159 19.1601 91.4048 17.8302 91.424 17.848C91.4431 17.8657 91.3352 18.4561 91.1844 19.1599C90.6205 21.7917 90.9469 23.0995 92.3321 23.7569C93.7976 24.4523 95.6699 23.9583 96.3178 22.7052C96.7896 21.7933 98.8186 12.0605 98.7131 11.216C98.6028 10.3313 98.1793 9.62971 97.4787 9.1708C96.8674 8.77024 87.1555 6.35049 86.1453 6.34695C84.7226 6.34221 83.3727 7.70752 83.3727 9.15148C83.3727 10.9682 84.2804 11.8661 86.6408 12.3848C87.5516 12.5849 88.0801 12.7881 87.9715 12.8967C87.8725 12.9957 86.1677 14.0816 84.1833 15.31C80.9141 17.3335 80.5364 17.5192 80.1668 17.2854C79.9422 17.1434 73.3274 13.3659 65.4669 8.89088C52.5681 1.54728 51.0792 0.748515 50.1895 0.694107C49.2544 0.637137 48.4552 0.986842 34.5664 7.5303ZM40.7481 19.931C40.4343 20.1378 39.9907 20.602 39.7625 20.9626L39.3475 21.6178L39.2947 47.5914L39.2419 73.5652L35.2043 73.5652L31.1667 73.5652L31.1659 51.8318C31.1653 30.364 31.1604 30.0904 30.7665 29.4444C30.5251 29.0486 30.0226 28.6376 29.4935 28.4036C28.6606 28.0353 28.1993 28.0196 19.7552 28.072C11.1545 28.1256 10.8748 28.1392 10.3469 28.5337C10.0476 28.7572 9.61985 29.185 9.39631 29.4844C8.9922 30.0253 8.98944 30.1598 8.9372 51.7843L8.88456 73.5397L5.45198 73.6018C1.63972 73.6706 1.42249 73.7382 0.446508 75.1603C-0.435047 76.4448 0.238933 78.5872 1.71917 79.2056C2.27093 79.4362 9.9114 79.479 50.4984 79.479C103.819 79.479 99.4368 79.5894 100.412 78.2227C101.004 77.3918 101.021 75.7925 100.445 75.021C99.4821 73.7313 99.2675 73.6694 95.5189 73.6018L92.0865 73.5399L92.0335 53.3613C91.981 33.3298 91.9777 33.1788 91.5742 32.6385C91.3506 32.339 90.9229 31.9113 90.6236 31.6877C90.0951 31.2929 89.8199 31.2797 81.0751 31.2292C71.0208 31.1711 71.1803 31.1515 70.2512 32.5425L69.8038 33.2123L69.8038 53.3887L69.8038 73.5652L65.7662 73.5652L61.7286 73.5652L61.6758 47.5936C61.6237 22.0196 61.6168 21.6119 61.2287 20.9677C61.0119 20.6078 60.5579 20.1421 60.2198 19.9328C59.6355 19.5709 59.1537 19.5521 50.462 19.5535C41.7968 19.5547 41.289 19.5744 40.7481 19.931ZM55.6106 49.5156L55.6106 73.5652L50.4852 73.5652L45.3599 73.5652L45.3599 49.5156L45.3599 25.466L50.4852 25.466L55.6106 25.466L55.6106 49.5156ZM25.2529 53.7538L25.2529 73.5652L20.029 73.5652L14.8051 73.5652L14.8051 53.7538L14.8051 33.9425L20.029 33.9425L25.2529 33.9425L25.2529 53.7538ZM86.1654 55.3308L86.1654 73.5652L80.9415 73.5652L75.7176 73.5652L75.7176 55.3308L75.7176 37.0965L80.9415 37.0965L86.1654 37.0965L86.1654 55.3308Z" fill="url(#paint0_linear_2201_51011)"/>
<defs>
<linearGradient id="paint0_linear_2201_51011" x1="-32.5276" y1="79.4811" x2="114.445" y2="79.4811" gradientUnits="userSpaceOnUse">
<stop stop-color="#8E77F7"/>
<stop offset="1" stop-color="#8E77F7" stop-opacity="0.05"/>
</linearGradient>
</defs>
</svg>
