<svg width="43" height="40" viewBox="0 0 43 40" fill="none" xmlns="http://www.w3.org/2000/svg">
<g clip-path="url(#clip0_2204_1477)">
<path d="M0 2.44761V0.576249C0 0.275929 0.243458 0.0324707 0.543778 0.0324707H6.29356C6.59388 0.0324707 6.83733 0.275929 6.83733 0.57625V21.7662C6.83733 22.0665 7.08079 22.3099 7.38111 22.3099H29.615C29.9153 22.3099 30.1588 22.5534 30.1588 22.8537V39.4562C30.1588 39.7565 29.9153 40 29.615 40H24.1885C23.8882 40 23.6447 39.7565 23.6447 39.4562V37.5477C23.6447 37.2474 23.8877 37.004 24.188 37.004H27.1504C27.1409 37.004 27.1458 29.9078 27.1498 25.8852C27.1501 25.5846 26.9066 25.3432 26.606 25.3432H7.38111C7.08079 25.3432 6.83733 25.5867 6.83733 25.887V39.4562C6.83733 39.7565 6.59388 40 6.29356 40H0.556225C0.255904 40 0.0124463 39.7565 0.0124463 39.4562V37.5229C0.0124463 37.2226 0.255905 36.9791 0.556225 36.9791H3.23541C3.53573 36.9791 3.77919 36.7356 3.77919 36.4353V3.53517C3.77919 3.23485 3.53573 2.99139 3.23541 2.99139H0.543778C0.243458 2.99139 0 2.74793 0 2.44761Z" fill="#1A1A1A"/>
<path d="M13.0544 39.4118V31.0332C13.0544 30.7328 13.2979 30.4894 13.5982 30.4894H15.7713C16.0716 30.4894 16.3151 30.7328 16.3151 31.0332V36.4673C16.3151 36.7676 16.5585 37.011 16.8589 37.011H19.2755C19.5759 37.011 19.8193 37.2538 19.8193 37.5541V39.412C19.8193 39.7124 19.5759 39.9556 19.2755 39.9556H13.5982C13.2979 39.9556 13.0544 39.7121 13.0544 39.4118Z" fill="#1A1A1A"/>
<path d="M19.6271 2.44329V0.543779C19.6271 0.243458 19.3836 0 19.0833 0H13.4422C13.1419 0 12.8984 0.243459 12.8984 0.54378V17.121C12.8984 17.4213 13.1419 17.6647 13.4422 17.6647H35.7531C36.0534 17.6647 36.2969 17.9082 36.2969 18.2085V39.4392C36.2969 39.7395 36.5403 39.983 36.8407 39.983H42.6005C42.9009 39.983 43.1443 39.7395 43.1443 39.4392V37.521C43.1443 37.2207 42.9009 36.9772 42.6005 36.9772H39.8794C39.5791 36.9772 39.3357 36.7337 39.3357 36.4334V3.53084C39.3357 3.23052 39.5791 2.98706 39.8794 2.98706H42.514C42.8143 2.98706 43.0578 2.74361 43.0578 2.44329V0.543779C43.0578 0.243458 42.8143 0 42.514 0H36.7612C36.4609 0 36.2174 0.243457 36.2174 0.543778V13.8728C36.2174 14.1731 35.9739 14.4166 35.6736 14.4166H16.6439C16.3436 14.4166 16.1001 14.1731 16.1001 13.8728V3.53084C16.1001 3.23052 16.3436 2.98706 16.6439 2.98706H19.0833C19.3836 2.98706 19.6271 2.74361 19.6271 2.44329Z" fill="#1A1A1A"/>
<path d="M23.4745 2.44541V0.56502C23.4745 0.264699 23.718 0.0212413 24.0183 0.0212413H29.4205C29.7208 0.0212413 29.9643 0.264699 29.9643 0.565019V8.94728C29.9643 9.2476 29.7208 9.49106 29.4205 9.49106H27.5043C27.204 9.49106 26.9606 9.2476 26.9606 8.94728V3.53297C26.9606 3.23265 26.7171 2.98919 26.4168 2.98919H24.0183C23.718 2.98919 23.4745 2.74573 23.4745 2.44541Z" fill="#1A1A1A"/>
</g>
<defs>
<clipPath id="clip0_2204_1477">
<rect width="43" height="40" fill="white"/>
</clipPath>
</defs>
</svg>
