<svg width="102" height="34" viewBox="0 0 102 34" fill="none" xmlns="http://www.w3.org/2000/svg">
<path d="M1.54297 2.07827V0.487604C1.54297 0.232331 1.74991 0.0253906 2.00518 0.0253906H6.89251C7.14778 0.0253906 7.35472 0.232331 7.35472 0.487604V18.4991C7.35472 18.7544 7.56166 18.9613 7.81694 18.9613H26.7158C26.9711 18.9613 27.178 19.1682 27.178 19.4235V33.5357C27.178 33.7909 26.9711 33.9979 26.7158 33.9979H22.1033C21.848 33.9979 21.641 33.7909 21.641 33.5357V31.9135C21.641 31.6582 21.8476 31.4513 22.1028 31.4513H24.6209C24.6128 31.4513 24.6169 25.4195 24.6204 22.0003C24.6207 21.7448 24.4136 21.5396 24.1582 21.5396H7.81694C7.56166 21.5396 7.35472 21.7466 7.35472 22.0018V33.5357C7.35472 33.7909 7.14778 33.9979 6.89251 33.9979H2.01576C1.76049 33.9979 1.55355 33.7909 1.55355 33.5357V31.8923C1.55355 31.6371 1.76049 31.4301 2.01576 31.4301H4.29308C4.54835 31.4301 4.75529 31.2232 4.75529 30.9679V3.00269C4.75529 2.74742 4.54835 2.54048 4.29308 2.54048H2.00518C1.74991 2.54048 1.54297 2.33354 1.54297 2.07827Z" fill="#67D4F8"/>
<path d="M1.54297 2.07827V0.487604C1.54297 0.232331 1.74991 0.0253906 2.00518 0.0253906H6.89251C7.14778 0.0253906 7.35472 0.232331 7.35472 0.487604V18.4991C7.35472 18.7544 7.56166 18.9613 7.81694 18.9613H26.7158C26.9711 18.9613 27.178 19.1682 27.178 19.4235V33.5357C27.178 33.7909 26.9711 33.9979 26.7158 33.9979H22.1033C21.848 33.9979 21.641 33.7909 21.641 33.5357V31.9135C21.641 31.6582 21.8476 31.4513 22.1028 31.4513H24.6209C24.6128 31.4513 24.6169 25.4195 24.6204 22.0003C24.6207 21.7448 24.4136 21.5396 24.1582 21.5396H7.81694C7.56166 21.5396 7.35472 21.7466 7.35472 22.0018V33.5357C7.35472 33.7909 7.14778 33.9979 6.89251 33.9979H2.01576C1.76049 33.9979 1.55355 33.7909 1.55355 33.5357V31.8923C1.55355 31.6371 1.76049 31.4301 2.01576 31.4301H4.29308C4.54835 31.4301 4.75529 31.2232 4.75529 30.9679V3.00269C4.75529 2.74742 4.54835 2.54048 4.29308 2.54048H2.00518C1.74991 2.54048 1.54297 2.33354 1.54297 2.07827Z" fill="url(#paint0_linear_2185_9075)"/>
<path d="M12.6392 33.4979V26.3761C12.6392 26.1208 12.8462 25.9138 13.1015 25.9138H14.9486C15.2039 25.9138 15.4108 26.1208 15.4108 26.3761V30.9951C15.4108 31.2503 15.6178 31.4573 15.873 31.4573H17.9272C18.1825 31.4573 18.3894 31.6637 18.3894 31.9189V33.4981C18.3894 33.7534 18.1825 33.9601 17.9272 33.9601H13.1015C12.8462 33.9601 12.6392 33.7532 12.6392 33.4979Z" fill="#67D4F8"/>
<path d="M12.6392 33.4979V26.3761C12.6392 26.1208 12.8462 25.9138 13.1015 25.9138H14.9486C15.2039 25.9138 15.4108 26.1208 15.4108 26.3761V30.9951C15.4108 31.2503 15.6178 31.4573 15.873 31.4573H17.9272C18.1825 31.4573 18.3894 31.6637 18.3894 31.9189V33.4981C18.3894 33.7534 18.1825 33.9601 17.9272 33.9601H13.1015C12.8462 33.9601 12.6392 33.7532 12.6392 33.4979Z" fill="url(#paint1_linear_2185_9075)"/>
<path d="M18.2272 2.0768V0.462213C18.2272 0.20694 18.0203 0 17.765 0H12.97C12.7148 0 12.5078 0.206941 12.5078 0.462214V14.5529C12.5078 14.8081 12.7148 15.0151 12.97 15.0151H31.9343C32.1896 15.0151 32.3966 15.222 32.3966 15.4773V33.5234C32.3966 33.7787 32.6035 33.9856 32.8588 33.9856H37.7547C38.01 33.9856 38.2169 33.7787 38.2169 33.5234V31.8929C38.2169 31.6377 38.01 31.4307 37.7547 31.4307H35.4417C35.1865 31.4307 34.9795 31.2238 34.9795 30.9685V3.00123C34.9795 2.74595 35.1865 2.53901 35.4417 2.53901H37.6811C37.9364 2.53901 38.1433 2.33207 38.1433 2.0768V0.462213C38.1433 0.20694 37.9364 0 37.6811 0H32.7912C32.5359 0 32.329 0.20694 32.329 0.462213V11.7919C32.329 12.0472 32.1221 12.2541 31.8668 12.2541H15.6915C15.4362 12.2541 15.2292 12.0472 15.2292 11.7919V3.00123C15.2292 2.74595 15.4362 2.53901 15.6915 2.53901H17.765C18.0203 2.53901 18.2272 2.33207 18.2272 2.0768Z" fill="#67D4F8"/>
<path d="M18.2272 2.0768V0.462213C18.2272 0.20694 18.0203 0 17.765 0H12.97C12.7148 0 12.5078 0.206941 12.5078 0.462214V14.5529C12.5078 14.8081 12.7148 15.0151 12.97 15.0151H31.9343C32.1896 15.0151 32.3966 15.222 32.3966 15.4773V33.5234C32.3966 33.7787 32.6035 33.9856 32.8588 33.9856H37.7547C38.01 33.9856 38.2169 33.7787 38.2169 33.5234V31.8929C38.2169 31.6377 38.01 31.4307 37.7547 31.4307H35.4417C35.1865 31.4307 34.9795 31.2238 34.9795 30.9685V3.00123C34.9795 2.74595 35.1865 2.53901 35.4417 2.53901H37.6811C37.9364 2.53901 38.1433 2.33207 38.1433 2.0768V0.462213C38.1433 0.20694 37.9364 0 37.6811 0H32.7912C32.5359 0 32.329 0.20694 32.329 0.462213V11.7919C32.329 12.0472 32.1221 12.2541 31.8668 12.2541H15.6915C15.4362 12.2541 15.2292 12.0472 15.2292 11.7919V3.00123C15.2292 2.74595 15.4362 2.53901 15.6915 2.53901H17.765C18.0203 2.53901 18.2272 2.33207 18.2272 2.0768Z" fill="url(#paint2_linear_2185_9075)"/>
<path d="M21.4975 2.07861V0.480269C21.4975 0.224995 21.7044 0.0180552 21.9597 0.0180552H26.5516C26.8069 0.0180552 27.0138 0.224995 27.0138 0.480268V7.60521C27.0138 7.86048 26.8069 8.06742 26.5516 8.06742H24.9229C24.6676 8.06742 24.4607 7.86048 24.4607 7.60521V3.00303C24.4607 2.74776 24.2537 2.54082 23.9984 2.54082H21.9597C21.7044 2.54082 21.4975 2.33388 21.4975 2.07861Z" fill="#67D4F8"/>
<path d="M21.4975 2.07861V0.480269C21.4975 0.224995 21.7044 0.0180552 21.9597 0.0180552H26.5516C26.8069 0.0180552 27.0138 0.224995 27.0138 0.480268V7.60521C27.0138 7.86048 26.8069 8.06742 26.5516 8.06742H24.9229C24.6676 8.06742 24.4607 7.86048 24.4607 7.60521V3.00303C24.4607 2.74776 24.2537 2.54082 23.9984 2.54082H21.9597C21.7044 2.54082 21.4975 2.33388 21.4975 2.07861Z" fill="url(#paint3_linear_2185_9075)"/>
<path d="M45.0156 23.8902H46.3076V17.4302H53.9661V23.8902H55.2496V9.86523H53.9661V16.2912H46.3076V9.86523H45.0156V23.8902Z" fill="black"/>
<path d="M59.6372 13.4437C59.8639 13.4437 60.0566 13.3644 60.2152 13.2057C60.3739 13.0471 60.4532 12.8544 60.4532 12.6277C60.4532 12.4011 60.3739 12.2112 60.2152 12.0582C60.0566 11.8996 59.8639 11.8202 59.6372 11.8202C59.4106 11.8202 59.2179 11.8996 59.0592 12.0582C58.9062 12.2112 58.8297 12.4011 58.8297 12.6277C58.8297 12.8544 58.9062 13.0471 59.0592 13.2057C59.2179 13.3644 59.4106 13.4437 59.6372 13.4437ZM59.0167 23.8902H60.2577V15.1862H59.0167V23.8902Z" fill="black"/>
<path d="M63.5827 23.8902H64.8237V18.2207C64.8237 17.8127 64.9228 17.4359 65.1212 17.0902C65.3252 16.7389 65.617 16.4584 65.9967 16.2487C66.3763 16.0334 66.8325 15.9257 67.3652 15.9257C68.1245 15.9257 68.7138 16.1637 69.1332 16.6397C69.5582 17.1157 69.7707 17.8014 69.7707 18.6967V23.8902H71.0117V18.4587C71.0117 17.3367 70.7198 16.4669 70.1362 15.8492C69.5582 15.2259 68.7648 14.9142 67.7562 14.9142C67.0365 14.9142 66.4245 15.0559 65.9202 15.3392C65.4215 15.6226 65.056 15.9682 64.8237 16.3762V15.1862H63.5827V23.8902Z" fill="black"/>
<path d="M77.881 24.1622C78.6517 24.1622 79.3515 23.9752 79.9805 23.6012C80.6095 23.2272 81.111 22.7116 81.485 22.0542V23.8902H82.726V15.1862H81.485V16.9967C81.1563 16.3451 80.669 15.8351 80.023 15.4667C79.3827 15.0984 78.6687 14.9142 77.881 14.9142C77.0537 14.9142 76.3113 15.1154 75.654 15.5177C75.0023 15.9144 74.4867 16.4612 74.107 17.1582C73.733 17.8552 73.546 18.6457 73.546 19.5297C73.546 20.4251 73.7358 21.2212 74.1155 21.9182C74.5008 22.6152 75.0193 23.1649 75.671 23.5672C76.3227 23.9639 77.0593 24.1622 77.881 24.1622ZM78.187 23.0827C77.541 23.0827 76.963 22.9297 76.453 22.6237C75.9487 22.3177 75.552 21.8984 75.263 21.3657C74.974 20.8331 74.8295 20.2239 74.8295 19.5382C74.8295 18.8469 74.974 18.2349 75.263 17.7022C75.552 17.1696 75.9487 16.7531 76.453 16.4527C76.9573 16.1467 77.5353 15.9937 78.187 15.9937C78.8387 15.9937 79.4167 16.1467 79.921 16.4527C80.4253 16.7531 80.8192 17.1696 81.1025 17.7022C81.3915 18.2349 81.536 18.8469 81.536 19.5382C81.536 20.2239 81.3915 20.8359 81.1025 21.3742C80.8135 21.9069 80.4168 22.3262 79.9125 22.6322C79.4138 22.9326 78.8387 23.0827 78.187 23.0827Z" fill="black"/>
<path d="M88.0965 24.1622C88.6519 24.1622 89.1392 24.0319 89.5585 23.7712L89.244 22.7852C88.9947 22.9722 88.7 23.0657 88.3601 23.0657C87.6404 23.0657 87.2805 22.5699 87.2805 21.5782V16.1212H89.448V15.1862H87.2805V11.9307H86.0395V15.1862H85.1555V16.1212H86.0395V21.6462C86.0395 22.4452 86.218 23.0657 86.575 23.5077C86.9377 23.9441 87.4449 24.1622 88.0965 24.1622Z" fill="black"/>
<path d="M95.6121 24.1622C96.3828 24.1622 97.0826 23.9752 97.7116 23.6012C98.3406 23.2272 98.8421 22.7116 99.2161 22.0542V23.8902H100.457V15.1862H99.2161V16.9967C98.8875 16.3451 98.4001 15.8351 97.7541 15.4667C97.1138 15.0984 96.3998 14.9142 95.6121 14.9142C94.7848 14.9142 94.0425 15.1154 93.3851 15.5177C92.7335 15.9144 92.2178 16.4612 91.8381 17.1582C91.4641 17.8552 91.2771 18.6457 91.2771 19.5297C91.2771 20.4251 91.467 21.2212 91.8466 21.9182C92.232 22.6152 92.7505 23.1649 93.4021 23.5672C94.0538 23.9639 94.7905 24.1622 95.6121 24.1622ZM95.9181 23.0827C95.2721 23.0827 94.6941 22.9297 94.1841 22.6237C93.6798 22.3177 93.2831 21.8984 92.9941 21.3657C92.7051 20.8331 92.5606 20.2239 92.5606 19.5382C92.5606 18.8469 92.7051 18.2349 92.9941 17.7022C93.2831 17.1696 93.6798 16.7531 94.1841 16.4527C94.6885 16.1467 95.2665 15.9937 95.9181 15.9937C96.5698 15.9937 97.1478 16.1467 97.6521 16.4527C98.1565 16.7531 98.5503 17.1696 98.8336 17.7022C99.1226 18.2349 99.2671 18.8469 99.2671 19.5382C99.2671 20.2239 99.1226 20.8359 98.8336 21.3742C98.5446 21.9069 98.148 22.3262 97.6436 22.6322C97.145 22.9326 96.5698 23.0827 95.9181 23.0827Z" fill="black"/>
<defs>
<linearGradient id="paint0_linear_2185_9075" x1="-6.74159" y1="33.9979" x2="30.6307" y2="33.9979" gradientUnits="userSpaceOnUse">
<stop stop-color="#8E77F7"/>
<stop offset="1" stop-color="#8E77F7" stop-opacity="0.05"/>
</linearGradient>
<linearGradient id="paint1_linear_2185_9075" x1="-6.74159" y1="33.9979" x2="30.6307" y2="33.9979" gradientUnits="userSpaceOnUse">
<stop stop-color="#8E77F7"/>
<stop offset="1" stop-color="#8E77F7" stop-opacity="0.05"/>
</linearGradient>
<linearGradient id="paint2_linear_2185_9075" x1="4.19934" y1="33.9856" x2="41.6795" y2="33.9856" gradientUnits="userSpaceOnUse">
<stop stop-color="#8E77F7"/>
<stop offset="1" stop-color="#8E77F7" stop-opacity="0.05"/>
</linearGradient>
<linearGradient id="paint3_linear_2185_9075" x1="4.19934" y1="33.9856" x2="41.6795" y2="33.9856" gradientUnits="userSpaceOnUse">
<stop stop-color="#8E77F7"/>
<stop offset="1" stop-color="#8E77F7" stop-opacity="0.05"/>
</linearGradient>
</defs>
</svg>
